Start;Duration;Pitch;Velocity;Instrument
5.000000;0.998958;45;80;piano
5.000000;0.998958;48;80;piano
5.000000;0.998958;54;80;piano
6.000000;0.998958;46;75;piano
6.000000;0.998958;49;75;piano
6.000000;0.998958;55;75;piano
7.000000;0.998958;47;70;piano
7.000000;0.998958;51;70;piano
7.000000;0.998958;56;70;piano
8.000000;0.948958;56;64;piano
8.000000;0.948958;58;64;piano
8.000000;1.780208;51;64;piano
8.000000;1.780208;63;64;piano
9.000000;0.948958;55;80;piano
9.000000;0.948958;58;80;piano
9.875000;0.117708;51;66;piano
9.875000;0.117708;63;66;piano
10.021875;1.976042;56;64;piano
10.043750;1.954167;60;64;piano
10.065625;1.932292;63;64;piano
10.000000;1.998958;51;64;piano
17.000000;0.998958;48;80;piano
17.000000;0.998958;51;80;piano
17.000000;0.998958;57;80;piano
18.000000;0.998958;49;75;piano
18.000000;0.998958;52;75;piano
18.000000;0.998958;58;75;piano
19.000000;0.998958;50;70;piano
19.000000;0.998958;54;70;piano
19.000000;0.998958;59;70;piano
20.000000;0.948958;59;64;piano
20.000000;0.948958;61;64;piano
20.000000;1.780208;54;64;piano
20.000000;1.780208;66;64;piano
21.000000;0.948958;58;80;piano
21.000000;0.948958;61;80;piano
21.875000;0.117708;54;53;piano
21.875000;0.117708;66;53;piano
22.021875;1.976042;59;49;piano
22.043750;1.954167;63;49;piano
22.065625;1.932292;66;49;piano
22.000000;1.998958;54;49;piano
24.000000;0.063542;75;115;piano
24.000000;0.063542;87;115;piano
24.064583;0.933333;75;115;piano
24.064583;0.933333;87;115;piano
25.000000;0.063542;69;127;piano
25.000000;0.063542;81;127;piano
25.064583;0.933333;69;127;piano
25.064583;0.933333;81;127;piano
26.000000;0.060417;81;115;piano
26.000000;0.060417;93;115;piano
26.061458;0.092708;81;115;piano
26.061458;0.092708;93;115;piano
26.500000;0.060417;75;115;piano
26.500000;0.060417;87;115;piano
26.561458;0.092708;75;115;piano
26.561458;0.092708;87;115;piano
27.500000;0.123958;54;127;piano
27.500000;0.123958;57;127;piano
27.500000;0.123958;63;127;piano
28.000000;0.123958;54;127;piano
28.000000;0.123958;58;127;piano
28.000000;0.123958;63;127;piano
28.000000;0.123958;66;127;piano
30.000000;0.063542;75;127;piano
30.000000;0.063542;87;127;piano
30.064583;0.933333;75;127;piano
30.064583;0.933333;87;127;piano
31.000000;0.060417;70;127;piano
31.000000;0.060417;82;127;piano
31.061458;0.936458;70;127;piano
31.061458;0.936458;82;127;piano
32.000000;0.058333;82;115;piano
32.000000;0.058333;94;115;piano
32.059375;0.093750;82;115;piano
32.059375;0.093750;94;115;piano
32.500000;0.058333;75;115;piano
32.500000;0.058333;87;115;piano
32.559375;0.093750;75;115;piano
32.559375;0.093750;87;115;piano
33.500000;0.123958;54;127;piano
33.500000;0.123958;58;127;piano
33.500000;0.123958;63;127;piano
33.500000;0.123958;66;127;piano
34.000000;0.123958;60;127;piano
34.000000;0.123958;63;127;piano
34.000000;0.123958;66;127;piano
34.000000;0.123958;72;127;piano
34.500000;0.060417;84;115;piano
34.500000;0.060417;96;115;piano
34.561458;0.092708;84;115;piano
34.561458;0.092708;96;115;piano
35.000000;0.060417;75;117;piano
35.000000;0.060417;87;117;piano
35.061458;0.092708;75;117;piano
35.061458;0.092708;87;117;piano
36.000000;0.123958;60;127;piano
36.000000;0.123958;63;127;piano
36.000000;0.123958;67;127;piano
36.000000;0.123958;72;127;piano
36.500000;0.052083;84;126;piano
36.500000;0.052083;96;126;piano
36.553125;0.096875;84;126;piano
36.553125;0.096875;96;126;piano
37.000000;0.052083;75;127;piano
37.000000;0.052083;87;127;piano
37.053125;0.096875;75;127;piano
37.053125;0.096875;87;127;piano
37.875000;0.061458;87;127;piano
37.875000;0.061458;93;127;piano
37.875000;0.061458;99;127;piano
38.000000;0.436458;87;127;piano
38.000000;0.436458;93;127;piano
38.000000;0.436458;99;127;piano
38.875000;0.061458;81;127;piano
38.875000;0.061458;87;127;piano
38.875000;0.061458;93;127;piano
39.000000;0.436458;81;127;piano
39.000000;0.436458;87;127;piano
39.000000;0.436458;93;127;piano
39.875000;0.123958;75;127;piano
39.875000;0.123958;81;127;piano
39.875000;0.123958;87;127;piano
40.000000;0.248958;75;127;piano
40.000000;0.248958;81;127;piano
40.000000;0.248958;87;127;piano
40.375000;0.123958;69;127;piano
40.375000;0.123958;75;127;piano
40.375000;0.123958;81;127;piano
40.500000;0.248958;69;127;piano
40.500000;0.248958;75;127;piano
40.500000;0.248958;81;127;piano
40.875000;0.123958;66;127;piano
40.875000;0.123958;69;127;piano
40.875000;0.123958;75;127;piano
41.000000;0.248958;66;127;piano
41.000000;0.248958;69;127;piano
41.000000;0.248958;75;127;piano
41.375000;0.123958;60;127;piano
41.375000;0.123958;63;127;piano
41.375000;0.123958;69;127;piano
41.500000;0.248958;60;127;piano
41.500000;0.248958;63;127;piano
41.500000;0.248958;69;127;piano
41.875000;0.123958;54;127;piano
41.875000;0.123958;57;127;piano
41.875000;0.123958;63;127;piano
42.000000;0.248958;54;127;piano
42.000000;0.248958;57;127;piano
42.000000;0.248958;63;127;piano
42.375000;0.123958;48;127;piano
42.375000;0.123958;51;127;piano
42.375000;0.123958;57;127;piano
42.500000;0.998958;48;127;piano
42.500000;0.998958;51;127;piano
42.500000;0.998958;57;127;piano
43.500000;0.973958;47;127;piano
43.500000;0.973958;51;127;piano
43.500000;0.973958;57;127;piano
44.500000;0.498958;46;127;piano
44.500000;0.498958;50;127;piano
44.500000;0.498958;57;127;piano
45.000000;0.498958;54;102;piano
45.000000;1.473958;46;102;piano
45.000000;1.473958;50;102;piano
45.500000;0.973958;55;91;piano
49.750000;0.157292;45;49;piano
49.916667;0.196875;46;49;piano
50.125000;0.157292;49;50;piano
50.291667;0.157292;52;53;piano
50.458333;0.157292;53;56;piano
50.625000;0.157292;55;58;piano
50.791667;0.157292;57;61;piano
50.958333;0.157292;58;64;piano
51.125000;0.117708;49;49;piano
53.750000;0.157292;65;49;piano
53.916667;0.196875;64;49;piano
54.125000;0.157292;62;52;piano
54.291667;0.157292;59;56;piano
54.458333;0.157292;56;60;piano
54.625000;0.157292;53;64;piano
54.791667;0.157292;52;59;piano
54.958333;0.157292;50;54;piano
55.125000;0.117708;44;49;piano
58.125000;0.117708;50;49;piano
58.125000;0.117708;53;49;piano
58.250000;0.117708;50;49;piano
58.250000;0.117708;53;49;piano
58.625000;0.117708;50;49;piano
58.625000;0.117708;53;49;piano
58.750000;0.117708;50;49;piano
58.750000;0.117708;53;49;piano
59.125000;0.117708;50;49;piano
59.125000;0.117708;53;49;piano
59.250000;0.117708;50;49;piano
59.250000;0.117708;53;49;piano
59.625000;0.117708;50;49;piano
59.625000;0.117708;53;49;piano
59.750000;0.117708;50;49;piano
59.750000;0.117708;53;49;piano
60.125000;0.117708;50;48;piano
60.125000;0.117708;52;48;piano
60.250000;0.117708;50;47;piano
60.250000;0.117708;52;47;piano
60.625000;0.117708;50;44;piano
60.625000;0.117708;52;44;piano
60.750000;0.117708;50;43;piano
60.750000;0.117708;52;43;piano
61.125000;0.117708;50;40;piano
61.125000;0.117708;52;40;piano
61.250000;0.117708;50;39;piano
61.250000;0.117708;52;39;piano
61.625000;0.117708;50;36;piano
61.625000;0.117708;52;36;piano
61.750000;0.117708;50;35;piano
61.750000;0.117708;52;35;piano
62.125000;0.123958;51;39;piano
62.250000;0.123958;51;39;piano
62.625000;0.123958;51;39;piano
62.750000;0.123958;51;39;piano
64.125000;0.123958;46;39;piano
64.250000;0.123958;46;39;piano
64.625000;0.123958;46;39;piano
64.750000;0.123958;46;39;piano
66.125000;0.123958;49;39;piano
66.250000;0.123958;49;39;piano
67.125000;0.123958;45;39;piano
67.250000;0.123958;45;39;piano
68.000000;0.123958;57;58;piano
68.000000;0.123958;69;58;piano
68.125000;0.123958;57;58;piano
68.125000;0.123958;69;58;piano
68.500000;0.123958;58;60;piano
68.500000;0.123958;70;60;piano
68.625000;0.123958;58;60;piano
68.625000;0.123958;70;60;piano
69.000000;0.123958;57;61;piano
69.000000;0.123958;69;61;piano
69.125000;0.123958;57;61;piano
69.125000;0.123958;69;61;piano
69.500000;0.123958;56;62;piano
69.500000;0.123958;68;62;piano
69.625000;0.123958;56;62;piano
69.625000;0.123958;68;62;piano
70.000000;0.123958;55;63;piano
70.000000;0.123958;67;63;piano
70.125000;0.123958;55;64;piano
70.125000;0.123958;67;64;piano
70.500000;0.123958;54;66;piano
70.500000;0.123958;66;66;piano
70.625000;0.123958;54;66;piano
70.625000;0.123958;66;66;piano
71.000000;0.123958;53;67;piano
71.000000;0.123958;65;67;piano
71.125000;0.123958;53;67;piano
71.125000;0.123958;65;67;piano
71.500000;0.123958;52;68;piano
71.500000;0.123958;64;68;piano
71.625000;0.123958;52;68;piano
71.625000;0.123958;64;68;piano
72.000000;0.123958;51;69;piano
72.000000;0.123958;63;69;piano
72.125000;0.123958;51;70;piano
72.125000;0.123958;63;70;piano
72.500000;0.123958;50;72;piano
72.500000;0.123958;62;72;piano
72.625000;0.123958;50;72;piano
72.625000;0.123958;62;72;piano
73.000000;0.123958;49;73;piano
73.000000;0.123958;61;73;piano
73.125000;0.123958;49;73;piano
73.125000;0.123958;61;73;piano
73.500000;0.123958;50;74;piano
73.500000;0.123958;62;74;piano
73.625000;0.123958;50;74;piano
73.625000;0.123958;62;74;piano
74.000000;0.123958;51;75;piano
74.000000;0.123958;63;75;piano
74.125000;0.123958;51;76;piano
74.125000;0.123958;63;76;piano
74.500000;0.123958;52;76;piano
74.500000;0.123958;64;76;piano
74.625000;0.123958;52;78;piano
74.625000;0.123958;64;78;piano
75.000000;0.123958;53;82;piano
75.000000;0.123958;65;82;piano
75.125000;0.123958;53;85;piano
75.125000;0.123958;65;85;piano
75.500000;0.123958;54;90;piano
75.500000;0.123958;66;90;piano
75.625000;0.123958;54;92;piano
75.625000;0.123958;66;92;piano
76.000000;0.123958;55;97;piano
76.000000;0.123958;67;97;piano
76.125000;0.123958;55;98;piano
76.125000;0.123958;67;98;piano
76.500000;0.123958;56;104;piano
76.500000;0.123958;68;104;piano
76.625000;0.123958;56;105;piano
76.625000;0.123958;68;105;piano
77.000000;0.123958;57;111;piano
77.000000;0.123958;69;111;piano
77.125000;0.123958;57;115;piano
77.125000;0.123958;69;115;piano
77.500000;0.123958;62;105;piano
77.500000;0.123958;74;105;piano
77.625000;0.123958;62;100;piano
77.625000;0.123958;74;100;piano
78.000000;0.123958;60;96;piano
78.000000;0.123958;72;96;piano
78.125000;0.123958;60;96;piano
78.125000;0.123958;72;96;piano
78.500000;0.123958;59;96;piano
78.500000;0.123958;71;96;piano
78.625000;0.123958;59;96;piano
78.625000;0.123958;71;96;piano
79.000000;0.123958;58;96;piano
79.000000;0.123958;70;96;piano
79.125000;0.123958;58;96;piano
79.125000;0.123958;70;96;piano
79.500000;0.123958;57;96;piano
79.500000;0.123958;69;96;piano
79.625000;0.123958;57;96;piano
79.625000;0.123958;69;96;piano
80.000000;0.123958;56;96;piano
80.000000;0.123958;68;96;piano
80.125000;0.123958;56;96;piano
80.125000;0.123958;68;96;piano
80.500000;0.123958;55;96;piano
80.500000;0.123958;67;96;piano
80.625000;0.123958;55;96;piano
80.625000;0.123958;67;96;piano
81.000000;0.123958;54;96;piano
81.000000;0.123958;66;96;piano
81.125000;0.123958;54;96;piano
81.125000;0.123958;66;96;piano
81.500000;0.123958;53;96;piano
81.500000;0.123958;65;96;piano
81.625000;0.123958;53;96;piano
81.625000;0.123958;65;96;piano
82.000000;0.123958;52;96;piano
82.000000;0.123958;64;96;piano
82.125000;0.123958;52;96;piano
82.125000;0.123958;64;96;piano
82.500000;0.123958;51;96;piano
82.500000;0.123958;63;96;piano
82.625000;0.123958;51;96;piano
82.625000;0.123958;63;96;piano
83.000000;0.123958;52;96;piano
83.000000;0.123958;64;96;piano
83.125000;0.123958;52;96;piano
83.125000;0.123958;64;96;piano
83.500000;0.123958;53;96;piano
83.500000;0.123958;65;96;piano
83.625000;0.123958;53;96;piano
83.625000;0.123958;65;96;piano
84.000000;0.123958;54;96;piano
84.000000;0.123958;66;96;piano
84.125000;0.123958;54;96;piano
84.125000;0.123958;66;96;piano
84.500000;0.123958;55;96;piano
84.500000;0.123958;67;96;piano
84.625000;0.123958;55;96;piano
84.625000;0.123958;67;96;piano
85.000000;0.123958;56;96;piano
85.000000;0.123958;68;96;piano
85.125000;0.123958;56;96;piano
85.125000;0.123958;68;96;piano
85.500000;0.123958;57;96;piano
85.500000;0.123958;69;96;piano
85.625000;0.123958;57;96;piano
85.625000;0.123958;69;96;piano
86.000000;0.123958;58;96;piano
86.000000;0.123958;70;96;piano
86.125000;0.123958;58;96;piano
86.125000;0.123958;70;96;piano
86.500000;0.123958;57;96;piano
86.500000;0.123958;69;96;piano
86.625000;0.123958;57;96;piano
86.625000;0.123958;69;96;piano
87.000000;0.123958;70;120;piano
87.000000;0.123958;82;120;piano
87.125000;0.123958;70;96;piano
87.125000;0.123958;82;96;piano
87.500000;0.123958;69;96;piano
87.500000;0.123958;81;96;piano
87.625000;0.123958;69;96;piano
87.625000;0.123958;81;96;piano
88.000000;0.123958;64;96;piano
88.000000;0.123958;76;96;piano
88.125000;0.123958;64;96;piano
88.125000;0.123958;76;96;piano
88.500000;0.123958;65;96;piano
88.500000;0.123958;77;96;piano
88.625000;0.123958;65;96;piano
88.625000;0.123958;77;96;piano
89.000000;0.123958;61;120;piano
89.000000;0.123958;73;120;piano
89.125000;0.123958;61;96;piano
89.125000;0.123958;73;96;piano
89.500000;0.123958;62;96;piano
89.500000;0.123958;74;96;piano
89.625000;0.123958;62;96;piano
89.625000;0.123958;74;96;piano
90.000000;0.123958;56;96;piano
90.000000;0.123958;68;96;piano
90.125000;0.123958;56;96;piano
90.125000;0.123958;68;96;piano
90.500000;0.123958;57;106;piano
90.500000;0.123958;69;106;piano
90.625000;0.123958;57;110;piano
90.625000;0.123958;69;110;piano
91.000000;0.123958;70;127;piano
91.000000;0.123958;82;127;piano
91.125000;0.123958;70;115;piano
91.125000;0.123958;82;115;piano
91.500000;0.123958;69;115;piano
91.500000;0.123958;81;115;piano
91.625000;0.123958;69;115;piano
91.625000;0.123958;81;115;piano
92.000000;0.123958;64;115;piano
92.000000;0.123958;76;115;piano
92.125000;0.123958;64;115;piano
92.125000;0.123958;76;115;piano
92.500000;0.123958;65;115;piano
92.500000;0.123958;77;115;piano
92.625000;0.123958;65;115;piano
92.625000;0.123958;77;115;piano
93.000000;0.123958;61;127;piano
93.000000;0.123958;73;127;piano
93.125000;0.123958;61;115;piano
93.125000;0.123958;73;115;piano
93.500000;0.123958;62;115;piano
93.500000;0.123958;74;115;piano
93.625000;0.123958;62;115;piano
93.625000;0.123958;74;115;piano
94.000000;0.123958;56;115;piano
94.000000;0.123958;68;115;piano
94.125000;0.123958;56;115;piano
94.125000;0.123958;68;115;piano
94.500000;0.123958;57;115;piano
94.500000;0.123958;69;115;piano
94.625000;0.123958;57;115;piano
94.625000;0.123958;69;115;piano
95.000000;0.123958;58;115;piano
95.000000;0.123958;70;115;piano
95.125000;0.123958;58;115;piano
95.125000;0.123958;70;115;piano
95.500000;0.123958;57;115;piano
95.500000;0.123958;69;115;piano
95.625000;0.123958;57;115;piano
95.625000;0.123958;69;115;piano
96.000000;0.123958;61;115;piano
96.000000;0.123958;73;115;piano
96.125000;0.123958;61;115;piano
96.125000;0.123958;73;115;piano
96.500000;0.123958;62;115;piano
96.500000;0.123958;74;115;piano
96.625000;0.123958;62;115;piano
96.625000;0.123958;74;115;piano
97.000000;0.123958;63;115;piano
97.000000;0.123958;75;115;piano
97.125000;0.123958;63;110;piano
97.125000;0.123958;75;110;piano
97.500000;0.123958;62;96;piano
97.500000;0.123958;74;96;piano
97.625000;0.123958;62;96;piano
97.625000;0.123958;74;96;piano
98.000000;0.123958;67;120;piano
98.000000;0.123958;79;120;piano
98.125000;0.123958;67;96;piano
98.125000;0.123958;79;96;piano
98.500000;0.123958;65;99;piano
98.500000;0.123958;77;99;piano
98.625000;0.123958;65;100;piano
98.625000;0.123958;77;100;piano
99.000000;0.123958;74;127;piano
99.000000;0.123958;86;127;piano
99.125000;0.123958;74;105;piano
99.125000;0.123958;86;105;piano
99.500000;0.123958;62;109;piano
99.500000;0.123958;74;109;piano
99.625000;0.123958;62;110;piano
99.625000;0.123958;74;110;piano
100.000000;0.123958;74;127;piano
100.000000;0.123958;86;127;piano
100.125000;0.123958;74;115;piano
100.125000;0.123958;86;115;piano
100.500000;0.123958;62;118;piano
100.500000;0.123958;74;118;piano
100.625000;0.123958;62;120;piano
100.625000;0.123958;74;120;piano
101.000000;0.123958;77;123;piano
101.000000;0.123958;89;123;piano
101.125000;0.123958;77;124;piano
101.125000;0.123958;89;124;piano
101.500000;0.123958;77;127;piano
101.500000;0.123958;89;127;piano
101.625000;0.123958;76;127;piano
101.625000;0.123958;88;127;piano
102.000000;0.123958;74;127;piano
102.000000;0.123958;86;127;piano
102.125000;0.078125;81;112;piano
102.208333;0.078125;93;112;piano
102.291667;0.078125;82;112;piano
102.375000;0.078125;94;112;piano
102.458333;0.078125;81;112;piano
102.541667;0.078125;93;112;piano
102.625000;0.078125;82;112;piano
102.708333;0.078125;94;112;piano
102.791667;0.078125;81;112;piano
102.875000;0.078125;93;112;piano
102.958333;0.078125;82;112;piano
103.041667;0.078125;94;112;piano
103.125000;0.078125;81;112;piano
103.125000;0.078125;85;112;piano
103.125000;0.078125;88;112;piano
103.208333;0.078125;93;112;piano
103.291667;0.078125;82;112;piano
103.375000;0.078125;94;112;piano
103.458333;0.078125;81;112;piano
103.541667;0.078125;93;112;piano
103.625000;0.078125;82;112;piano
103.708333;0.078125;94;112;piano
103.791667;0.078125;81;112;piano
103.875000;0.078125;93;112;piano
103.958333;0.078125;82;112;piano
104.041667;0.078125;94;112;piano
104.125000;0.054167;81;127;piano
104.125000;0.054167;86;127;piano
104.125000;0.054167;89;127;piano
104.208333;0.078125;93;111;piano
104.291667;0.078125;82;110;piano
104.375000;0.078125;94;108;piano
104.458333;0.078125;81;107;piano
104.541667;0.078125;93;106;piano
104.625000;0.078125;82;104;piano
104.708333;0.078125;94;103;piano
104.791667;0.078125;81;102;piano
104.875000;0.078125;93;100;piano
104.958333;0.078125;82;99;piano
105.041667;0.078125;94;98;piano
105.125000;0.054167;81;115;piano
105.125000;0.054167;85;115;piano
105.125000;0.054167;91;115;piano
105.208333;0.078125;93;95;piano
105.291667;0.078125;82;94;piano
105.375000;0.078125;94;92;piano
105.458333;0.078125;81;91;piano
105.541667;0.078125;93;90;piano
105.625000;0.078125;82;88;piano
105.708333;0.078125;94;87;piano
105.791667;0.078125;81;86;piano
105.875000;0.078125;93;84;piano
106.041667;0.078125;69;82;piano
106.041667;0.078125;81;82;piano
106.125000;0.117708;69;80;piano
106.125000;0.117708;74;80;piano
106.125000;0.117708;77;80;piano
106.125000;0.117708;81;80;piano
106.500000;0.123958;70;96;piano
106.500000;0.123958;74;96;piano
106.500000;0.123958;77;96;piano
106.500000;0.123958;82;96;piano
106.625000;0.123958;70;96;piano
106.625000;0.123958;74;96;piano
106.625000;0.123958;77;96;piano
106.625000;0.123958;82;96;piano
107.000000;0.123958;69;97;piano
107.000000;0.123958;74;97;piano
107.000000;0.123958;77;97;piano
107.000000;0.123958;81;97;piano
107.125000;0.123958;69;97;piano
107.125000;0.123958;74;97;piano
107.125000;0.123958;77;97;piano
107.125000;0.123958;81;97;piano
107.500000;0.123958;68;99;piano
107.500000;0.123958;74;99;piano
107.500000;0.123958;77;99;piano
107.500000;0.123958;80;99;piano
107.625000;0.123958;68;99;piano
107.625000;0.123958;74;99;piano
107.625000;0.123958;77;99;piano
107.625000;0.123958;80;99;piano
108.000000;0.123958;67;100;piano
108.000000;0.123958;69;100;piano
108.000000;0.123958;74;100;piano
108.000000;0.123958;79;100;piano
108.125000;0.123958;67;102;piano
108.125000;0.123958;69;102;piano
108.125000;0.123958;74;102;piano
108.125000;0.123958;79;102;piano
108.500000;0.123958;66;103;piano
108.500000;0.123958;69;103;piano
108.500000;0.123958;74;103;piano
108.500000;0.123958;78;103;piano
108.625000;0.123958;66;103;piano
108.625000;0.123958;69;103;piano
108.625000;0.123958;74;103;piano
108.625000;0.123958;78;103;piano
109.000000;0.123958;65;104;piano
109.000000;0.123958;69;104;piano
109.000000;0.123958;74;104;piano
109.000000;0.123958;77;104;piano
109.125000;0.123958;65;105;piano
109.125000;0.123958;69;105;piano
109.125000;0.123958;74;105;piano
109.125000;0.123958;77;105;piano
109.500000;0.123958;64;106;piano
109.500000;0.123958;69;106;piano
109.500000;0.123958;76;106;piano
109.625000;0.123958;64;106;piano
109.625000;0.123958;69;106;piano
109.625000;0.123958;76;106;piano
110.000000;0.123958;63;108;piano
110.000000;0.123958;69;108;piano
110.000000;0.123958;75;108;piano
110.125000;0.123958;63;109;piano
110.125000;0.123958;69;109;piano
110.125000;0.123958;75;109;piano
110.500000;0.123958;62;110;piano
110.500000;0.123958;69;110;piano
110.500000;0.123958;74;110;piano
110.625000;0.123958;62;110;piano
110.625000;0.123958;69;110;piano
110.625000;0.123958;74;110;piano
111.000000;0.123958;61;112;piano
111.000000;0.123958;69;112;piano
111.000000;0.123958;73;112;piano
111.125000;0.123958;61;112;piano
111.125000;0.123958;69;112;piano
111.125000;0.123958;73;112;piano
111.500000;0.123958;62;114;piano
111.500000;0.123958;69;114;piano
111.500000;0.123958;74;114;piano
111.625000;0.123958;62;115;piano
111.625000;0.123958;69;115;piano
111.625000;0.123958;74;115;piano
112.000000;0.123958;63;115;piano
112.000000;0.123958;69;115;piano
112.000000;0.123958;75;115;piano
112.125000;0.123958;63;115;piano
112.125000;0.123958;69;115;piano
112.125000;0.123958;75;115;piano
112.500000;0.123958;64;117;piano
112.500000;0.123958;69;117;piano
112.500000;0.123958;76;117;piano
112.625000;0.123958;64;117;piano
112.625000;0.123958;69;117;piano
112.625000;0.123958;76;117;piano
113.000000;0.123958;65;120;piano
113.000000;0.123958;69;120;piano
113.000000;0.123958;77;120;piano
113.125000;0.123958;65;121;piano
113.125000;0.123958;69;121;piano
113.125000;0.123958;77;121;piano
113.500000;0.123958;66;122;piano
113.500000;0.123958;69;122;piano
113.500000;0.123958;74;122;piano
113.500000;0.123958;78;122;piano
113.625000;0.123958;66;123;piano
113.625000;0.123958;69;123;piano
113.625000;0.123958;74;123;piano
113.625000;0.123958;78;123;piano
114.000000;0.123958;67;126;piano
114.000000;0.123958;74;126;piano
114.000000;0.123958;79;126;piano
114.125000;0.123958;67;126;piano
114.125000;0.123958;74;126;piano
114.125000;0.123958;79;126;piano
114.500000;0.123958;68;127;piano
114.500000;0.123958;74;127;piano
114.500000;0.123958;80;127;piano
114.625000;0.123958;68;127;piano
114.625000;0.123958;74;127;piano
114.625000;0.123958;80;127;piano
115.000000;0.123958;69;127;piano
115.000000;0.123958;74;127;piano
115.000000;0.123958;77;127;piano
115.000000;0.123958;81;127;piano
115.125000;0.123958;69;127;piano
115.125000;0.123958;74;127;piano
115.125000;0.123958;77;127;piano
115.125000;0.123958;81;127;piano
115.500000;0.082292;74;127;piano
115.500000;0.082292;77;127;piano
115.500000;0.082292;81;127;piano
115.500000;0.082292;86;127;piano
115.625000;0.082292;74;127;piano
115.625000;0.082292;77;127;piano
115.625000;0.082292;81;127;piano
115.625000;0.082292;86;127;piano
116.000000;0.123958;72;127;piano
116.000000;0.123958;84;127;piano
116.125000;0.123958;72;127;piano
116.125000;0.123958;76;127;piano
116.125000;0.123958;79;127;piano
116.125000;0.123958;84;127;piano
116.500000;0.123958;71;127;piano
116.500000;0.123958;76;127;piano
116.500000;0.123958;79;127;piano
116.500000;0.123958;83;127;piano
116.625000;0.123958;71;127;piano
116.625000;0.123958;76;127;piano
116.625000;0.123958;79;127;piano
116.625000;0.123958;83;127;piano
117.000000;0.123958;70;127;piano
117.000000;0.123958;76;127;piano
117.000000;0.123958;79;127;piano
117.000000;0.123958;82;127;piano
117.125000;0.123958;70;127;piano
117.125000;0.123958;76;127;piano
117.125000;0.123958;79;127;piano
117.125000;0.123958;82;127;piano
117.500000;0.123958;69;127;piano
117.500000;0.123958;76;127;piano
117.500000;0.123958;81;127;piano
117.625000;0.123958;69;127;piano
117.625000;0.123958;76;127;piano
117.625000;0.123958;81;127;piano
118.000000;0.123958;68;127;piano
118.000000;0.123958;76;127;piano
118.000000;0.123958;80;127;piano
118.125000;0.123958;68;127;piano
118.125000;0.123958;76;127;piano
118.125000;0.123958;80;127;piano
118.500000;0.123958;67;127;piano
118.500000;0.123958;70;127;piano
118.500000;0.123958;76;127;piano
118.500000;0.123958;79;127;piano
118.625000;0.123958;67;127;piano
118.625000;0.123958;70;127;piano
118.625000;0.123958;76;127;piano
118.625000;0.123958;79;127;piano
119.000000;0.123958;66;127;piano
119.000000;0.123958;70;127;piano
119.000000;0.123958;78;127;piano
119.125000;0.123958;66;127;piano
119.125000;0.123958;70;127;piano
119.125000;0.123958;78;127;piano
119.500000;0.123958;65;127;piano
119.500000;0.123958;70;127;piano
119.500000;0.123958;77;127;piano
119.625000;0.123958;65;127;piano
119.625000;0.123958;70;127;piano
119.625000;0.123958;77;127;piano
120.000000;0.123958;64;127;piano
120.000000;0.123958;70;127;piano
120.000000;0.123958;76;127;piano
120.125000;0.123958;64;127;piano
120.125000;0.123958;70;127;piano
120.125000;0.123958;76;127;piano
120.500000;0.123958;63;127;piano
120.500000;0.123958;70;127;piano
120.500000;0.123958;75;127;piano
120.625000;0.123958;63;127;piano
120.625000;0.123958;70;127;piano
120.625000;0.123958;75;127;piano
121.000000;0.123958;64;127;piano
121.000000;0.123958;70;127;piano
121.000000;0.123958;76;127;piano
121.125000;0.123958;64;127;piano
121.125000;0.123958;70;127;piano
121.125000;0.123958;76;127;piano
121.500000;0.123958;65;127;piano
121.500000;0.123958;70;127;piano
121.500000;0.123958;77;127;piano
121.625000;0.123958;65;127;piano
121.625000;0.123958;70;127;piano
121.625000;0.123958;77;127;piano
122.000000;0.123958;66;127;piano
122.000000;0.123958;70;127;piano
122.000000;0.123958;78;127;piano
122.125000;0.123958;66;127;piano
122.125000;0.123958;70;127;piano
122.125000;0.123958;78;127;piano
122.500000;0.123958;67;127;piano
122.500000;0.123958;70;127;piano
122.500000;0.123958;76;127;piano
122.500000;0.123958;79;127;piano
122.625000;0.123958;67;127;piano
122.625000;0.123958;70;127;piano
122.625000;0.123958;76;127;piano
122.625000;0.123958;79;127;piano
123.000000;0.123958;68;127;piano
123.000000;0.123958;76;127;piano
123.000000;0.123958;80;127;piano
123.125000;0.123958;68;127;piano
123.125000;0.123958;76;127;piano
123.125000;0.123958;80;127;piano
123.500000;0.123958;69;127;piano
123.500000;0.123958;76;127;piano
123.500000;0.123958;81;127;piano
123.625000;0.123958;69;127;piano
123.625000;0.123958;76;127;piano
123.625000;0.123958;81;127;piano
124.000000;0.123958;70;127;piano
124.000000;0.123958;76;127;piano
124.000000;0.123958;79;127;piano
124.000000;0.123958;82;127;piano
124.125000;0.123958;70;127;piano
124.125000;0.123958;76;127;piano
124.125000;0.123958;79;127;piano
124.125000;0.123958;82;127;piano
124.500000;0.123958;69;127;piano
124.500000;0.123958;76;127;piano
124.500000;0.123958;79;127;piano
124.500000;0.123958;81;127;piano
124.625000;0.123958;69;127;piano
124.625000;0.123958;76;127;piano
124.625000;0.123958;79;127;piano
124.625000;0.123958;81;127;piano
125.000000;0.123958;82;127;piano
125.000000;0.123958;88;127;piano
125.000000;0.123958;91;127;piano
125.000000;0.123958;94;127;piano
125.125000;0.123958;82;127;piano
125.125000;0.123958;88;127;piano
125.125000;0.123958;91;127;piano
125.125000;0.123958;94;127;piano
125.500000;0.123958;81;127;piano
125.500000;0.123958;88;127;piano
125.500000;0.123958;91;127;piano
125.500000;0.123958;93;127;piano
125.625000;0.123958;81;127;piano
125.625000;0.123958;88;127;piano
125.625000;0.123958;91;127;piano
125.625000;0.123958;93;127;piano
126.000000;0.123958;76;127;piano
126.000000;0.123958;88;127;piano
126.125000;0.123958;76;127;piano
126.125000;0.123958;80;127;piano
126.125000;0.123958;83;127;piano
126.125000;0.123958;88;127;piano
126.500000;0.123958;77;127;piano
126.500000;0.123958;80;127;piano
126.500000;0.123958;83;127;piano
126.500000;0.123958;89;127;piano
126.625000;0.123958;77;127;piano
126.625000;0.123958;80;127;piano
126.625000;0.123958;83;127;piano
126.625000;0.123958;89;127;piano
127.000000;0.123958;73;127;piano
127.000000;0.123958;80;127;piano
127.000000;0.123958;83;127;piano
127.000000;0.123958;85;127;piano
127.125000;0.123958;73;127;piano
127.125000;0.123958;80;127;piano
127.125000;0.123958;83;127;piano
127.125000;0.123958;85;127;piano
127.500000;0.123958;74;127;piano
127.500000;0.123958;80;127;piano
127.500000;0.123958;83;127;piano
127.500000;0.123958;86;127;piano
127.625000;0.123958;74;127;piano
127.625000;0.123958;80;127;piano
127.625000;0.123958;83;127;piano
127.625000;0.123958;86;127;piano
128.000000;0.123958;68;127;piano
128.000000;0.123958;77;127;piano
128.000000;0.123958;80;127;piano
128.125000;0.123958;70;127;piano
128.125000;0.123958;76;127;piano
128.125000;0.123958;79;127;piano
128.125000;0.123958;82;127;piano
128.500000;0.123958;69;127;piano
128.500000;0.123958;76;127;piano
128.500000;0.123958;79;127;piano
128.500000;0.123958;81;127;piano
128.625000;0.123958;69;127;piano
128.625000;0.123958;76;127;piano
128.625000;0.123958;79;127;piano
128.625000;0.123958;81;127;piano
129.000000;0.123958;82;127;piano
129.000000;0.123958;88;127;piano
129.000000;0.123958;91;127;piano
129.000000;0.123958;94;127;piano
129.125000;0.123958;82;127;piano
129.125000;0.123958;88;127;piano
129.125000;0.123958;91;127;piano
129.125000;0.123958;94;127;piano
129.500000;0.123958;81;127;piano
129.500000;0.123958;88;127;piano
129.500000;0.123958;91;127;piano
129.500000;0.123958;93;127;piano
129.625000;0.123958;81;127;piano
129.625000;0.123958;88;127;piano
129.625000;0.123958;91;127;piano
129.625000;0.123958;93;127;piano
130.000000;0.123958;76;127;piano
130.000000;0.123958;88;127;piano
130.125000;0.123958;76;127;piano
130.125000;0.123958;80;127;piano
130.125000;0.123958;83;127;piano
130.125000;0.123958;88;127;piano
130.500000;0.123958;77;127;piano
130.500000;0.123958;89;127;piano
130.625000;0.123958;77;127;piano
130.625000;0.123958;80;127;piano
130.625000;0.123958;83;127;piano
130.625000;0.123958;89;127;piano
131.000000;0.123958;64;127;piano
131.000000;0.123958;76;127;piano
131.125000;0.123958;64;127;piano
131.125000;0.123958;68;127;piano
131.125000;0.123958;71;127;piano
131.125000;0.123958;76;127;piano
131.500000;0.123958;65;127;piano
131.500000;0.123958;77;127;piano
131.625000;0.123958;65;127;piano
131.625000;0.123958;68;127;piano
131.625000;0.123958;73;127;piano
131.625000;0.123958;77;127;piano
132.000000;0.123958;77;127;piano
132.000000;0.123958;89;127;piano
132.125000;0.123958;77;124;piano
132.125000;0.123958;85;124;piano
132.125000;0.123958;89;124;piano
132.500000;0.123958;78;115;piano
132.500000;0.123958;85;115;piano
132.500000;0.123958;90;115;piano
132.625000;0.123958;78;115;piano
132.625000;0.123958;85;115;piano
132.625000;0.123958;90;115;piano
133.000000;0.123958;66;115;piano
133.000000;0.123958;73;115;piano
133.000000;0.123958;78;115;piano
133.125000;0.123958;67;115;piano
133.125000;0.123958;73;115;piano
133.125000;0.123958;79;115;piano
133.500000;0.123958;68;115;piano
133.500000;0.123958;73;115;piano
133.500000;0.123958;80;115;piano
133.625000;0.123958;68;115;piano
133.625000;0.123958;73;115;piano
133.625000;0.123958;80;115;piano
134.000000;0.123958;80;115;piano
134.000000;0.123958;85;115;piano
134.000000;0.123958;92;115;piano
134.125000;0.123958;80;115;piano
134.125000;0.123958;85;115;piano
134.125000;0.123958;92;115;piano
134.500000;0.123958;81;115;piano
134.500000;0.123958;85;115;piano
134.500000;0.123958;93;115;piano
134.625000;0.123958;81;115;piano
134.625000;0.123958;85;115;piano
134.625000;0.123958;93;115;piano
135.000000;0.123958;69;115;piano
135.000000;0.123958;73;115;piano
135.000000;0.123958;81;115;piano
135.125000;0.123958;69;124;piano
135.125000;0.123958;73;124;piano
135.125000;0.123958;81;124;piano
135.500000;0.123958;70;127;piano
135.500000;0.123958;73;127;piano
135.500000;0.123958;82;127;piano
135.625000;0.123958;70;127;piano
135.625000;0.123958;73;127;piano
135.625000;0.123958;82;127;piano
136.000000;0.123958;82;127;piano
136.000000;0.123958;90;127;piano
136.000000;0.123958;94;127;piano
136.125000;0.123958;82;127;piano
136.125000;0.123958;90;127;piano
136.125000;0.123958;94;127;piano
136.500000;0.123958;83;127;piano
136.500000;0.123958;90;127;piano
136.500000;0.123958;95;127;piano
136.625000;0.123958;83;127;piano
136.625000;0.123958;90;127;piano
136.625000;0.123958;95;127;piano
137.000000;0.123958;83;127;piano
137.000000;0.123958;90;127;piano
137.000000;0.123958;95;127;piano
137.125000;0.123958;83;127;piano
137.125000;0.123958;90;127;piano
137.125000;0.123958;95;127;piano
137.500000;0.123958;83;127;piano
137.500000;0.123958;90;127;piano
137.500000;0.123958;95;127;piano
137.625000;0.123958;83;127;piano
137.625000;0.123958;90;127;piano
137.625000;0.123958;95;127;piano
138.000000;0.123958;81;127;piano
138.000000;0.123958;90;127;piano
138.000000;0.123958;93;127;piano
138.125000;0.123958;81;127;piano
138.125000;0.123958;90;127;piano
138.125000;0.123958;93;127;piano
138.500000;0.123958;80;127;piano
138.500000;0.123958;90;127;piano
138.500000;0.123958;92;127;piano
138.625000;0.123958;80;127;piano
138.625000;0.123958;90;127;piano
138.625000;0.123958;92;127;piano
139.000000;0.123958;86;127;piano
139.000000;0.123958;90;127;piano
139.000000;0.123958;98;127;piano
139.125000;0.123958;86;127;piano
139.125000;0.123958;90;127;piano
139.125000;0.123958;98;127;piano
139.500000;0.123958;80;127;piano
139.500000;0.123958;90;127;piano
139.500000;0.123958;92;127;piano
139.625000;0.123958;80;127;piano
139.625000;0.123958;90;127;piano
139.625000;0.123958;92;127;piano
140.000000;0.123958;81;127;piano
140.000000;0.123958;90;127;piano
140.000000;0.123958;93;127;piano
140.125000;0.123958;81;127;piano
140.125000;0.123958;90;127;piano
140.125000;0.123958;93;127;piano
140.500000;0.123958;80;127;piano
140.500000;0.123958;90;127;piano
140.500000;0.123958;92;127;piano
140.625000;0.123958;80;127;piano
140.625000;0.123958;90;127;piano
140.625000;0.123958;92;127;piano
141.000000;0.123958;90;127;piano
141.000000;0.123958;92;127;piano
141.000000;0.123958;102;127;piano
141.125000;0.123958;90;127;piano
141.125000;0.123958;92;127;piano
141.125000;0.123958;102;127;piano
141.500000;0.123958;80;127;piano
141.500000;0.123958;90;127;piano
141.500000;0.123958;92;127;piano
141.625000;0.123958;80;127;piano
141.625000;0.123958;90;127;piano
141.625000;0.123958;92;127;piano
142.000000;0.123958;81;127;piano
142.000000;0.123958;90;127;piano
142.000000;0.123958;93;127;piano
142.125000;0.123958;81;127;piano
142.125000;0.123958;90;127;piano
142.125000;0.123958;93;127;piano
142.500000;0.123958;80;127;piano
142.500000;0.123958;90;127;piano
142.500000;0.123958;92;127;piano
142.625000;0.123958;80;127;piano
142.625000;0.123958;90;127;piano
142.625000;0.123958;92;127;piano
143.000000;0.123958;92;127;piano
143.000000;0.123958;102;127;piano
143.000000;0.123958;104;127;piano
143.125000;0.123958;92;127;piano
143.125000;0.123958;102;127;piano
143.125000;0.123958;104;127;piano
143.500000;0.123958;80;127;piano
143.500000;0.123958;90;127;piano
143.500000;0.123958;92;127;piano
143.625000;0.123958;80;127;piano
143.625000;0.123958;90;127;piano
143.625000;0.123958;92;127;piano
144.000000;0.123958;81;127;piano
144.000000;0.123958;93;127;piano
144.125000;0.123958;81;127;piano
144.125000;0.123958;93;127;piano
144.500000;0.123958;75;127;piano
144.500000;0.123958;87;127;piano
144.625000;0.123958;75;127;piano
144.625000;0.123958;87;127;piano
145.000000;0.123958;69;121;piano
145.000000;0.123958;81;121;piano
145.125000;0.123958;69;127;piano
145.125000;0.123958;81;127;piano
145.500000;0.123958;63;112;piano
145.500000;0.123958;75;112;piano
145.625000;0.123958;63;110;piano
145.625000;0.123958;75;110;piano
146.000000;0.123958;57;104;piano
146.000000;0.123958;69;104;piano
146.125000;0.123958;57;103;piano
146.125000;0.123958;69;103;piano
146.500000;0.123958;51;96;piano
146.500000;0.123958;63;96;piano
146.625000;0.123958;51;96;piano
146.625000;0.123958;63;96;piano
147.000000;0.123958;42;96;piano
147.000000;0.123958;45;96;piano
147.000000;0.123958;51;96;piano
147.125000;0.123958;42;96;piano
147.125000;0.123958;45;96;piano
147.125000;0.123958;51;96;piano
147.500000;0.123958;43;96;piano
147.500000;0.123958;46;96;piano
147.500000;0.123958;52;96;piano
147.625000;0.123958;43;96;piano
147.625000;0.123958;46;96;piano
147.625000;0.123958;52;96;piano
148.000000;0.123958;44;96;piano
148.000000;0.123958;48;96;piano
148.000000;0.123958;53;96;piano
148.125000;0.123958;44;98;piano
148.125000;0.123958;48;98;piano
148.125000;0.123958;53;98;piano
148.500000;0.123958;45;105;piano
148.500000;0.123958;51;105;piano
148.500000;0.123958;54;105;piano
148.625000;0.123958;45;108;piano
148.625000;0.123958;51;108;piano
148.625000;0.123958;54;108;piano
149.000000;0.123958;46;115;piano
149.000000;0.123958;52;115;piano
149.000000;0.123958;55;115;piano
149.125000;0.123958;46;117;piano
149.125000;0.123958;52;117;piano
149.125000;0.123958;55;117;piano
149.500000;0.123958;47;124;piano
149.500000;0.123958;53;124;piano
149.500000;0.123958;56;124;piano
149.625000;0.123958;47;127;piano
149.625000;0.123958;53;127;piano
149.625000;0.123958;56;127;piano
150.000000;0.123958;48;127;piano
150.000000;0.123958;51;127;piano
150.000000;0.123958;54;127;piano
150.000000;0.123958;57;127;piano
150.125000;0.123958;48;127;piano
150.125000;0.123958;51;127;piano
150.125000;0.123958;54;127;piano
150.125000;0.123958;57;127;piano
150.500000;0.123958;57;127;piano
150.625000;0.123958;56;127;piano
151.000000;0.123958;54;127;piano
151.125000;0.082292;61;127;piano
151.208333;0.078125;73;112;piano
151.291667;0.078125;60;112;piano
151.375000;0.078125;72;112;piano
151.458333;0.078125;61;112;piano
151.541667;0.078125;73;112;piano
151.625000;0.078125;60;112;piano
151.708333;0.078125;72;112;piano
151.791667;0.078125;61;112;piano
151.875000;0.078125;73;113;piano
151.958333;0.078125;60;114;piano
152.041667;0.078125;72;115;piano
152.125000;0.078125;61;116;piano
152.125000;0.078125;66;116;piano
152.208333;0.078125;73;117;piano
152.291667;0.078125;60;118;piano
152.375000;0.078125;72;119;piano
152.458333;0.078125;61;120;piano
152.541667;0.078125;73;121;piano
152.625000;0.078125;60;122;piano
152.708333;0.078125;72;123;piano
152.791667;0.078125;61;124;piano
152.875000;0.078125;73;125;piano
152.958333;0.078125;60;126;piano
153.041667;0.078125;72;126;piano
153.125000;0.078125;61;112;piano
153.125000;0.078125;67;112;piano
153.208333;0.078125;73;112;piano
153.291667;0.078125;60;112;piano
153.375000;0.078125;72;112;piano
153.458333;0.078125;61;112;piano
153.541667;0.078125;73;112;piano
153.625000;0.078125;60;112;piano
153.708333;0.078125;72;112;piano
153.791667;0.078125;61;112;piano
153.875000;0.078125;73;113;piano
153.958333;0.078125;60;114;piano
154.041667;0.078125;72;115;piano
154.125000;0.078125;61;116;piano
154.125000;0.078125;68;116;piano
154.208333;0.078125;73;117;piano
154.291667;0.078125;60;118;piano
154.375000;0.078125;72;119;piano
154.458333;0.078125;61;120;piano
154.541667;0.078125;73;121;piano
154.625000;0.078125;60;122;piano
154.708333;0.078125;72;123;piano
154.791667;0.078125;61;124;piano
154.875000;0.078125;73;125;piano
154.958333;0.078125;60;126;piano
155.041667;0.078125;72;126;piano
155.125000;0.078125;61;112;piano
155.125000;0.078125;68;112;piano
155.208333;0.078125;73;112;piano
155.291667;0.078125;60;112;piano
155.375000;0.078125;72;112;piano
155.458333;0.078125;61;112;piano
155.541667;0.078125;73;112;piano
155.625000;0.078125;60;112;piano
155.625000;0.078125;69;112;piano
155.708333;0.078125;72;112;piano
155.791667;0.078125;61;112;piano
155.875000;0.078125;73;112;piano
155.958333;0.078125;62;112;piano
156.041667;0.078125;74;112;piano
156.125000;0.078125;63;112;piano
156.125000;0.078125;73;112;piano
156.208333;0.082292;75;127;piano
156.291667;0.078125;64;112;piano
156.291667;0.078125;73;112;piano
156.375000;0.082292;76;127;piano
156.458333;0.078125;65;112;piano
156.458333;0.078125;73;112;piano
156.541667;0.082292;77;127;piano
156.625000;0.078125;66;112;piano
156.625000;0.078125;73;112;piano
156.708333;0.082292;78;127;piano
156.791667;0.078125;68;112;piano
156.791667;0.078125;73;112;piano
156.875000;0.082292;80;127;piano
156.958333;0.078125;69;112;piano
156.958333;0.078125;73;112;piano
157.041667;0.082292;81;127;piano
157.125000;0.082292;73;127;piano
157.125000;0.082292;85;127;piano
157.791667;0.082292;72;112;piano
157.791667;0.082292;84;112;piano
157.958333;0.082292;73;112;piano
157.958333;0.082292;85;112;piano
158.125000;0.165625;74;127;piano
158.125000;0.165625;78;127;piano
158.125000;0.165625;86;127;piano
158.291667;0.165625;78;127;piano
158.291667;0.165625;90;127;piano
158.458333;0.165625;83;127;piano
158.458333;0.165625;95;127;piano
158.625000;0.165625;84;127;piano
158.625000;0.165625;96;127;piano
158.791667;0.165625;85;127;piano
158.791667;0.165625;97;127;piano
158.958333;0.165625;86;127;piano
158.958333;0.165625;98;127;piano
159.125000;0.165625;55;127;piano
159.125000;0.165625;61;127;piano
159.125000;0.165625;63;127;piano
159.791667;0.082292;74;112;piano
159.791667;0.082292;86;112;piano
159.958333;0.082292;75;112;piano
159.958333;0.082292;87;112;piano
160.125000;0.165625;76;127;piano
160.125000;0.165625;80;127;piano
160.125000;0.165625;88;127;piano
160.291667;0.165625;80;127;piano
160.291667;0.165625;92;127;piano
160.458333;0.165625;83;127;piano
160.458333;0.165625;95;127;piano
160.625000;0.165625;84;127;piano
160.625000;0.165625;96;127;piano
160.791667;0.165625;85;127;piano
160.791667;0.165625;97;127;piano
160.958333;0.165625;88;127;piano
160.958333;0.165625;100;127;piano
161.125000;0.221875;65;127;piano
161.125000;0.221875;68;127;piano
161.125000;0.221875;73;127;piano
161.125000;0.221875;77;127;piano
161.625000;0.221875;66;127;piano
161.625000;0.221875;69;127;piano
161.625000;0.221875;73;127;piano
161.625000;0.221875;78;127;piano
162.125000;0.221875;67;127;piano
162.125000;0.221875;73;127;piano
162.125000;0.221875;79;127;piano
162.625000;0.221875;68;127;piano
162.625000;0.221875;73;127;piano
162.625000;0.221875;80;127;piano
163.125000;0.332292;69;127;piano
163.125000;0.332292;72;127;piano
163.125000;0.332292;75;127;piano
163.125000;0.332292;78;127;piano
163.125000;0.332292;81;127;piano
163.458333;0.332292;70;127;piano
163.458333;0.332292;73;127;piano
163.458333;0.332292;76;127;piano
163.458333;0.332292;79;127;piano
163.458333;0.332292;82;127;piano
163.791667;0.332292;72;127;piano
163.791667;0.332292;74;127;piano
163.791667;0.332292;77;127;piano
163.791667;0.332292;80;127;piano
163.791667;0.332292;83;127;piano
164.291667;0.165625;72;127;piano
164.291667;0.165625;84;127;piano
164.458333;0.165625;73;127;piano
164.458333;0.165625;85;127;piano
164.625000;0.082292;74;127;piano
164.625000;0.082292;86;127;piano
165.125000;0.054167;50;127;piano
165.125000;0.054167;62;127;piano
165.208333;0.078125;53;112;piano
165.291667;0.078125;56;113;piano
165.375000;0.078125;59;114;piano
165.458333;0.078125;62;115;piano
165.541667;0.078125;65;117;piano
165.625000;0.078125;68;118;piano
165.708333;0.078125;71;119;piano
165.791667;0.078125;74;120;piano
165.875000;0.078125;77;122;piano
165.958333;0.078125;80;123;piano
166.041667;0.078125;83;124;piano
166.125000;0.054167;74;127;piano
166.125000;0.054167;86;127;piano
166.208333;0.078125;73;126;piano
166.291667;0.078125;72;126;piano
166.291667;0.078125;84;126;piano
166.375000;0.078125;71;126;piano
166.458333;0.078125;70;126;piano
166.458333;0.078125;82;126;piano
166.541667;0.078125;69;126;piano
166.625000;0.078125;68;126;piano
166.625000;0.078125;80;126;piano
166.708333;0.078125;67;126;piano
166.791667;0.078125;66;126;piano
166.791667;0.078125;78;126;piano
166.875000;0.078125;65;126;piano
166.958333;0.078125;64;126;piano
166.958333;0.078125;76;126;piano
167.041667;0.078125;63;126;piano
167.125000;0.078125;62;126;piano
167.125000;0.078125;74;126;piano
167.208333;0.078125;61;126;piano
167.291667;0.078125;60;126;piano
167.291667;0.078125;72;126;piano
167.375000;0.078125;59;126;piano
167.625000;0.082292;77;127;piano
167.625000;0.082292;89;127;piano
168.125000;0.054167;53;127;piano
168.125000;0.054167;65;127;piano
168.208333;0.078125;56;113;piano
168.291667;0.078125;59;114;piano
168.375000;0.078125;62;115;piano
168.458333;0.078125;65;116;piano
168.541667;0.078125;68;117;piano
168.625000;0.078125;72;119;piano
168.708333;0.078125;74;120;piano
168.791667;0.078125;77;121;piano
168.875000;0.078125;80;122;piano
168.958333;0.078125;83;123;piano
169.041667;0.078125;86;124;piano
169.125000;0.054167;77;127;piano
169.125000;0.054167;89;127;piano
169.208333;0.078125;76;126;piano
169.291667;0.078125;75;126;piano
169.291667;0.078125;87;126;piano
169.375000;0.078125;74;126;piano
169.458333;0.078125;73;126;piano
169.458333;0.078125;85;126;piano
169.541667;0.078125;72;126;piano
169.625000;0.078125;71;126;piano
169.625000;0.078125;83;126;piano
169.708333;0.078125;70;126;piano
169.791667;0.078125;69;126;piano
169.791667;0.078125;81;126;piano
169.875000;0.078125;68;126;piano
169.958333;0.078125;67;126;piano
169.958333;0.078125;79;126;piano
170.041667;0.078125;66;126;piano
170.125000;0.078125;65;126;piano
170.125000;0.078125;77;126;piano
170.208333;0.078125;64;126;piano
170.291667;0.078125;63;126;piano
170.291667;0.078125;75;126;piano
170.375000;0.078125;62;126;piano
170.625000;0.053125;79;112;piano
170.625000;0.053125;92;112;piano
171.125000;0.082292;56;127;piano
171.125000;0.082292;68;127;piano
171.208333;0.078125;59;113;piano
171.291667;0.078125;62;114;piano
171.375000;0.078125;65;115;piano
171.458333;0.078125;68;116;piano
171.541667;0.078125;71;117;piano
171.625000;0.078125;74;119;piano
171.708333;0.078125;77;120;piano
171.791667;0.078125;80;121;piano
171.875000;0.078125;83;122;piano
171.958333;0.078125;86;123;piano
172.041667;0.078125;89;124;piano
172.125000;0.078125;80;126;piano
172.125000;0.078125;92;126;piano
172.208333;0.078125;79;126;piano
172.291667;0.078125;78;126;piano
172.291667;0.078125;90;126;piano
172.375000;0.078125;77;126;piano
172.458333;0.078125;76;126;piano
172.458333;0.078125;88;126;piano
172.541667;0.078125;75;126;piano
172.625000;0.078125;83;126;piano
172.625000;0.078125;95;126;piano
172.708333;0.078125;94;126;piano
172.791667;0.078125;81;126;piano
172.791667;0.078125;93;126;piano
172.875000;0.078125;92;126;piano
172.958333;0.078125;79;126;piano
172.958333;0.078125;91;126;piano
173.041667;0.078125;90;126;piano
173.125000;0.082292;86;127;piano
173.125000;0.082292;98;127;piano
173.208333;0.078125;97;126;piano
173.291667;0.078125;84;126;piano
173.291667;0.078125;96;126;piano
173.375000;0.078125;95;126;piano
173.458333;0.078125;81;126;piano
173.458333;0.078125;93;126;piano
173.541667;0.078125;92;126;piano
173.625000;0.078125;89;126;piano
173.625000;0.078125;101;126;piano
173.708333;0.078125;100;126;piano
173.791667;0.078125;87;126;piano
173.791667;0.078125;99;126;piano
173.875000;0.078125;98;126;piano
173.958333;0.078125;85;126;piano
173.958333;0.078125;97;126;piano
174.041667;0.078125;96;126;piano
174.125000;0.078125;83;126;piano
174.125000;0.078125;95;126;piano
174.208333;0.078125;94;126;piano
174.291667;0.078125;81;126;piano
174.291667;0.078125;93;126;piano
174.375000;0.078125;92;126;piano
174.458333;0.078125;79;126;piano
174.458333;0.078125;91;126;piano
174.541667;0.078125;90;126;piano
174.625000;0.078125;77;126;piano
174.625000;0.078125;89;126;piano
174.708333;0.078125;76;126;piano
174.791667;0.078125;75;126;piano
174.791667;0.078125;87;126;piano
174.875000;0.078125;74;126;piano
174.958333;0.078125;73;126;piano
174.958333;0.078125;85;126;piano
175.041667;0.078125;72;126;piano
175.125000;0.078125;71;126;piano
175.125000;0.078125;83;126;piano
175.208333;0.078125;70;126;piano
175.291667;0.078125;69;126;piano
175.291667;0.078125;81;126;piano
175.375000;0.078125;68;126;piano
175.458333;0.078125;67;126;piano
175.458333;0.078125;79;126;piano
175.541667;0.078125;66;126;piano
175.625000;0.051042;65;126;piano
175.625000;0.051042;77;126;piano
175.680208;0.051042;64;126;piano
175.736458;0.051042;63;126;piano
175.736458;0.051042;75;126;piano
175.791667;0.051042;62;126;piano
175.846875;0.051042;61;126;piano
175.846875;0.051042;73;126;piano
175.903125;0.051042;60;126;piano
175.958333;0.051042;59;126;piano
175.958333;0.051042;71;126;piano
176.013542;0.051042;60;126;piano
176.069792;0.051042;57;126;piano
176.069792;0.051042;69;126;piano
176.291667;0.082292;68;58;piano
176.291667;0.082292;56;58;piano
176.458333;0.082292;56;58;piano
176.458333;0.082292;68;58;piano
176.625000;0.082292;56;58;piano
176.625000;0.082292;68;58;piano
176.791667;0.082292;56;58;piano
176.791667;0.082292;68;58;piano
176.958333;0.082292;56;58;piano
176.958333;0.082292;68;58;piano
177.125000;0.082292;56;58;piano
177.125000;0.082292;68;58;piano
177.291667;0.082292;56;58;piano
177.291667;0.082292;68;58;piano
177.458333;0.082292;56;58;piano
177.458333;0.082292;68;58;piano
177.625000;0.082292;56;58;piano
177.625000;0.082292;68;58;piano
177.625000;0.123958;62;58;piano
177.791667;0.082292;56;58;piano
177.791667;0.082292;68;58;piano
177.958333;0.082292;56;58;piano
177.958333;0.082292;68;58;piano
178.125000;0.082292;56;58;piano
178.125000;0.082292;68;58;piano
178.125000;0.123958;63;58;piano
178.291667;0.082292;56;58;piano
178.291667;0.082292;68;58;piano
178.458333;0.082292;56;58;piano
178.458333;0.082292;68;58;piano
178.625000;0.082292;59;58;piano
178.625000;0.082292;71;58;piano
178.625000;0.123958;65;58;piano
178.791667;0.082292;59;58;piano
178.791667;0.082292;71;58;piano
178.958333;0.082292;59;58;piano
178.958333;0.082292;71;58;piano
179.125000;0.082292;59;58;piano
179.125000;0.082292;71;58;piano
179.125000;0.123958;66;58;piano
179.291667;0.082292;59;58;piano
179.291667;0.082292;71;58;piano
179.458333;0.082292;59;58;piano
179.458333;0.082292;71;58;piano
179.625000;0.082292;59;58;piano
179.625000;0.082292;71;58;piano
179.791667;0.082292;59;58;piano
179.791667;0.082292;71;58;piano
179.958333;0.082292;59;58;piano
179.958333;0.082292;71;58;piano
180.125000;0.082292;59;58;piano
180.125000;0.082292;71;58;piano
180.291667;0.082292;59;58;piano
180.291667;0.082292;71;58;piano
180.458333;0.082292;59;58;piano
180.458333;0.082292;71;58;piano
180.625000;0.082292;59;58;piano
180.625000;0.082292;71;58;piano
180.625000;0.123958;65;88;piano
180.791667;0.082292;59;58;piano
180.791667;0.082292;71;58;piano
180.958333;0.082292;59;58;piano
180.958333;0.082292;71;58;piano
181.125000;0.082292;59;58;piano
181.125000;0.082292;71;58;piano
181.125000;0.123958;66;58;piano
181.291667;0.082292;59;58;piano
181.291667;0.082292;71;58;piano
181.458333;0.082292;59;58;piano
181.458333;0.082292;71;58;piano
181.625000;0.082292;62;58;piano
181.625000;0.082292;74;58;piano
181.625000;0.123958;68;58;piano
181.791667;0.082292;62;58;piano
181.791667;0.082292;74;58;piano
181.958333;0.082292;62;58;piano
181.958333;0.082292;74;58;piano
182.125000;0.082292;62;58;piano
182.125000;0.082292;74;58;piano
182.125000;0.123958;69;58;piano
182.291667;0.082292;62;58;piano
182.291667;0.082292;74;58;piano
182.458333;0.082292;62;58;piano
182.458333;0.082292;74;58;piano
182.625000;0.082292;62;58;piano
182.625000;0.082292;74;58;piano
182.791667;0.082292;62;58;piano
182.791667;0.082292;74;58;piano
182.958333;0.082292;62;58;piano
182.958333;0.082292;74;58;piano
183.125000;0.082292;62;58;piano
183.125000;0.082292;74;58;piano
183.291667;0.082292;62;58;piano
183.291667;0.082292;74;58;piano
183.458333;0.082292;62;58;piano
183.458333;0.082292;74;58;piano
183.625000;0.082292;65;58;piano
183.625000;0.082292;77;58;piano
183.625000;0.123958;71;58;piano
183.791667;0.082292;65;58;piano
183.791667;0.082292;77;58;piano
183.958333;0.082292;65;58;piano
183.958333;0.082292;77;58;piano
184.125000;0.082292;65;58;piano
184.125000;0.082292;77;58;piano
184.125000;0.123958;72;58;piano
184.291667;0.082292;65;58;piano
184.291667;0.082292;77;58;piano
184.458333;0.082292;65;58;piano
184.458333;0.082292;77;58;piano
184.625000;0.082292;71;73;piano
184.625000;0.082292;74;73;piano
184.625000;0.082292;80;73;piano
184.791667;0.165625;80;62;piano
184.958333;0.165625;71;66;piano
184.958333;0.165625;75;66;piano
184.958333;0.165625;80;66;piano
185.125000;0.082292;75;87;piano
185.125000;0.082292;76;87;piano
185.125000;0.082292;83;87;piano
185.291667;0.165625;83;73;piano
185.458333;0.165625;75;96;piano
185.458333;0.165625;78;96;piano
185.458333;0.165625;83;96;piano
185.625000;0.082292;77;100;piano
185.625000;0.082292;80;100;piano
185.625000;0.082292;86;100;piano
185.791667;0.165625;77;105;piano
185.791667;0.165625;80;105;piano
185.791667;0.165625;86;105;piano
185.958333;0.165625;77;111;piano
185.958333;0.165625;81;111;piano
185.958333;0.165625;86;111;piano
186.125000;0.082292;77;115;piano
186.125000;0.082292;80;115;piano
186.125000;0.082292;86;115;piano
186.291667;0.165625;77;120;piano
186.291667;0.165625;80;120;piano
186.291667;0.165625;86;120;piano
186.458333;0.165625;77;124;piano
186.458333;0.165625;81;124;piano
186.458333;0.165625;86;124;piano
186.625000;0.082292;77;127;piano
186.625000;0.082292;80;127;piano
186.625000;0.082292;86;127;piano
186.791667;0.165625;77;127;piano
186.791667;0.165625;80;127;piano
186.791667;0.165625;86;127;piano
186.958333;0.165625;77;127;piano
186.958333;0.165625;81;127;piano
186.958333;0.165625;86;127;piano
187.125000;0.165625;77;115;piano
187.125000;0.165625;82;115;piano
187.125000;0.165625;86;115;piano
187.291667;0.165625;77;115;piano
187.291667;0.165625;82;115;piano
187.291667;0.165625;86;115;piano
187.458333;0.165625;77;115;piano
187.458333;0.165625;82;115;piano
187.458333;0.165625;86;115;piano
187.625000;0.165625;77;115;piano
187.625000;0.165625;82;115;piano
187.625000;0.165625;86;115;piano
187.791667;0.165625;77;115;piano
187.791667;0.165625;82;115;piano
187.791667;0.165625;86;115;piano
187.958333;0.165625;77;115;piano
187.958333;0.165625;82;115;piano
187.958333;0.165625;86;115;piano
188.125000;0.165625;79;115;piano
188.125000;0.165625;83;115;piano
188.125000;0.165625;86;115;piano
188.125000;0.165625;91;115;piano
188.291667;0.165625;79;115;piano
188.291667;0.165625;83;115;piano
188.291667;0.165625;86;115;piano
188.291667;0.165625;91;115;piano
188.458333;0.165625;79;115;piano
188.458333;0.165625;83;115;piano
188.458333;0.165625;86;115;piano
188.458333;0.165625;91;115;piano
188.625000;0.165625;79;115;piano
188.625000;0.165625;83;115;piano
188.625000;0.165625;86;115;piano
188.625000;0.165625;91;115;piano
188.791667;0.165625;79;115;piano
188.791667;0.165625;83;115;piano
188.791667;0.165625;86;115;piano
188.791667;0.165625;91;115;piano
188.958333;0.165625;79;115;piano
188.958333;0.165625;83;115;piano
188.958333;0.165625;86;115;piano
188.958333;0.165625;91;115;piano
189.125000;0.165625;77;115;piano
189.125000;0.165625;82;115;piano
189.125000;0.165625;86;115;piano
189.291667;0.165625;77;115;piano
189.291667;0.165625;82;115;piano
189.291667;0.165625;86;115;piano
189.458333;0.165625;77;115;piano
189.458333;0.165625;82;115;piano
189.458333;0.165625;86;115;piano
189.625000;0.165625;77;115;piano
189.625000;0.165625;82;115;piano
189.625000;0.165625;86;115;piano
189.791667;0.165625;77;115;piano
189.791667;0.165625;82;115;piano
189.791667;0.165625;86;115;piano
189.958333;0.165625;77;115;piano
189.958333;0.165625;82;115;piano
189.958333;0.165625;86;115;piano
190.125000;0.165625;79;115;piano
190.125000;0.165625;83;115;piano
190.125000;0.165625;86;115;piano
190.125000;0.165625;91;115;piano
190.291667;0.165625;79;115;piano
190.291667;0.165625;83;115;piano
190.291667;0.165625;86;115;piano
190.291667;0.165625;91;115;piano
190.458333;0.165625;79;115;piano
190.458333;0.165625;83;115;piano
190.458333;0.165625;86;115;piano
190.458333;0.165625;91;115;piano
190.625000;0.165625;79;115;piano
190.625000;0.165625;83;115;piano
190.625000;0.165625;86;115;piano
190.625000;0.165625;91;115;piano
190.791667;0.165625;79;115;piano
190.791667;0.165625;83;115;piano
190.791667;0.165625;86;115;piano
190.791667;0.165625;91;115;piano
190.958333;0.165625;79;115;piano
190.958333;0.165625;83;115;piano
190.958333;0.165625;86;115;piano
190.958333;0.165625;91;115;piano
191.125000;0.165625;77;115;piano
191.125000;0.165625;82;115;piano
191.125000;0.165625;86;115;piano
191.291667;0.165625;77;116;piano
191.291667;0.165625;82;116;piano
191.291667;0.165625;86;116;piano
191.458333;0.165625;77;117;piano
191.458333;0.165625;82;117;piano
191.458333;0.165625;86;117;piano
191.625000;0.165625;79;120;piano
191.625000;0.165625;83;120;piano
191.625000;0.165625;86;120;piano
191.625000;0.165625;91;120;piano
191.791667;0.165625;79;121;piano
191.791667;0.165625;83;121;piano
191.791667;0.165625;86;121;piano
191.791667;0.165625;91;121;piano
191.958333;0.165625;79;122;piano
191.958333;0.165625;83;122;piano
191.958333;0.165625;86;122;piano
191.958333;0.165625;91;122;piano
192.125000;0.165625;77;124;piano
192.125000;0.165625;82;124;piano
192.125000;0.165625;86;124;piano
192.291667;0.165625;77;126;piano
192.291667;0.165625;82;126;piano
192.291667;0.165625;86;126;piano
192.458333;0.165625;77;127;piano
192.458333;0.165625;82;127;piano
192.458333;0.165625;86;127;piano
192.625000;0.165625;79;127;piano
192.625000;0.165625;83;127;piano
192.625000;0.165625;86;127;piano
192.625000;0.165625;91;127;piano
192.791667;0.165625;79;127;piano
192.791667;0.165625;83;127;piano
192.791667;0.165625;86;127;piano
192.791667;0.165625;91;127;piano
192.958333;0.165625;79;127;piano
192.958333;0.165625;83;127;piano
192.958333;0.165625;86;127;piano
192.958333;0.165625;91;127;piano
193.125000;0.165625;79;127;piano
193.125000;0.165625;82;127;piano
193.125000;0.165625;87;127;piano
193.125000;0.165625;91;127;piano
193.291667;0.165625;79;127;piano
193.291667;0.165625;82;127;piano
193.291667;0.165625;87;127;piano
193.291667;0.165625;91;127;piano
193.458333;0.165625;79;127;piano
193.458333;0.165625;82;127;piano
193.458333;0.165625;87;127;piano
193.458333;0.165625;91;127;piano
193.625000;0.165625;79;127;piano
193.625000;0.165625;82;127;piano
193.625000;0.165625;87;127;piano
193.625000;0.165625;91;127;piano
193.791667;0.165625;79;127;piano
193.791667;0.165625;82;127;piano
193.791667;0.165625;87;127;piano
193.791667;0.165625;91;127;piano
193.958333;0.165625;79;127;piano
193.958333;0.165625;82;127;piano
193.958333;0.165625;87;127;piano
193.958333;0.165625;91;127;piano
194.125000;0.165625;79;127;piano
194.125000;0.165625;82;127;piano
194.125000;0.165625;87;127;piano
194.125000;0.165625;91;127;piano
194.291667;0.165625;79;127;piano
194.291667;0.165625;82;127;piano
194.291667;0.165625;87;127;piano
194.291667;0.165625;91;127;piano
194.458333;0.165625;79;127;piano
194.458333;0.165625;82;127;piano
194.458333;0.165625;87;127;piano
194.458333;0.165625;91;127;piano
194.625000;0.165625;79;127;piano
194.625000;0.165625;82;127;piano
194.625000;0.165625;87;127;piano
194.625000;0.165625;91;127;piano
194.791667;0.165625;79;127;piano
194.791667;0.165625;82;127;piano
194.791667;0.165625;87;127;piano
194.791667;0.165625;91;127;piano
194.958333;0.165625;79;127;piano
194.958333;0.165625;82;127;piano
194.958333;0.165625;87;127;piano
194.958333;0.165625;91;127;piano
195.125000;0.165625;79;127;piano
195.125000;0.165625;82;127;piano
195.125000;0.165625;87;127;piano
195.125000;0.165625;91;127;piano
195.291667;0.165625;79;127;piano
195.291667;0.165625;82;127;piano
195.291667;0.165625;87;127;piano
195.291667;0.165625;91;127;piano
195.458333;0.165625;79;127;piano
195.458333;0.165625;82;127;piano
195.458333;0.165625;87;127;piano
195.458333;0.165625;91;127;piano
195.625000;0.165625;79;127;piano
195.625000;0.165625;82;127;piano
195.625000;0.165625;87;127;piano
195.625000;0.165625;91;127;piano
195.791667;0.165625;79;127;piano
195.791667;0.165625;82;127;piano
195.791667;0.165625;87;127;piano
195.791667;0.165625;91;127;piano
195.958333;0.165625;79;127;piano
195.958333;0.165625;82;127;piano
195.958333;0.165625;87;127;piano
195.958333;0.165625;91;127;piano
196.125000;0.165625;79;127;piano
196.125000;0.165625;82;127;piano
196.125000;0.165625;87;127;piano
196.125000;0.165625;91;127;piano
196.291667;0.165625;79;127;piano
196.291667;0.165625;82;127;piano
196.291667;0.165625;87;127;piano
196.291667;0.165625;91;127;piano
196.458333;0.165625;79;127;piano
196.458333;0.165625;82;127;piano
196.458333;0.165625;87;127;piano
196.458333;0.165625;91;127;piano
196.625000;0.165625;79;127;piano
196.625000;0.165625;82;127;piano
196.625000;0.165625;87;127;piano
196.625000;0.165625;91;127;piano
196.791667;0.165625;79;127;piano
196.791667;0.165625;82;127;piano
196.791667;0.165625;87;127;piano
196.791667;0.165625;91;127;piano
196.958333;0.165625;79;127;piano
196.958333;0.165625;82;127;piano
196.958333;0.165625;87;127;piano
196.958333;0.165625;91;127;piano
197.125000;0.165625;80;127;piano
197.125000;0.165625;85;127;piano
197.125000;0.165625;89;127;piano
197.125000;0.165625;92;127;piano
197.291667;0.165625;80;127;piano
197.291667;0.165625;85;127;piano
197.291667;0.165625;89;127;piano
197.291667;0.165625;92;127;piano
197.458333;0.165625;80;127;piano
197.458333;0.165625;85;127;piano
197.458333;0.165625;89;127;piano
197.458333;0.165625;92;127;piano
197.625000;0.165625;80;127;piano
197.625000;0.165625;85;127;piano
197.625000;0.165625;89;127;piano
197.625000;0.165625;92;127;piano
197.791667;0.165625;80;127;piano
197.791667;0.165625;85;127;piano
197.791667;0.165625;89;127;piano
197.791667;0.165625;92;127;piano
197.958333;0.165625;80;127;piano
197.958333;0.165625;85;127;piano
197.958333;0.165625;89;127;piano
197.958333;0.165625;92;127;piano
198.125000;0.165625;80;127;piano
198.125000;0.165625;85;127;piano
198.125000;0.165625;89;127;piano
198.125000;0.165625;92;127;piano
198.291667;0.165625;80;127;piano
198.291667;0.165625;85;127;piano
198.291667;0.165625;89;127;piano
198.291667;0.165625;92;127;piano
198.458333;0.165625;80;127;piano
198.458333;0.165625;85;127;piano
198.458333;0.165625;89;127;piano
198.458333;0.165625;92;127;piano
198.625000;0.165625;80;127;piano
198.625000;0.165625;85;127;piano
198.625000;0.165625;89;127;piano
198.625000;0.165625;92;127;piano
198.791667;0.165625;80;127;piano
198.791667;0.165625;85;127;piano
198.791667;0.165625;89;127;piano
198.791667;0.165625;92;127;piano
198.958333;0.165625;80;127;piano
198.958333;0.165625;85;127;piano
198.958333;0.165625;89;127;piano
198.958333;0.165625;92;127;piano
199.125000;0.165625;80;127;piano
199.125000;0.165625;85;127;piano
199.125000;0.165625;89;127;piano
199.125000;0.165625;92;127;piano
199.291667;0.165625;80;127;piano
199.291667;0.165625;85;127;piano
199.291667;0.165625;89;127;piano
199.291667;0.165625;92;127;piano
199.458333;0.165625;80;127;piano
199.458333;0.165625;85;127;piano
199.458333;0.165625;89;127;piano
199.458333;0.165625;92;127;piano
199.625000;0.165625;80;127;piano
199.625000;0.165625;85;127;piano
199.625000;0.165625;89;127;piano
199.625000;0.165625;92;127;piano
199.791667;0.165625;80;127;piano
199.791667;0.165625;85;127;piano
199.791667;0.165625;89;127;piano
199.791667;0.165625;92;127;piano
199.958333;0.165625;80;127;piano
199.958333;0.165625;85;127;piano
199.958333;0.165625;89;127;piano
199.958333;0.165625;92;127;piano
200.125000;0.165625;80;127;piano
200.125000;0.165625;85;127;piano
200.125000;0.165625;89;127;piano
200.125000;0.165625;92;127;piano
200.291667;0.165625;80;127;piano
200.291667;0.165625;85;127;piano
200.291667;0.165625;89;127;piano
200.291667;0.165625;92;127;piano
200.458333;0.165625;80;127;piano
200.458333;0.165625;85;127;piano
200.458333;0.165625;89;127;piano
200.458333;0.165625;92;127;piano
200.625000;0.165625;80;127;piano
200.625000;0.165625;85;127;piano
200.625000;0.165625;89;127;piano
200.625000;0.165625;92;127;piano
200.791667;0.165625;80;127;piano
200.791667;0.165625;85;127;piano
200.791667;0.165625;89;127;piano
200.791667;0.165625;92;127;piano
200.958333;0.165625;80;127;piano
200.958333;0.165625;85;127;piano
200.958333;0.165625;89;127;piano
200.958333;0.165625;92;127;piano
201.125000;0.165625;80;127;piano
201.125000;0.165625;85;127;piano
201.125000;0.165625;89;127;piano
201.125000;0.165625;92;127;piano
201.291667;0.165625;80;127;piano
201.291667;0.165625;85;127;piano
201.291667;0.165625;89;127;piano
201.291667;0.165625;92;127;piano
201.458333;0.165625;80;127;piano
201.458333;0.165625;85;127;piano
201.458333;0.165625;89;127;piano
201.458333;0.165625;92;127;piano
201.625000;0.165625;80;127;piano
201.625000;0.165625;85;127;piano
201.625000;0.165625;89;127;piano
201.625000;0.165625;92;127;piano
201.791667;0.165625;80;127;piano
201.791667;0.165625;85;127;piano
201.791667;0.165625;89;127;piano
201.791667;0.165625;92;127;piano
201.958333;0.165625;80;127;piano
201.958333;0.165625;85;127;piano
201.958333;0.165625;89;127;piano
201.958333;0.165625;92;127;piano
202.125000;0.165625;81;127;piano
202.125000;0.165625;85;127;piano
202.125000;0.165625;88;127;piano
202.125000;0.165625;93;127;piano
202.291667;0.165625;81;127;piano
202.291667;0.165625;85;127;piano
202.291667;0.165625;88;127;piano
202.291667;0.165625;93;127;piano
202.458333;0.165625;81;127;piano
202.458333;0.165625;85;127;piano
202.458333;0.165625;88;127;piano
202.458333;0.165625;93;127;piano
202.625000;0.165625;81;127;piano
202.625000;0.165625;85;127;piano
202.625000;0.165625;88;127;piano
202.625000;0.165625;93;127;piano
202.791667;0.165625;81;127;piano
202.791667;0.165625;85;127;piano
202.791667;0.165625;88;127;piano
202.791667;0.165625;93;127;piano
202.958333;0.165625;81;127;piano
202.958333;0.165625;85;127;piano
202.958333;0.165625;88;127;piano
202.958333;0.165625;93;127;piano
203.125000;0.333333;90;127;piano
203.458333;0.157292;78;126;piano
203.625000;0.157292;75;126;piano
203.625000;0.157292;87;126;piano
203.125000;0.666667;85;127;piano
203.791667;0.157292;73;126;piano
203.125000;0.833333;82;127;piano
203.958333;0.157292;70;126;piano
204.125000;0.157292;68;126;piano
204.125000;0.157292;80;126;piano
204.291667;0.157292;66;126;piano
204.291667;0.157292;78;126;piano
204.458333;0.157292;63;126;piano
204.458333;0.157292;75;126;piano
204.625000;0.157292;61;126;piano
204.625000;0.157292;73;126;piano
204.791667;0.157292;58;126;piano
204.791667;0.157292;70;126;piano
204.958333;0.157292;54;126;piano
204.958333;0.157292;66;126;piano
203.958333;1.165625;82;126;piano
203.791667;1.332292;85;126;piano
203.458333;1.665625;90;126;piano
203.125000;1.998958;94;127;piano
205.125000;0.333333;92;127;piano
205.458333;0.157292;80;126;piano
205.625000;0.157292;78;126;piano
205.625000;0.157292;90;126;piano
205.125000;0.666667;88;127;piano
205.791667;0.157292;76;126;piano
205.958333;0.157292;73;126;piano
205.958333;0.157292;85;126;piano
205.125000;1.000000;83;127;piano
206.125000;0.157292;71;126;piano
206.291667;0.157292;68;126;piano
206.291667;0.157292;80;126;piano
206.458333;0.157292;66;126;piano
206.458333;0.157292;78;126;piano
206.625000;0.157292;64;126;piano
206.625000;0.157292;76;126;piano
206.791667;0.157292;61;126;piano
206.791667;0.157292;73;126;piano
206.958333;0.157292;59;126;piano
206.958333;0.157292;71;126;piano
206.125000;0.998958;83;126;piano
205.791667;1.332292;88;126;piano
205.458333;1.665625;92;126;piano
205.125000;1.998958;95;127;piano
207.125000;0.157292;68;126;piano
207.291667;0.157292;66;126;piano
207.458333;0.157292;64;126;piano
207.625000;0.157292;61;126;piano
207.791667;0.157292;59;126;piano
208.125000;0.333333;90;127;piano
208.458333;0.157292;78;126;piano
208.625000;0.157292;75;126;piano
208.625000;0.157292;87;126;piano
208.125000;0.666667;85;127;piano
208.791667;0.157292;73;126;piano
208.125000;0.833333;82;127;piano
208.958333;0.157292;70;126;piano
208.958333;0.165625;82;126;piano
208.791667;0.332292;85;126;piano
208.458333;0.665625;90;126;piano
208.125000;0.998958;94;127;piano
209.125000;0.333333;90;127;piano
209.458333;0.157292;78;126;piano
209.625000;0.157292;75;126;piano
209.625000;0.157292;87;126;piano
209.125000;0.666667;85;127;piano
209.791667;0.157292;73;126;piano
209.958333;0.157292;70;126;piano
209.958333;0.157292;82;126;piano
209.125000;1.000000;80;127;piano
210.125000;0.157292;68;126;piano
210.291667;0.157292;66;126;piano
210.291667;0.157292;78;126;piano
210.125000;0.338542;80;126;piano
209.791667;0.671875;85;126;piano
209.458333;1.005208;90;126;piano
209.125000;1.338542;92;127;piano
210.458333;0.157292;63;126;piano
210.458333;0.157292;75;126;piano
210.625000;0.157292;61;126;piano
210.625000;0.157292;73;126;piano
210.791667;0.157292;58;126;piano
210.791667;0.157292;70;126;piano
210.958333;0.157292;56;126;piano
210.958333;0.157292;68;126;piano
211.125000;0.333333;89;127;piano
211.458333;0.157292;77;126;piano
211.625000;0.157292;75;126;piano
211.625000;0.157292;87;126;piano
211.125000;0.666667;85;127;piano
211.791667;0.157292;73;126;piano
211.958333;0.157292;70;126;piano
211.958333;0.157292;82;126;piano
211.125000;1.000000;80;127;piano
212.125000;0.157292;68;126;piano
212.291667;0.157292;66;126;piano
212.291667;0.157292;78;126;piano
212.125000;0.338542;80;126;piano
211.791667;0.671875;85;126;piano
211.458333;1.005208;89;126;piano
211.125000;1.338542;92;127;piano
212.458333;0.157292;63;126;piano
212.458333;0.157292;75;126;piano
212.625000;0.157292;61;126;piano
212.625000;0.157292;73;126;piano
212.791667;0.157292;58;126;piano
212.791667;0.157292;70;126;piano
212.958333;0.157292;56;126;piano
212.958333;0.157292;68;126;piano
213.125000;0.668750;78;127;piano
213.125000;0.668750;82;127;piano
213.125000;0.668750;87;127;piano
213.125000;0.668750;90;127;piano
214.125000;0.584375;77;127;piano
214.125000;0.584375;81;127;piano
214.125000;0.584375;84;127;piano
214.125000;0.584375;89;127;piano
215.000000;0.117708;75;126;piano
215.000000;0.117708;87;126;piano
215.125000;0.498958;74;127;piano
215.125000;0.498958;77;127;piano
215.125000;0.498958;82;127;piano
215.125000;0.498958;86;127;piano
215.625000;0.498958;77;127;piano
215.625000;0.498958;82;127;piano
215.625000;0.498958;86;127;piano
215.625000;0.498958;89;127;piano
216.125000;0.498958;82;127;piano
216.125000;0.498958;86;127;piano
216.125000;0.498958;89;127;piano
216.125000;0.498958;94;127;piano
216.625000;0.498958;86;127;piano
216.625000;0.498958;89;127;piano
216.625000;0.498958;94;127;piano
216.625000;0.498958;98;127;piano
217.125000;0.248958;91;127;piano
217.125000;0.248958;94;127;piano
217.125000;0.248958;99;127;piano
217.125000;0.248958;103;127;piano
217.875000;0.248958;63;127;piano
217.875000;0.248958;75;127;piano
218.125000;0.248958;67;127;piano
218.125000;0.248958;79;127;piano
218.375000;0.248958;69;127;piano
218.375000;0.248958;81;127;piano
218.625000;0.373958;74;127;piano
218.625000;0.373958;86;127;piano
219.000000;0.123958;72;127;piano
219.000000;0.123958;84;127;piano
219.125000;0.165625;70;127;piano
219.125000;0.165625;82;127;piano
219.291667;0.157292;53;125;piano
219.291667;0.157292;58;125;piano
219.291667;0.157292;62;125;piano
219.291667;0.157292;65;125;piano
219.458333;0.157292;53;124;piano
219.458333;0.157292;58;124;piano
219.458333;0.157292;62;124;piano
219.458333;0.157292;65;124;piano
219.625000;0.157292;53;123;piano
219.625000;0.157292;58;123;piano
219.625000;0.157292;62;123;piano
219.625000;0.157292;65;123;piano
219.791667;0.157292;53;121;piano
219.791667;0.157292;58;121;piano
219.791667;0.157292;62;121;piano
219.791667;0.157292;65;121;piano
219.958333;0.157292;53;120;piano
219.958333;0.157292;58;120;piano
219.958333;0.157292;62;120;piano
219.958333;0.157292;65;120;piano
220.125000;0.157292;58;119;piano
220.125000;0.157292;62;119;piano
220.125000;0.157292;65;119;piano
220.291667;0.157292;58;118;piano
220.291667;0.157292;62;118;piano
220.291667;0.157292;65;118;piano
220.458333;0.157292;58;116;piano
220.458333;0.157292;62;116;piano
220.458333;0.157292;65;116;piano
220.625000;0.157292;53;115;piano
220.625000;0.157292;62;115;piano
220.625000;0.157292;65;115;piano
220.791667;0.157292;53;114;piano
220.791667;0.157292;62;114;piano
220.791667;0.157292;65;114;piano
220.958333;0.157292;53;112;piano
220.958333;0.157292;62;112;piano
220.958333;0.157292;65;112;piano
221.125000;0.668750;73;127;piano
221.125000;0.668750;76;127;piano
221.125000;0.668750;85;127;piano
222.125000;0.584375;72;127;piano
222.125000;0.584375;76;127;piano
222.125000;0.584375;84;127;piano
223.000000;0.117708;70;112;piano
223.000000;0.117708;76;112;piano
223.000000;0.117708;82;112;piano
223.125000;0.498958;68;127;piano
223.125000;0.498958;77;127;piano
223.125000;0.498958;80;127;piano
223.625000;0.498958;73;127;piano
223.625000;0.498958;77;127;piano
223.625000;0.498958;80;127;piano
223.625000;0.498958;85;127;piano
224.125000;0.498958;77;127;piano
224.125000;0.498958;80;127;piano
224.125000;0.498958;85;127;piano
224.125000;0.498958;89;127;piano
224.625000;0.498958;80;127;piano
224.625000;0.498958;85;127;piano
224.625000;0.498958;89;127;piano
224.625000;0.498958;92;127;piano
225.125000;0.248958;81;127;piano
225.125000;0.248958;85;127;piano
225.125000;0.248958;90;127;piano
225.125000;0.248958;93;127;piano
225.875000;0.248958;54;127;piano
226.125000;0.248958;57;127;piano
226.375000;0.248958;60;127;piano
226.625000;0.373958;65;127;piano
226.625000;0.473958;54;112;piano
226.625000;0.473958;57;112;piano
227.000000;0.123958;63;127;piano
227.125000;0.236458;53;112;piano
227.125000;0.236458;56;112;piano
227.125000;0.248958;61;127;piano
231.625000;0.998958;44;115;piano
231.625000;0.998958;47;115;piano
231.625000;0.998958;53;115;piano
232.625000;0.973958;46;110;piano
232.625000;0.973958;48;110;piano
232.625000;0.973958;54;110;piano
233.625000;0.498958;46;104;piano
233.625000;0.498958;50;104;piano
233.625000;0.498958;55;104;piano
234.125000;0.498958;55;102;piano
234.125000;0.855208;50;102;piano
234.125000;0.855208;62;102;piano
234.125000;0.973958;57;102;piano
234.625000;0.473958;54;82;piano
235.000000;0.123958;50;96;piano
235.000000;0.123958;62;96;piano
235.125000;0.248958;50;96;piano
235.125000;0.248958;55;96;piano
235.125000;0.248958;59;96;piano
235.125000;0.248958;62;96;piano
239.625000;0.948958;47;96;piano
239.625000;0.948958;50;96;piano
239.625000;0.948958;56;96;piano
240.625000;0.948958;48;78;piano
240.625000;0.948958;51;78;piano
240.625000;0.948958;57;78;piano
241.625000;0.333333;49;70;piano
241.625000;0.333333;53;70;piano
241.625000;0.333333;58;70;piano
242.125000;0.333333;58;58;piano
242.125000;0.689583;53;58;piano
242.125000;0.689583;65;58;piano
242.125000;0.808333;60;58;piano
242.625000;0.473958;57;49;piano
243.000000;0.117708;53;49;piano
243.000000;0.117708;65;49;piano
243.125000;0.998958;53;39;piano
243.125000;0.998958;58;39;piano
243.125000;0.998958;62;39;piano
243.125000;0.998958;65;39;piano
244.958333;0.165625;65;39;piano
244.958333;0.165625;77;39;piano
245.125000;0.165625;65;39;piano
245.125000;0.165625;77;39;piano
245.458333;0.082292;75;39;piano
245.458333;0.082292;87;39;piano
245.625000;0.082292;75;39;piano
245.625000;0.082292;87;39;piano
245.958333;0.082292;74;39;piano
245.958333;0.082292;86;39;piano
246.125000;0.082292;74;39;piano
246.125000;0.082292;86;39;piano
246.458333;0.082292;73;39;piano
246.458333;0.082292;85;39;piano
246.625000;0.082292;73;39;piano
246.625000;0.082292;85;39;piano
246.958333;0.082292;72;39;piano
246.958333;0.082292;84;39;piano
247.125000;0.082292;72;39;piano
247.125000;0.082292;84;39;piano
247.458333;0.082292;71;39;piano
247.458333;0.082292;83;39;piano
247.625000;0.082292;71;39;piano
247.625000;0.082292;83;39;piano
247.958333;0.082292;70;39;piano
247.958333;0.082292;82;39;piano
248.125000;0.082292;70;39;piano
248.125000;0.082292;82;39;piano
248.458333;0.473958;69;33;piano
248.458333;0.473958;81;33;piano
248.958333;0.082292;68;39;piano
248.958333;0.082292;80;39;piano
249.125000;0.082292;68;39;piano
249.125000;0.082292;80;39;piano
249.458333;0.082292;80;39;piano
249.458333;0.082292;92;39;piano
249.625000;0.082292;80;39;piano
249.625000;0.082292;92;39;piano
249.958333;0.082292;79;39;piano
249.958333;0.082292;91;39;piano
250.125000;0.082292;79;39;piano
250.125000;0.082292;91;39;piano
250.458333;0.082292;78;39;piano
250.458333;0.082292;90;39;piano
250.625000;0.082292;78;39;piano
250.625000;0.082292;90;39;piano
250.958333;0.082292;77;39;piano
250.958333;0.082292;89;39;piano
251.125000;0.082292;77;39;piano
251.125000;0.082292;89;39;piano
251.458333;0.082292;76;39;piano
251.458333;0.082292;88;39;piano
251.625000;0.082292;76;39;piano
251.625000;0.082292;88;39;piano
251.958333;0.082292;75;39;piano
251.958333;0.082292;87;39;piano
252.125000;0.082292;75;39;piano
252.125000;0.082292;87;39;piano
252.458333;0.473958;74;33;piano
252.458333;0.473958;86;33;piano
252.958333;0.082292;74;39;piano
252.958333;0.082292;86;39;piano
253.125000;0.082292;74;39;piano
253.125000;0.082292;86;39;piano
253.458333;0.082292;85;39;piano
253.458333;0.082292;97;39;piano
253.625000;0.082292;85;40;piano
253.625000;0.082292;97;40;piano
253.958333;0.082292;83;44;piano
253.958333;0.082292;95;44;piano
254.125000;0.082292;83;46;piano
254.125000;0.082292;95;46;piano
254.458333;0.082292;81;50;piano
254.458333;0.082292;93;50;piano
254.625000;0.082292;81;52;piano
254.625000;0.082292;93;52;piano
254.958333;0.082292;80;56;piano
254.958333;0.082292;92;56;piano
255.125000;0.082292;80;58;piano
255.125000;0.082292;92;58;piano
255.458333;0.082292;78;58;piano
255.458333;0.082292;90;58;piano
255.625000;0.082292;78;58;piano
255.625000;0.082292;90;58;piano
255.958333;0.082292;76;58;piano
255.958333;0.082292;88;58;piano
256.125000;0.082292;76;58;piano
256.125000;0.082292;88;58;piano
256.458333;0.082292;73;58;piano
256.458333;0.082292;85;58;piano
256.625000;0.082292;73;58;piano
256.625000;0.082292;85;58;piano
256.958333;0.082292;69;58;piano
256.958333;0.082292;81;58;piano
257.125000;0.082292;69;58;piano
257.125000;0.082292;81;58;piano
257.458333;0.082292;68;58;piano
257.458333;0.082292;80;58;piano
257.625000;0.082292;68;58;piano
257.625000;0.082292;80;58;piano
257.958333;0.082292;67;58;piano
257.958333;0.082292;79;58;piano
258.125000;0.082292;67;58;piano
258.125000;0.082292;79;58;piano
258.458333;0.082292;66;58;piano
258.458333;0.082292;78;58;piano
258.625000;0.082292;66;58;piano
258.625000;0.082292;78;58;piano
258.958333;0.082292;65;58;piano
258.958333;0.082292;77;58;piano
259.125000;0.082292;65;58;piano
259.125000;0.082292;77;58;piano
259.458333;0.082292;75;58;piano
259.458333;0.082292;87;58;piano
259.625000;0.082292;75;58;piano
259.625000;0.082292;87;58;piano
259.958333;0.082292;75;60;piano
259.958333;0.082292;87;60;piano
260.125000;0.082292;75;62;piano
260.125000;0.082292;87;62;piano
260.458333;0.082292;75;67;piano
260.458333;0.082292;87;67;piano
260.625000;0.082292;75;69;piano
260.625000;0.082292;87;69;piano
260.958333;0.165625;75;74;piano
260.958333;0.165625;87;74;piano
261.125000;1.165625;75;76;piano
261.125000;1.165625;87;76;piano
262.291667;0.165625;73;76;piano
262.291667;0.165625;85;76;piano
262.458333;0.165625;71;76;piano
262.458333;0.165625;83;76;piano
262.625000;0.165625;70;76;piano
262.625000;0.165625;82;76;piano
262.791667;0.165625;68;76;piano
262.791667;0.165625;80;76;piano
262.958333;0.165625;66;76;piano
262.958333;0.165625;78;76;piano
263.125000;0.165625;65;76;piano
263.125000;0.165625;77;76;piano
263.458333;0.082292;75;76;piano
263.458333;0.082292;87;76;piano
263.625000;0.082292;75;76;piano
263.625000;0.082292;87;76;piano
263.958333;0.082292;75;76;piano
263.958333;0.082292;87;76;piano
264.125000;0.082292;75;79;piano
264.125000;0.082292;87;79;piano
264.458333;0.082292;75;84;piano
264.458333;0.082292;87;84;piano
264.625000;0.082292;75;87;piano
264.625000;0.082292;87;87;piano
264.958333;0.165625;73;92;piano
264.958333;0.165625;85;92;piano
265.125000;1.165625;82;96;piano
265.125000;1.165625;94;96;piano
266.291667;0.082292;80;80;piano
266.291667;0.082292;92;80;piano
266.458333;0.082292;78;77;piano
266.458333;0.082292;90;77;piano
266.625000;0.082292;77;74;piano
266.625000;0.082292;89;74;piano
266.791667;0.082292;72;71;piano
266.791667;0.082292;84;71;piano
266.958333;0.082292;73;68;piano
266.958333;0.082292;85;68;piano
267.183333;1.106250;87;64;piano
267.125000;1.165625;75;64;piano
268.291667;0.165625;73;61;piano
268.291667;0.165625;85;61;piano
268.458333;0.165625;71;64;piano
268.458333;0.165625;83;64;piano
268.625000;0.165625;67;67;piano
268.625000;0.165625;79;67;piano
268.791667;0.165625;68;70;piano
268.791667;0.165625;80;70;piano
268.958333;0.157292;69;61;piano
268.958333;0.157292;81;61;piano
269.125000;0.000000;58;64;piano
269.291667;0.165625;61;66;piano
269.458333;0.165625;66;69;piano
269.625000;0.165625;61;72;piano
269.125000;0.666667;58;64;piano
269.791667;0.332292;58;74;piano
269.125000;0.998958;70;64;piano
269.958333;0.165625;66;77;piano
270.125000;0.000000;59;80;piano
270.291667;0.165625;64;78;piano
270.458333;0.165625;68;75;piano
270.625000;0.165625;64;72;piano
270.125000;0.666667;59;80;piano
270.958333;0.165625;68;66;piano
271.125000;0.165625;64;64;piano
270.791667;0.500000;59;69;piano
271.458333;0.165625;64;58;piano
271.625000;0.165625;68;55;piano
271.791667;0.165625;64;52;piano
271.291667;0.666667;59;61;piano
270.125000;1.998958;71;80;piano
271.958333;0.165625;59;49;piano
272.125000;0.000000;58;64;piano
272.291667;0.165625;61;64;piano
272.458333;0.165625;66;64;piano
272.625000;0.165625;61;64;piano
272.125000;0.666667;58;64;piano
272.958333;0.157292;66;64;piano
272.791667;0.332292;58;64;piano
272.125000;0.998958;70;64;piano
273.125000;0.000000;56;64;piano
273.291667;0.165625;61;63;piano
273.458333;0.165625;66;62;piano
273.625000;0.165625;61;60;piano
273.125000;0.666667;56;64;piano
273.958333;0.165625;66;58;piano
274.125000;0.165625;61;56;piano
273.791667;0.500000;56;59;piano
274.458333;0.165625;61;54;piano
274.625000;0.165625;65;52;piano
274.791667;0.165625;61;51;piano
274.291667;0.666667;56;55;piano
274.958333;0.165625;56;49;piano
273.125000;1.998958;68;64;piano
275.125000;0.000000;54;64;piano
275.291667;0.165625;58;64;piano
275.458333;0.165625;63;64;piano
275.625000;0.165625;58;64;piano
275.125000;0.666667;54;64;piano
275.791667;0.332292;54;64;piano
275.125000;0.998958;66;64;piano
275.958333;0.165625;63;64;piano
276.125000;0.000000;53;64;piano
276.275000;0.148958;57;64;piano
276.425000;0.148958;60;64;piano
276.575000;0.148958;57;64;piano
276.125000;0.600000;53;64;piano
276.125000;0.748958;65;64;piano
276.725000;0.148958;53;64;piano
277.291667;0.165625;58;65;piano
277.291667;0.165625;65;65;piano
277.458333;0.157292;62;66;piano
277.791667;0.165625;62;69;piano
277.791667;0.165625;70;69;piano
277.958333;0.157292;65;70;piano
278.291667;0.165625;65;73;piano
278.291667;0.165625;74;73;piano
278.458333;0.157292;70;74;piano
278.791667;0.165625;70;77;piano
278.791667;0.165625;77;77;piano
278.958333;0.157292;74;78;piano
279.291667;0.165625;70;80;piano
279.291667;0.165625;79;80;piano
279.458333;0.165625;75;76;piano
279.625000;0.165625;70;72;piano
279.791667;0.157292;63;68;piano
280.125000;0.198958;57;76;piano
280.325000;0.098958;58;76;piano
280.425000;0.098958;57;76;piano
280.525000;0.098958;55;76;piano
280.625000;0.098958;57;76;piano
280.725000;0.198958;62;76;piano
281.025000;0.098958;60;64;piano
281.625000;0.165625;62;64;piano
281.625000;0.165625;70;64;piano
281.791667;0.165625;65;64;piano
281.958333;0.165625;62;64;piano
282.125000;0.165625;64;64;piano
282.125000;0.165625;70;64;piano
282.291667;0.165625;67;64;piano
281.125000;1.423958;58;64;piano
282.458333;0.157292;64;64;piano
282.791667;0.165625;64;64;piano
282.791667;0.165625;69;64;piano
282.625000;0.373958;58;76;piano
282.958333;0.165625;67;64;piano
283.000000;0.123958;57;76;piano
283.291667;0.165625;62;64;piano
283.291667;0.165625;69;64;piano
283.458333;0.157292;66;64;piano
283.791667;0.165625;66;64;piano
283.791667;0.165625;74;64;piano
283.958333;0.157292;69;66;piano
284.291667;0.165625;69;70;piano
284.291667;0.165625;78;70;piano
284.458333;0.157292;74;72;piano
284.791667;0.165625;74;76;piano
284.791667;0.165625;81;76;piano
284.958333;0.157292;78;78;piano
285.291667;0.165625;74;80;piano
285.291667;0.165625;83;80;piano
285.458333;0.165625;79;80;piano
285.625000;0.165625;74;80;piano
285.791667;0.157292;67;80;piano
286.125000;0.198958;61;96;piano
286.325000;0.098958;62;88;piano
286.425000;0.098958;61;85;piano
286.525000;0.098958;59;81;piano
286.625000;0.098958;61;78;piano
286.725000;0.298958;66;74;piano
287.025000;0.098958;64;53;piano
287.791667;0.165625;66;58;piano
287.791667;0.165625;74;58;piano
287.125000;0.948958;62;49;piano
287.958333;0.165625;69;62;piano
287.958333;0.165625;78;62;piano
288.291667;0.165625;74;60;piano
288.291667;0.165625;81;60;piano
288.458333;0.157292;78;64;piano
288.458333;0.157292;86;64;piano
288.791667;0.165625;78;70;piano
288.791667;0.165625;87;70;piano
288.958333;0.165625;75;64;piano
288.958333;0.165625;81;64;piano
289.791667;0.165625;66;58;piano
289.791667;0.165625;74;58;piano
289.125000;0.948958;62;49;piano
289.958333;0.165625;69;62;piano
289.958333;0.165625;78;62;piano
290.291667;0.165625;74;60;piano
290.291667;0.165625;81;60;piano
290.458333;0.157292;78;64;piano
290.458333;0.157292;86;64;piano
290.791667;0.165625;78;64;piano
290.791667;0.165625;87;64;piano
290.958333;0.157292;75;64;piano
290.958333;0.157292;81;64;piano
291.291667;0.165625;86;64;piano
291.291667;0.165625;94;64;piano
291.458333;0.157292;82;64;piano
291.458333;0.157292;91;64;piano
291.791667;0.165625;82;64;piano
291.791667;0.165625;91;64;piano
291.958333;0.157292;79;64;piano
291.958333;0.157292;86;64;piano
292.291667;0.165625;79;64;piano
292.291667;0.165625;86;64;piano
292.458333;0.157292;74;64;piano
292.458333;0.157292;82;64;piano
293.125000;0.248958;67;76;piano
293.291667;0.165625;84;64;piano
293.291667;0.165625;91;64;piano
293.458333;0.157292;79;64;piano
293.458333;0.157292;87;64;piano
293.791667;0.165625;79;64;piano
293.791667;0.165625;87;64;piano
293.958333;0.157292;75;64;piano
293.958333;0.157292;84;64;piano
294.291667;0.165625;75;64;piano
294.291667;0.165625;84;64;piano
294.458333;0.157292;72;64;piano
294.458333;0.157292;79;64;piano
295.291667;0.165625;74;63;piano
295.291667;0.165625;83;63;piano
295.458333;0.157292;70;62;piano
295.458333;0.157292;79;62;piano
295.791667;0.165625;70;59;piano
295.791667;0.165625;79;59;piano
295.958333;0.157292;67;58;piano
295.958333;0.157292;74;58;piano
296.291667;0.165625;66;56;piano
296.291667;0.165625;74;56;piano
296.458333;0.157292;62;54;piano
296.458333;0.157292;69;54;piano
297.791667;0.165625;65;58;piano
297.791667;0.165625;74;58;piano
297.125000;0.998958;62;58;piano
297.958333;0.165625;68;62;piano
297.958333;0.165625;77;62;piano
298.291667;0.165625;74;58;piano
298.291667;0.165625;81;58;piano
298.458333;0.157292;78;61;piano
298.458333;0.157292;86;61;piano
298.791667;0.165625;78;64;piano
298.791667;0.165625;87;64;piano
298.958333;0.165625;75;68;piano
298.958333;0.165625;81;68;piano
299.791667;0.165625;65;58;piano
299.791667;0.165625;74;58;piano
299.125000;0.998958;62;58;piano
299.958333;0.165625;68;62;piano
299.958333;0.165625;77;62;piano
300.291667;0.165625;74;58;piano
300.291667;0.165625;81;58;piano
300.458333;0.157292;78;61;piano
300.458333;0.157292;86;61;piano
300.791667;0.165625;78;64;piano
300.791667;0.165625;87;64;piano
300.958333;0.157292;75;64;piano
300.958333;0.157292;81;64;piano
301.291667;0.165625;91;64;piano
301.291667;0.165625;98;64;piano
301.458333;0.157292;86;64;piano
301.458333;0.157292;94;64;piano
301.791667;0.165625;86;64;piano
301.791667;0.165625;94;64;piano
301.958333;0.157292;82;64;piano
301.958333;0.157292;91;64;piano
302.291667;0.165625;82;64;piano
302.291667;0.165625;91;64;piano
302.458333;0.157292;79;64;piano
302.458333;0.157292;86;64;piano
303.125000;0.236458;71;64;piano
303.291667;0.165625;84;64;piano
303.291667;0.165625;91;64;piano
303.458333;0.157292;79;64;piano
303.458333;0.157292;87;64;piano
303.791667;0.165625;79;64;piano
303.791667;0.165625;87;64;piano
303.958333;0.157292;75;64;piano
303.958333;0.157292;84;64;piano
304.541667;0.082292;68;76;piano
304.625000;0.748958;68;76;piano
305.375000;0.248958;67;78;piano
305.625000;0.248958;75;76;piano
305.875000;0.248958;74;88;piano
306.125000;0.248958;72;86;piano
306.375000;0.248958;70;84;piano
306.625000;0.248958;69;81;piano
306.875000;0.248958;67;79;piano
307.125000;0.098958;66;75;piano
307.225000;0.098958;67;75;piano
307.325000;0.098958;66;74;piano
307.425000;0.098958;65;73;piano
307.525000;0.098958;66;72;piano
307.625000;1.748958;69;70;piano
309.375000;0.248958;67;52;piano
309.625000;0.248958;63;50;piano
309.875000;0.248958;60;48;piano
310.125000;0.248958;57;45;piano
310.375000;0.248958;55;43;piano
310.625000;0.498958;50;39;piano
311.125000;0.078125;70;33;piano
311.208333;0.000000;87;39;piano
311.208333;0.165625;87;39;piano
311.291667;0.082292;78;39;piano
311.375000;0.082292;70;39;piano
311.458333;0.000000;86;39;piano
311.458333;0.165625;86;49;piano
311.541667;0.082292;78;39;piano
311.625000;0.082292;70;39;piano
311.708333;0.000000;86;39;piano
311.708333;0.165625;86;49;piano
311.791667;0.082292;78;39;piano
311.875000;0.082292;70;39;piano
311.958333;0.000000;85;39;piano
311.958333;0.165625;85;49;piano
312.041667;0.082292;78;39;piano
312.125000;0.082292;70;39;piano
312.208333;0.000000;85;39;piano
312.208333;0.165625;85;49;piano
312.291667;0.082292;78;39;piano
312.375000;0.082292;70;39;piano
312.458333;0.000000;84;39;piano
312.458333;0.165625;84;49;piano
312.541667;0.082292;78;39;piano
312.625000;0.082292;70;39;piano
312.708333;0.000000;84;39;piano
312.708333;0.165625;84;49;piano
312.791667;0.082292;78;39;piano
312.875000;0.082292;70;39;piano
312.958333;0.000000;83;39;piano
312.958333;0.165625;83;49;piano
313.041667;0.082292;78;39;piano
313.125000;0.082292;71;39;piano
313.208333;0.000000;83;39;piano
313.208333;0.165625;83;49;piano
313.291667;0.082292;77;39;piano
313.375000;0.082292;71;39;piano
313.458333;0.000000;82;39;piano
313.458333;0.165625;82;49;piano
313.541667;0.082292;77;39;piano
313.625000;0.082292;71;39;piano
313.708333;0.000000;82;39;piano
313.708333;0.165625;82;49;piano
313.791667;0.082292;77;39;piano
313.875000;0.082292;71;39;piano
313.958333;0.000000;81;39;piano
313.958333;0.165625;81;49;piano
314.041667;0.082292;77;39;piano
314.125000;0.082292;71;39;piano
314.208333;0.000000;81;39;piano
314.208333;0.165625;81;49;piano
314.291667;0.082292;77;39;piano
314.375000;0.082292;71;39;piano
314.458333;0.000000;79;39;piano
314.458333;0.165625;79;49;piano
314.541667;0.082292;77;39;piano
314.625000;0.082292;71;39;piano
314.708333;0.000000;79;39;piano
314.708333;0.165625;79;49;piano
314.791667;0.082292;77;39;piano
314.875000;0.082292;71;39;piano
314.958333;0.000000;80;39;piano
314.958333;0.165625;80;49;piano
315.041667;0.082292;77;39;piano
315.125000;0.082292;70;39;piano
315.208333;0.000000;87;39;piano
315.208333;0.165625;87;59;piano
315.291667;0.082292;78;39;piano
315.375000;0.082292;70;39;piano
315.458333;0.000000;86;39;piano
315.458333;0.165625;86;49;piano
315.541667;0.082292;78;39;piano
315.625000;0.082292;70;39;piano
315.708333;0.000000;86;39;piano
315.708333;0.165625;86;49;piano
315.791667;0.082292;78;39;piano
315.875000;0.082292;70;39;piano
315.958333;0.000000;85;39;piano
315.958333;0.165625;85;49;piano
316.041667;0.082292;78;39;piano
316.125000;0.082292;70;39;piano
316.208333;0.000000;85;39;piano
316.208333;0.165625;85;49;piano
316.291667;0.082292;78;39;piano
316.375000;0.082292;70;39;piano
316.458333;0.000000;84;39;piano
316.458333;0.165625;84;49;piano
316.541667;0.082292;78;39;piano
316.625000;0.082292;70;39;piano
316.708333;0.000000;84;39;piano
316.708333;0.165625;84;49;piano
316.791667;0.082292;78;39;piano
316.875000;0.082292;70;39;piano
316.958333;0.000000;83;39;piano
316.958333;0.165625;83;49;piano
317.041667;0.082292;78;39;piano
317.125000;0.082292;71;39;piano
317.208333;0.000000;83;39;piano
317.208333;0.165625;83;49;piano
317.291667;0.082292;77;40;piano
317.375000;0.082292;71;42;piano
317.458333;0.000000;82;42;piano
317.458333;0.165625;82;52;piano
317.541667;0.082292;77;43;piano
317.625000;0.082292;71;44;piano
317.708333;0.000000;82;44;piano
317.708333;0.165625;82;55;piano
317.791667;0.082292;77;45;piano
317.875000;0.082292;71;46;piano
317.958333;0.000000;81;46;piano
317.958333;0.165625;81;58;piano
318.041667;0.082292;77;48;piano
318.125000;0.082292;71;49;piano
318.208333;0.000000;81;49;piano
318.208333;0.165625;81;61;piano
318.291667;0.082292;77;50;piano
318.375000;0.082292;71;51;piano
318.458333;0.000000;79;51;piano
318.458333;0.165625;79;64;piano
318.541667;0.082292;77;52;piano
318.625000;0.082292;71;54;piano
318.708333;0.000000;79;54;piano
318.708333;0.165625;79;67;piano
318.791667;0.082292;77;55;piano
318.875000;0.082292;71;56;piano
318.958333;0.000000;80;56;piano
318.958333;0.165625;80;70;piano
319.041667;0.082292;77;57;piano
319.125000;0.082292;72;58;piano
319.208333;0.000000;89;58;piano
319.208333;0.165625;89;88;piano
319.291667;0.082292;80;58;piano
319.375000;0.082292;72;58;piano
319.458333;0.000000;88;58;piano
319.458333;0.165625;88;73;piano
319.541667;0.082292;80;58;piano
319.625000;0.082292;72;58;piano
319.708333;0.000000;88;58;piano
319.708333;0.165625;88;73;piano
319.791667;0.082292;80;58;piano
319.875000;0.082292;72;58;piano
319.958333;0.000000;87;58;piano
319.958333;0.165625;87;73;piano
320.041667;0.082292;80;58;piano
320.125000;0.082292;73;58;piano
320.208333;0.000000;87;58;piano
320.208333;0.165625;87;73;piano
320.291667;0.082292;79;58;piano
320.375000;0.082292;73;58;piano
320.458333;0.000000;86;58;piano
320.458333;0.165625;86;73;piano
320.541667;0.082292;79;58;piano
320.625000;0.082292;73;58;piano
320.708333;0.000000;85;58;piano
320.708333;0.165625;85;73;piano
320.791667;0.082292;79;58;piano
320.875000;0.082292;73;58;piano
320.958333;0.000000;82;58;piano
320.958333;0.165625;82;73;piano
321.041667;0.082292;79;58;piano
321.125000;0.082292;74;58;piano
321.208333;0.000000;91;58;piano
321.208333;0.165625;91;88;piano
321.291667;0.082292;82;58;piano
321.375000;0.082292;74;58;piano
321.458333;0.000000;90;58;piano
321.458333;0.165625;90;73;piano
321.541667;0.082292;82;58;piano
321.625000;0.082292;74;58;piano
321.708333;0.000000;90;58;piano
321.708333;0.165625;90;73;piano
321.791667;0.082292;82;58;piano
321.875000;0.082292;74;58;piano
321.958333;0.000000;89;58;piano
321.958333;0.165625;89;73;piano
322.041667;0.082292;82;58;piano
322.125000;0.082292;75;58;piano
322.208333;0.000000;89;58;piano
322.208333;0.165625;89;73;piano
322.291667;0.082292;81;58;piano
322.375000;0.082292;75;58;piano
322.458333;0.000000;88;58;piano
322.458333;0.165625;88;73;piano
322.541667;0.082292;81;58;piano
322.625000;0.082292;75;58;piano
322.708333;0.000000;87;58;piano
322.708333;0.165625;87;73;piano
322.791667;0.082292;81;58;piano
322.875000;0.082292;75;58;piano
322.958333;0.000000;84;58;piano
322.958333;0.165625;84;73;piano
323.041667;0.082292;81;58;piano
323.125000;0.082292;76;58;piano
323.208333;0.000000;93;58;piano
323.208333;0.165625;93;88;piano
323.291667;0.082292;84;58;piano
323.375000;0.082292;76;58;piano
323.458333;0.000000;91;58;piano
323.458333;0.165625;91;73;piano
323.541667;0.082292;84;58;piano
323.625000;0.082292;76;58;piano
323.708333;0.000000;91;58;piano
323.708333;0.165625;91;73;piano
323.791667;0.082292;84;58;piano
323.875000;0.082292;76;58;piano
323.958333;0.000000;90;58;piano
323.958333;0.165625;90;73;piano
324.041667;0.082292;84;58;piano
324.125000;0.082292;76;58;piano
324.208333;0.000000;90;58;piano
324.208333;0.165625;90;73;piano
324.291667;0.082292;84;58;piano
324.375000;0.082292;76;58;piano
324.458333;0.000000;91;58;piano
324.458333;0.165625;91;73;piano
324.541667;0.082292;84;58;piano
324.625000;0.082292;76;58;piano
324.708333;0.000000;91;58;piano
324.708333;0.165625;91;73;piano
324.791667;0.082292;84;58;piano
324.875000;0.082292;84;58;piano
324.958333;0.000000;100;58;piano
324.958333;0.165625;100;73;piano
325.041667;0.082292;91;58;piano
325.125000;0.082292;84;58;piano
325.208333;0.000000;100;58;piano
325.208333;0.165625;100;88;piano
325.291667;0.082292;89;58;piano
325.375000;0.082292;84;58;piano
325.458333;0.000000;98;58;piano
325.458333;0.165625;98;73;piano
325.541667;0.082292;89;58;piano
325.625000;0.082292;84;58;piano
325.708333;0.000000;98;58;piano
325.708333;0.165625;98;73;piano
325.791667;0.082292;89;58;piano
325.875000;0.082292;84;58;piano
325.958333;0.000000;97;58;piano
325.958333;0.165625;97;73;piano
326.041667;0.082292;89;58;piano
326.125000;0.082292;83;58;piano
326.208333;0.000000;97;58;piano
326.208333;0.165625;97;73;piano
326.291667;0.082292;89;58;piano
326.375000;0.082292;83;58;piano
326.458333;0.000000;98;58;piano
326.458333;0.165625;98;73;piano
326.541667;0.082292;89;58;piano
326.625000;0.082292;86;58;piano
326.708333;0.000000;101;58;piano
326.708333;0.165625;101;73;piano
326.791667;0.082292;95;58;piano
326.875000;0.082292;77;58;piano
326.958333;0.000000;91;58;piano
326.958333;0.165625;91;73;piano
327.041667;0.082292;83;58;piano
327.125000;0.082292;76;58;piano
327.208333;0.000000;93;58;piano
327.208333;0.165625;93;88;piano
327.291667;0.082292;84;58;piano
327.375000;0.082292;76;58;piano
327.458333;0.000000;91;58;piano
327.458333;0.165625;91;73;piano
327.541667;0.082292;84;58;piano
327.625000;0.082292;76;58;piano
327.708333;0.000000;91;58;piano
327.708333;0.165625;91;73;piano
327.791667;0.082292;84;58;piano
327.875000;0.082292;76;58;piano
327.958333;0.000000;90;58;piano
327.958333;0.165625;90;73;piano
328.041667;0.082292;84;58;piano
328.125000;0.082292;76;58;piano
328.208333;0.000000;90;58;piano
328.208333;0.165625;90;73;piano
328.291667;0.082292;84;58;piano
328.375000;0.082292;76;58;piano
328.458333;0.000000;91;58;piano
328.458333;0.165625;91;73;piano
328.541667;0.082292;84;58;piano
328.625000;0.082292;76;58;piano
328.708333;0.000000;91;58;piano
328.708333;0.165625;91;73;piano
328.791667;0.082292;84;58;piano
328.875000;0.082292;84;58;piano
328.958333;0.000000;100;58;piano
328.958333;0.165625;100;73;piano
329.041667;0.082292;91;58;piano
329.125000;0.082292;84;58;piano
329.208333;0.000000;100;58;piano
329.208333;0.165625;100;88;piano
329.291667;0.082292;89;58;piano
329.375000;0.082292;84;58;piano
329.458333;0.000000;98;58;piano
329.458333;0.165625;98;73;piano
329.541667;0.082292;89;58;piano
329.625000;0.082292;84;58;piano
329.708333;0.000000;98;58;piano
329.708333;0.165625;98;73;piano
329.791667;0.082292;89;58;piano
329.875000;0.082292;84;58;piano
329.958333;0.000000;97;58;piano
329.958333;0.165625;97;73;piano
330.041667;0.082292;89;58;piano
330.125000;0.082292;83;58;piano
330.208333;0.000000;97;58;piano
330.208333;0.165625;97;73;piano
330.291667;0.082292;89;58;piano
330.375000;0.082292;83;58;piano
330.458333;0.000000;98;58;piano
330.458333;0.165625;98;73;piano
330.541667;0.082292;89;58;piano
330.625000;0.082292;83;58;piano
330.708333;0.000000;99;58;piano
330.708333;0.165625;99;73;piano
330.791667;0.082292;89;58;piano
330.875000;0.082292;83;58;piano
330.958333;0.000000;97;58;piano
330.958333;0.165625;97;73;piano
331.041667;0.082292;89;58;piano
331.125000;0.078125;83;49;piano
331.208333;0.082292;95;73;piano
331.291667;0.082292;85;58;piano
331.375000;0.082292;90;73;piano
331.458333;0.078125;78;49;piano
331.541667;0.082292;85;58;piano
331.625000;0.082292;82;58;piano
331.708333;0.082292;94;73;piano
331.791667;0.082292;85;58;piano
331.875000;0.082292;89;73;piano
331.958333;0.078125;77;49;piano
332.041667;0.082292;85;58;piano
332.125000;0.082292;80;58;piano
332.208333;0.082292;92;73;piano
332.291667;0.082292;82;58;piano
332.375000;0.082292;86;73;piano
332.458333;0.078125;74;49;piano
332.541667;0.082292;82;58;piano
332.625000;0.082292;78;58;piano
332.708333;0.082292;90;73;piano
332.791667;0.082292;82;58;piano
332.875000;0.082292;86;73;piano
332.958333;0.078125;74;49;piano
333.041667;0.082292;82;58;piano
333.125000;0.082292;77;58;piano
333.208333;0.082292;89;73;piano
333.291667;0.082292;79;58;piano
333.375000;0.082292;83;73;piano
333.458333;0.082292;71;58;piano
333.541667;0.082292;79;58;piano
333.625000;0.082292;75;58;piano
333.708333;0.082292;87;73;piano
333.791667;0.082292;80;58;piano
333.875000;0.082292;83;73;piano
333.958333;0.082292;71;58;piano
334.041667;0.082292;80;58;piano
334.125000;0.082292;73;58;piano
334.208333;0.082292;85;73;piano
334.291667;0.082292;75;58;piano
334.375000;0.082292;80;73;piano
334.458333;0.082292;68;58;piano
334.541667;0.082292;75;58;piano
334.625000;0.082292;71;58;piano
334.708333;0.082292;83;73;piano
334.791667;0.082292;75;58;piano
334.875000;0.082292;80;73;piano
334.958333;0.082292;68;58;piano
335.041667;0.082292;75;58;piano
335.125000;0.082292;71;58;piano
335.208333;0.082292;83;73;piano
335.291667;0.082292;73;58;piano
335.375000;0.082292;78;73;piano
335.458333;0.082292;66;58;piano
335.541667;0.082292;73;58;piano
335.625000;0.082292;70;58;piano
335.708333;0.082292;82;73;piano
335.791667;0.082292;73;58;piano
335.875000;0.082292;78;73;piano
335.958333;0.082292;66;58;piano
336.041667;0.082292;73;58;piano
336.125000;0.082292;75;58;piano
336.208333;0.082292;87;73;piano
336.291667;0.082292;78;58;piano
336.375000;0.082292;82;73;piano
336.458333;0.082292;70;58;piano
336.541667;0.082292;78;58;piano
336.625000;0.082292;73;58;piano
336.708333;0.082292;85;73;piano
336.791667;0.082292;78;58;piano
336.875000;0.082292;82;73;piano
336.958333;0.082292;70;58;piano
337.041667;0.082292;78;58;piano
337.125000;0.082292;70;58;piano
337.208333;0.082292;82;73;piano
337.291667;0.082292;73;60;piano
337.375000;0.082292;77;75;piano
337.458333;0.082292;65;61;piano
337.541667;0.082292;73;62;piano
337.625000;0.082292;68;62;piano
337.708333;0.082292;80;79;piano
337.791667;0.082292;73;64;piano
337.875000;0.082292;77;81;piano
337.958333;0.082292;65;66;piano
338.041667;0.082292;73;66;piano
338.125000;0.082292;74;67;piano
338.208333;0.082292;86;85;piano
338.291667;0.082292;77;68;piano
338.375000;0.082292;80;69;piano
338.458333;0.078125;68;59;piano
338.541667;0.078125;77;59;piano
338.625000;0.078125;73;60;piano
338.708333;0.082292;85;72;piano
338.791667;0.078125;77;61;piano
338.875000;0.082292;80;74;piano
338.958333;0.078125;68;62;piano
339.041667;0.078125;73;63;piano
339.125000;0.078125;83;64;piano
339.208333;0.082292;95;76;piano
339.291667;0.078125;85;64;piano
339.375000;0.082292;90;76;piano
339.458333;0.078125;78;64;piano
339.541667;0.078125;85;64;piano
339.625000;0.078125;82;64;piano
339.708333;0.082292;94;76;piano
339.791667;0.078125;85;64;piano
339.875000;0.082292;89;76;piano
339.958333;0.078125;77;64;piano
340.041667;0.078125;85;64;piano
340.125000;0.078125;80;64;piano
340.208333;0.082292;92;76;piano
340.291667;0.078125;82;64;piano
340.375000;0.082292;86;76;piano
340.458333;0.078125;74;64;piano
340.541667;0.078125;82;64;piano
340.625000;0.078125;78;64;piano
340.708333;0.082292;90;76;piano
340.791667;0.078125;82;64;piano
340.875000;0.082292;86;76;piano
340.958333;0.078125;74;64;piano
341.041667;0.078125;82;64;piano
341.125000;0.082292;77;76;piano
341.208333;0.082292;89;76;piano
341.291667;0.078125;79;64;piano
341.375000;0.082292;83;76;piano
341.458333;0.078125;71;64;piano
341.541667;0.078125;79;64;piano
341.625000;0.078125;75;64;piano
341.708333;0.082292;87;76;piano
341.791667;0.078125;80;64;piano
341.875000;0.082292;83;76;piano
341.958333;0.078125;71;64;piano
342.041667;0.078125;80;64;piano
342.125000;0.078125;73;64;piano
342.208333;0.082292;85;76;piano
342.291667;0.078125;75;64;piano
342.375000;0.082292;80;76;piano
342.458333;0.078125;68;64;piano
342.541667;0.078125;75;64;piano
342.625000;0.078125;71;64;piano
342.708333;0.082292;83;76;piano
342.791667;0.078125;75;64;piano
342.875000;0.082292;80;76;piano
342.958333;0.078125;68;64;piano
343.041667;0.078125;75;64;piano
343.125000;0.078125;71;64;piano
343.208333;0.082292;83;76;piano
343.291667;0.078125;73;64;piano
343.375000;0.082292;78;76;piano
343.458333;0.078125;66;64;piano
343.541667;0.078125;73;64;piano
343.625000;0.078125;70;64;piano
343.708333;0.082292;82;76;piano
343.791667;0.078125;73;64;piano
343.875000;0.082292;78;76;piano
343.958333;0.078125;66;64;piano
344.041667;0.078125;73;64;piano
344.125000;0.078125;75;64;piano
344.208333;0.082292;87;76;piano
344.291667;0.078125;78;64;piano
344.375000;0.082292;82;76;piano
344.458333;0.078125;70;64;piano
344.541667;0.078125;78;64;piano
344.625000;0.078125;73;64;piano
344.708333;0.082292;85;76;piano
344.791667;0.078125;78;64;piano
344.875000;0.082292;82;76;piano
344.958333;0.078125;70;64;piano
345.041667;0.078125;78;64;piano
345.125000;0.078125;70;64;piano
345.208333;0.082292;82;76;piano
345.291667;0.078125;73;64;piano
345.375000;0.078125;77;64;piano
345.458333;0.078125;65;64;piano
345.541667;0.078125;73;64;piano
345.625000;0.078125;68;64;piano
345.708333;0.082292;80;76;piano
345.791667;0.078125;73;64;piano
345.875000;0.078125;77;64;piano
345.958333;0.078125;65;64;piano
346.041667;0.078125;73;64;piano
346.125000;0.078125;74;64;piano
346.208333;0.082292;86;78;piano
346.291667;0.078125;77;66;piano
346.375000;0.078125;80;68;piano
346.458333;0.078125;68;69;piano
346.541667;0.078125;77;70;piano
346.625000;0.078125;73;72;piano
346.708333;0.082292;85;87;piano
346.791667;0.078125;77;74;piano
346.875000;0.078125;80;76;piano
346.958333;0.078125;68;77;piano
347.041667;0.078125;73;78;piano
347.125000;0.078125;83;80;piano
347.208333;0.082292;95;96;piano
347.291667;0.078125;85;80;piano
347.375000;0.082292;90;96;piano
347.458333;0.078125;78;80;piano
347.541667;0.078125;85;80;piano
347.625000;0.078125;82;80;piano
347.708333;0.082292;94;96;piano
347.791667;0.078125;85;80;piano
347.875000;0.082292;89;96;piano
347.958333;0.078125;77;80;piano
348.041667;0.078125;85;80;piano
348.125000;0.078125;80;80;piano
348.208333;0.082292;92;96;piano
348.291667;0.078125;82;80;piano
348.375000;0.082292;86;96;piano
348.458333;0.078125;74;80;piano
348.541667;0.078125;82;80;piano
348.625000;0.078125;78;80;piano
348.708333;0.082292;90;96;piano
348.791667;0.078125;82;80;piano
348.875000;0.082292;86;96;piano
348.958333;0.078125;74;80;piano
349.041667;0.078125;82;80;piano
349.125000;0.082292;77;96;piano
349.208333;0.082292;89;96;piano
349.291667;0.078125;79;80;piano
349.375000;0.082292;83;96;piano
349.458333;0.078125;71;80;piano
349.541667;0.078125;79;80;piano
349.625000;0.078125;75;80;piano
349.708333;0.082292;87;96;piano
349.791667;0.078125;80;80;piano
349.875000;0.082292;83;96;piano
349.958333;0.078125;71;80;piano
350.041667;0.078125;80;80;piano
350.125000;0.078125;73;80;piano
350.208333;0.082292;85;96;piano
350.291667;0.078125;75;80;piano
350.375000;0.082292;80;96;piano
350.458333;0.078125;68;80;piano
350.541667;0.078125;75;80;piano
350.625000;0.078125;71;80;piano
350.708333;0.082292;83;96;piano
350.791667;0.078125;75;80;piano
350.875000;0.082292;80;96;piano
350.958333;0.078125;68;80;piano
351.041667;0.078125;75;80;piano
351.125000;0.078125;71;80;piano
351.208333;0.082292;83;96;piano
351.291667;0.078125;73;80;piano
351.375000;0.082292;78;96;piano
351.458333;0.078125;66;80;piano
351.541667;0.078125;73;80;piano
351.625000;0.078125;70;80;piano
351.708333;0.082292;82;96;piano
351.791667;0.078125;73;80;piano
351.875000;0.082292;78;96;piano
351.958333;0.078125;66;80;piano
352.041667;0.078125;73;80;piano
352.125000;0.078125;71;80;piano
352.208333;0.082292;83;96;piano
352.291667;0.078125;73;80;piano
352.375000;0.082292;78;96;piano
352.458333;0.078125;66;80;piano
352.541667;0.078125;75;80;piano
352.625000;0.078125;72;80;piano
352.708333;0.082292;84;98;piano
352.791667;0.078125;78;85;piano
352.875000;0.082292;82;105;piano
352.958333;0.078125;70;90;piano
353.041667;0.078125;78;93;piano
353.125000;0.078125;73;96;piano
353.208333;0.082292;85;117;piano
353.291667;0.078125;78;101;piano
353.375000;0.082292;82;124;piano
353.458333;0.078125;70;106;piano
353.541667;0.078125;78;109;piano
353.708333;0.078125;78;112;piano
353.791667;0.078125;86;112;piano
353.875000;0.078125;81;112;piano
353.958333;0.078125;78;112;piano
354.041667;0.078125;74;112;piano
354.125000;0.078125;69;112;piano
354.208333;0.078125;66;112;piano
354.291667;0.078125;62;112;piano
354.375000;0.078125;57;112;piano
354.458333;0.078125;54;112;piano
354.541667;0.078125;50;112;piano
354.625000;0.082292;45;127;piano
354.708333;0.078125;50;112;piano
354.791667;0.078125;54;112;piano
354.875000;0.078125;57;112;piano
354.958333;0.078125;62;112;piano
355.041667;0.078125;66;112;piano
355.125000;0.066667;69;112;piano
355.196875;0.066667;74;112;piano
355.267708;0.066667;78;112;piano
355.339583;0.066667;81;112;piano
355.410417;0.066667;86;112;piano
355.482292;0.066667;90;112;piano
355.553125;0.066667;93;112;piano
355.625000;0.236458;98;112;piano
356.250000;0.117708;74;126;piano
356.375000;0.117708;83;126;piano
356.500000;0.117708;81;126;piano
356.625000;0.117708;79;126;piano
356.750000;0.117708;78;126;piano
356.875000;0.117708;76;126;piano
357.000000;0.117708;74;126;piano
357.125000;0.117708;78;126;piano
357.250000;0.123958;69;126;piano
357.375000;0.177083;74;126;piano
357.562500;0.058333;73;126;piano
357.625000;0.248958;73;127;piano
358.125000;0.236458;71;126;piano
358.125000;0.248958;62;127;piano
358.125000;0.248958;66;127;piano
358.500000;0.117708;71;126;piano
358.625000;0.117708;79;126;piano
358.750000;0.117708;78;126;piano
358.875000;0.117708;76;126;piano
359.000000;0.117708;74;126;piano
359.125000;0.117708;73;126;piano
359.250000;0.117708;71;126;piano
359.375000;0.117708;74;126;piano
359.500000;0.123958;66;126;piano
359.625000;0.177083;71;126;piano
359.812500;0.058333;69;126;piano
359.875000;0.248958;69;127;piano
360.375000;0.236458;67;126;piano
360.375000;0.248958;59;127;piano
360.375000;0.248958;62;127;piano
360.750000;0.117708;67;126;piano
360.875000;0.117708;76;126;piano
361.000000;0.117708;74;126;piano
361.125000;0.117708;73;126;piano
361.250000;0.117708;71;126;piano
361.375000;0.117708;69;126;piano
361.500000;0.117708;67;126;piano
361.625000;0.117708;71;126;piano
361.750000;0.123958;62;126;piano
361.875000;0.177083;67;126;piano
362.062500;0.061458;54;127;piano
362.062500;0.061458;59;127;piano
362.062500;0.061458;66;127;piano
362.125000;0.498958;54;127;piano
362.125000;0.498958;59;127;piano
362.125000;0.498958;66;127;piano
362.625000;0.998958;53;127;piano
362.625000;0.998958;59;127;piano
362.625000;0.998958;65;127;piano
363.625000;0.973958;53;127;piano
363.625000;0.973958;59;127;piano
363.625000;0.973958;65;127;piano
364.625000;0.473958;53;104;piano
364.625000;0.473958;59;104;piano
364.625000;0.473958;65;104;piano
365.125000;0.473958;53;80;piano
365.125000;0.473958;59;80;piano
365.125000;0.473958;65;80;piano
365.625000;0.948958;53;57;piano
365.625000;0.948958;59;57;piano
365.625000;0.948958;65;57;piano
368.000000;0.123958;71;49;piano
368.000000;0.123958;77;49;piano
368.125000;0.873958;71;49;piano
368.125000;0.873958;77;49;piano
369.000000;0.123958;65;49;piano
369.000000;0.123958;71;49;piano
369.125000;0.873958;65;49;piano
369.125000;0.873958;71;49;piano
370.000000;0.123958;59;39;piano
370.000000;0.123958;65;39;piano
370.125000;0.873958;59;39;piano
370.125000;0.873958;65;39;piano
371.000000;0.123958;53;39;piano
371.000000;0.123958;59;39;piano
371.125000;1.473958;53;39;piano
371.125000;1.473958;59;39;piano
372.625000;0.998958;53;49;piano
372.625000;0.998958;59;49;piano
373.625000;0.498958;53;39;piano
373.625000;0.498958;59;39;piano
374.125000;0.998958;53;39;piano
374.125000;0.998958;60;39;piano
376.000000;0.123958;77;49;piano
376.000000;0.123958;84;49;piano
376.125000;0.873958;77;49;piano
376.125000;0.873958;84;49;piano
377.000000;0.123958;72;49;piano
377.000000;0.123958;77;49;piano
377.125000;0.873958;72;49;piano
377.125000;0.873958;77;49;piano
378.000000;0.123958;65;39;piano
378.000000;0.123958;72;39;piano
378.125000;0.873958;65;39;piano
378.125000;0.873958;72;39;piano
379.000000;0.117708;60;33;piano
379.000000;0.117708;65;33;piano
379.125000;0.830208;60;33;piano
379.125000;0.830208;65;33;piano
380.000000;0.123958;53;49;piano
380.000000;0.123958;60;49;piano
380.125000;1.498958;53;49;piano
380.125000;1.498958;60;49;piano
381.625000;0.498958;53;39;piano
381.625000;0.498958;60;39;piano
382.125000;0.078125;53;33;piano
382.125000;0.078125;56;33;piano
382.208333;0.078125;62;33;piano
382.291667;0.078125;53;33;piano
382.291667;0.078125;56;33;piano
382.375000;0.078125;62;33;piano
382.458333;0.078125;53;33;piano
382.458333;0.078125;56;33;piano
382.541667;0.078125;62;33;piano
382.625000;0.078125;53;33;piano
382.625000;0.078125;56;33;piano
382.708333;0.078125;62;33;piano
382.791667;0.078125;53;33;piano
382.791667;0.078125;56;33;piano
382.875000;0.078125;62;33;piano
382.958333;0.078125;53;33;piano
382.958333;0.078125;56;33;piano
383.041667;0.078125;62;33;piano
383.125000;0.078125;53;33;piano
383.125000;0.078125;56;33;piano
383.208333;0.078125;62;33;piano
383.291667;0.078125;53;33;piano
383.291667;0.078125;56;33;piano
383.375000;0.078125;62;33;piano
383.458333;0.078125;53;33;piano
383.458333;0.078125;56;33;piano
383.541667;0.078125;62;33;piano
383.625000;0.078125;53;33;piano
383.625000;0.078125;56;33;piano
383.708333;0.078125;62;33;piano
383.791667;0.078125;53;33;piano
383.791667;0.078125;56;33;piano
383.875000;0.078125;62;33;piano
383.958333;0.078125;53;33;piano
383.958333;0.078125;56;33;piano
384.041667;0.078125;62;33;piano
384.125000;0.078125;53;33;piano
384.125000;0.078125;56;33;piano
384.208333;0.078125;62;33;piano
384.291667;0.078125;53;33;piano
384.291667;0.078125;56;33;piano
384.375000;0.078125;62;33;piano
384.458333;0.078125;53;33;piano
384.458333;0.078125;56;33;piano
384.541667;0.078125;62;33;piano
384.625000;0.078125;53;33;piano
384.625000;0.078125;56;33;piano
384.708333;0.078125;62;33;piano
384.791667;0.078125;53;33;piano
384.791667;0.078125;56;33;piano
384.875000;0.078125;62;33;piano
384.958333;0.078125;53;33;piano
384.958333;0.078125;56;33;piano
385.041667;0.078125;62;33;piano
385.125000;0.078125;53;33;piano
385.125000;0.078125;56;33;piano
385.208333;0.078125;62;33;piano
385.291667;0.078125;53;33;piano
385.291667;0.078125;56;33;piano
385.375000;0.078125;62;33;piano
385.458333;0.078125;53;33;piano
385.458333;0.078125;56;33;piano
385.541667;0.078125;62;33;piano
385.625000;0.078125;53;33;piano
385.625000;0.078125;56;33;piano
385.708333;0.078125;62;33;piano
385.791667;0.078125;53;33;piano
385.791667;0.078125;56;33;piano
385.875000;0.078125;62;33;piano
385.958333;0.078125;53;33;piano
385.958333;0.078125;56;33;piano
386.041667;0.078125;62;33;piano
386.125000;0.078125;53;33;piano
386.125000;0.078125;56;33;piano
386.208333;0.078125;62;33;piano
386.291667;0.078125;53;33;piano
386.291667;0.078125;56;33;piano
386.375000;0.078125;62;33;piano
386.458333;0.078125;53;33;piano
386.458333;0.078125;56;33;piano
386.541667;0.078125;62;33;piano
386.625000;0.078125;53;33;piano
386.625000;0.078125;56;33;piano
386.708333;0.078125;62;33;piano
386.791667;0.078125;53;33;piano
386.791667;0.078125;56;33;piano
386.875000;0.078125;62;33;piano
386.958333;0.078125;53;33;piano
386.958333;0.078125;56;33;piano
387.041667;0.078125;62;33;piano
387.125000;0.078125;53;33;piano
387.125000;0.078125;56;33;piano
387.208333;0.078125;62;33;piano
387.291667;0.078125;53;33;piano
387.291667;0.078125;56;33;piano
387.375000;0.078125;62;33;piano
387.458333;0.078125;53;33;piano
387.458333;0.078125;56;33;piano
387.541667;0.078125;62;33;piano
387.625000;0.078125;53;33;piano
387.625000;0.078125;56;33;piano
387.708333;0.078125;62;33;piano
387.791667;0.078125;53;33;piano
387.791667;0.078125;56;33;piano
387.875000;0.078125;62;33;piano
387.958333;0.078125;53;33;piano
387.958333;0.078125;56;33;piano
388.041667;0.078125;62;33;piano
388.125000;0.078125;53;33;piano
388.125000;0.078125;56;33;piano
388.208333;0.078125;62;33;piano
388.291667;0.078125;53;33;piano
388.291667;0.078125;56;33;piano
388.375000;0.078125;62;33;piano
388.458333;0.078125;53;33;piano
388.458333;0.078125;56;33;piano
388.541667;0.078125;62;33;piano
388.625000;0.078125;53;33;piano
388.625000;0.078125;56;33;piano
388.708333;0.078125;62;33;piano
388.791667;0.078125;53;33;piano
388.791667;0.078125;56;33;piano
388.875000;0.078125;62;33;piano
388.958333;0.078125;53;33;piano
388.958333;0.078125;56;33;piano
389.041667;0.078125;62;33;piano
389.125000;0.078125;53;33;piano
389.125000;0.078125;56;33;piano
389.208333;0.078125;62;33;piano
389.291667;0.078125;53;33;piano
389.291667;0.078125;56;33;piano
389.375000;0.078125;62;33;piano
389.458333;0.078125;53;33;piano
389.458333;0.078125;56;33;piano
389.541667;0.078125;62;33;piano
389.625000;0.078125;56;33;piano
389.625000;0.078125;59;33;piano
389.708333;0.078125;62;33;piano
389.791667;0.078125;56;33;piano
389.791667;0.078125;59;33;piano
389.875000;0.078125;62;33;piano
389.958333;0.078125;56;33;piano
389.958333;0.078125;59;33;piano
390.041667;0.078125;62;33;piano
390.125000;0.078125;54;33;piano
390.125000;0.078125;57;33;piano
390.208333;0.078125;63;33;piano
390.291667;0.078125;54;33;piano
390.291667;0.078125;57;33;piano
390.375000;0.078125;63;33;piano
390.458333;0.078125;54;33;piano
390.458333;0.078125;57;33;piano
390.541667;0.078125;63;33;piano
390.625000;0.078125;54;33;piano
390.625000;0.078125;57;33;piano
390.708333;0.078125;63;33;piano
390.791667;0.078125;54;33;piano
390.791667;0.078125;57;33;piano
390.875000;0.078125;63;33;piano
390.958333;0.078125;54;33;piano
390.958333;0.078125;57;33;piano
391.041667;0.078125;63;33;piano
391.125000;0.078125;54;33;piano
391.125000;0.078125;57;33;piano
391.208333;0.078125;63;34;piano
391.291667;0.078125;54;35;piano
391.291667;0.078125;57;35;piano
391.375000;0.078125;63;37;piano
391.458333;0.078125;54;38;piano
391.458333;0.078125;57;38;piano
391.541667;0.078125;63;39;piano
391.625000;0.078125;54;41;piano
391.625000;0.078125;57;41;piano
391.708333;0.078125;63;42;piano
391.791667;0.078125;54;43;piano
391.791667;0.078125;57;43;piano
391.875000;0.078125;63;45;piano
391.958333;0.078125;54;46;piano
391.958333;0.078125;57;46;piano
392.041667;0.078125;63;47;piano
392.125000;0.078125;54;49;piano
392.125000;0.078125;57;49;piano
392.208333;0.078125;63;49;piano
392.291667;0.078125;54;49;piano
392.291667;0.078125;57;49;piano
392.375000;0.078125;63;49;piano
392.458333;0.078125;54;49;piano
392.458333;0.078125;57;49;piano
392.541667;0.078125;63;49;piano
392.625000;0.078125;54;49;piano
392.625000;0.078125;57;49;piano
392.708333;0.078125;63;49;piano
392.791667;0.078125;54;49;piano
392.791667;0.078125;57;49;piano
392.875000;0.078125;63;49;piano
392.958333;0.078125;54;49;piano
392.958333;0.078125;57;49;piano
393.041667;0.078125;63;49;piano
393.125000;0.078125;54;49;piano
393.125000;0.078125;57;49;piano
393.208333;0.078125;63;49;piano
393.291667;0.078125;54;49;piano
393.291667;0.078125;57;49;piano
393.375000;0.078125;63;49;piano
393.458333;0.078125;54;49;piano
393.458333;0.078125;57;49;piano
393.541667;0.078125;63;49;piano
393.625000;0.078125;54;49;piano
393.625000;0.078125;57;49;piano
393.708333;0.078125;63;49;piano
393.791667;0.078125;54;49;piano
393.791667;0.078125;57;49;piano
393.875000;0.078125;63;49;piano
393.958333;0.078125;54;49;piano
393.958333;0.078125;57;49;piano
394.041667;0.078125;63;49;piano
394.125000;0.078125;54;49;piano
394.125000;0.078125;57;49;piano
394.208333;0.078125;63;49;piano
394.291667;0.078125;54;49;piano
394.291667;0.078125;57;49;piano
394.375000;0.078125;63;49;piano
394.458333;0.078125;54;49;piano
394.458333;0.078125;57;49;piano
394.541667;0.078125;63;49;piano
394.625000;0.078125;54;49;piano
394.625000;0.078125;57;49;piano
394.708333;0.078125;63;49;piano
394.791667;0.078125;54;49;piano
394.791667;0.078125;57;49;piano
394.875000;0.078125;63;49;piano
394.958333;0.078125;54;49;piano
394.958333;0.078125;57;49;piano
395.041667;0.078125;63;49;piano
395.125000;0.078125;54;49;piano
395.125000;0.078125;57;49;piano
395.208333;0.078125;63;49;piano
395.291667;0.078125;54;49;piano
395.291667;0.078125;57;49;piano
395.375000;0.078125;63;49;piano
395.458333;0.078125;54;49;piano
395.458333;0.078125;57;49;piano
395.541667;0.078125;63;49;piano
395.625000;0.078125;54;49;piano
395.625000;0.078125;57;49;piano
395.708333;0.078125;63;49;piano
395.791667;0.078125;54;49;piano
395.791667;0.078125;57;49;piano
395.875000;0.078125;63;49;piano
395.958333;0.078125;54;49;piano
395.958333;0.078125;57;49;piano
396.041667;0.078125;63;49;piano
396.125000;0.078125;54;49;piano
396.125000;0.078125;57;49;piano
396.208333;0.078125;63;49;piano
396.291667;0.078125;54;49;piano
396.291667;0.078125;57;49;piano
396.375000;0.078125;63;49;piano
396.458333;0.078125;54;49;piano
396.458333;0.078125;57;49;piano
396.541667;0.078125;63;49;piano
396.625000;0.078125;54;49;piano
396.625000;0.078125;57;49;piano
396.708333;0.078125;63;49;piano
396.791667;0.078125;54;49;piano
396.791667;0.078125;57;49;piano
396.875000;0.078125;63;49;piano
396.958333;0.078125;54;49;piano
396.958333;0.078125;57;49;piano
397.041667;0.078125;63;49;piano
397.125000;0.078125;54;49;piano
397.125000;0.078125;57;49;piano
397.208333;0.078125;63;49;piano
397.291667;0.078125;54;49;piano
397.291667;0.078125;57;49;piano
397.375000;0.078125;63;49;piano
397.458333;0.078125;54;49;piano
397.458333;0.078125;57;49;piano
397.541667;0.078125;63;49;piano
397.625000;0.078125;57;49;piano
397.625000;0.078125;60;49;piano
397.708333;0.078125;63;49;piano
397.791667;0.078125;57;49;piano
397.791667;0.078125;60;49;piano
397.875000;0.078125;63;49;piano
397.958333;0.078125;57;49;piano
397.958333;0.078125;60;49;piano
398.041667;0.078125;63;49;piano
398.125000;0.078125;55;49;piano
398.125000;0.078125;58;49;piano
398.208333;0.078125;64;49;piano
398.291667;0.078125;55;49;piano
398.291667;0.078125;58;49;piano
398.375000;0.078125;64;49;piano
398.458333;0.078125;55;49;piano
398.458333;0.078125;58;49;piano
398.541667;0.078125;64;49;piano
398.625000;0.078125;55;49;piano
398.625000;0.078125;58;49;piano
398.708333;0.078125;64;49;piano
398.791667;0.078125;55;49;piano
398.791667;0.078125;58;49;piano
398.875000;0.078125;64;49;piano
398.958333;0.078125;55;49;piano
398.958333;0.078125;58;49;piano
399.041667;0.078125;64;49;piano
399.125000;0.078125;55;49;piano
399.125000;0.078125;58;49;piano
399.208333;0.078125;64;49;piano
399.291667;0.078125;55;49;piano
399.291667;0.078125;58;49;piano
399.375000;0.078125;64;49;piano
399.458333;0.078125;55;49;piano
399.458333;0.078125;58;49;piano
399.541667;0.078125;64;49;piano
399.625000;0.078125;55;49;piano
399.625000;0.078125;58;49;piano
399.708333;0.078125;64;49;piano
399.791667;0.078125;55;49;piano
399.791667;0.078125;58;49;piano
399.875000;0.078125;64;49;piano
399.958333;0.078125;55;49;piano
399.958333;0.078125;58;49;piano
400.041667;0.078125;64;49;piano
400.125000;0.078125;55;49;piano
400.125000;0.078125;58;49;piano
400.208333;0.078125;64;49;piano
400.291667;0.078125;55;49;piano
400.291667;0.078125;58;49;piano
400.375000;0.078125;64;49;piano
400.458333;0.078125;55;49;piano
400.458333;0.078125;58;49;piano
400.541667;0.078125;64;49;piano
400.625000;0.078125;55;49;piano
400.625000;0.078125;58;49;piano
400.708333;0.078125;64;49;piano
400.791667;0.078125;55;49;piano
400.791667;0.078125;58;49;piano
400.875000;0.078125;64;49;piano
400.958333;0.078125;55;49;piano
400.958333;0.078125;58;49;piano
401.041667;0.078125;64;49;piano
401.125000;0.078125;55;49;piano
401.125000;0.078125;58;49;piano
401.208333;0.078125;64;49;piano
401.291667;0.078125;55;49;piano
401.291667;0.078125;58;49;piano
401.375000;0.078125;64;49;piano
401.458333;0.078125;55;49;piano
401.458333;0.078125;58;49;piano
401.541667;0.078125;64;49;piano
401.625000;0.078125;55;49;piano
401.625000;0.078125;58;49;piano
401.708333;0.078125;64;49;piano
401.791667;0.078125;55;49;piano
401.791667;0.078125;58;49;piano
401.875000;0.078125;64;49;piano
401.958333;0.078125;55;49;piano
401.958333;0.078125;58;49;piano
402.041667;0.078125;64;49;piano
402.250000;0.123958;55;58;piano
402.250000;0.123958;58;58;piano
402.250000;0.123958;64;58;piano
402.375000;0.123958;55;58;piano
402.375000;0.123958;58;58;piano
402.375000;0.123958;64;58;piano
402.750000;0.123958;67;58;piano
402.750000;0.123958;70;58;piano
402.750000;0.123958;76;58;piano
402.875000;0.123958;67;58;piano
402.875000;0.123958;70;58;piano
402.875000;0.123958;76;58;piano
403.250000;0.123958;79;58;piano
403.250000;0.123958;82;58;piano
403.250000;0.123958;88;58;piano
403.375000;0.123958;79;58;piano
403.375000;0.123958;82;58;piano
403.375000;0.123958;88;58;piano
403.750000;0.123958;55;58;piano
403.750000;0.123958;58;58;piano
403.750000;0.123958;64;58;piano
403.875000;0.123958;55;58;piano
403.875000;0.123958;58;58;piano
403.875000;0.123958;64;58;piano
404.250000;0.123958;56;58;piano
404.250000;0.123958;61;58;piano
404.250000;0.123958;65;58;piano
404.375000;0.123958;56;58;piano
404.375000;0.123958;61;58;piano
404.375000;0.123958;65;58;piano
404.750000;0.123958;68;58;piano
404.750000;0.123958;73;58;piano
404.750000;0.123958;77;58;piano
404.875000;0.123958;68;58;piano
404.875000;0.123958;73;58;piano
404.875000;0.123958;77;58;piano
405.250000;0.123958;80;60;piano
405.250000;0.123958;85;60;piano
405.250000;0.123958;89;60;piano
405.375000;0.123958;80;61;piano
405.375000;0.123958;85;61;piano
405.375000;0.123958;89;61;piano
405.750000;0.123958;56;62;piano
405.750000;0.123958;59;62;piano
405.750000;0.123958;65;62;piano
405.875000;0.123958;56;62;piano
405.875000;0.123958;59;62;piano
405.875000;0.123958;65;62;piano
406.250000;0.123958;57;64;piano
406.250000;0.123958;60;64;piano
406.250000;0.123958;66;64;piano
406.375000;0.123958;57;64;piano
406.375000;0.123958;60;64;piano
406.375000;0.123958;66;64;piano
406.750000;0.123958;69;66;piano
406.750000;0.123958;72;66;piano
406.750000;0.123958;78;66;piano
406.875000;0.123958;69;67;piano
406.875000;0.123958;72;67;piano
406.875000;0.123958;78;67;piano
407.250000;0.123958;81;68;piano
407.250000;0.123958;84;68;piano
407.250000;0.123958;90;68;piano
407.375000;0.123958;81;68;piano
407.375000;0.123958;84;68;piano
407.375000;0.123958;90;68;piano
407.750000;0.123958;57;70;piano
407.750000;0.123958;60;70;piano
407.750000;0.123958;66;70;piano
407.875000;0.123958;57;70;piano
407.875000;0.123958;60;70;piano
407.875000;0.123958;66;70;piano
408.250000;0.123958;58;72;piano
408.250000;0.123958;63;72;piano
408.250000;0.123958;67;72;piano
408.375000;0.123958;58;73;piano
408.375000;0.123958;63;73;piano
408.375000;0.123958;67;73;piano
408.750000;0.123958;70;74;piano
408.750000;0.123958;75;74;piano
408.750000;0.123958;79;74;piano
408.875000;0.123958;70;74;piano
408.875000;0.123958;75;74;piano
408.875000;0.123958;79;74;piano
409.250000;0.123958;82;76;piano
409.250000;0.123958;87;76;piano
409.250000;0.123958;91;76;piano
409.375000;0.123958;82;76;piano
409.375000;0.123958;87;76;piano
409.375000;0.123958;91;76;piano
409.750000;0.123958;58;78;piano
409.750000;0.123958;61;78;piano
409.750000;0.123958;67;78;piano
409.875000;0.123958;58;79;piano
409.875000;0.123958;61;79;piano
409.875000;0.123958;67;79;piano
410.250000;0.123958;59;80;piano
410.250000;0.123958;62;80;piano
410.250000;0.123958;68;80;piano
410.375000;0.123958;59;80;piano
410.375000;0.123958;62;80;piano
410.375000;0.123958;68;80;piano
410.750000;0.123958;71;82;piano
410.750000;0.123958;74;82;piano
410.750000;0.123958;80;82;piano
410.875000;0.123958;71;82;piano
410.875000;0.123958;74;82;piano
410.875000;0.123958;80;82;piano
411.250000;0.123958;83;84;piano
411.250000;0.123958;86;84;piano
411.250000;0.123958;92;84;piano
411.375000;0.123958;83;85;piano
411.375000;0.123958;86;85;piano
411.375000;0.123958;92;85;piano
411.750000;0.123958;59;86;piano
411.750000;0.123958;62;86;piano
411.750000;0.123958;68;86;piano
411.875000;0.123958;59;86;piano
411.875000;0.123958;62;86;piano
411.875000;0.123958;68;86;piano
412.250000;0.123958;62;88;piano
412.250000;0.123958;68;88;piano
412.250000;0.123958;71;88;piano
412.375000;0.123958;62;88;piano
412.375000;0.123958;68;88;piano
412.375000;0.123958;71;88;piano
412.750000;0.123958;74;90;piano
412.750000;0.123958;80;90;piano
412.750000;0.123958;83;90;piano
412.875000;0.123958;74;91;piano
412.875000;0.123958;80;91;piano
412.875000;0.123958;83;91;piano
413.250000;0.123958;86;92;piano
413.250000;0.123958;92;92;piano
413.250000;0.123958;95;92;piano
413.375000;0.123958;86;92;piano
413.375000;0.123958;92;92;piano
413.375000;0.123958;95;92;piano
413.750000;0.123958;62;94;piano
413.750000;0.123958;68;94;piano
413.750000;0.123958;71;94;piano
413.875000;0.123958;62;94;piano
413.875000;0.123958;68;94;piano
413.875000;0.123958;71;94;piano
414.250000;0.123958;62;96;piano
414.250000;0.123958;68;96;piano
414.250000;0.123958;71;96;piano
414.250000;0.123958;74;96;piano
414.375000;0.123958;62;96;piano
414.375000;0.123958;68;96;piano
414.375000;0.123958;71;96;piano
414.375000;0.123958;74;96;piano
414.750000;0.123958;74;98;piano
414.750000;0.123958;80;98;piano
414.750000;0.123958;83;98;piano
414.750000;0.123958;86;98;piano
414.875000;0.123958;74;98;piano
414.875000;0.123958;80;98;piano
414.875000;0.123958;83;98;piano
414.875000;0.123958;86;98;piano
415.250000;0.123958;86;100;piano
415.250000;0.123958;92;100;piano
415.250000;0.123958;95;100;piano
415.250000;0.123958;98;100;piano
415.375000;0.123958;86;100;piano
415.375000;0.123958;92;100;piano
415.375000;0.123958;95;100;piano
415.375000;0.123958;98;100;piano
415.750000;0.123958;62;103;piano
415.750000;0.123958;68;103;piano
415.750000;0.123958;71;103;piano
415.750000;0.123958;74;103;piano
415.875000;0.123958;62;103;piano
415.875000;0.123958;68;103;piano
415.875000;0.123958;71;103;piano
415.875000;0.123958;74;103;piano
416.250000;0.123958;65;105;piano
416.250000;0.123958;68;105;piano
416.250000;0.123958;71;105;piano
416.250000;0.123958;77;105;piano
416.375000;0.123958;65;106;piano
416.375000;0.123958;68;106;piano
416.375000;0.123958;71;106;piano
416.375000;0.123958;77;106;piano
416.750000;0.123958;77;108;piano
416.750000;0.123958;80;108;piano
416.750000;0.123958;89;108;piano
416.875000;0.123958;77;109;piano
416.875000;0.123958;80;109;piano
416.875000;0.123958;89;109;piano
417.250000;0.123958;89;110;piano
417.250000;0.123958;92;110;piano
417.250000;0.123958;101;110;piano
417.375000;0.123958;89;111;piano
417.375000;0.123958;92;111;piano
417.375000;0.123958;101;111;piano
417.750000;0.123958;89;112;piano
417.750000;0.123958;98;112;piano
417.750000;0.123958;101;112;piano
417.875000;0.123958;89;114;piano
417.875000;0.123958;98;114;piano
417.875000;0.123958;101;114;piano
418.250000;0.123958;77;127;piano
418.250000;0.123958;86;127;piano
418.250000;0.123958;89;127;piano
418.375000;0.123958;77;127;piano
418.375000;0.123958;86;127;piano
418.375000;0.123958;89;127;piano
418.750000;0.123958;65;127;piano
418.750000;0.123958;74;127;piano
418.750000;0.123958;77;127;piano
418.875000;0.123958;65;127;piano
418.875000;0.123958;74;127;piano
418.875000;0.123958;77;127;piano
419.250000;0.123958;77;127;piano
419.250000;0.123958;86;127;piano
419.250000;0.123958;89;127;piano
419.375000;0.123958;77;127;piano
419.375000;0.123958;86;127;piano
419.375000;0.123958;89;127;piano
419.750000;0.123958;89;127;piano
419.750000;0.123958;98;127;piano
419.750000;0.123958;101;127;piano
419.875000;0.123958;89;127;piano
419.875000;0.123958;98;127;piano
419.875000;0.123958;101;127;piano
420.250000;0.123958;78;127;piano
420.250000;0.123958;86;127;piano
420.250000;0.123958;90;127;piano
420.375000;0.123958;78;127;piano
420.375000;0.123958;86;127;piano
420.375000;0.123958;90;127;piano
420.750000;0.123958;66;127;piano
420.750000;0.123958;74;127;piano
420.750000;0.123958;78;127;piano
420.875000;0.123958;66;127;piano
420.875000;0.123958;74;127;piano
420.875000;0.123958;78;127;piano
421.250000;0.123958;67;127;piano
421.250000;0.123958;70;127;piano
421.250000;0.123958;73;127;piano
421.250000;0.123958;79;127;piano
421.375000;0.123958;67;127;piano
421.375000;0.123958;70;127;piano
421.375000;0.123958;73;127;piano
421.375000;0.123958;79;127;piano
421.791667;0.165625;51;127;piano
421.791667;0.165625;63;127;piano
421.958333;0.165625;52;127;piano
421.958333;0.165625;64;127;piano
422.125000;0.165625;55;127;piano
422.125000;0.165625;67;127;piano
422.291667;0.165625;58;127;piano
422.291667;0.165625;70;127;piano
422.458333;0.165625;61;127;piano
422.458333;0.165625;73;127;piano
422.625000;0.165625;62;127;piano
422.625000;0.165625;74;127;piano
422.791667;0.165625;63;127;piano
422.791667;0.165625;75;127;piano
422.958333;0.165625;64;127;piano
422.958333;0.165625;76;127;piano
423.125000;0.165625;67;127;piano
423.125000;0.165625;79;127;piano
423.291667;0.165625;70;127;piano
423.291667;0.165625;82;127;piano
423.458333;0.165625;73;127;piano
423.458333;0.165625;85;127;piano
423.625000;0.165625;74;127;piano
423.625000;0.165625;86;127;piano
423.791667;0.165625;75;127;piano
423.791667;0.165625;87;127;piano
423.958333;0.165625;76;127;piano
423.958333;0.165625;88;127;piano
424.125000;0.165625;79;127;piano
424.125000;0.165625;91;127;piano
424.291667;0.165625;82;127;piano
424.291667;0.165625;94;127;piano
424.458333;0.165625;85;127;piano
424.458333;0.165625;97;127;piano
424.625000;0.165625;86;127;piano
424.625000;0.165625;98;127;piano
424.791667;0.165625;87;127;piano
424.791667;0.165625;99;127;piano
424.958333;0.165625;88;127;piano
424.958333;0.165625;100;127;piano
425.375000;0.073958;75;127;piano
425.375000;0.073958;87;127;piano
425.525000;0.073958;76;127;piano
425.525000;0.073958;88;127;piano
425.675000;0.073958;77;127;piano
425.675000;0.073958;89;127;piano
425.825000;0.073958;78;127;piano
425.825000;0.073958;90;127;piano
425.975000;0.073958;79;127;piano
425.975000;0.073958;91;127;piano
426.125000;0.123958;80;127;piano
426.125000;0.123958;84;127;piano
426.125000;0.123958;92;127;piano
426.500000;0.123958;68;127;piano
426.625000;0.373958;68;127;piano
427.000000;0.123958;63;127;piano
427.125000;0.373958;63;127;piano
427.500000;0.123958;56;127;piano
427.625000;0.373958;56;127;piano
428.000000;0.123958;51;127;piano
428.500000;0.123958;63;127;piano
428.500000;0.123958;75;127;piano
428.625000;0.373958;63;127;piano
428.625000;0.373958;75;127;piano
429.000000;0.123958;56;127;piano
429.000000;0.123958;68;127;piano
429.125000;0.373958;56;127;piano
429.125000;0.373958;68;127;piano
429.500000;0.123958;51;127;piano
429.500000;0.123958;63;127;piano
429.625000;0.373958;51;127;piano
429.625000;0.373958;63;127;piano
430.000000;0.123958;48;127;piano
430.000000;0.123958;56;127;piano
430.000000;0.123958;60;127;piano
430.125000;0.248958;48;127;piano
430.125000;0.248958;56;127;piano
430.125000;0.248958;60;127;piano
430.500000;0.123958;73;127;piano
430.500000;0.123958;80;127;piano
430.500000;0.123958;85;127;piano
430.625000;0.373958;73;127;piano
430.625000;0.373958;80;127;piano
430.625000;0.373958;85;127;piano
431.000000;0.123958;68;127;piano
431.000000;0.123958;73;127;piano
431.000000;0.123958;80;127;piano
431.125000;0.123958;68;127;piano
431.125000;0.123958;73;127;piano
431.125000;0.123958;80;127;piano
431.500000;0.123958;69;127;piano
431.500000;0.123958;73;127;piano
431.500000;0.123958;76;127;piano
431.500000;0.123958;81;127;piano
431.625000;0.373958;69;127;piano
431.625000;0.373958;73;127;piano
431.625000;0.373958;76;127;piano
431.625000;0.373958;81;127;piano
432.000000;0.123958;70;127;piano
432.000000;0.123958;73;127;piano
432.000000;0.123958;76;127;piano
432.000000;0.123958;82;127;piano
432.125000;0.123958;70;127;piano
432.125000;0.123958;73;127;piano
432.125000;0.123958;76;127;piano
432.125000;0.123958;82;127;piano
432.791667;0.165625;58;127;piano
432.791667;0.165625;70;127;piano
432.958333;0.165625;61;127;piano
432.958333;0.165625;73;127;piano
433.125000;0.165625;64;127;piano
433.125000;0.165625;76;127;piano
433.291667;0.165625;67;127;piano
433.291667;0.165625;79;127;piano
433.458333;0.165625;70;127;piano
433.458333;0.165625;82;127;piano
433.625000;0.165625;73;127;piano
433.625000;0.165625;85;127;piano
433.791667;0.165625;76;127;piano
433.791667;0.165625;88;127;piano
433.958333;0.165625;79;127;piano
433.958333;0.165625;91;127;piano
434.125000;0.123958;83;127;piano
434.125000;0.123958;87;127;piano
434.125000;0.123958;95;127;piano
434.500000;0.123958;71;127;piano
434.625000;0.373958;71;127;piano
435.000000;0.123958;66;127;piano
435.125000;0.373958;66;127;piano
435.500000;0.123958;59;127;piano
435.625000;0.373958;59;127;piano
436.000000;0.123958;54;127;piano
436.500000;0.123958;66;127;piano
436.500000;0.123958;78;127;piano
436.625000;0.373958;66;127;piano
436.625000;0.373958;78;127;piano
437.000000;0.123958;61;127;piano
437.000000;0.123958;73;127;piano
437.125000;0.373958;61;127;piano
437.125000;0.373958;73;127;piano
437.500000;0.123958;54;127;piano
437.500000;0.123958;66;127;piano
437.625000;0.373958;54;127;piano
437.625000;0.373958;66;127;piano
438.000000;0.123958;51;127;piano
438.000000;0.123958;59;127;piano
438.000000;0.123958;63;127;piano
438.125000;0.248958;51;127;piano
438.125000;0.248958;59;127;piano
438.125000;0.248958;63;127;piano
438.500000;0.123958;76;127;piano
438.500000;0.123958;83;127;piano
438.500000;0.123958;88;127;piano
438.625000;0.373958;76;127;piano
438.625000;0.373958;83;127;piano
438.625000;0.373958;88;127;piano
439.000000;0.123958;71;127;piano
439.000000;0.123958;76;127;piano
439.000000;0.123958;83;127;piano
439.125000;0.123958;71;127;piano
439.125000;0.123958;76;127;piano
439.125000;0.123958;83;127;piano
439.500000;0.123958;72;127;piano
439.500000;0.123958;76;127;piano
439.500000;0.123958;79;127;piano
439.500000;0.123958;84;127;piano
439.625000;0.373958;72;127;piano
439.625000;0.373958;76;127;piano
439.625000;0.373958;79;127;piano
439.625000;0.373958;84;127;piano
440.000000;0.123958;73;127;piano
440.000000;0.123958;76;127;piano
440.000000;0.123958;79;127;piano
440.000000;0.123958;85;127;piano
440.125000;0.123958;73;127;piano
440.125000;0.123958;76;127;piano
440.125000;0.123958;79;127;piano
440.125000;0.123958;85;127;piano
440.791667;0.165625;61;127;piano
440.791667;0.165625;73;127;piano
440.958333;0.165625;64;127;piano
440.958333;0.165625;76;127;piano
441.125000;0.157292;67;112;piano
441.125000;0.157292;79;112;piano
441.291667;0.157292;70;114;piano
441.291667;0.157292;82;114;piano
441.458333;0.157292;73;116;piano
441.458333;0.157292;85;116;piano
441.625000;0.157292;76;119;piano
441.625000;0.157292;88;119;piano
441.791667;0.157292;79;121;piano
441.791667;0.157292;91;121;piano
441.958333;0.157292;82;123;piano
441.958333;0.157292;94;123;piano
442.125000;0.123958;86;127;piano
442.125000;0.123958;90;127;piano
442.125000;0.123958;98;127;piano
442.500000;0.123958;69;127;piano
442.500000;0.123958;74;127;piano
442.625000;0.373958;69;127;piano
442.625000;0.373958;74;127;piano
443.000000;0.123958;62;127;piano
443.000000;0.123958;69;127;piano
443.125000;0.373958;62;127;piano
443.125000;0.373958;69;127;piano
443.500000;0.123958;57;127;piano
443.500000;0.123958;62;127;piano
443.625000;0.373958;57;127;piano
443.625000;0.373958;62;127;piano
444.000000;0.123958;50;127;piano
444.000000;0.123958;57;127;piano
444.500000;0.123958;81;127;piano
444.500000;0.123958;86;127;piano
444.500000;0.123958;93;127;piano
444.625000;0.373958;81;127;piano
444.625000;0.373958;86;127;piano
444.625000;0.373958;93;127;piano
445.000000;0.123958;76;127;piano
445.000000;0.123958;81;127;piano
445.000000;0.123958;88;127;piano
445.125000;0.373958;76;127;piano
445.125000;0.373958;81;127;piano
445.125000;0.373958;88;127;piano
445.500000;0.123958;69;127;piano
445.500000;0.123958;74;127;piano
445.500000;0.123958;81;127;piano
445.625000;0.373958;69;127;piano
445.625000;0.373958;74;127;piano
445.625000;0.373958;81;127;piano
446.000000;0.123958;66;127;piano
446.000000;0.123958;74;127;piano
446.000000;0.123958;78;127;piano
446.125000;0.123958;67;127;piano
446.125000;0.123958;74;127;piano
446.125000;0.123958;79;127;piano
446.500000;0.123958;79;127;piano
446.500000;0.123958;83;127;piano
446.500000;0.123958;86;127;piano
446.500000;0.123958;91;127;piano
446.625000;0.373958;79;127;piano
446.625000;0.373958;83;127;piano
446.625000;0.373958;86;127;piano
446.625000;0.373958;91;127;piano
447.000000;0.123958;74;127;piano
447.000000;0.123958;79;127;piano
447.000000;0.123958;83;127;piano
447.000000;0.123958;86;127;piano
447.125000;0.248958;74;127;piano
447.125000;0.248958;79;127;piano
447.125000;0.248958;82;127;piano
447.125000;0.248958;86;127;piano
447.500000;0.123958;86;127;piano
447.500000;0.123958;91;127;piano
447.500000;0.123958;94;127;piano
447.500000;0.123958;98;127;piano
447.625000;0.248958;86;127;piano
447.625000;0.248958;91;127;piano
447.625000;0.248958;94;127;piano
447.625000;0.248958;98;127;piano
448.000000;0.123958;88;127;piano
448.000000;0.123958;91;127;piano
448.000000;0.123958;94;127;piano
448.000000;0.123958;100;127;piano
448.125000;0.123958;90;127;piano
448.125000;0.123958;93;127;piano
448.125000;0.123958;102;127;piano
448.500000;0.123958;69;127;piano
448.500000;0.123958;74;127;piano
448.625000;0.373958;69;127;piano
448.625000;0.373958;74;127;piano
449.000000;0.123958;62;127;piano
449.000000;0.123958;69;127;piano
449.125000;0.373958;62;127;piano
449.125000;0.373958;69;127;piano
449.500000;0.123958;57;127;piano
449.500000;0.123958;62;127;piano
449.625000;0.373958;57;127;piano
449.625000;0.373958;62;127;piano
450.000000;0.123958;50;127;piano
450.000000;0.123958;57;127;piano
450.500000;0.123958;81;127;piano
450.500000;0.123958;86;127;piano
450.500000;0.123958;93;127;piano
450.625000;0.373958;81;127;piano
450.625000;0.373958;86;127;piano
450.625000;0.373958;93;127;piano
451.000000;0.123958;76;127;piano
451.000000;0.123958;81;127;piano
451.000000;0.123958;88;127;piano
451.125000;0.373958;76;127;piano
451.125000;0.373958;81;127;piano
451.125000;0.373958;88;127;piano
451.500000;0.123958;69;127;piano
451.500000;0.123958;74;127;piano
451.500000;0.123958;81;127;piano
451.625000;0.248958;69;127;piano
451.625000;0.248958;74;127;piano
451.625000;0.248958;81;127;piano
451.875000;0.248958;66;127;piano
451.875000;0.248958;74;127;piano
451.875000;0.248958;78;127;piano
452.125000;0.081250;67;126;piano
452.125000;0.081250;74;126;piano
452.125000;0.081250;79;126;piano
452.500000;0.123958;79;127;piano
452.500000;0.123958;83;127;piano
452.500000;0.123958;86;127;piano
452.500000;0.123958;91;127;piano
452.625000;0.373958;79;127;piano
452.625000;0.373958;83;127;piano
452.625000;0.373958;86;127;piano
452.625000;0.373958;91;127;piano
453.000000;0.123958;74;127;piano
453.000000;0.123958;79;127;piano
453.000000;0.123958;83;127;piano
453.000000;0.123958;86;127;piano
453.125000;0.248958;74;127;piano
453.125000;0.248958;79;127;piano
453.125000;0.248958;82;127;piano
453.125000;0.248958;86;127;piano
453.500000;0.123958;86;127;piano
453.500000;0.123958;91;127;piano
453.500000;0.123958;94;127;piano
453.500000;0.123958;98;127;piano
453.625000;0.248958;86;127;piano
453.625000;0.248958;91;127;piano
453.625000;0.248958;94;127;piano
453.625000;0.248958;98;127;piano
453.875000;0.248958;88;127;piano
453.875000;0.248958;91;127;piano
453.875000;0.248958;94;127;piano
453.875000;0.248958;100;127;piano
454.125000;0.998958;90;127;piano
454.125000;0.998958;93;127;piano
454.125000;0.998958;102;127;piano
455.125000;0.073958;78;127;piano
455.125000;0.073958;81;127;piano
455.125000;0.073958;86;127;piano
455.125000;0.073958;90;127;piano
455.200000;0.923958;78;127;piano
455.200000;0.923958;81;127;piano
455.200000;0.923958;86;127;piano
455.200000;0.923958;90;127;piano
456.125000;0.998958;79;127;piano
456.125000;0.998958;84;127;piano
456.125000;0.998958;88;127;piano
456.125000;0.998958;91;127;piano
457.125000;0.073958;67;127;piano
457.125000;0.073958;72;127;piano
457.125000;0.073958;76;127;piano
457.125000;0.073958;79;127;piano
457.200000;0.923958;67;127;piano
457.200000;0.923958;72;127;piano
457.200000;0.923958;76;127;piano
457.200000;0.923958;79;127;piano
458.125000;0.998958;82;127;piano
458.125000;0.998958;86;127;piano
458.125000;0.998958;89;127;piano
458.125000;0.998958;94;127;piano
459.125000;0.073958;70;127;piano
459.125000;0.073958;74;127;piano
459.125000;0.073958;77;127;piano
459.125000;0.073958;82;127;piano
459.200000;0.923958;70;127;piano
459.200000;0.923958;74;127;piano
459.200000;0.923958;77;127;piano
459.200000;0.923958;82;127;piano
460.125000;0.248958;72;127;piano
460.125000;0.248958;75;127;piano
460.125000;0.248958;80;127;piano
460.125000;0.248958;84;127;piano
460.625000;0.248958;60;103;piano
460.625000;0.248958;63;103;piano
460.625000;0.248958;68;103;piano
460.625000;0.248958;72;103;piano
461.125000;0.248958;61;117;piano
461.125000;0.248958;66;117;piano
461.125000;0.248958;70;117;piano
461.125000;0.248958;73;117;piano
461.625000;0.248958;73;127;piano
461.625000;0.248958;78;127;piano
461.625000;0.248958;82;127;piano
461.625000;0.248958;85;127;piano
462.125000;0.248958;76;127;piano
462.125000;0.248958;80;127;piano
462.125000;0.248958;83;127;piano
462.125000;0.248958;88;127;piano
462.625000;0.248958;68;127;piano
462.625000;0.248958;71;127;piano
462.625000;0.248958;76;127;piano
463.125000;0.248958;66;127;piano
463.125000;0.248958;69;127;piano
463.125000;0.248958;74;127;piano
463.125000;0.248958;78;127;piano
463.625000;0.248958;78;127;piano
463.625000;0.248958;81;127;piano
463.625000;0.248958;86;127;piano
463.625000;0.248958;90;127;piano
464.125000;0.248958;79;127;piano
464.125000;0.248958;84;127;piano
464.125000;0.248958;88;127;piano
464.125000;0.248958;91;127;piano
464.625000;0.248958;67;127;piano
464.625000;0.248958;72;127;piano
464.625000;0.248958;76;127;piano
464.625000;0.248958;79;127;piano
465.125000;0.248958;70;127;piano
465.125000;0.248958;74;127;piano
465.125000;0.248958;77;127;piano
465.125000;0.248958;82;127;piano
465.625000;0.248958;82;127;piano
465.625000;0.248958;86;127;piano
465.625000;0.248958;89;127;piano
465.625000;0.248958;94;127;piano
466.125000;0.248958;84;127;piano
466.125000;0.248958;87;127;piano
466.125000;0.248958;92;127;piano
466.125000;0.248958;96;127;piano
466.625000;0.248958;72;127;piano
466.625000;0.248958;75;127;piano
466.625000;0.248958;80;127;piano
466.625000;0.248958;84;127;piano
467.125000;0.248958;84;127;piano
467.125000;0.248958;87;127;piano
467.125000;0.248958;92;127;piano
467.125000;0.248958;96;127;piano
467.625000;0.248958;72;127;piano
467.625000;0.248958;75;127;piano
467.625000;0.248958;80;127;piano
467.625000;0.248958;84;127;piano
468.125000;0.248958;84;127;piano
468.125000;0.248958;87;127;piano
468.125000;0.248958;92;127;piano
468.125000;0.248958;96;127;piano
468.625000;0.248958;72;127;piano
468.625000;0.248958;75;127;piano
468.625000;0.248958;80;127;piano
468.625000;0.248958;84;127;piano
469.125000;0.248958;84;127;piano
469.125000;0.248958;87;127;piano
469.125000;0.248958;92;127;piano
469.125000;0.248958;96;127;piano
469.625000;0.248958;72;127;piano
469.625000;0.248958;75;127;piano
469.625000;0.248958;80;127;piano
469.625000;0.248958;84;127;piano
470.125000;0.123958;84;127;piano
470.125000;0.123958;87;127;piano
470.125000;0.123958;92;127;piano
470.125000;0.123958;96;127;piano
470.500000;0.123958;68;127;piano
470.500000;0.123958;75;127;piano
470.625000;0.873958;68;127;piano
470.625000;0.873958;75;127;piano
471.500000;0.123958;63;127;piano
471.500000;0.123958;68;127;piano
471.625000;0.736458;63;127;piano
471.625000;0.736458;68;127;piano
472.500000;0.123958;63;127;piano
472.500000;0.123958;56;127;piano
472.625000;0.248958;63;127;piano
472.625000;0.248958;56;127;piano
473.000000;0.123958;51;127;piano
473.000000;0.123958;56;127;piano
473.125000;0.248958;51;127;piano
473.125000;0.248958;56;127;piano
473.500000;0.123958;44;127;piano
473.500000;0.123958;51;127;piano
473.625000;0.248958;44;127;piano
473.625000;0.248958;51;127;piano
474.000000;0.117708;45;124;piano
474.000000;0.117708;51;124;piano
474.125000;0.165625;45;127;piano
474.125000;0.165625;51;127;piano
474.291667;0.157292;59;126;piano
474.291667;0.157292;71;126;piano
474.458333;0.165625;60;127;piano
474.458333;0.165625;72;127;piano
474.625000;0.165625;63;127;piano
474.625000;0.165625;75;127;piano
474.791667;0.165625;66;127;piano
474.791667;0.165625;78;127;piano
474.958333;0.165625;69;127;piano
474.958333;0.165625;81;127;piano
475.125000;0.165625;72;127;piano
475.125000;0.165625;84;127;piano
475.291667;0.165625;75;127;piano
475.291667;0.165625;87;127;piano
475.458333;0.165625;81;127;piano
475.458333;0.165625;93;127;piano
475.625000;0.165625;80;127;piano
475.625000;0.165625;92;127;piano
475.791667;0.165625;79;127;piano
475.791667;0.165625;91;127;piano
475.958333;0.165625;78;127;piano
475.958333;0.165625;90;127;piano
476.125000;0.165625;77;127;piano
476.125000;0.165625;89;127;piano
476.291667;0.165625;76;127;piano
476.291667;0.165625;88;127;piano
476.458333;0.165625;75;127;piano
476.458333;0.165625;87;127;piano
476.625000;0.165625;74;127;piano
476.625000;0.165625;86;127;piano
476.791667;0.165625;73;127;piano
476.791667;0.165625;85;127;piano
476.958333;0.165625;72;127;piano
476.958333;0.165625;84;127;piano
477.125000;0.165625;71;127;piano
477.125000;0.165625;83;127;piano
477.291667;0.165625;70;127;piano
477.291667;0.165625;82;127;piano
477.458333;0.165625;69;127;piano
477.458333;0.165625;81;127;piano
477.625000;0.165625;68;127;piano
477.625000;0.165625;80;127;piano
477.791667;0.165625;67;127;piano
477.791667;0.165625;79;127;piano
477.958333;0.165625;66;127;piano
477.958333;0.165625;78;127;piano
478.125000;0.165625;65;127;piano
478.125000;0.165625;72;127;piano
478.125000;0.165625;77;127;piano
478.291667;0.165625;64;127;piano
478.291667;0.165625;76;127;piano
478.458333;0.165625;65;127;piano
478.458333;0.165625;77;127;piano
478.625000;0.165625;69;127;piano
478.625000;0.165625;81;127;piano
478.791667;0.165625;72;127;piano
478.791667;0.165625;84;127;piano
478.958333;0.165625;75;127;piano
478.958333;0.165625;87;127;piano
479.125000;0.165625;76;127;piano
479.125000;0.165625;88;127;piano
479.291667;0.165625;77;127;piano
479.291667;0.165625;89;127;piano
479.458333;0.165625;78;127;piano
479.458333;0.165625;90;127;piano
479.625000;0.165625;77;127;piano
479.625000;0.165625;89;127;piano
479.791667;0.165625;76;127;piano
479.791667;0.165625;88;127;piano
479.958333;0.165625;75;127;piano
479.958333;0.165625;87;127;piano
480.125000;0.165625;74;127;piano
480.125000;0.165625;86;127;piano
480.291667;0.165625;73;127;piano
480.291667;0.165625;85;127;piano
480.458333;0.165625;72;127;piano
480.458333;0.165625;84;127;piano
480.625000;0.165625;71;127;piano
480.625000;0.165625;83;127;piano
480.791667;0.165625;70;127;piano
480.791667;0.165625;82;127;piano
480.958333;0.165625;69;127;piano
480.958333;0.165625;81;127;piano
481.125000;0.165625;68;127;piano
481.125000;0.165625;80;127;piano
481.291667;0.165625;67;127;piano
481.291667;0.165625;79;127;piano
481.458333;0.165625;66;127;piano
481.458333;0.165625;78;127;piano
481.625000;0.165625;65;127;piano
481.625000;0.165625;77;127;piano
481.791667;0.165625;64;127;piano
481.791667;0.165625;76;127;piano
481.958333;0.165625;63;127;piano
481.958333;0.165625;75;127;piano
482.125000;0.165625;62;127;piano
482.125000;0.165625;66;127;piano
482.125000;0.165625;74;127;piano
482.291667;0.165625;61;127;piano
482.291667;0.165625;73;127;piano
482.458333;0.165625;62;127;piano
482.458333;0.165625;74;127;piano
482.625000;0.165625;66;127;piano
482.625000;0.165625;78;127;piano
482.791667;0.165625;69;127;piano
482.791667;0.165625;81;127;piano
482.958333;0.165625;72;127;piano
482.958333;0.165625;84;127;piano
483.125000;0.165625;73;127;piano
483.125000;0.165625;85;127;piano
483.291667;0.165625;74;127;piano
483.291667;0.165625;86;127;piano
483.458333;0.165625;75;127;piano
483.458333;0.165625;87;127;piano
483.625000;0.165625;74;127;piano
483.625000;0.165625;86;127;piano
483.791667;0.165625;73;127;piano
483.791667;0.165625;85;127;piano
483.958333;0.165625;72;127;piano
483.958333;0.165625;84;127;piano
484.125000;0.165625;71;127;piano
484.125000;0.165625;83;127;piano
484.291667;0.165625;70;127;piano
484.291667;0.165625;82;127;piano
484.458333;0.165625;69;127;piano
484.458333;0.165625;81;127;piano
484.625000;0.165625;68;127;piano
484.625000;0.165625;80;127;piano
484.791667;0.165625;67;127;piano
484.791667;0.165625;79;127;piano
484.958333;0.165625;66;127;piano
484.958333;0.165625;78;127;piano
485.125000;0.165625;65;127;piano
485.125000;0.165625;77;127;piano
485.291667;0.165625;64;127;piano
485.291667;0.165625;76;127;piano
485.458333;0.165625;63;127;piano
485.458333;0.165625;75;127;piano
485.625000;0.165625;62;127;piano
485.625000;0.165625;74;127;piano
485.791667;0.165625;61;127;piano
485.791667;0.165625;73;127;piano
485.958333;0.165625;60;127;piano
485.958333;0.165625;72;127;piano
486.125000;0.165625;59;127;piano
486.125000;0.165625;63;127;piano
486.125000;0.165625;71;127;piano
486.291667;0.165625;58;127;piano
486.291667;0.165625;70;127;piano
486.458333;0.165625;59;127;piano
486.458333;0.165625;71;127;piano
486.625000;0.165625;63;127;piano
486.625000;0.165625;75;127;piano
486.791667;0.165625;66;127;piano
486.791667;0.165625;78;127;piano
486.958333;0.165625;69;127;piano
486.958333;0.165625;81;127;piano
487.125000;0.165625;70;127;piano
487.125000;0.165625;82;127;piano
487.291667;0.165625;71;127;piano
487.291667;0.165625;83;127;piano
487.458333;0.165625;72;127;piano
487.458333;0.165625;84;127;piano
487.625000;0.165625;71;127;piano
487.625000;0.165625;83;127;piano
487.791667;0.165625;70;127;piano
487.791667;0.165625;82;127;piano
487.958333;0.165625;69;127;piano
487.958333;0.165625;81;127;piano
488.125000;0.165625;68;127;piano
488.125000;0.165625;80;127;piano
488.291667;0.165625;67;127;piano
488.291667;0.165625;79;127;piano
488.458333;0.165625;66;127;piano
488.458333;0.165625;78;127;piano
488.625000;0.082292;65;127;piano
488.625000;0.082292;77;127;piano
488.791667;0.082292;64;127;piano
488.791667;0.082292;76;127;piano
488.958333;0.082292;63;127;piano
488.958333;0.082292;75;127;piano
489.125000;0.082292;62;127;piano
489.125000;0.082292;74;127;piano
489.291667;0.082292;61;127;piano
489.291667;0.082292;73;127;piano
489.458333;0.082292;60;127;piano
489.458333;0.082292;72;127;piano
489.625000;0.082292;59;127;piano
489.625000;0.082292;71;127;piano
489.791667;0.082292;58;127;piano
489.791667;0.082292;70;127;piano
489.958333;0.082292;57;127;piano
489.958333;0.082292;69;127;piano
490.125000;0.082292;56;127;piano
490.125000;0.082292;68;127;piano
490.291667;0.082292;55;127;piano
490.291667;0.082292;67;127;piano
490.458333;0.082292;54;127;piano
490.458333;0.082292;66;127;piano
490.625000;0.082292;53;127;piano
490.625000;0.082292;65;127;piano
490.791667;0.082292;52;127;piano
490.791667;0.082292;64;127;piano
490.958333;0.082292;51;127;piano
490.958333;0.082292;63;127;piano
491.125000;0.082292;50;127;piano
491.125000;0.082292;62;127;piano
491.291667;0.082292;49;127;piano
491.291667;0.082292;61;127;piano
491.458333;0.082292;48;127;piano
491.458333;0.082292;60;127;piano
491.625000;0.082292;47;127;piano
491.625000;0.082292;59;127;piano
491.791667;0.082292;58;127;piano
491.958333;0.082292;57;127;piano
492.125000;0.082292;56;127;piano
492.291667;0.082292;55;127;piano
492.458333;0.082292;54;127;piano
492.625000;0.082292;53;127;piano
492.791667;0.082292;52;127;piano
492.958333;0.082292;51;127;piano
492.625000;0.498958;48;127;piano
493.125000;0.082292;50;127;piano
493.291667;0.082292;49;127;piano
493.125000;0.333333;48;127;piano
493.458333;0.165625;48;124;piano
493.625000;0.000000;47;120;piano
493.625000;0.166667;47;120;piano
493.791667;0.166667;47;120;piano
493.958333;0.165625;47;120;piano
494.125000;0.082292;53;120;piano
494.291667;0.082292;52;120;piano
494.458333;0.082292;51;120;piano
494.125000;0.498958;48;120;piano
494.625000;0.082292;50;120;piano
494.791667;0.082292;49;120;piano
494.625000;0.333333;48;120;piano
494.958333;0.165625;48;120;piano
495.125000;0.000000;47;120;piano
495.125000;0.166667;47;120;piano
495.291667;0.166667;47;120;piano
495.458333;0.165625;47;120;piano
495.625000;0.082292;53;120;piano
495.791667;0.082292;52;120;piano
495.958333;0.082292;51;120;piano
495.625000;0.498958;48;120;piano
496.125000;0.082292;50;120;piano
496.291667;0.082292;49;120;piano
496.125000;0.333333;48;120;piano
496.458333;0.165625;48;120;piano
496.625000;0.157292;47;80;piano
496.791667;0.157292;47;80;piano
496.958333;0.157292;47;80;piano
497.125000;0.157292;47;80;piano
497.291667;0.157292;47;80;piano
497.458333;0.157292;47;80;piano
497.625000;0.157292;47;80;piano
497.791667;0.157292;47;80;piano
497.958333;0.157292;47;80;piano
498.125000;0.157292;47;80;piano
498.291667;0.157292;47;80;piano
498.458333;0.157292;47;80;piano
498.625000;0.157292;47;80;piano
498.625000;0.157292;51;80;piano
498.791667;0.157292;47;80;piano
498.958333;0.157292;47;80;piano
498.958333;0.157292;51;80;piano
499.125000;0.157292;47;80;piano
499.291667;0.157292;47;80;piano
499.291667;0.157292;51;80;piano
499.458333;0.157292;47;80;piano
499.625000;0.157292;47;80;piano
499.625000;0.157292;51;80;piano
499.791667;0.157292;47;80;piano
499.958333;0.157292;47;80;piano
499.958333;0.157292;51;80;piano
500.125000;0.157292;47;80;piano
500.291667;0.157292;47;80;piano
500.291667;0.157292;51;80;piano
500.458333;0.157292;47;80;piano
500.625000;0.157292;51;80;piano
500.625000;0.157292;54;80;piano
500.791667;0.157292;47;80;piano
500.958333;0.157292;51;80;piano
500.958333;0.157292;54;80;piano
501.125000;0.157292;47;79;piano
501.291667;0.157292;51;77;piano
501.291667;0.157292;54;77;piano
501.458333;0.157292;47;76;piano
501.625000;0.157292;51;74;piano
501.625000;0.157292;54;74;piano
501.791667;0.157292;47;72;piano
501.958333;0.157292;51;71;piano
501.958333;0.157292;54;71;piano
502.125000;0.157292;47;69;piano
502.291667;0.157292;51;67;piano
502.291667;0.157292;54;67;piano
502.458333;0.157292;47;66;piano
502.625000;0.157292;51;64;piano
502.625000;0.157292;54;64;piano
502.791667;0.157292;47;63;piano
502.958333;0.157292;51;61;piano
502.958333;0.157292;54;61;piano
503.125000;0.157292;47;59;piano
503.291667;0.157292;51;58;piano
503.291667;0.157292;54;58;piano
503.458333;0.157292;47;56;piano
503.625000;0.157292;51;54;piano
503.625000;0.157292;54;54;piano
503.791667;0.157292;47;53;piano
503.958333;0.157292;51;51;piano
503.958333;0.157292;54;51;piano
504.125000;0.157292;47;49;piano
504.291667;0.157292;51;50;piano
504.291667;0.157292;54;50;piano
504.458333;0.157292;47;51;piano
504.625000;0.157292;51;52;piano
504.625000;0.157292;54;52;piano
504.791667;0.157292;47;54;piano
504.958333;0.157292;51;55;piano
504.958333;0.157292;54;55;piano
505.125000;0.157292;47;56;piano
505.291667;0.157292;51;57;piano
505.291667;0.157292;54;57;piano
505.458333;0.157292;47;59;piano
505.625000;0.157292;51;60;piano
505.625000;0.157292;54;60;piano
505.791667;0.157292;47;61;piano
505.958333;0.157292;51;62;piano
505.958333;0.157292;54;62;piano
506.125000;0.157292;45;64;piano
506.291667;0.157292;49;64;piano
506.291667;0.157292;57;64;piano
506.458333;0.157292;45;63;piano
506.625000;0.157292;49;62;piano
506.625000;0.157292;57;62;piano
506.791667;0.157292;45;62;piano
506.958333;0.157292;49;61;piano
506.958333;0.157292;57;61;piano
507.125000;0.157292;45;60;piano
507.291667;0.157292;49;59;piano
507.291667;0.157292;57;59;piano
507.458333;0.157292;45;59;piano
507.625000;0.157292;49;58;piano
507.625000;0.157292;57;58;piano
507.791667;0.157292;45;57;piano
507.958333;0.157292;49;57;piano
507.958333;0.157292;57;57;piano
508.125000;0.157292;45;56;piano
508.291667;0.157292;49;55;piano
508.291667;0.157292;57;55;piano
508.458333;0.157292;45;54;piano
508.625000;0.157292;49;54;piano
508.625000;0.157292;57;54;piano
508.791667;0.157292;45;53;piano
508.958333;0.157292;49;52;piano
508.958333;0.157292;57;52;piano
509.125000;0.157292;45;52;piano
509.291667;0.157292;49;51;piano
509.291667;0.157292;57;51;piano
509.458333;0.157292;45;50;piano
509.625000;0.157292;49;49;piano
509.625000;0.157292;57;49;piano
509.791667;0.157292;45;49;piano
509.958333;0.157292;49;49;piano
509.958333;0.157292;57;49;piano
510.125000;0.157292;47;49;piano
510.291667;0.157292;51;49;piano
510.291667;0.157292;54;49;piano
510.458333;0.157292;47;49;piano
510.625000;0.157292;51;49;piano
510.625000;0.157292;54;49;piano
510.791667;0.157292;47;49;piano
510.958333;0.157292;51;49;piano
510.958333;0.157292;54;49;piano
511.125000;0.157292;47;49;piano
511.291667;0.157292;51;49;piano
511.291667;0.157292;54;49;piano
511.458333;0.157292;47;49;piano
511.625000;0.157292;51;49;piano
511.625000;0.157292;54;49;piano
511.791667;0.157292;47;49;piano
511.958333;0.157292;51;49;piano
511.958333;0.157292;54;49;piano
512.125000;0.157292;47;49;piano
512.291667;0.157292;49;49;piano
512.291667;0.157292;54;49;piano
512.458333;0.157292;47;49;piano
512.625000;0.157292;49;49;piano
512.625000;0.157292;54;49;piano
512.791667;0.157292;47;49;piano
512.958333;0.157292;49;49;piano
512.958333;0.157292;54;49;piano
513.125000;0.157292;47;49;piano
513.291667;0.157292;49;49;piano
513.291667;0.157292;54;49;piano
513.458333;0.157292;47;49;piano
513.625000;0.157292;49;49;piano
513.625000;0.157292;54;49;piano
513.791667;0.157292;47;49;piano
513.958333;0.157292;49;49;piano
513.958333;0.157292;54;49;piano
514.125000;0.157292;47;49;piano
514.291667;0.157292;49;49;piano
514.291667;0.157292;54;49;piano
514.458333;0.157292;47;49;piano
514.625000;0.157292;49;49;piano
514.625000;0.157292;54;49;piano
514.791667;0.157292;47;49;piano
514.958333;0.157292;49;49;piano
514.958333;0.157292;54;49;piano
515.125000;0.157292;47;49;piano
515.291667;0.157292;49;49;piano
515.291667;0.157292;54;49;piano
515.458333;0.157292;47;49;piano
515.625000;0.157292;49;49;piano
515.625000;0.157292;54;49;piano
515.791667;0.157292;47;49;piano
515.958333;0.157292;49;49;piano
515.958333;0.157292;54;49;piano
516.125000;0.157292;55;49;piano
516.291667;0.157292;50;49;piano
516.458333;0.157292;47;49;piano
516.625000;0.157292;43;49;piano
516.791667;0.157292;50;49;piano
516.958333;0.157292;47;49;piano
517.125000;0.157292;55;49;piano
517.291667;0.157292;50;49;piano
517.458333;0.157292;47;49;piano
517.625000;0.157292;43;49;piano
517.791667;0.157292;50;49;piano
517.958333;0.157292;47;49;piano
518.125000;0.157292;57;49;piano
518.291667;0.157292;53;49;piano
518.458333;0.157292;48;49;piano
518.625000;0.157292;41;49;piano
518.791667;0.157292;53;49;piano
518.958333;0.157292;48;49;piano
519.125000;0.157292;57;49;piano
519.291667;0.157292;53;49;piano
519.458333;0.157292;48;49;piano
519.625000;0.157292;41;49;piano
519.791667;0.157292;53;49;piano
519.958333;0.157292;48;49;piano
520.125000;0.157292;57;49;piano
520.291667;0.157292;53;49;piano
520.458333;0.157292;48;49;piano
520.625000;0.157292;41;49;piano
520.791667;0.157292;53;49;piano
520.958333;0.157292;48;49;piano
521.125000;0.157292;57;49;piano
521.291667;0.157292;53;49;piano
521.458333;0.157292;48;49;piano
521.625000;0.157292;41;49;piano
521.791667;0.157292;53;49;piano
521.958333;0.157292;48;49;piano
522.125000;0.157292;55;49;piano
522.291667;0.157292;50;49;piano
522.458333;0.157292;47;49;piano
522.625000;0.157292;43;49;piano
522.791667;0.157292;50;49;piano
522.958333;0.157292;47;49;piano
523.125000;0.157292;55;49;piano
523.291667;0.157292;50;49;piano
523.458333;0.157292;47;49;piano
523.625000;0.157292;43;49;piano
523.791667;0.157292;50;49;piano
523.958333;0.157292;47;49;piano
524.291667;0.157292;50;48;piano
524.458333;0.157292;45;48;piano
524.625000;0.157292;50;47;piano
524.791667;0.157292;45;46;piano
524.958333;0.157292;50;46;piano
525.125000;0.157292;45;45;piano
525.291667;0.157292;50;44;piano
525.458333;0.157292;45;44;piano
525.625000;0.157292;50;43;piano
525.791667;0.157292;45;42;piano
524.125000;1.898958;55;49;piano
525.958333;0.157292;50;42;piano
526.291667;0.157292;50;41;piano
526.458333;0.157292;45;40;piano
526.625000;0.157292;50;39;piano
526.791667;0.157292;45;39;piano
526.958333;0.157292;50;38;piano
527.125000;0.157292;45;37;piano
527.291667;0.157292;50;37;piano
527.458333;0.157292;45;36;piano
527.625000;0.157292;50;35;piano
527.791667;0.157292;45;35;piano
526.125000;1.898958;55;41;piano
527.958333;0.157292;50;34;piano
528.125000;0.165625;51;39;piano
528.291667;0.165625;47;39;piano
528.458333;0.165625;43;39;piano
528.791667;0.165625;51;39;piano
528.958333;0.165625;47;39;piano
529.125000;0.165625;51;39;piano
529.291667;0.165625;47;39;piano
529.458333;0.165625;43;39;piano
528.625000;1.000000;55;39;piano
529.791667;0.165625;51;39;piano
529.958333;0.165625;47;39;piano
529.625000;0.498958;55;39;piano
530.125000;0.165625;51;39;piano
530.291667;0.165625;47;39;piano
530.458333;0.165625;43;39;piano
530.625000;0.165625;55;39;piano
530.791667;0.165625;51;39;piano
530.958333;0.165625;47;39;piano
531.125000;0.165625;51;39;piano
531.291667;0.165625;47;39;piano
531.458333;0.165625;43;39;piano
531.625000;0.165625;55;39;piano
531.791667;0.165625;51;39;piano
531.958333;0.165625;47;39;piano
532.125000;0.165625;52;39;piano
532.291667;0.165625;48;39;piano
532.458333;0.165625;43;39;piano
532.791667;0.165625;52;39;piano
532.958333;0.165625;48;39;piano
533.125000;0.165625;52;39;piano
533.291667;0.165625;48;39;piano
533.458333;0.165625;43;39;piano
532.625000;1.000000;55;39;piano
533.791667;0.165625;52;39;piano
533.958333;0.165625;48;39;piano
533.625000;0.498958;55;39;piano
534.125000;0.165625;52;39;piano
534.291667;0.165625;48;39;piano
534.458333;0.165625;43;39;piano
534.625000;0.165625;55;39;piano
534.791667;0.165625;52;39;piano
534.958333;0.165625;48;39;piano
535.125000;0.165625;52;39;piano
535.291667;0.165625;48;39;piano
535.458333;0.165625;43;39;piano
535.625000;0.165625;55;39;piano
535.791667;0.165625;52;39;piano
535.958333;0.165625;48;39;piano
536.125000;0.165625;53;39;piano
536.291667;0.165625;50;39;piano
536.458333;0.165625;46;39;piano
536.791667;0.165625;53;39;piano
536.958333;0.165625;50;39;piano
537.125000;0.165625;53;39;piano
537.291667;0.165625;50;39;piano
537.458333;0.165625;46;39;piano
536.625000;1.000000;58;39;piano
537.791667;0.165625;53;39;piano
537.958333;0.165625;50;39;piano
537.625000;0.498958;58;39;piano
538.125000;0.165625;53;39;piano
538.291667;0.165625;50;39;piano
538.458333;0.165625;46;39;piano
538.625000;0.165625;58;39;piano
538.791667;0.165625;53;39;piano
538.958333;0.165625;50;39;piano
539.125000;0.165625;53;39;piano
539.291667;0.165625;50;39;piano
539.458333;0.165625;46;39;piano
539.625000;0.165625;58;39;piano
539.791667;0.165625;53;39;piano
539.958333;0.165625;50;39;piano
540.125000;0.165625;53;39;piano
540.291667;0.165625;50;39;piano
540.458333;0.165625;46;39;piano
540.625000;0.165625;58;39;piano
540.791667;0.165625;53;39;piano
540.958333;0.165625;50;39;piano
541.125000;0.165625;53;39;piano
541.291667;0.165625;50;39;piano
541.458333;0.165625;46;39;piano
541.625000;0.165625;58;39;piano
541.791667;0.165625;53;39;piano
541.958333;0.165625;50;39;piano
542.125000;0.165625;53;39;piano
542.291667;0.165625;50;39;piano
542.458333;0.165625;46;39;piano
542.625000;0.165625;58;39;piano
542.791667;0.165625;53;39;piano
542.958333;0.165625;50;39;piano
543.125000;0.165625;53;39;piano
543.291667;0.165625;50;39;piano
543.458333;0.165625;46;39;piano
543.625000;0.165625;58;39;piano
543.791667;0.165625;53;39;piano
543.958333;0.165625;50;39;piano
548.791667;0.082292;53;39;piano
548.958333;0.082292;52;42;piano
549.125000;0.082292;50;44;piano
549.291667;0.082292;47;46;piano
549.458333;0.082292;44;49;piano
549.625000;0.082292;41;51;piano
549.791667;0.082292;40;54;piano
549.958333;0.082292;38;56;piano
550.458333;0.082292;69;39;piano
550.458333;0.082292;81;39;piano
550.625000;0.082292;69;39;piano
550.625000;0.082292;81;39;piano
550.958333;0.082292;70;39;piano
550.958333;0.082292;82;39;piano
551.125000;0.082292;70;39;piano
551.125000;0.082292;82;39;piano
551.458333;0.082292;69;39;piano
551.458333;0.082292;81;39;piano
551.625000;0.082292;69;39;piano
551.625000;0.082292;81;39;piano
551.958333;0.082292;68;39;piano
551.958333;0.082292;80;39;piano
552.125000;0.165625;68;39;piano
552.125000;0.165625;80;39;piano
552.458333;0.082292;67;39;piano
552.458333;0.082292;79;39;piano
552.625000;0.082292;67;39;piano
552.625000;0.082292;79;39;piano
552.958333;0.082292;66;39;piano
552.958333;0.082292;78;39;piano
553.125000;0.082292;66;39;piano
553.125000;0.082292;78;39;piano
553.458333;0.082292;65;39;piano
553.458333;0.082292;77;39;piano
553.625000;0.082292;65;39;piano
553.625000;0.082292;77;39;piano
553.958333;0.082292;64;39;piano
553.958333;0.082292;76;39;piano
554.125000;0.165625;64;39;piano
554.125000;0.165625;76;39;piano
554.458333;0.082292;63;39;piano
554.458333;0.082292;75;39;piano
554.625000;0.082292;63;39;piano
554.625000;0.082292;75;39;piano
554.958333;0.082292;62;39;piano
554.958333;0.082292;74;39;piano
555.125000;0.082292;62;39;piano
555.125000;0.082292;74;39;piano
555.458333;0.082292;61;39;piano
555.458333;0.082292;73;39;piano
555.625000;0.082292;61;39;piano
555.625000;0.082292;73;39;piano
555.958333;0.082292;62;39;piano
555.958333;0.082292;74;39;piano
556.125000;0.165625;62;39;piano
556.125000;0.165625;74;39;piano
556.458333;0.082292;63;39;piano
556.458333;0.082292;75;39;piano
556.625000;0.082292;63;39;piano
556.625000;0.082292;75;39;piano
556.958333;0.082292;64;39;piano
556.958333;0.082292;76;39;piano
557.125000;0.082292;64;39;piano
557.125000;0.082292;76;39;piano
557.458333;0.082292;65;39;piano
557.458333;0.082292;77;39;piano
557.625000;0.082292;65;39;piano
557.625000;0.082292;77;39;piano
557.958333;0.082292;56;39;piano
557.958333;0.082292;68;39;piano
558.125000;0.165625;56;39;piano
558.125000;0.165625;68;39;piano
558.458333;0.082292;57;39;piano
558.458333;0.082292;69;39;piano
558.625000;0.082292;57;42;piano
558.625000;0.082292;69;42;piano
558.958333;0.082292;69;49;piano
558.958333;0.082292;81;49;piano
559.125000;0.082292;69;51;piano
559.125000;0.082292;81;51;piano
559.458333;0.082292;82;58;piano
559.458333;0.082292;94;58;piano
559.625000;0.082292;82;58;piano
559.625000;0.082292;94;58;piano
559.958333;0.082292;81;58;piano
559.958333;0.082292;93;58;piano
560.125000;0.082292;81;58;piano
560.125000;0.082292;93;58;piano
560.458333;0.082292;80;58;piano
560.458333;0.082292;92;58;piano
560.625000;0.165625;80;58;piano
560.625000;0.165625;92;58;piano
560.958333;0.082292;79;55;piano
560.958333;0.082292;91;55;piano
561.125000;0.082292;79;52;piano
561.125000;0.082292;91;52;piano
561.458333;0.082292;78;49;piano
561.458333;0.082292;90;49;piano
561.625000;0.082292;78;46;piano
561.625000;0.082292;90;46;piano
561.958333;0.082292;77;42;piano
561.958333;0.082292;89;42;piano
562.125000;0.082292;77;39;piano
562.125000;0.082292;89;39;piano
562.458333;0.082292;76;39;piano
562.458333;0.082292;88;39;piano
562.625000;0.165625;76;39;piano
562.625000;0.165625;88;39;piano
562.958333;0.082292;75;39;piano
562.958333;0.082292;87;39;piano
563.125000;0.082292;75;39;piano
563.125000;0.082292;87;39;piano
563.458333;0.082292;73;39;piano
563.458333;0.082292;85;39;piano
563.625000;0.082292;73;39;piano
563.625000;0.082292;85;39;piano
563.958333;0.082292;74;39;piano
563.958333;0.082292;86;39;piano
564.125000;0.165625;74;40;piano
564.125000;0.165625;86;40;piano
564.458333;0.082292;75;45;piano
564.458333;0.082292;87;45;piano
564.625000;0.082292;75;48;piano
564.625000;0.082292;87;48;piano
564.958333;0.082292;76;51;piano
564.958333;0.082292;88;51;piano
565.125000;0.082292;76;54;piano
565.125000;0.082292;88;54;piano
565.458333;0.082292;77;58;piano
565.458333;0.082292;89;58;piano
565.625000;0.082292;77;58;piano
565.625000;0.082292;89;58;piano
565.958333;0.082292;68;49;piano
565.958333;0.082292;80;49;piano
566.125000;0.082292;68;49;piano
566.125000;0.082292;80;49;piano
566.458333;0.082292;69;49;piano
566.458333;0.082292;81;49;piano
566.625000;0.082292;69;49;piano
566.625000;0.082292;81;49;piano
566.958333;0.082292;64;47;piano
566.958333;0.082292;76;47;piano
567.125000;0.082292;64;46;piano
567.125000;0.082292;76;46;piano
567.458333;0.082292;65;44;piano
567.458333;0.082292;77;44;piano
567.625000;0.082292;65;44;piano
567.625000;0.082292;77;44;piano
567.958333;0.082292;56;42;piano
567.958333;0.082292;68;42;piano
568.125000;0.082292;56;41;piano
568.125000;0.082292;68;41;piano
568.458333;0.082292;57;46;piano
568.458333;0.082292;69;46;piano
568.625000;0.082292;57;46;piano
568.625000;0.082292;69;46;piano
568.958333;0.082292;52;44;piano
568.958333;0.082292;64;44;piano
569.125000;0.082292;52;43;piano
569.125000;0.082292;64;43;piano
569.458333;0.082292;53;40;piano
569.458333;0.082292;65;40;piano
569.625000;0.082292;53;39;piano
569.625000;0.082292;65;39;piano
574.000000;0.123958;58;58;piano
574.125000;1.873958;58;58;piano
576.000000;0.123958;51;58;piano
576.125000;1.873958;51;58;piano
578.000000;0.117708;46;49;piano
578.125000;2.998958;46;58;piano
579.125000;1.998958;52;58;piano
579.125000;1.998958;55;58;piano
579.125000;1.998958;61;58;piano
581.125000;0.123958;45;39;piano
584.125000;0.027083;81;39;piano
584.125000;0.027083;86;39;piano
584.155208;0.027083;90;39;piano
584.186458;0.027083;81;39;piano
584.186458;0.027083;86;39;piano
584.217708;0.027083;90;39;piano
584.248958;0.027083;81;39;piano
584.248958;0.027083;86;39;piano
584.279167;0.027083;90;39;piano
584.310417;0.027083;81;39;piano
584.310417;0.027083;86;39;piano
584.341667;0.027083;90;39;piano
584.372917;0.027083;81;39;piano
584.372917;0.027083;86;39;piano
584.403125;0.027083;90;39;piano
584.434375;0.027083;81;39;piano
584.434375;0.027083;86;39;piano
584.465625;0.027083;90;39;piano
584.496875;0.027083;81;39;piano
584.496875;0.027083;86;39;piano
584.527083;0.027083;90;39;piano
584.558333;0.027083;81;39;piano
584.558333;0.027083;86;39;piano
584.589583;0.027083;90;39;piano
584.620833;0.027083;81;39;piano
584.620833;0.027083;86;39;piano
584.651042;0.027083;90;39;piano
584.682292;0.027083;81;39;piano
584.682292;0.027083;86;39;piano
584.713542;0.027083;90;39;piano
584.744792;0.027083;81;39;piano
584.744792;0.027083;86;39;piano
584.775000;0.027083;90;39;piano
584.806250;0.027083;81;39;piano
584.806250;0.027083;86;39;piano
584.837500;0.027083;90;39;piano
584.868750;0.027083;81;39;piano
584.868750;0.027083;86;39;piano
584.900000;0.027083;90;39;piano
584.930208;0.027083;81;39;piano
584.930208;0.027083;86;39;piano
584.961458;0.027083;90;39;piano
584.992708;0.027083;81;39;piano
584.992708;0.027083;86;39;piano
585.023958;0.027083;90;39;piano
585.054167;0.027083;81;39;piano
585.054167;0.027083;86;39;piano
585.085417;0.027083;90;39;piano
585.125000;0.027083;84;39;piano
585.125000;0.027083;88;39;piano
585.155208;0.027083;91;39;piano
585.186458;0.027083;84;39;piano
585.186458;0.027083;88;39;piano
585.217708;0.027083;91;39;piano
585.248958;0.027083;84;39;piano
585.248958;0.027083;88;39;piano
585.279167;0.027083;91;39;piano
585.310417;0.027083;84;39;piano
585.310417;0.027083;88;39;piano
585.341667;0.027083;91;39;piano
585.372917;0.027083;84;39;piano
585.372917;0.027083;88;39;piano
585.403125;0.027083;91;39;piano
585.434375;0.027083;84;39;piano
585.434375;0.027083;88;39;piano
585.465625;0.027083;91;39;piano
585.496875;0.027083;84;39;piano
585.496875;0.027083;88;39;piano
585.527083;0.027083;91;39;piano
585.558333;0.027083;84;39;piano
585.558333;0.027083;88;39;piano
585.589583;0.027083;91;39;piano
585.620833;0.027083;84;39;piano
585.620833;0.027083;88;39;piano
585.651042;0.027083;91;39;piano
585.682292;0.027083;84;39;piano
585.682292;0.027083;88;39;piano
585.713542;0.027083;91;39;piano
585.744792;0.027083;84;39;piano
585.744792;0.027083;88;39;piano
585.775000;0.027083;91;39;piano
585.806250;0.027083;84;39;piano
585.806250;0.027083;88;39;piano
585.837500;0.027083;91;39;piano
585.868750;0.027083;84;39;piano
585.868750;0.027083;88;39;piano
585.900000;0.027083;91;39;piano
585.930208;0.027083;84;39;piano
585.930208;0.027083;88;39;piano
585.961458;0.027083;91;39;piano
585.992708;0.027083;84;39;piano
585.992708;0.027083;88;39;piano
586.023958;0.027083;91;39;piano
586.054167;0.027083;84;39;piano
586.054167;0.027083;88;39;piano
586.085417;0.027083;91;39;piano
586.125000;0.027083;84;39;piano
586.125000;0.027083;88;39;piano
586.155208;0.027083;91;39;piano
586.186458;0.027083;84;39;piano
586.186458;0.027083;88;39;piano
586.217708;0.027083;91;39;piano
586.248958;0.027083;84;39;piano
586.248958;0.027083;88;39;piano
586.279167;0.027083;91;39;piano
586.310417;0.027083;84;39;piano
586.310417;0.027083;88;39;piano
586.341667;0.027083;91;39;piano
586.372917;0.027083;84;39;piano
586.372917;0.027083;88;39;piano
586.403125;0.027083;91;39;piano
586.434375;0.027083;84;39;piano
586.434375;0.027083;88;39;piano
586.465625;0.027083;91;39;piano
586.496875;0.027083;84;39;piano
586.496875;0.027083;88;39;piano
586.527083;0.027083;91;39;piano
586.558333;0.027083;84;39;piano
586.558333;0.027083;88;39;piano
586.589583;0.027083;91;39;piano
586.620833;0.027083;84;39;piano
586.620833;0.027083;88;39;piano
586.651042;0.027083;91;39;piano
586.682292;0.027083;84;39;piano
586.682292;0.027083;88;39;piano
586.713542;0.027083;91;39;piano
586.744792;0.027083;84;39;piano
586.744792;0.027083;88;39;piano
586.775000;0.027083;91;39;piano
586.806250;0.027083;84;39;piano
586.806250;0.027083;88;39;piano
586.837500;0.027083;91;39;piano
586.868750;0.027083;84;39;piano
586.868750;0.027083;88;39;piano
586.900000;0.027083;91;39;piano
586.930208;0.027083;84;39;piano
586.930208;0.027083;88;39;piano
586.961458;0.027083;91;39;piano
586.992708;0.027083;84;39;piano
586.992708;0.027083;88;39;piano
587.023958;0.027083;91;39;piano
587.054167;0.027083;84;39;piano
587.054167;0.027083;88;39;piano
587.085417;0.027083;91;39;piano
587.125000;0.027083;81;39;piano
587.125000;0.027083;88;39;piano
587.155208;0.027083;90;39;piano
587.186458;0.027083;81;39;piano
587.186458;0.027083;88;39;piano
587.217708;0.027083;90;39;piano
587.248958;0.027083;81;39;piano
587.248958;0.027083;88;39;piano
587.279167;0.027083;90;39;piano
587.310417;0.027083;81;39;piano
587.310417;0.027083;88;39;piano
587.341667;0.027083;90;39;piano
587.372917;0.027083;81;39;piano
587.372917;0.027083;88;39;piano
587.403125;0.027083;90;39;piano
587.434375;0.027083;81;39;piano
587.434375;0.027083;88;39;piano
587.465625;0.027083;90;39;piano
587.496875;0.027083;81;39;piano
587.496875;0.027083;88;39;piano
587.527083;0.027083;90;39;piano
587.558333;0.027083;81;39;piano
587.558333;0.027083;88;39;piano
587.589583;0.027083;90;39;piano
587.620833;0.027083;81;39;piano
587.620833;0.027083;88;39;piano
587.651042;0.027083;90;39;piano
587.682292;0.027083;81;39;piano
587.682292;0.027083;88;39;piano
587.713542;0.027083;90;39;piano
587.744792;0.027083;81;39;piano
587.744792;0.027083;88;39;piano
587.775000;0.027083;90;39;piano
587.806250;0.027083;81;39;piano
587.806250;0.027083;88;39;piano
587.837500;0.027083;90;39;piano
587.868750;0.027083;81;39;piano
587.868750;0.027083;88;39;piano
587.900000;0.027083;90;39;piano
587.930208;0.027083;81;39;piano
587.930208;0.027083;88;39;piano
587.961458;0.027083;90;39;piano
587.992708;0.027083;81;39;piano
587.992708;0.027083;88;39;piano
588.023958;0.027083;90;39;piano
588.054167;0.027083;81;39;piano
588.054167;0.027083;88;39;piano
588.085417;0.027083;90;39;piano
588.125000;0.027083;81;39;piano
588.125000;0.027083;86;39;piano
588.155208;0.027083;88;39;piano
588.186458;0.027083;81;39;piano
588.186458;0.027083;86;39;piano
588.217708;0.027083;88;39;piano
588.248958;0.027083;81;39;piano
588.248958;0.027083;86;39;piano
588.279167;0.027083;88;39;piano
588.310417;0.027083;81;39;piano
588.310417;0.027083;86;39;piano
588.341667;0.027083;88;39;piano
588.372917;0.027083;81;39;piano
588.372917;0.027083;86;39;piano
588.403125;0.027083;88;39;piano
588.434375;0.027083;81;39;piano
588.434375;0.027083;86;39;piano
588.465625;0.027083;88;39;piano
588.496875;0.027083;81;39;piano
588.496875;0.027083;86;39;piano
588.527083;0.027083;88;39;piano
588.558333;0.027083;81;39;piano
588.558333;0.027083;86;39;piano
588.589583;0.027083;88;39;piano
588.620833;0.027083;81;39;piano
588.620833;0.027083;86;39;piano
588.651042;0.027083;88;39;piano
588.682292;0.027083;81;39;piano
588.682292;0.027083;86;39;piano
588.713542;0.027083;88;39;piano
588.744792;0.027083;81;39;piano
588.744792;0.027083;86;39;piano
588.775000;0.027083;88;39;piano
588.806250;0.027083;81;39;piano
588.806250;0.027083;86;39;piano
588.837500;0.027083;88;39;piano
588.868750;0.027083;81;39;piano
588.868750;0.027083;86;39;piano
588.900000;0.027083;88;39;piano
588.930208;0.027083;81;39;piano
588.930208;0.027083;86;39;piano
588.961458;0.027083;88;39;piano
588.992708;0.027083;81;39;piano
588.992708;0.027083;86;39;piano
589.023958;0.027083;88;39;piano
589.054167;0.027083;81;39;piano
589.054167;0.027083;86;39;piano
589.085417;0.027083;88;39;piano
589.125000;0.028125;81;39;piano
589.125000;0.028125;85;39;piano
589.156250;0.028125;88;39;piano
589.187500;0.028125;81;39;piano
589.187500;0.028125;85;39;piano
589.218750;0.028125;88;39;piano
589.250000;0.028125;81;39;piano
589.250000;0.028125;85;39;piano
589.281250;0.028125;88;39;piano
589.312500;0.028125;81;39;piano
589.312500;0.028125;85;39;piano
589.343750;0.028125;88;39;piano
589.375000;0.028125;81;39;piano
589.375000;0.028125;85;39;piano
589.406250;0.028125;88;39;piano
589.437500;0.028125;81;39;piano
589.437500;0.028125;85;39;piano
589.468750;0.028125;88;39;piano
589.500000;0.028125;81;39;piano
589.500000;0.028125;85;39;piano
589.531250;0.028125;88;39;piano
589.562500;0.028125;81;39;piano
589.562500;0.028125;85;39;piano
589.593750;0.028125;88;39;piano
589.625000;0.028125;79;39;piano
589.625000;0.028125;85;39;piano
589.656250;0.028125;88;39;piano
589.687500;0.028125;79;39;piano
589.687500;0.028125;85;39;piano
589.718750;0.028125;88;39;piano
589.750000;0.028125;79;39;piano
589.750000;0.028125;85;39;piano
589.781250;0.028125;88;39;piano
589.812500;0.028125;79;39;piano
589.812500;0.028125;85;39;piano
589.843750;0.028125;88;39;piano
589.875000;0.028125;79;39;piano
589.875000;0.028125;85;39;piano
589.906250;0.028125;88;39;piano
589.937500;0.028125;79;39;piano
589.937500;0.028125;85;39;piano
589.968750;0.028125;88;39;piano
590.000000;0.028125;79;39;piano
590.000000;0.028125;85;39;piano
590.031250;0.028125;88;39;piano
590.062500;0.028125;79;39;piano
590.062500;0.028125;85;39;piano
590.093750;0.028125;88;39;piano
590.125000;0.027083;78;39;piano
590.125000;0.027083;83;39;piano
590.155208;0.027083;86;39;piano
590.186458;0.027083;78;39;piano
590.186458;0.027083;83;39;piano
590.217708;0.027083;86;39;piano
590.248958;0.027083;78;39;piano
590.248958;0.027083;83;39;piano
590.279167;0.027083;86;39;piano
590.310417;0.027083;78;39;piano
590.310417;0.027083;83;39;piano
590.341667;0.027083;86;39;piano
590.372917;0.027083;78;39;piano
590.372917;0.027083;83;39;piano
590.403125;0.027083;86;39;piano
590.434375;0.027083;78;39;piano
590.434375;0.027083;83;39;piano
590.465625;0.027083;86;39;piano
590.496875;0.027083;78;39;piano
590.496875;0.027083;83;39;piano
590.527083;0.027083;86;39;piano
590.558333;0.027083;78;39;piano
590.558333;0.027083;83;39;piano
590.589583;0.027083;86;39;piano
590.620833;0.027083;78;39;piano
590.620833;0.027083;83;39;piano
590.651042;0.027083;86;39;piano
590.682292;0.027083;78;39;piano
590.682292;0.027083;83;39;piano
590.713542;0.027083;86;39;piano
590.744792;0.027083;78;39;piano
590.744792;0.027083;83;39;piano
590.775000;0.027083;86;39;piano
590.806250;0.027083;78;39;piano
590.806250;0.027083;83;39;piano
590.837500;0.027083;86;39;piano
590.868750;0.027083;78;39;piano
590.868750;0.027083;83;39;piano
590.900000;0.027083;86;39;piano
590.930208;0.027083;78;39;piano
590.930208;0.027083;83;39;piano
590.961458;0.027083;86;39;piano
590.992708;0.027083;78;39;piano
590.992708;0.027083;83;39;piano
591.023958;0.027083;86;39;piano
591.054167;0.027083;78;39;piano
591.054167;0.027083;83;39;piano
591.085417;0.027083;86;39;piano
591.125000;0.027083;77;39;piano
591.125000;0.027083;80;39;piano
591.155208;0.027083;85;39;piano
591.186458;0.027083;77;39;piano
591.186458;0.027083;80;39;piano
591.217708;0.027083;85;39;piano
591.248958;0.027083;77;39;piano
591.248958;0.027083;80;39;piano
591.279167;0.027083;85;39;piano
591.310417;0.027083;77;39;piano
591.310417;0.027083;80;39;piano
591.341667;0.027083;85;39;piano
591.372917;0.027083;77;39;piano
591.372917;0.027083;80;39;piano
591.403125;0.027083;85;39;piano
591.434375;0.027083;77;39;piano
591.434375;0.027083;80;39;piano
591.465625;0.027083;85;39;piano
591.496875;0.027083;77;39;piano
591.496875;0.027083;80;39;piano
591.527083;0.027083;85;39;piano
591.558333;0.027083;77;39;piano
591.558333;0.027083;80;39;piano
591.589583;0.027083;85;39;piano
591.620833;0.027083;77;39;piano
591.620833;0.027083;80;39;piano
591.651042;0.027083;85;39;piano
591.682292;0.027083;77;39;piano
591.682292;0.027083;80;39;piano
591.713542;0.027083;85;39;piano
591.744792;0.027083;77;39;piano
591.744792;0.027083;80;39;piano
591.775000;0.027083;85;39;piano
591.806250;0.027083;77;39;piano
591.806250;0.027083;80;39;piano
591.837500;0.027083;85;39;piano
591.868750;0.027083;77;39;piano
591.868750;0.027083;80;39;piano
591.900000;0.027083;85;39;piano
591.930208;0.027083;77;39;piano
591.930208;0.027083;80;39;piano
591.961458;0.027083;85;39;piano
591.992708;0.027083;77;39;piano
591.992708;0.027083;80;39;piano
592.023958;0.027083;85;39;piano
592.054167;0.027083;77;39;piano
592.054167;0.027083;80;39;piano
592.085417;0.027083;85;39;piano
592.125000;0.028125;73;39;piano
592.125000;0.028125;78;39;piano
592.156250;0.028125;82;39;piano
592.187500;0.028125;73;39;piano
592.187500;0.028125;78;39;piano
592.218750;0.028125;82;39;piano
592.250000;0.028125;73;39;piano
592.250000;0.028125;78;39;piano
592.281250;0.028125;82;39;piano
592.312500;0.028125;73;39;piano
592.312500;0.028125;78;39;piano
592.343750;0.028125;82;39;piano
592.375000;0.028125;73;39;piano
592.375000;0.028125;78;39;piano
592.406250;0.028125;82;39;piano
592.437500;0.028125;73;39;piano
592.437500;0.028125;78;39;piano
592.468750;0.028125;82;39;piano
592.500000;0.028125;73;39;piano
592.500000;0.028125;78;39;piano
592.531250;0.028125;82;39;piano
592.562500;0.028125;73;39;piano
592.562500;0.028125;78;39;piano
592.593750;0.028125;82;39;piano
592.625000;0.028125;78;39;piano
592.625000;0.028125;82;39;piano
592.656250;0.028125;85;39;piano
592.687500;0.028125;78;39;piano
592.687500;0.028125;82;39;piano
592.718750;0.028125;85;39;piano
592.750000;0.028125;78;39;piano
592.750000;0.028125;82;39;piano
592.781250;0.028125;85;39;piano
592.812500;0.028125;78;39;piano
592.812500;0.028125;82;39;piano
592.843750;0.028125;85;39;piano
592.875000;0.028125;78;39;piano
592.875000;0.028125;82;39;piano
592.906250;0.028125;85;39;piano
592.937500;0.028125;78;39;piano
592.937500;0.028125;82;39;piano
592.968750;0.028125;85;39;piano
593.000000;0.028125;78;39;piano
593.000000;0.028125;82;39;piano
593.031250;0.028125;85;39;piano
593.062500;0.028125;78;39;piano
593.062500;0.028125;82;39;piano
593.093750;0.028125;85;39;piano
593.125000;0.028125;82;39;piano
593.125000;0.028125;85;39;piano
593.156250;0.028125;90;39;piano
593.187500;0.028125;82;39;piano
593.187500;0.028125;85;39;piano
593.218750;0.028125;90;39;piano
593.250000;0.028125;82;39;piano
593.250000;0.028125;85;39;piano
593.281250;0.028125;90;39;piano
593.312500;0.028125;82;39;piano
593.312500;0.028125;85;39;piano
593.343750;0.028125;90;39;piano
593.375000;0.028125;82;39;piano
593.375000;0.028125;85;39;piano
593.406250;0.028125;90;39;piano
593.437500;0.028125;82;39;piano
593.437500;0.028125;85;39;piano
593.468750;0.028125;90;39;piano
593.500000;0.028125;82;39;piano
593.500000;0.028125;85;39;piano
593.531250;0.028125;90;39;piano
593.562500;0.028125;82;39;piano
593.562500;0.028125;85;39;piano
593.593750;0.028125;90;39;piano
593.625000;0.028125;85;39;piano
593.625000;0.028125;90;39;piano
593.656250;0.028125;94;39;piano
593.687500;0.028125;85;39;piano
593.687500;0.028125;90;39;piano
593.718750;0.028125;94;39;piano
593.750000;0.028125;85;39;piano
593.750000;0.028125;90;39;piano
593.781250;0.028125;94;39;piano
593.812500;0.028125;85;39;piano
593.812500;0.028125;90;39;piano
593.843750;0.028125;94;39;piano
593.875000;0.028125;85;39;piano
593.875000;0.028125;90;39;piano
593.906250;0.028125;94;39;piano
593.937500;0.028125;85;39;piano
593.937500;0.028125;90;39;piano
593.968750;0.028125;94;39;piano
594.000000;0.028125;85;39;piano
594.000000;0.028125;90;39;piano
594.031250;0.028125;94;39;piano
594.062500;0.028125;85;39;piano
594.062500;0.028125;90;39;piano
594.093750;0.028125;94;39;piano
594.138542;0.234375;89;58;piano
594.152083;0.220833;98;58;piano
594.125000;0.248958;86;58;piano
594.875000;0.248958;59;73;piano
595.125000;0.248958;62;73;piano
595.375000;0.248958;65;73;piano
595.625000;0.436458;70;73;piano
596.062500;0.061458;68;73;piano
596.125000;1.000000;66;73;piano
597.625000;0.028125;78;58;piano
597.625000;0.028125;82;58;piano
597.656250;0.028125;90;58;piano
597.687500;0.028125;78;58;piano
597.687500;0.028125;82;58;piano
597.718750;0.028125;90;58;piano
597.750000;0.028125;78;58;piano
597.750000;0.028125;82;58;piano
597.781250;0.028125;90;58;piano
597.812500;0.028125;78;58;piano
597.812500;0.028125;82;58;piano
597.843750;0.028125;90;58;piano
597.875000;0.028125;78;58;piano
597.875000;0.028125;82;58;piano
597.906250;0.028125;90;58;piano
597.937500;0.028125;78;58;piano
597.937500;0.028125;82;58;piano
597.968750;0.028125;90;58;piano
598.000000;0.028125;78;58;piano
598.000000;0.028125;82;58;piano
598.031250;0.028125;90;58;piano
598.062500;0.028125;78;58;piano
598.062500;0.028125;82;58;piano
598.093750;0.028125;90;58;piano
598.125000;0.027083;81;58;piano
598.125000;0.027083;84;58;piano
598.155208;0.027083;93;58;piano
598.186458;0.027083;81;58;piano
598.186458;0.027083;84;58;piano
598.217708;0.027083;93;58;piano
598.248958;0.027083;81;58;piano
598.248958;0.027083;84;58;piano
598.279167;0.027083;93;58;piano
598.310417;0.027083;81;58;piano
598.310417;0.027083;84;58;piano
598.341667;0.027083;93;58;piano
598.372917;0.027083;81;58;piano
598.372917;0.027083;84;58;piano
598.403125;0.027083;93;58;piano
598.434375;0.027083;81;58;piano
598.434375;0.027083;84;58;piano
598.465625;0.027083;93;58;piano
598.496875;0.027083;81;58;piano
598.496875;0.027083;84;58;piano
598.527083;0.027083;93;58;piano
598.558333;0.027083;81;58;piano
598.558333;0.027083;84;58;piano
598.589583;0.027083;93;58;piano
598.620833;0.027083;81;58;piano
598.620833;0.027083;84;58;piano
598.651042;0.027083;93;58;piano
598.682292;0.027083;81;58;piano
598.682292;0.027083;84;58;piano
598.713542;0.027083;93;58;piano
598.744792;0.027083;81;58;piano
598.744792;0.027083;84;58;piano
598.775000;0.027083;93;58;piano
598.806250;0.027083;81;58;piano
598.806250;0.027083;84;58;piano
598.837500;0.027083;93;58;piano
598.868750;0.027083;81;58;piano
598.868750;0.027083;84;58;piano
598.900000;0.027083;93;58;piano
598.930208;0.027083;81;58;piano
598.930208;0.027083;84;58;piano
598.961458;0.027083;93;58;piano
598.992708;0.027083;81;58;piano
598.992708;0.027083;84;58;piano
599.023958;0.027083;93;58;piano
599.054167;0.027083;81;58;piano
599.054167;0.027083;84;58;piano
599.085417;0.027083;93;58;piano
599.125000;0.028125;79;58;piano
599.125000;0.028125;83;58;piano
599.156250;0.028125;91;58;piano
599.187500;0.028125;79;58;piano
599.187500;0.028125;83;58;piano
599.218750;0.028125;91;58;piano
599.250000;0.028125;79;58;piano
599.250000;0.028125;83;58;piano
599.281250;0.028125;91;58;piano
599.312500;0.028125;79;58;piano
599.312500;0.028125;83;58;piano
599.343750;0.028125;91;58;piano
599.375000;0.028125;79;58;piano
599.375000;0.028125;83;58;piano
599.406250;0.028125;91;58;piano
599.437500;0.028125;79;58;piano
599.437500;0.028125;83;58;piano
599.468750;0.028125;91;58;piano
599.500000;0.028125;79;58;piano
599.500000;0.028125;83;58;piano
599.531250;0.028125;91;58;piano
599.562500;0.028125;79;58;piano
599.562500;0.028125;83;58;piano
599.593750;0.028125;91;58;piano
599.625000;0.028125;78;58;piano
599.625000;0.028125;84;58;piano
599.656250;0.028125;90;58;piano
599.687500;0.028125;78;58;piano
599.687500;0.028125;84;58;piano
599.718750;0.028125;90;58;piano
599.750000;0.028125;78;58;piano
599.750000;0.028125;84;58;piano
599.781250;0.028125;90;58;piano
599.812500;0.028125;78;58;piano
599.812500;0.028125;84;58;piano
599.843750;0.028125;90;58;piano
599.875000;0.028125;78;58;piano
599.875000;0.028125;84;58;piano
599.906250;0.028125;90;58;piano
599.937500;0.028125;78;58;piano
599.937500;0.028125;84;58;piano
599.968750;0.028125;90;58;piano
600.000000;0.028125;78;58;piano
600.000000;0.028125;84;58;piano
600.031250;0.028125;90;58;piano
600.062500;0.028125;78;58;piano
600.062500;0.028125;84;58;piano
600.093750;0.028125;90;58;piano
600.125000;0.028125;76;58;piano
600.125000;0.028125;85;58;piano
600.156250;0.028125;88;58;piano
600.187500;0.028125;76;58;piano
600.187500;0.028125;85;58;piano
600.218750;0.028125;88;58;piano
600.250000;0.028125;76;58;piano
600.250000;0.028125;85;58;piano
600.281250;0.028125;88;60;piano
600.312500;0.028125;76;60;piano
600.312500;0.028125;85;60;piano
600.343750;0.028125;88;60;piano
600.375000;0.028125;76;60;piano
600.375000;0.028125;85;60;piano
600.406250;0.028125;88;61;piano
600.437500;0.028125;76;61;piano
600.437500;0.028125;85;61;piano
600.468750;0.028125;88;61;piano
600.500000;0.028125;76;61;piano
600.500000;0.028125;85;61;piano
600.531250;0.028125;88;62;piano
600.562500;0.028125;76;62;piano
600.562500;0.028125;85;62;piano
600.593750;0.028125;88;62;piano
600.625000;0.028125;81;62;piano
600.625000;0.028125;85;62;piano
600.656250;0.028125;93;62;piano
600.687500;0.028125;81;63;piano
600.687500;0.028125;85;63;piano
600.718750;0.028125;93;63;piano
600.750000;0.028125;81;63;piano
600.750000;0.028125;85;63;piano
600.781250;0.028125;93;63;piano
600.812500;0.028125;81;64;piano
600.812500;0.028125;85;64;piano
600.843750;0.028125;93;64;piano
600.875000;0.028125;81;64;piano
600.875000;0.028125;85;64;piano
600.906250;0.028125;93;64;piano
600.937500;0.028125;81;66;piano
600.937500;0.028125;85;66;piano
600.968750;0.028125;93;66;piano
601.000000;0.028125;81;66;piano
601.000000;0.028125;85;66;piano
601.031250;0.028125;93;66;piano
601.062500;0.028125;81;67;piano
601.062500;0.028125;85;67;piano
601.093750;0.028125;93;67;piano
601.125000;0.028125;85;67;piano
601.125000;0.028125;88;67;piano
601.156250;0.028125;97;67;piano
601.187500;0.028125;85;67;piano
601.187500;0.028125;88;67;piano
601.218750;0.028125;97;68;piano
601.250000;0.028125;85;68;piano
601.250000;0.028125;88;68;piano
601.281250;0.028125;97;68;piano
601.312500;0.028125;85;68;piano
601.312500;0.028125;88;68;piano
601.343750;0.028125;97;69;piano
601.375000;0.028125;85;69;piano
601.375000;0.028125;88;69;piano
601.406250;0.028125;97;69;piano
601.437500;0.028125;85;69;piano
601.437500;0.028125;88;69;piano
601.468750;0.028125;97;70;piano
601.500000;0.028125;85;70;piano
601.500000;0.028125;88;70;piano
601.531250;0.028125;97;70;piano
601.562500;0.028125;85;70;piano
601.562500;0.028125;88;70;piano
601.593750;0.028125;97;72;piano
601.625000;0.028125;88;72;piano
601.625000;0.028125;93;72;piano
601.656250;0.028125;100;72;piano
601.687500;0.028125;88;72;piano
601.687500;0.028125;93;72;piano
601.718750;0.028125;100;72;piano
601.750000;0.028125;88;73;piano
601.750000;0.028125;93;73;piano
601.781250;0.028125;100;73;piano
601.812500;0.028125;88;73;piano
601.812500;0.028125;93;73;piano
601.843750;0.028125;100;73;piano
601.875000;0.028125;88;74;piano
601.875000;0.028125;93;74;piano
601.906250;0.028125;100;74;piano
601.937500;0.028125;88;74;piano
601.937500;0.028125;93;74;piano
601.968750;0.028125;100;74;piano
602.000000;0.028125;88;75;piano
602.000000;0.028125;93;75;piano
602.031250;0.028125;100;75;piano
602.062500;0.028125;88;75;piano
602.062500;0.028125;93;75;piano
602.093750;0.028125;100;75;piano
602.135417;0.237500;92;76;piano
602.146875;0.226042;101;76;piano
602.125000;0.248958;89;76;piano
602.875000;0.248958;62;123;piano
603.125000;0.248958;65;127;piano
603.375000;0.248958;68;127;piano
603.625000;0.436458;73;127;piano
604.062500;0.061458;71;127;piano
604.125000;0.123958;69;127;piano
604.125000;0.123958;73;127;piano
604.125000;0.123958;81;127;piano
604.625000;0.165625;56;96;piano
604.625000;0.165625;68;96;piano
604.791667;0.165625;57;103;piano
604.791667;0.165625;69;103;piano
604.958333;0.165625;61;111;piano
604.958333;0.165625;73;111;piano
605.125000;0.165625;64;120;piano
605.125000;0.165625;76;120;piano
605.291667;0.165625;68;127;piano
605.291667;0.165625;80;127;piano
605.458333;0.165625;69;127;piano
605.458333;0.165625;81;127;piano
605.625000;0.165625;73;127;piano
605.625000;0.165625;85;127;piano
605.791667;0.165625;76;127;piano
605.791667;0.165625;88;127;piano
605.958333;0.165625;80;127;piano
605.958333;0.165625;92;127;piano
606.125000;0.123958;81;127;piano
606.125000;0.123958;86;127;piano
606.125000;0.123958;93;127;piano
606.625000;0.165625;57;120;piano
606.625000;0.165625;69;120;piano
606.791667;0.165625;58;124;piano
606.791667;0.165625;70;124;piano
606.958333;0.165625;62;127;piano
606.958333;0.165625;74;127;piano
607.125000;0.165625;65;127;piano
607.125000;0.165625;77;127;piano
607.291667;0.165625;69;127;piano
607.291667;0.165625;81;127;piano
607.458333;0.165625;70;127;piano
607.458333;0.165625;82;127;piano
607.625000;0.165625;74;127;piano
607.625000;0.165625;86;127;piano
607.791667;0.165625;77;127;piano
607.791667;0.165625;89;127;piano
607.958333;0.165625;80;127;piano
607.958333;0.165625;92;127;piano
608.125000;0.123958;81;127;piano
608.125000;0.123958;87;127;piano
608.125000;0.123958;93;127;piano
608.625000;0.165625;58;127;piano
608.625000;0.165625;70;127;piano
608.791667;0.165625;59;127;piano
608.791667;0.165625;71;127;piano
608.958333;0.165625;63;127;piano
608.958333;0.165625;75;127;piano
609.125000;0.165625;66;127;piano
609.125000;0.165625;78;127;piano
609.291667;0.165625;70;127;piano
609.291667;0.165625;82;127;piano
609.458333;0.165625;71;127;piano
609.458333;0.165625;83;127;piano
609.625000;0.165625;75;127;piano
609.625000;0.165625;87;127;piano
609.791667;0.165625;78;127;piano
609.791667;0.165625;90;127;piano
609.958333;0.165625;80;127;piano
609.958333;0.165625;92;127;piano
610.125000;0.123958;81;127;piano
610.125000;0.123958;88;127;piano
610.125000;0.123958;93;127;piano
610.625000;0.165625;59;127;piano
610.625000;0.165625;71;127;piano
610.791667;0.165625;60;127;piano
610.791667;0.165625;72;127;piano
610.958333;0.165625;63;127;piano
610.958333;0.165625;75;127;piano
611.125000;0.165625;64;127;piano
611.125000;0.165625;76;127;piano
611.291667;0.165625;68;127;piano
611.291667;0.165625;80;127;piano
611.458333;0.165625;69;127;piano
611.458333;0.165625;81;127;piano
611.625000;0.165625;72;127;piano
611.625000;0.165625;84;127;piano
611.791667;0.165625;76;127;piano
611.791667;0.165625;88;127;piano
611.958333;0.165625;80;127;piano
611.958333;0.165625;92;127;piano
612.125000;0.000000;79;96;piano
612.125000;0.000000;81;96;piano
612.125000;0.000000;85;96;piano
612.125000;0.000000;88;96;piano
612.187500;0.057292;93;96;piano
612.125000;0.125000;79;127;piano
612.125000;0.125000;81;127;piano
612.125000;0.125000;85;127;piano
612.125000;0.125000;88;127;piano
612.312500;0.057292;93;96;piano
612.250000;0.125000;79;96;piano
612.250000;0.125000;81;96;piano
612.250000;0.125000;85;96;piano
612.250000;0.125000;88;96;piano
612.437500;0.057292;93;96;piano
612.375000;0.125000;79;96;piano
612.375000;0.125000;81;96;piano
612.375000;0.125000;85;96;piano
612.375000;0.125000;88;96;piano
612.562500;0.057292;93;96;piano
612.500000;0.125000;79;96;piano
612.500000;0.125000;81;96;piano
612.500000;0.125000;85;96;piano
612.500000;0.125000;88;96;piano
612.687500;0.057292;93;96;piano
612.625000;0.125000;79;96;piano
612.625000;0.125000;81;96;piano
612.625000;0.125000;85;96;piano
612.625000;0.125000;88;96;piano
612.812500;0.057292;93;96;piano
612.750000;0.125000;79;96;piano
612.750000;0.125000;81;96;piano
612.750000;0.125000;85;96;piano
612.750000;0.125000;88;96;piano
612.937500;0.057292;93;96;piano
612.875000;0.125000;79;96;piano
612.875000;0.125000;81;96;piano
612.875000;0.125000;85;96;piano
612.875000;0.125000;88;96;piano
613.062500;0.057292;93;96;piano
613.000000;0.123958;79;96;piano
613.000000;0.123958;81;96;piano
613.000000;0.123958;85;96;piano
613.000000;0.123958;88;96;piano
613.125000;0.057292;79;96;piano
613.125000;0.057292;81;96;piano
613.125000;0.057292;85;96;piano
613.125000;0.057292;88;96;piano
613.187500;0.057292;93;96;piano
613.250000;0.057292;79;96;piano
613.250000;0.057292;81;96;piano
613.250000;0.057292;85;96;piano
613.250000;0.057292;88;96;piano
613.312500;0.057292;93;96;piano
613.375000;0.057292;79;96;piano
613.375000;0.057292;81;96;piano
613.375000;0.057292;85;96;piano
613.375000;0.057292;88;96;piano
613.437500;0.057292;93;96;piano
613.500000;0.057292;79;96;piano
613.500000;0.057292;81;96;piano
613.500000;0.057292;85;96;piano
613.500000;0.057292;88;96;piano
613.562500;0.057292;93;96;piano
613.625000;0.057292;79;96;piano
613.625000;0.057292;81;96;piano
613.625000;0.057292;85;96;piano
613.625000;0.057292;88;96;piano
613.687500;0.057292;93;96;piano
613.750000;0.057292;79;96;piano
613.750000;0.057292;81;96;piano
613.750000;0.057292;85;96;piano
613.750000;0.057292;88;96;piano
613.812500;0.057292;93;96;piano
613.875000;0.057292;79;96;piano
613.875000;0.057292;81;96;piano
613.875000;0.057292;85;96;piano
613.875000;0.057292;88;96;piano
613.937500;0.057292;93;96;piano
614.000000;0.057292;79;96;piano
614.000000;0.057292;81;96;piano
614.000000;0.057292;85;96;piano
614.000000;0.057292;88;96;piano
614.062500;0.057292;93;96;piano
614.125000;0.057292;79;96;piano
614.125000;0.057292;81;96;piano
614.125000;0.057292;85;96;piano
614.125000;0.057292;88;96;piano
614.186458;0.057292;93;96;piano
614.248958;0.057292;79;96;piano
614.248958;0.057292;81;96;piano
614.248958;0.057292;85;96;piano
614.248958;0.057292;88;96;piano
614.311458;0.057292;93;96;piano
614.373958;0.057292;79;96;piano
614.373958;0.057292;81;96;piano
614.373958;0.057292;85;96;piano
614.373958;0.057292;88;96;piano
614.435417;0.057292;93;96;piano
614.497917;0.057292;79;96;piano
614.497917;0.057292;81;96;piano
614.497917;0.057292;85;96;piano
614.497917;0.057292;88;96;piano
614.560417;0.057292;93;96;piano
614.622917;0.057292;79;96;piano
614.622917;0.057292;81;96;piano
614.622917;0.057292;85;96;piano
614.622917;0.057292;88;96;piano
614.684375;0.057292;93;96;piano
614.746875;0.057292;79;96;piano
614.746875;0.057292;81;96;piano
614.746875;0.057292;85;96;piano
614.746875;0.057292;88;96;piano
614.809375;0.057292;93;96;piano
614.871875;0.057292;79;96;piano
614.871875;0.057292;81;96;piano
614.871875;0.057292;85;96;piano
614.871875;0.057292;88;96;piano
614.933333;0.057292;93;96;piano
614.995833;0.057292;79;96;piano
614.995833;0.057292;81;96;piano
614.995833;0.057292;85;96;piano
614.995833;0.057292;88;96;piano
615.058333;0.057292;93;96;piano
615.120833;0.057292;79;96;piano
615.120833;0.057292;81;96;piano
615.120833;0.057292;85;96;piano
615.120833;0.057292;88;96;piano
615.182292;0.057292;93;96;piano
615.244792;0.057292;79;96;piano
615.244792;0.057292;81;96;piano
615.244792;0.057292;85;96;piano
615.244792;0.057292;88;96;piano
615.307292;0.057292;93;96;piano
615.369792;0.057292;79;96;piano
615.369792;0.057292;81;96;piano
615.369792;0.057292;85;96;piano
615.369792;0.057292;88;96;piano
615.431250;0.057292;93;96;piano
615.493750;0.057292;79;96;piano
615.493750;0.057292;81;96;piano
615.493750;0.057292;85;96;piano
615.493750;0.057292;88;96;piano
615.556250;0.057292;93;96;piano
615.625000;0.165625;79;127;piano
615.625000;0.165625;81;127;piano
615.625000;0.165625;85;127;piano
615.625000;0.165625;88;127;piano
615.625000;0.165625;93;127;piano
615.791667;0.082292;83;127;piano
615.791667;0.082292;95;127;piano
615.875000;0.082292;85;127;piano
615.875000;0.082292;97;127;piano
615.958333;0.082292;86;127;piano
615.958333;0.082292;98;127;piano
616.041667;0.082292;88;127;piano
616.041667;0.082292;100;127;piano
616.625000;0.063542;69;127;piano
616.625000;0.063542;74;127;piano
616.625000;0.063542;78;127;piano
616.689583;0.433333;69;127;piano
616.689583;0.433333;74;127;piano
616.689583;0.433333;78;127;piano
617.125000;0.055208;62;127;piano
617.125000;0.055208;66;127;piano
617.125000;0.055208;69;127;piano
617.181250;0.441667;62;127;piano
617.181250;0.441667;66;127;piano
617.181250;0.441667;69;127;piano
617.625000;0.029167;54;127;piano
617.625000;0.029167;57;127;piano
617.625000;0.029167;62;127;piano
617.655208;0.467708;54;127;piano
617.655208;0.467708;57;127;piano
617.655208;0.467708;62;127;piano
616.125000;1.998958;90;127;piano
616.125000;1.998958;102;127;piano
618.125000;0.500000;79;127;piano
618.625000;0.063542;72;127;piano
618.625000;0.063542;76;127;piano
618.625000;0.064583;79;127;piano
618.689583;0.433333;72;127;piano
618.689583;0.433333;76;127;piano
619.125000;0.058333;64;127;piano
619.125000;0.058333;67;127;piano
619.125000;0.058333;72;127;piano
619.184375;0.438542;64;127;piano
619.184375;0.438542;67;127;piano
619.184375;0.438542;72;127;piano
619.625000;0.052083;60;127;piano
619.625000;0.052083;64;127;piano
619.625000;0.052083;67;127;piano
619.678125;0.444792;60;127;piano
619.678125;0.444792;64;127;piano
619.678125;0.444792;67;127;piano
618.689583;1.434375;79;127;piano
618.125000;1.998958;91;127;piano
620.125000;0.073958;52;127;piano
620.125000;0.073958;55;127;piano
620.125000;0.073958;60;127;piano
620.200000;0.422917;52;127;piano
620.200000;0.422917;55;127;piano
620.200000;0.422917;60;127;piano
621.125000;0.500000;78;127;piano
621.625000;0.044792;69;127;piano
621.625000;0.044792;74;127;piano
621.625000;0.045833;78;127;piano
621.670833;0.452083;69;127;piano
621.670833;0.452083;74;127;piano
621.670833;0.453125;78;127;piano
621.125000;0.998958;90;127;piano
622.125000;0.500000;76;127;piano
622.625000;0.063542;69;127;piano
622.625000;0.063542;74;127;piano
622.625000;0.064583;76;127;piano
622.689583;0.433333;69;127;piano
622.689583;0.433333;74;127;piano
623.125000;0.065625;62;127;piano
623.125000;0.065625;64;127;piano
623.125000;0.065625;69;127;piano
623.191667;0.431250;62;127;piano
623.191667;0.431250;64;127;piano
623.191667;0.431250;69;127;piano
623.625000;0.052083;57;127;piano
623.625000;0.052083;62;127;piano
623.625000;0.052083;64;127;piano
623.678125;0.444792;57;127;piano
623.678125;0.444792;62;127;piano
623.678125;0.444792;64;127;piano
622.689583;1.434375;76;127;piano
622.125000;1.998958;81;127;piano
622.125000;1.998958;86;127;piano
622.125000;1.998958;88;127;piano
624.125000;0.500000;76;127;piano
624.625000;0.065625;69;127;piano
624.625000;0.065625;73;127;piano
624.625000;0.066667;76;127;piano
624.691667;0.431250;69;127;piano
624.691667;0.431250;73;127;piano
625.125000;0.068750;61;127;piano
625.125000;0.068750;64;127;piano
625.125000;0.068750;69;127;piano
625.194792;0.428125;61;127;piano
625.194792;0.428125;64;127;piano
625.194792;0.428125;69;127;piano
625.625000;0.048958;57;127;piano
625.625000;0.048958;61;127;piano
625.625000;0.048958;64;127;piano
625.675000;0.447917;57;127;piano
625.675000;0.447917;61;127;piano
625.675000;0.447917;64;127;piano
624.691667;1.432292;76;127;piano
624.125000;1.998958;81;127;piano
624.125000;1.998958;85;127;piano
624.125000;1.998958;88;127;piano
626.625000;0.044792;62;127;piano
626.625000;0.044792;66;127;piano
626.625000;0.044792;71;127;piano
626.670833;0.452083;62;127;piano
626.670833;0.452083;66;127;piano
626.670833;0.452083;71;127;piano
626.125000;0.998958;74;127;piano
626.125000;0.998958;78;127;piano
626.125000;0.998958;83;127;piano
626.125000;0.998958;86;127;piano
627.125000;0.500000;73;127;piano
627.625000;0.048958;65;127;piano
627.625000;0.048958;68;127;piano
627.625000;0.050000;73;127;piano
627.125000;0.873958;77;127;piano
627.125000;0.873958;80;127;piano
627.125000;0.873958;85;127;piano
627.675000;0.447917;65;127;piano
627.675000;0.447917;68;127;piano
627.675000;0.447917;73;127;piano
628.000000;0.123958;71;127;piano
628.000000;0.123958;83;127;piano
628.125000;0.250000;70;127;piano
628.375000;0.236458;61;126;piano
628.375000;0.236458;66;126;piano
628.375000;0.248958;70;126;piano
628.125000;0.498958;82;127;piano
628.625000;0.250000;73;127;piano
628.875000;0.236458;66;126;piano
628.875000;0.236458;70;126;piano
628.875000;0.248958;73;126;piano
628.625000;0.498958;85;127;piano
629.125000;0.250000;78;127;piano
629.375000;0.236458;70;126;piano
629.375000;0.236458;73;126;piano
629.375000;0.248958;78;126;piano
629.125000;0.498958;90;127;piano
629.625000;0.250000;82;127;piano
629.875000;0.236458;73;126;piano
629.875000;0.236458;78;126;piano
629.875000;0.248958;82;126;piano
629.625000;0.498958;94;127;piano
630.125000;0.498958;86;127;piano
630.125000;0.498958;98;127;piano
630.875000;0.248958;59;127;piano
630.875000;0.248958;71;127;piano
631.125000;0.248958;62;127;piano
631.125000;0.248958;74;127;piano
631.375000;0.248958;65;127;piano
631.375000;0.248958;77;127;piano
631.625000;0.373958;70;127;piano
631.625000;0.373958;82;127;piano
632.000000;0.123958;68;127;piano
632.000000;0.123958;80;127;piano
632.125000;0.165625;66;127;piano
632.125000;0.165625;70;127;piano
632.125000;0.165625;73;127;piano
632.125000;0.165625;78;127;piano
632.291667;0.165625;66;127;piano
632.291667;0.165625;70;127;piano
632.291667;0.165625;73;127;piano
632.291667;0.165625;78;127;piano
632.458333;0.165625;66;127;piano
632.458333;0.165625;70;127;piano
632.458333;0.165625;73;127;piano
632.458333;0.165625;78;127;piano
632.625000;0.165625;70;127;piano
632.625000;0.165625;73;127;piano
632.625000;0.165625;78;127;piano
632.625000;0.165625;82;127;piano
632.791667;0.165625;70;127;piano
632.791667;0.165625;73;127;piano
632.791667;0.165625;78;127;piano
632.791667;0.165625;82;127;piano
632.958333;0.165625;70;127;piano
632.958333;0.165625;73;127;piano
632.958333;0.165625;78;127;piano
632.958333;0.165625;82;127;piano
633.125000;0.165625;73;127;piano
633.125000;0.165625;78;127;piano
633.125000;0.165625;82;127;piano
633.125000;0.165625;85;127;piano
633.291667;0.165625;73;127;piano
633.291667;0.165625;78;127;piano
633.291667;0.165625;82;127;piano
633.291667;0.165625;85;127;piano
633.458333;0.165625;73;127;piano
633.458333;0.165625;78;127;piano
633.458333;0.165625;82;127;piano
633.458333;0.165625;85;127;piano
633.625000;0.165625;78;127;piano
633.625000;0.165625;82;127;piano
633.625000;0.165625;85;127;piano
633.625000;0.165625;90;127;piano
633.791667;0.165625;78;127;piano
633.791667;0.165625;82;127;piano
633.791667;0.165625;85;127;piano
633.791667;0.165625;90;127;piano
633.958333;0.165625;78;127;piano
633.958333;0.165625;82;127;piano
633.958333;0.165625;85;127;piano
633.958333;0.165625;90;127;piano
634.125000;0.998958;83;127;piano
634.125000;0.998958;86;127;piano
634.125000;0.998958;91;127;piano
634.125000;0.998958;95;127;piano
635.125000;0.873958;81;127;piano
635.125000;0.873958;85;127;piano
635.125000;0.873958;90;127;piano
635.125000;0.873958;93;127;piano
636.000000;0.123958;79;127;piano
636.000000;0.123958;88;127;piano
636.000000;0.123958;91;127;piano
636.125000;0.165625;78;127;piano
636.125000;0.165625;86;127;piano
636.125000;0.165625;90;127;piano
636.291667;0.165625;78;127;piano
636.291667;0.165625;86;127;piano
636.291667;0.165625;90;127;piano
636.458333;0.165625;78;127;piano
636.458333;0.165625;86;127;piano
636.458333;0.165625;90;127;piano
636.625000;0.165625;74;127;piano
636.625000;0.165625;78;127;piano
636.625000;0.165625;86;127;piano
636.791667;0.165625;74;127;piano
636.791667;0.165625;78;127;piano
636.791667;0.165625;86;127;piano
636.958333;0.165625;74;127;piano
636.958333;0.165625;78;127;piano
636.958333;0.165625;86;127;piano
637.125000;0.165625;78;127;piano
637.125000;0.165625;86;127;piano
637.125000;0.165625;90;127;piano
637.291667;0.165625;78;127;piano
637.291667;0.165625;86;127;piano
637.291667;0.165625;90;127;piano
637.458333;0.165625;78;127;piano
637.458333;0.165625;86;127;piano
637.458333;0.165625;90;127;piano
637.625000;0.165625;81;127;piano
637.625000;0.165625;85;127;piano
637.625000;0.165625;90;127;piano
637.625000;0.165625;93;127;piano
637.791667;0.165625;81;127;piano
637.791667;0.165625;85;127;piano
637.791667;0.165625;90;127;piano
637.791667;0.165625;93;127;piano
637.958333;0.165625;81;127;piano
637.958333;0.165625;85;127;piano
637.958333;0.165625;90;127;piano
637.958333;0.165625;93;127;piano
638.125000;0.165625;83;127;piano
638.125000;0.165625;86;127;piano
638.125000;0.165625;90;127;piano
638.125000;0.165625;95;127;piano
638.291667;0.165625;83;127;piano
638.291667;0.165625;86;127;piano
638.291667;0.165625;90;127;piano
638.291667;0.165625;95;127;piano
638.458333;0.165625;83;127;piano
638.458333;0.165625;86;127;piano
638.458333;0.165625;90;127;piano
638.458333;0.165625;95;127;piano
638.625000;0.165625;83;127;piano
638.625000;0.165625;86;127;piano
638.625000;0.165625;90;127;piano
638.625000;0.165625;95;127;piano
638.791667;0.165625;83;127;piano
638.791667;0.165625;86;127;piano
638.791667;0.165625;90;127;piano
638.791667;0.165625;95;127;piano
638.958333;0.165625;83;127;piano
638.958333;0.165625;86;127;piano
638.958333;0.165625;90;127;piano
638.958333;0.165625;95;127;piano
639.125000;0.165625;83;127;piano
639.125000;0.165625;86;127;piano
639.125000;0.165625;89;127;piano
639.125000;0.165625;95;127;piano
639.291667;0.165625;83;127;piano
639.291667;0.165625;86;127;piano
639.291667;0.165625;89;127;piano
639.291667;0.165625;95;127;piano
639.458333;0.165625;83;127;piano
639.458333;0.165625;86;127;piano
639.458333;0.165625;89;127;piano
639.458333;0.165625;95;127;piano
639.625000;0.165625;83;127;piano
639.625000;0.165625;86;127;piano
639.625000;0.165625;89;127;piano
639.625000;0.165625;95;127;piano
639.791667;0.165625;83;127;piano
639.791667;0.165625;86;127;piano
639.791667;0.165625;89;127;piano
639.791667;0.165625;95;127;piano
639.958333;0.165625;83;127;piano
639.958333;0.165625;86;127;piano
639.958333;0.165625;89;127;piano
639.958333;0.165625;95;127;piano
640.125000;0.000000;87;127;piano
640.125000;0.000000;95;127;piano
640.207292;0.077083;99;127;piano
640.125000;0.165625;87;127;piano
640.125000;0.165625;95;127;piano
640.373958;0.077083;99;127;piano
640.290625;0.165625;87;127;piano
640.290625;0.165625;95;127;piano
640.539583;0.077083;99;127;piano
640.456250;0.166667;87;127;piano
640.456250;0.166667;95;127;piano
640.705208;0.077083;99;127;piano
640.622917;0.165625;87;127;piano
640.622917;0.165625;95;127;piano
640.871875;0.077083;99;127;piano
640.788542;0.165625;87;127;piano
640.788542;0.165625;95;127;piano
641.037500;0.077083;99;127;piano
640.954167;0.170833;87;127;piano
640.954167;0.170833;95;127;piano
641.207292;0.077083;99;127;piano
641.125000;0.165625;87;127;piano
641.125000;0.165625;95;127;piano
641.373958;0.077083;99;127;piano
641.290625;0.165625;87;127;piano
641.290625;0.165625;95;127;piano
641.539583;0.077083;99;127;piano
641.456250;0.166667;87;127;piano
641.456250;0.166667;95;127;piano
641.622917;0.077083;87;127;piano
641.622917;0.077083;95;127;piano
641.705208;0.077083;99;127;piano
641.788542;0.077083;87;127;piano
641.788542;0.077083;95;127;piano
641.871875;0.077083;99;127;piano
641.954167;0.077083;87;127;piano
641.954167;0.077083;95;127;piano
642.037500;0.077083;99;127;piano
642.125000;0.077083;87;127;piano
642.125000;0.077083;95;127;piano
642.207292;0.077083;99;127;piano
642.290625;0.077083;87;127;piano
642.290625;0.077083;95;127;piano
642.373958;0.077083;99;127;piano
642.456250;0.077083;87;127;piano
642.456250;0.077083;95;127;piano
642.539583;0.077083;99;127;piano
642.622917;0.077083;87;127;piano
642.622917;0.077083;95;127;piano
642.705208;0.077083;99;127;piano
642.788542;0.077083;87;127;piano
642.788542;0.077083;95;127;piano
642.871875;0.077083;99;127;piano
642.954167;0.077083;87;127;piano
642.954167;0.077083;95;127;piano
643.037500;0.077083;99;127;piano
643.125000;0.077083;87;127;piano
643.125000;0.077083;95;127;piano
643.207292;0.077083;99;127;piano
643.290625;0.077083;87;127;piano
643.290625;0.077083;95;127;piano
643.373958;0.077083;99;127;piano
643.456250;0.077083;87;127;piano
643.456250;0.077083;95;127;piano
643.539583;0.077083;99;127;piano
643.622917;0.077083;87;127;piano
643.622917;0.077083;95;127;piano
643.705208;0.077083;99;127;piano
643.788542;0.077083;87;127;piano
643.788542;0.077083;95;127;piano
643.871875;0.077083;99;127;piano
643.954167;0.077083;87;127;piano
643.954167;0.077083;95;127;piano
644.037500;0.077083;99;127;piano
644.125000;0.077083;88;127;piano
644.125000;0.077083;96;127;piano
644.207292;0.077083;100;127;piano
644.290625;0.077083;88;127;piano
644.290625;0.077083;96;127;piano
644.373958;0.077083;100;127;piano
644.456250;0.077083;88;127;piano
644.456250;0.077083;96;127;piano
644.539583;0.077083;100;127;piano
644.622917;0.077083;88;127;piano
644.622917;0.077083;96;127;piano
644.705208;0.077083;100;127;piano
644.788542;0.077083;88;127;piano
644.788542;0.077083;96;127;piano
644.871875;0.077083;100;127;piano
644.954167;0.077083;88;127;piano
644.954167;0.077083;96;127;piano
645.037500;0.077083;100;127;piano
645.125000;0.077083;88;127;piano
645.125000;0.077083;96;127;piano
645.207292;0.077083;100;127;piano
645.290625;0.077083;88;127;piano
645.290625;0.077083;96;127;piano
645.373958;0.077083;100;127;piano
645.456250;0.077083;88;127;piano
645.456250;0.077083;96;127;piano
645.539583;0.077083;100;127;piano
645.622917;0.077083;88;127;piano
645.622917;0.077083;96;127;piano
645.705208;0.077083;100;127;piano
645.788542;0.077083;88;127;piano
645.788542;0.077083;96;127;piano
645.871875;0.077083;100;127;piano
645.954167;0.077083;88;127;piano
645.954167;0.077083;96;127;piano
646.037500;0.077083;100;127;piano
646.125000;0.077083;88;127;piano
646.125000;0.077083;96;127;piano
646.207292;0.077083;100;127;piano
646.290625;0.077083;88;127;piano
646.290625;0.077083;96;127;piano
646.373958;0.077083;100;127;piano
646.456250;0.077083;88;127;piano
646.456250;0.077083;96;127;piano
646.539583;0.077083;100;127;piano
646.622917;0.077083;88;127;piano
646.622917;0.077083;96;127;piano
646.705208;0.077083;100;127;piano
646.788542;0.077083;88;127;piano
646.788542;0.077083;96;127;piano
646.871875;0.077083;100;127;piano
646.954167;0.077083;88;127;piano
646.954167;0.077083;96;127;piano
647.037500;0.077083;100;127;piano
647.125000;0.077083;88;127;piano
647.125000;0.077083;96;127;piano
647.207292;0.077083;100;127;piano
647.290625;0.077083;88;127;piano
647.290625;0.077083;96;127;piano
647.373958;0.077083;100;127;piano
647.456250;0.077083;88;127;piano
647.456250;0.077083;96;127;piano
647.539583;0.077083;100;127;piano
647.622917;0.077083;88;127;piano
647.622917;0.077083;96;127;piano
647.705208;0.077083;100;127;piano
647.788542;0.077083;88;127;piano
647.788542;0.077083;96;127;piano
647.871875;0.077083;100;127;piano
647.954167;0.077083;88;127;piano
647.954167;0.077083;96;127;piano
648.037500;0.077083;100;127;piano
648.125000;0.236458;89;126;piano
648.125000;0.236458;92;126;piano
648.125000;0.236458;95;126;piano
648.125000;0.236458;101;126;piano
648.500000;0.123958;74;127;piano
648.500000;0.123958;86;127;piano
648.625000;0.373958;74;127;piano
648.625000;0.373958;86;127;piano
649.000000;0.123958;68;127;piano
649.000000;0.123958;80;127;piano
649.125000;0.373958;68;127;piano
649.125000;0.373958;80;127;piano
649.500000;0.123958;62;127;piano
649.500000;0.123958;74;127;piano
649.625000;0.373958;62;127;piano
649.625000;0.373958;74;127;piano
650.000000;0.123958;56;127;piano
650.000000;0.123958;68;127;piano
650.125000;0.373958;56;127;piano
650.125000;0.373958;68;127;piano
650.500000;0.123958;62;127;piano
650.625000;0.373958;62;127;piano
651.000000;0.123958;56;127;piano
651.125000;0.248958;56;127;piano
651.625000;0.736458;83;127;piano
651.625000;0.736458;86;127;piano
651.625000;0.736458;89;127;piano
651.625000;0.736458;95;127;piano
652.375000;0.248958;83;127;piano
652.375000;0.248958;86;127;piano
652.375000;0.248958;89;127;piano
652.375000;0.248958;95;127;piano
652.625000;0.248958;83;127;piano
652.625000;0.248958;87;127;piano
652.625000;0.248958;90;127;piano
652.625000;0.248958;95;127;piano
652.875000;0.248958;83;127;piano
652.875000;0.248958;88;127;piano
652.875000;0.248958;91;127;piano
652.875000;0.248958;95;127;piano
653.125000;0.248958;83;127;piano
653.125000;0.248958;89;127;piano
653.125000;0.248958;92;127;piano
653.125000;0.248958;95;127;piano
653.375000;0.248958;83;127;piano
653.375000;0.248958;90;127;piano
653.375000;0.248958;93;127;piano
653.375000;0.248958;95;127;piano
653.625000;0.248958;83;127;piano
653.625000;0.248958;89;127;piano
653.625000;0.248958;92;127;piano
653.625000;0.248958;95;127;piano
653.875000;0.248958;83;127;piano
653.875000;0.248958;88;127;piano
653.875000;0.248958;91;127;piano
653.875000;0.248958;95;127;piano
654.125000;0.248958;83;127;piano
654.125000;0.248958;87;127;piano
654.125000;0.248958;90;127;piano
654.125000;0.248958;95;127;piano
654.375000;0.248958;83;127;piano
654.375000;0.248958;86;127;piano
654.375000;0.248958;89;127;piano
654.375000;0.248958;95;127;piano
654.625000;0.248958;83;127;piano
654.625000;0.248958;87;127;piano
654.625000;0.248958;90;127;piano
654.625000;0.248958;95;127;piano
654.875000;0.248958;83;127;piano
654.875000;0.248958;88;127;piano
654.875000;0.248958;91;127;piano
654.875000;0.248958;95;127;piano
655.125000;0.248958;83;127;piano
655.125000;0.248958;89;127;piano
655.125000;0.248958;92;127;piano
655.125000;0.248958;95;127;piano
655.375000;0.248958;83;127;piano
655.375000;0.248958;90;127;piano
655.375000;0.248958;93;127;piano
655.375000;0.248958;95;127;piano
655.625000;0.248958;83;127;piano
655.625000;0.248958;89;127;piano
655.625000;0.248958;92;127;piano
655.625000;0.248958;95;127;piano
655.875000;0.248958;83;127;piano
655.875000;0.248958;88;127;piano
655.875000;0.248958;91;127;piano
655.875000;0.248958;95;127;piano
656.125000;0.248958;83;127;piano
656.125000;0.248958;87;127;piano
656.125000;0.248958;90;127;piano
656.125000;0.248958;95;127;piano
656.625000;0.248958;83;127;piano
656.625000;0.248958;86;127;piano
656.625000;0.248958;89;127;piano
656.625000;0.248958;95;127;piano
657.875000;0.248958;83;127;piano
657.875000;0.248958;86;127;piano
657.875000;0.248958;89;127;piano
657.875000;0.248958;95;127;piano
658.125000;0.248958;83;127;piano
658.125000;0.248958;86;127;piano
658.125000;0.248958;90;127;piano
658.125000;0.248958;95;127;piano
658.375000;0.123958;82;127;piano
658.375000;0.123958;86;127;piano
658.500000;0.123958;94;127;piano
658.625000;0.123958;82;127;piano
658.625000;0.123958;86;127;piano
658.750000;0.123958;94;127;piano
658.875000;0.123958;81;127;piano
658.875000;0.123958;86;127;piano
659.000000;0.123958;93;127;piano
659.125000;0.123958;81;127;piano
659.125000;0.123958;86;127;piano
659.250000;0.123958;93;127;piano
659.375000;0.123958;80;127;piano
659.375000;0.123958;86;127;piano
659.500000;0.123958;92;127;piano
659.625000;0.123958;80;127;piano
659.625000;0.123958;86;127;piano
659.750000;0.123958;92;127;piano
659.875000;0.123958;79;127;piano
659.875000;0.123958;86;127;piano
660.000000;0.123958;91;127;piano
660.125000;0.123958;79;127;piano
660.125000;0.123958;85;127;piano
660.250000;0.123958;91;127;piano
660.375000;0.123958;78;127;piano
660.375000;0.123958;85;127;piano
660.500000;0.123958;90;127;piano
660.625000;0.123958;78;127;piano
660.625000;0.123958;85;127;piano
660.750000;0.123958;90;127;piano
660.875000;0.123958;77;127;piano
660.875000;0.123958;85;127;piano
661.000000;0.123958;89;127;piano
661.125000;0.123958;77;127;piano
661.125000;0.123958;85;127;piano
661.250000;0.123958;89;127;piano
661.375000;0.123958;75;127;piano
661.375000;0.123958;85;127;piano
661.500000;0.123958;87;127;piano
661.625000;0.123958;75;127;piano
661.625000;0.123958;85;127;piano
661.750000;0.123958;87;127;piano
661.875000;0.123958;76;127;piano
661.875000;0.123958;85;127;piano
662.000000;0.123958;88;127;piano
662.125000;0.248958;83;127;piano
662.125000;0.248958;86;127;piano
662.125000;0.248958;90;127;piano
662.125000;0.248958;95;127;piano
662.375000;0.123958;82;122;piano
662.375000;0.123958;86;122;piano
662.500000;0.123958;94;127;piano
662.625000;0.123958;82;127;piano
662.625000;0.123958;86;127;piano
662.750000;0.123958;94;127;piano
662.875000;0.123958;81;127;piano
662.875000;0.123958;86;127;piano
663.000000;0.123958;93;127;piano
663.125000;0.123958;81;127;piano
663.125000;0.123958;86;127;piano
663.250000;0.123958;93;127;piano
663.375000;0.123958;80;127;piano
663.375000;0.123958;86;127;piano
663.500000;0.123958;92;127;piano
663.625000;0.123958;80;127;piano
663.625000;0.123958;86;127;piano
663.750000;0.123958;92;127;piano
663.875000;0.123958;79;127;piano
663.875000;0.123958;86;127;piano
664.000000;0.123958;91;127;piano
664.125000;0.123958;79;127;piano
664.125000;0.123958;85;127;piano
664.250000;0.123958;91;127;piano
664.375000;0.123958;78;127;piano
664.375000;0.123958;85;127;piano
664.500000;0.123958;90;127;piano
664.625000;0.123958;78;127;piano
664.625000;0.123958;85;127;piano
664.750000;0.123958;90;127;piano
664.875000;0.123958;77;127;piano
664.875000;0.123958;85;127;piano
665.000000;0.123958;89;127;piano
665.125000;0.123958;77;127;piano
665.125000;0.123958;85;127;piano
665.250000;0.123958;89;127;piano
665.375000;0.123958;75;127;piano
665.375000;0.123958;85;127;piano
665.500000;0.123958;87;127;piano
665.625000;0.123958;75;127;piano
665.625000;0.123958;85;127;piano
665.750000;0.123958;87;127;piano
665.875000;0.123958;76;127;piano
665.875000;0.123958;85;127;piano
666.000000;0.123958;88;127;piano
666.125000;0.248958;85;127;piano
666.125000;0.248958;88;127;piano
666.125000;0.248958;92;127;piano
666.125000;0.248958;97;127;piano
666.375000;0.123958;84;127;piano
666.375000;0.123958;88;127;piano
666.500000;0.123958;96;127;piano
666.625000;0.123958;84;127;piano
666.625000;0.123958;88;127;piano
666.750000;0.123958;96;127;piano
666.875000;0.123958;83;127;piano
666.875000;0.123958;88;127;piano
667.000000;0.123958;95;127;piano
667.125000;0.123958;83;127;piano
667.125000;0.123958;88;127;piano
667.250000;0.123958;95;127;piano
667.375000;0.123958;82;127;piano
667.375000;0.123958;88;127;piano
667.500000;0.123958;94;127;piano
667.625000;0.123958;82;127;piano
667.625000;0.123958;88;127;piano
667.750000;0.123958;94;127;piano
667.875000;0.123958;81;127;piano
667.875000;0.123958;88;127;piano
668.000000;0.123958;93;127;piano
668.125000;0.123958;81;127;piano
668.125000;0.123958;87;127;piano
668.250000;0.123958;93;127;piano
668.375000;0.123958;80;127;piano
668.375000;0.123958;87;127;piano
668.500000;0.123958;92;127;piano
668.625000;0.123958;80;127;piano
668.625000;0.123958;87;127;piano
668.750000;0.123958;92;127;piano
668.875000;0.123958;79;127;piano
668.875000;0.123958;88;127;piano
669.000000;0.123958;91;127;piano
669.125000;0.123958;79;127;piano
669.125000;0.123958;88;127;piano
669.250000;0.123958;91;127;piano
669.375000;0.123958;77;127;piano
669.375000;0.123958;87;127;piano
669.500000;0.123958;89;127;piano
669.625000;0.123958;77;127;piano
669.625000;0.123958;87;127;piano
669.750000;0.123958;89;127;piano
669.875000;0.123958;78;127;piano
669.875000;0.123958;87;127;piano
670.000000;0.123958;90;127;piano
670.125000;0.248958;87;127;piano
670.125000;0.248958;90;127;piano
670.125000;0.248958;94;127;piano
670.125000;0.248958;99;127;piano
670.375000;0.123958;86;127;piano
670.375000;0.123958;90;127;piano
670.500000;0.123958;98;127;piano
670.625000;0.123958;86;127;piano
670.625000;0.123958;90;127;piano
670.750000;0.123958;98;127;piano
670.875000;0.123958;85;127;piano
670.875000;0.123958;90;127;piano
671.000000;0.123958;97;127;piano
671.125000;0.123958;85;127;piano
671.125000;0.123958;90;127;piano
671.250000;0.123958;97;127;piano
671.375000;0.123958;84;127;piano
671.375000;0.123958;90;127;piano
671.500000;0.123958;96;127;piano
671.625000;0.123958;84;127;piano
671.625000;0.123958;90;127;piano
671.750000;0.123958;96;127;piano
671.875000;0.123958;83;127;piano
671.875000;0.123958;88;127;piano
672.000000;0.123958;95;127;piano
672.125000;0.123958;83;127;piano
672.125000;0.123958;89;127;piano
672.250000;0.123958;95;127;piano
672.375000;0.123958;82;127;piano
672.375000;0.123958;89;127;piano
672.500000;0.123958;94;127;piano
672.625000;0.123958;82;127;piano
672.625000;0.123958;89;127;piano
672.750000;0.123958;94;127;piano
672.875000;0.123958;81;127;piano
672.875000;0.123958;89;127;piano
673.000000;0.123958;93;127;piano
673.125000;0.123958;81;127;piano
673.125000;0.123958;89;127;piano
673.250000;0.123958;93;127;piano
673.375000;0.123958;79;127;piano
673.375000;0.123958;89;127;piano
673.500000;0.123958;91;127;piano
673.625000;0.123958;79;127;piano
673.625000;0.123958;89;127;piano
673.750000;0.123958;91;127;piano
673.875000;0.123958;80;127;piano
673.875000;0.123958;89;127;piano
674.000000;0.123958;92;127;piano
674.125000;0.248958;89;127;piano
674.125000;0.248958;92;127;piano
674.125000;0.248958;96;127;piano
674.125000;0.248958;101;127;piano
674.375000;0.123958;88;127;piano
674.375000;0.123958;92;127;piano
674.500000;0.123958;100;127;piano
674.625000;0.123958;88;127;piano
674.625000;0.123958;92;127;piano
674.750000;0.123958;100;127;piano
674.875000;0.123958;87;127;piano
674.875000;0.123958;92;127;piano
675.000000;0.123958;99;127;piano
675.125000;0.123958;87;127;piano
675.125000;0.123958;92;127;piano
675.250000;0.123958;99;127;piano
675.375000;0.123958;84;127;piano
675.375000;0.123958;92;127;piano
675.500000;0.123958;96;127;piano
675.625000;0.123958;84;127;piano
675.625000;0.123958;92;127;piano
675.750000;0.123958;96;127;piano
676.000000;0.123958;80;120;piano
676.000000;0.123958;84;120;piano
676.000000;0.123958;87;120;piano
676.000000;0.123958;92;120;piano
676.250000;0.123958;80;126;piano
676.250000;0.123958;82;126;piano
676.250000;0.123958;85;126;piano
676.250000;0.123958;92;126;piano
676.500000;0.123958;79;127;piano
676.500000;0.123958;82;127;piano
676.500000;0.123958;85;127;piano
676.500000;0.123958;91;127;piano
676.750000;0.123958;78;127;piano
676.750000;0.123958;82;127;piano
676.750000;0.123958;85;127;piano
676.750000;0.123958;90;127;piano
677.000000;0.123958;77;127;piano
677.000000;0.123958;82;127;piano
677.000000;0.123958;85;127;piano
677.000000;0.123958;89;127;piano
677.250000;0.123958;76;127;piano
677.250000;0.123958;82;127;piano
677.250000;0.123958;85;127;piano
677.250000;0.123958;88;127;piano
677.500000;0.123958;75;127;piano
677.500000;0.123958;87;127;piano
677.750000;0.123958;76;127;piano
677.750000;0.123958;88;127;piano
678.000000;0.123958;75;127;piano
678.000000;0.123958;87;127;piano
678.125000;0.248958;89;127;piano
678.125000;0.248958;92;127;piano
678.125000;0.248958;96;127;piano
678.125000;0.248958;101;127;piano
678.375000;0.123958;88;127;piano
678.375000;0.123958;92;127;piano
678.500000;0.123958;100;127;piano
678.625000;0.123958;88;127;piano
678.625000;0.123958;92;127;piano
678.750000;0.123958;100;127;piano
678.875000;0.123958;87;127;piano
678.875000;0.123958;92;127;piano
679.000000;0.123958;99;127;piano
679.125000;0.123958;87;127;piano
679.125000;0.123958;92;127;piano
679.250000;0.123958;99;127;piano
679.375000;0.123958;84;127;piano
679.375000;0.123958;92;127;piano
679.500000;0.123958;96;127;piano
679.625000;0.123958;84;127;piano
679.625000;0.123958;92;127;piano
679.750000;0.123958;96;127;piano
680.000000;0.123958;80;120;piano
680.000000;0.123958;84;120;piano
680.000000;0.123958;87;120;piano
680.000000;0.123958;92;120;piano
680.250000;0.123958;80;126;piano
680.250000;0.123958;82;126;piano
680.250000;0.123958;85;126;piano
680.250000;0.123958;92;126;piano
680.500000;0.123958;79;127;piano
680.500000;0.123958;82;127;piano
680.500000;0.123958;85;127;piano
680.500000;0.123958;91;127;piano
680.750000;0.123958;78;127;piano
680.750000;0.123958;82;127;piano
680.750000;0.123958;85;127;piano
680.750000;0.123958;90;127;piano
681.000000;0.123958;77;127;piano
681.000000;0.123958;82;127;piano
681.000000;0.123958;85;127;piano
681.000000;0.123958;89;127;piano
681.250000;0.123958;76;127;piano
681.250000;0.123958;82;127;piano
681.250000;0.123958;85;127;piano
681.250000;0.123958;88;127;piano
681.500000;0.123958;78;127;piano
681.500000;0.123958;90;127;piano
681.750000;0.123958;82;120;piano
681.750000;0.123958;94;120;piano
682.000000;0.123958;80;96;piano
682.000000;0.123958;92;96;piano
682.291667;0.165625;79;96;piano
682.291667;0.165625;91;96;piano
682.625000;0.165625;69;76;piano
682.625000;0.165625;74;76;piano
682.958333;0.165625;78;96;piano
682.958333;0.165625;90;96;piano
683.291667;0.165625;76;96;piano
683.291667;0.165625;88;96;piano
683.625000;0.165625;66;76;piano
683.625000;0.165625;70;76;piano
683.958333;0.165625;74;96;piano
683.958333;0.165625;86;96;piano
684.291667;0.165625;73;96;piano
684.291667;0.165625;85;96;piano
684.625000;0.165625;63;76;piano
684.625000;0.165625;67;76;piano
684.958333;0.165625;71;96;piano
684.958333;0.165625;83;96;piano
685.291667;0.165625;69;96;piano
685.291667;0.165625;81;96;piano
685.625000;0.165625;59;76;piano
685.625000;0.165625;64;76;piano
685.958333;0.165625;67;96;piano
685.958333;0.165625;79;96;piano
686.291667;0.165625;67;120;piano
686.291667;0.165625;79;120;piano
686.625000;0.165625;57;76;piano
686.625000;0.165625;62;76;piano
686.958333;0.165625;66;96;piano
686.958333;0.165625;78;96;piano
687.291667;0.165625;71;96;piano
687.291667;0.165625;83;96;piano
687.625000;0.165625;62;76;piano
687.625000;0.165625;66;76;piano
687.958333;0.165625;69;96;piano
687.958333;0.165625;81;96;piano
688.291667;0.165625;66;120;piano
688.291667;0.165625;78;120;piano
688.625000;0.165625;57;76;piano
688.625000;0.165625;61;76;piano
688.958333;0.165625;64;96;piano
688.958333;0.165625;76;96;piano
689.291667;0.165625;71;96;piano
689.291667;0.165625;83;96;piano
689.625000;0.165625;61;76;piano
689.625000;0.165625;64;76;piano
689.958333;0.165625;69;96;piano
689.958333;0.165625;81;96;piano
690.291667;0.165625;79;96;piano
690.291667;0.165625;91;96;piano
690.625000;0.165625;69;76;piano
690.625000;0.165625;74;76;piano
690.958333;0.165625;78;97;piano
690.958333;0.165625;90;97;piano
691.291667;0.165625;76;99;piano
691.291667;0.165625;88;99;piano
691.625000;0.165625;66;80;piano
691.625000;0.165625;70;80;piano
691.958333;0.165625;74;102;piano
691.958333;0.165625;86;102;piano
692.291667;0.165625;73;102;piano
692.291667;0.165625;85;102;piano
692.625000;0.165625;63;82;piano
692.625000;0.165625;67;82;piano
692.958333;0.165625;71;105;piano
692.958333;0.165625;83;105;piano
693.291667;0.165625;69;106;piano
693.291667;0.165625;81;106;piano
693.625000;0.165625;59;86;piano
693.625000;0.165625;64;86;piano
693.958333;0.165625;67;108;piano
693.958333;0.165625;79;108;piano
694.291667;0.165625;67;109;piano
694.291667;0.165625;79;109;piano
694.625000;0.165625;57;88;piano
694.625000;0.165625;62;88;piano
694.958333;0.165625;66;112;piano
694.958333;0.165625;78;112;piano
695.291667;0.165625;71;114;piano
695.291667;0.165625;83;114;piano
695.625000;0.165625;62;92;piano
695.625000;0.165625;66;92;piano
695.958333;0.165625;69;115;piano
695.958333;0.165625;81;115;piano
696.291667;0.165625;66;117;piano
696.291667;0.165625;78;117;piano
696.625000;0.165625;57;94;piano
696.625000;0.165625;61;94;piano
696.958333;0.165625;64;120;piano
696.958333;0.165625;76;120;piano
697.291667;0.165625;71;121;piano
697.291667;0.165625;83;121;piano
697.625000;0.165625;61;97;piano
697.625000;0.165625;64;97;piano
697.958333;0.165625;69;123;piano
697.958333;0.165625;81;123;piano
698.291667;0.165625;79;124;piano
698.291667;0.165625;91;124;piano
698.625000;0.165625;69;126;piano
698.625000;0.165625;74;126;piano
698.958333;0.165625;78;127;piano
698.958333;0.165625;90;127;piano
699.291667;0.165625;76;127;piano
699.291667;0.165625;88;127;piano
699.625000;0.165625;66;127;piano
699.625000;0.165625;70;127;piano
699.958333;0.165625;74;127;piano
699.958333;0.165625;86;127;piano
700.291667;0.165625;73;127;piano
700.291667;0.165625;85;127;piano
700.625000;0.165625;63;127;piano
700.625000;0.165625;67;127;piano
700.958333;0.165625;71;127;piano
700.958333;0.165625;83;127;piano
701.291667;0.165625;69;127;piano
701.291667;0.165625;81;127;piano
701.625000;0.165625;59;127;piano
701.625000;0.165625;64;127;piano
701.958333;0.165625;67;127;piano
701.958333;0.165625;79;127;piano
702.291667;0.165625;66;127;piano
702.291667;0.165625;78;127;piano
702.625000;0.165625;57;127;piano
702.625000;0.165625;62;127;piano
702.958333;0.165625;67;127;piano
702.958333;0.165625;79;127;piano
703.291667;0.165625;68;127;piano
703.291667;0.165625;80;127;piano
703.625000;0.165625;62;127;piano
703.958333;0.165625;69;127;piano
703.958333;0.165625;81;127;piano
704.291667;0.165625;70;127;piano
704.291667;0.165625;82;127;piano
704.625000;0.165625;62;127;piano
704.625000;0.165625;65;127;piano
704.958333;0.165625;71;127;piano
704.958333;0.165625;83;127;piano
705.291667;0.165625;72;127;piano
705.291667;0.165625;84;127;piano
705.625000;0.165625;64;127;piano
705.625000;0.165625;67;127;piano
705.958333;0.165625;73;127;piano
705.958333;0.165625;85;127;piano
706.291667;0.165625;74;127;piano
706.291667;0.165625;86;127;piano
706.625000;0.165625;75;127;piano
706.625000;0.165625;79;127;piano
706.625000;0.165625;87;127;piano
706.958333;0.165625;76;127;piano
706.958333;0.165625;80;127;piano
706.958333;0.165625;88;127;piano
707.291667;0.165625;77;127;piano
707.291667;0.165625;81;127;piano
707.291667;0.165625;89;127;piano
707.625000;0.165625;78;127;piano
707.625000;0.165625;82;127;piano
707.625000;0.165625;90;127;piano
707.958333;0.165625;79;127;piano
707.958333;0.165625;83;127;piano
707.958333;0.165625;91;127;piano
708.291667;0.165625;80;127;piano
708.291667;0.165625;84;127;piano
708.291667;0.165625;92;127;piano
708.625000;0.165625;81;127;piano
708.625000;0.165625;85;127;piano
708.625000;0.165625;93;127;piano
708.958333;0.165625;82;127;piano
708.958333;0.165625;86;127;piano
708.958333;0.165625;94;127;piano
709.291667;0.165625;83;127;piano
709.291667;0.165625;87;127;piano
709.291667;0.165625;95;127;piano
709.625000;0.165625;84;127;piano
709.625000;0.165625;88;127;piano
709.625000;0.165625;96;127;piano
709.958333;0.165625;85;127;piano
709.958333;0.165625;88;127;piano
709.958333;0.165625;97;127;piano
710.250000;0.123958;54;75;piano
710.250000;0.123958;57;75;piano
710.250000;0.123958;62;75;piano
710.375000;0.123958;54;76;piano
710.375000;0.123958;57;76;piano
710.375000;0.123958;62;76;piano
710.750000;0.123958;57;82;piano
710.750000;0.123958;62;82;piano
710.750000;0.123958;66;82;piano
710.875000;0.123958;57;85;piano
710.875000;0.123958;62;85;piano
710.875000;0.123958;66;85;piano
711.250000;0.123958;57;91;piano
711.250000;0.123958;62;91;piano
711.250000;0.123958;66;91;piano
711.250000;0.123958;69;91;piano
711.375000;0.123958;57;93;piano
711.375000;0.123958;62;93;piano
711.375000;0.123958;66;93;piano
711.375000;0.123958;69;93;piano
711.750000;0.123958;62;96;piano
711.750000;0.123958;66;96;piano
711.750000;0.123958;69;96;piano
711.750000;0.123958;74;96;piano
711.875000;0.123958;62;96;piano
711.875000;0.123958;66;96;piano
711.875000;0.123958;69;96;piano
711.875000;0.123958;74;96;piano
712.250000;0.123958;62;100;piano
712.250000;0.123958;67;100;piano
712.250000;0.123958;70;100;piano
712.375000;0.123958;62;102;piano
712.375000;0.123958;67;102;piano
712.375000;0.123958;70;102;piano
712.750000;0.123958;62;106;piano
712.750000;0.123958;67;106;piano
712.750000;0.123958;74;106;piano
712.875000;0.123958;62;108;piano
712.875000;0.123958;67;108;piano
712.875000;0.123958;74;108;piano
713.250000;0.123958;67;112;piano
713.250000;0.123958;74;112;piano
713.250000;0.123958;79;112;piano
713.375000;0.123958;67;114;piano
713.375000;0.123958;74;114;piano
713.375000;0.123958;79;114;piano
713.750000;0.123958;70;118;piano
713.750000;0.123958;74;118;piano
713.750000;0.123958;82;118;piano
713.875000;0.123958;70;120;piano
713.875000;0.123958;74;120;piano
713.875000;0.123958;82;120;piano
714.250000;0.123958;66;123;piano
714.250000;0.123958;69;123;piano
714.250000;0.123958;74;123;piano
714.375000;0.123958;66;124;piano
714.375000;0.123958;69;124;piano
714.375000;0.123958;74;124;piano
714.750000;0.123958;66;127;piano
714.750000;0.123958;69;127;piano
714.750000;0.123958;78;127;piano
714.875000;0.123958;66;127;piano
714.875000;0.123958;69;127;piano
714.875000;0.123958;78;127;piano
715.250000;0.123958;69;127;piano
715.250000;0.123958;74;127;piano
715.250000;0.123958;78;127;piano
715.250000;0.123958;81;127;piano
715.375000;0.123958;69;127;piano
715.375000;0.123958;74;127;piano
715.375000;0.123958;78;127;piano
715.375000;0.123958;81;127;piano
715.750000;0.123958;74;127;piano
715.750000;0.123958;78;127;piano
715.750000;0.123958;81;127;piano
715.750000;0.123958;86;127;piano
715.875000;0.123958;74;127;piano
715.875000;0.123958;78;127;piano
715.875000;0.123958;81;127;piano
715.875000;0.123958;86;127;piano
716.250000;0.123958;74;127;piano
716.250000;0.123958;79;127;piano
716.250000;0.123958;82;127;piano
716.375000;0.123958;74;127;piano
716.375000;0.123958;79;127;piano
716.375000;0.123958;82;127;piano
716.750000;0.123958;74;127;piano
716.750000;0.123958;79;127;piano
716.750000;0.123958;86;127;piano
716.875000;0.123958;74;127;piano
716.875000;0.123958;79;127;piano
716.875000;0.123958;86;127;piano
717.250000;0.123958;79;127;piano
717.250000;0.123958;86;127;piano
717.250000;0.123958;91;127;piano
717.375000;0.123958;79;127;piano
717.375000;0.123958;86;127;piano
717.375000;0.123958;91;127;piano
717.750000;0.123958;82;127;piano
717.750000;0.123958;86;127;piano
717.750000;0.123958;94;127;piano
717.875000;0.123958;82;127;piano
717.875000;0.123958;86;127;piano
717.875000;0.123958;94;127;piano
718.250000;0.123958;86;127;piano
718.250000;0.123958;90;127;piano
718.250000;0.123958;93;127;piano
718.250000;0.123958;98;127;piano
718.375000;0.123958;86;127;piano
718.375000;0.123958;90;127;piano
718.375000;0.123958;93;127;piano
718.375000;0.123958;98;127;piano
718.750000;0.123958;74;127;piano
718.750000;0.123958;78;127;piano
718.750000;0.123958;81;127;piano
718.750000;0.123958;86;127;piano
718.875000;0.123958;74;127;piano
718.875000;0.123958;78;127;piano
718.875000;0.123958;81;127;piano
718.875000;0.123958;86;127;piano
719.250000;0.123958;62;127;piano
719.250000;0.123958;66;127;piano
719.250000;0.123958;69;127;piano
719.250000;0.123958;74;127;piano
719.375000;0.123958;62;127;piano
719.375000;0.123958;66;127;piano
719.375000;0.123958;69;127;piano
719.375000;0.123958;74;127;piano
719.750000;0.123958;54;127;piano
719.750000;0.123958;57;127;piano
719.750000;0.123958;62;127;piano
719.875000;0.123958;54;127;piano
719.875000;0.123958;57;127;piano
719.875000;0.123958;62;127;piano
720.250000;0.123958;86;127;piano
720.250000;0.123958;89;127;piano
720.250000;0.123958;98;127;piano
720.375000;0.123958;86;127;piano
720.375000;0.123958;89;127;piano
720.375000;0.123958;98;127;piano
720.750000;0.123958;74;127;piano
720.750000;0.123958;77;127;piano
720.750000;0.123958;86;127;piano
720.875000;0.123958;74;127;piano
720.875000;0.123958;77;127;piano
720.875000;0.123958;86;127;piano
721.250000;0.123958;62;127;piano
721.250000;0.123958;65;127;piano
721.250000;0.123958;74;127;piano
721.375000;0.123958;62;127;piano
721.375000;0.123958;65;127;piano
721.375000;0.123958;74;127;piano
721.750000;0.123958;53;127;piano
721.750000;0.123958;58;127;piano
721.750000;0.123958;62;127;piano
721.875000;0.123958;53;127;piano
721.875000;0.123958;58;127;piano
721.875000;0.123958;62;127;piano
722.250000;0.123958;86;127;piano
722.250000;0.123958;94;127;piano
722.250000;0.123958;98;127;piano
722.375000;0.123958;86;127;piano
722.375000;0.123958;94;127;piano
722.375000;0.123958;98;127;piano
722.750000;0.123958;74;127;piano
722.750000;0.123958;82;127;piano
722.750000;0.123958;86;127;piano
722.875000;0.123958;74;127;piano
722.875000;0.123958;82;127;piano
722.875000;0.123958;86;127;piano
723.250000;0.123958;62;127;piano
723.250000;0.123958;70;127;piano
723.250000;0.123958;74;127;piano
723.375000;0.123958;62;127;piano
723.375000;0.123958;70;127;piano
723.375000;0.123958;74;127;piano
723.750000;0.123958;55;127;piano
723.750000;0.123958;58;127;piano
723.750000;0.123958;62;127;piano
723.875000;0.123958;55;127;piano
723.875000;0.123958;58;127;piano
723.875000;0.123958;62;127;piano
724.250000;0.123958;86;127;piano
724.250000;0.123958;91;127;piano
724.250000;0.123958;98;127;piano
724.375000;0.123958;86;127;piano
724.375000;0.123958;91;127;piano
724.375000;0.123958;98;127;piano
724.750000;0.123958;74;127;piano
724.750000;0.123958;79;127;piano
724.750000;0.123958;86;127;piano
724.875000;0.123958;74;127;piano
724.875000;0.123958;79;127;piano
724.875000;0.123958;86;127;piano
725.250000;0.123958;62;127;piano
725.250000;0.123958;67;127;piano
725.250000;0.123958;74;127;piano
725.375000;0.123958;62;127;piano
725.375000;0.123958;67;127;piano
725.375000;0.123958;74;127;piano
725.750000;0.123958;50;127;piano
725.750000;0.123958;55;127;piano
725.750000;0.123958;62;127;piano
725.875000;0.123958;50;127;piano
725.875000;0.123958;55;127;piano
725.875000;0.123958;62;127;piano
726.125000;0.998958;54;127;piano
726.125000;0.998958;62;127;piano
726.125000;0.998958;66;127;piano
727.125000;0.063542;66;127;piano
727.125000;0.063542;69;127;piano
727.125000;0.063542;74;127;piano
727.125000;0.063542;78;127;piano
727.189583;0.433333;66;127;piano
727.189583;0.433333;69;127;piano
727.189583;0.433333;74;127;piano
727.189583;0.433333;78;127;piano
727.625000;0.498958;78;127;piano
727.625000;0.498958;81;127;piano
727.625000;0.498958;86;127;piano
727.625000;0.498958;90;127;piano
728.125000;0.998958;55;127;piano
728.125000;0.998958;60;127;piano
728.125000;0.998958;64;127;piano
728.125000;0.998958;67;127;piano
729.125000;0.063542;67;127;piano
729.125000;0.063542;72;127;piano
729.125000;0.063542;76;127;piano
729.125000;0.063542;79;127;piano
729.189583;0.433333;67;127;piano
729.189583;0.433333;72;127;piano
729.189583;0.433333;76;127;piano
729.189583;0.433333;79;127;piano
729.625000;0.498958;79;127;piano
729.625000;0.498958;84;127;piano
729.625000;0.498958;88;127;piano
729.625000;0.498958;91;127;piano
730.125000;0.998958;58;127;piano
730.125000;0.998958;62;127;piano
730.125000;0.998958;65;127;piano
730.125000;0.998958;70;127;piano
731.125000;0.061458;70;127;piano
731.125000;0.061458;74;127;piano
731.125000;0.061458;77;127;piano
731.125000;0.061458;82;127;piano
731.187500;0.435417;70;127;piano
731.187500;0.435417;74;127;piano
731.187500;0.435417;77;127;piano
731.187500;0.435417;82;127;piano
731.625000;0.498958;82;127;piano
731.625000;0.498958;86;127;piano
731.625000;0.498958;89;127;piano
731.625000;0.498958;94;127;piano
732.125000;0.998958;60;127;piano
732.125000;0.998958;63;127;piano
732.125000;0.998958;68;127;piano
732.125000;0.998958;72;127;piano
733.125000;0.060417;72;127;piano
733.125000;0.060417;75;127;piano
733.125000;0.060417;80;127;piano
733.125000;0.060417;84;127;piano
733.186458;0.436458;72;127;piano
733.186458;0.436458;75;127;piano
733.186458;0.436458;80;127;piano
733.186458;0.436458;84;127;piano
733.625000;0.498958;84;127;piano
733.625000;0.498958;87;127;piano
733.625000;0.498958;92;127;piano
733.625000;0.498958;96;127;piano
734.125000;0.998958;61;127;piano
734.125000;0.998958;66;127;piano
734.125000;0.998958;70;127;piano
734.125000;0.998958;73;127;piano
735.125000;0.046875;73;127;piano
735.125000;0.046875;78;127;piano
735.125000;0.046875;82;127;piano
735.125000;0.046875;85;127;piano
735.172917;0.450000;73;127;piano
735.172917;0.450000;78;127;piano
735.172917;0.450000;82;127;piano
735.172917;0.450000;85;127;piano
735.625000;0.498958;85;127;piano
735.625000;0.498958;90;127;piano
735.625000;0.498958;94;127;piano
735.625000;0.498958;97;127;piano
737.000000;0.123958;61;127;piano
737.000000;0.123958;73;127;piano
737.125000;0.873958;61;127;piano
737.125000;0.873958;73;127;piano
738.000000;0.123958;54;127;piano
738.000000;0.123958;66;127;piano
738.125000;0.998958;54;127;piano
738.125000;0.998958;66;127;piano
739.125000;0.948958;54;126;piano
739.125000;0.948958;59;126;piano
739.125000;0.948958;62;126;piano
739.125000;0.948958;66;126;piano
740.125000;0.998958;59;127;piano
740.125000;0.998958;62;127;piano
740.125000;0.998958;67;127;piano
740.125000;0.998958;71;127;piano
741.125000;0.998958;59;127;piano
741.125000;0.998958;64;127;piano
741.125000;0.998958;67;127;piano
741.125000;0.998958;71;127;piano
742.125000;1.998958;66;127;piano
742.125000;1.998958;69;127;piano
742.125000;1.998958;74;127;piano
742.125000;1.998958;78;127;piano
744.125000;0.038542;57;127;piano
744.125000;0.038542;62;127;piano
744.125000;0.038542;69;127;piano
744.164583;1.958333;57;127;piano
744.164583;1.958333;62;127;piano
744.164583;1.958333;69;127;piano
746.125000;0.034375;50;127;piano
746.125000;0.034375;57;127;piano
746.125000;0.034375;62;127;piano
746.160417;1.962500;50;127;piano
746.160417;1.962500;57;127;piano
746.160417;1.962500;62;127;piano
748.125000;0.025000;45;127;piano
748.125000;0.025000;50;127;piano
748.125000;0.025000;57;127;piano
748.151042;0.971875;45;127;piano
748.151042;0.971875;50;127;piano
748.151042;0.971875;57;127;piano
749.125000;0.998958;45;127;piano
749.125000;0.998958;50;127;piano
749.125000;0.998958;57;127;piano
750.125000;1.998958;45;127;piano
750.125000;1.998958;50;127;piano
0.000000;0.025000;57;115;piano
0.000000;0.025000;69;115;piano
0.026042;0.648958;57;115;piano
0.026042;0.648958;69;115;piano
1.000000;0.025000;51;115;piano
1.000000;0.025000;63;115;piano
1.026042;0.648958;51;115;piano
1.026042;0.648958;63;115;piano
2.000000;0.036458;45;127;piano
2.000000;0.036458;57;127;piano
2.037500;0.461458;45;127;piano
2.037500;0.461458;57;127;piano
2.500000;0.031250;39;127;piano
2.500000;0.031250;51;127;piano
2.532292;0.465625;39;127;piano
2.532292;0.465625;51;127;piano
3.000000;0.022917;33;127;piano
3.000000;0.022917;45;127;piano
3.023958;0.473958;33;127;piano
3.023958;0.473958;45;127;piano
3.500000;0.248958;27;126;piano
3.500000;0.248958;39;126;piano
3.750000;4.523958;27;123;piano
3.750000;4.523958;39;123;piano
8.500000;0.373958;28;72;piano
8.500000;0.373958;40;72;piano
8.875000;0.123958;30;78;piano
8.875000;0.123958;42;78;piano
9.000000;0.498958;28;80;piano
9.000000;0.498958;40;80;piano
9.500000;0.473958;27;65;piano
9.500000;0.473958;39;65;piano
10.021875;1.976042;39;58;piano
10.043750;1.954167;44;58;piano
10.000000;1.998958;32;58;piano
12.000000;0.025000;60;115;piano
12.000000;0.025000;72;115;piano
12.026042;0.648958;60;115;piano
12.026042;0.648958;72;115;piano
13.000000;0.025000;54;115;piano
13.000000;0.025000;66;115;piano
13.026042;0.648958;54;115;piano
13.026042;0.648958;66;115;piano
14.000000;0.036458;48;127;piano
14.000000;0.036458;60;127;piano
14.037500;0.461458;48;127;piano
14.037500;0.461458;60;127;piano
14.500000;0.031250;42;127;piano
14.500000;0.031250;54;127;piano
14.532292;0.465625;42;127;piano
14.532292;0.465625;54;127;piano
15.000000;0.022917;36;127;piano
15.000000;0.022917;48;127;piano
15.023958;0.473958;36;127;piano
15.023958;0.473958;48;127;piano
15.500000;0.248958;30;126;piano
15.500000;0.248958;42;126;piano
15.750000;4.523958;30;123;piano
15.750000;4.523958;42;123;piano
20.500000;0.373958;31;73;piano
20.500000;0.373958;43;73;piano
20.875000;0.123958;33;80;piano
20.875000;0.123958;45;80;piano
21.000000;0.498958;31;80;piano
21.000000;0.498958;43;80;piano
21.500000;0.473958;30;57;piano
21.500000;0.473958;42;57;piano
22.021875;1.976042;42;39;piano
22.043750;1.954167;47;39;piano
22.000000;1.998958;35;39;piano
24.000000;0.063542;63;115;piano
24.064583;0.623958;63;115;piano
25.000000;0.063542;57;115;piano
25.064583;0.623958;57;115;piano
26.000000;0.060417;69;96;piano
26.061458;0.060417;69;96;piano
26.500000;0.060417;63;96;piano
26.561458;0.060417;63;96;piano
27.500000;0.123958;35;115;piano
27.500000;0.123958;47;115;piano
28.000000;0.123958;34;115;piano
28.000000;0.123958;46;115;piano
30.000000;0.063542;63;115;piano
30.064583;0.623958;63;115;piano
31.000000;0.060417;58;115;piano
31.061458;0.626042;58;115;piano
32.000000;0.058333;70;96;piano
32.059375;0.061458;70;96;piano
32.500000;0.058333;63;96;piano
32.559375;0.061458;63;96;piano
33.500000;0.123958;34;115;piano
33.500000;0.123958;46;115;piano
34.000000;0.123958;33;115;piano
34.000000;0.123958;45;115;piano
34.500000;0.060417;60;96;piano
34.500000;0.060417;72;96;piano
34.561458;0.060417;60;96;piano
34.561458;0.060417;72;96;piano
35.000000;0.060417;51;98;piano
35.000000;0.060417;63;98;piano
35.061458;0.060417;51;98;piano
35.061458;0.060417;63;98;piano
36.000000;0.123958;31;127;piano
36.000000;0.123958;43;127;piano
36.500000;0.052083;60;105;piano
36.500000;0.052083;72;105;piano
36.553125;0.062500;60;105;piano
36.553125;0.062500;72;105;piano
37.000000;0.052083;51;107;piano
37.000000;0.052083;63;107;piano
37.053125;0.062500;51;108;piano
37.053125;0.062500;63;108;piano
37.875000;0.123958;30;127;piano
37.875000;0.123958;36;127;piano
37.875000;0.123958;42;127;piano
38.000000;0.873958;30;127;piano
38.000000;0.873958;36;127;piano
38.000000;0.873958;42;127;piano
38.875000;0.123958;36;127;piano
38.875000;0.123958;42;127;piano
38.875000;0.123958;48;127;piano
39.000000;0.873958;36;127;piano
39.000000;0.873958;42;127;piano
39.000000;0.873958;48;127;piano
39.875000;0.117708;42;112;piano
39.875000;0.117708;48;112;piano
39.875000;0.117708;54;112;piano
40.000000;0.236458;42;112;piano
40.000000;0.236458;48;112;piano
40.000000;0.236458;54;112;piano
40.375000;0.117708;48;112;piano
40.375000;0.117708;54;112;piano
40.375000;0.117708;60;112;piano
40.500000;0.236458;48;112;piano
40.500000;0.236458;54;112;piano
40.500000;0.236458;60;112;piano
40.875000;0.117708;54;112;piano
40.875000;0.117708;60;112;piano
40.875000;0.117708;63;112;piano
41.000000;0.236458;54;112;piano
41.000000;0.236458;60;112;piano
41.000000;0.236458;63;112;piano
41.375000;0.117708;48;112;piano
41.375000;0.117708;54;112;piano
41.375000;0.117708;57;112;piano
41.500000;0.236458;48;112;piano
41.500000;0.236458;54;112;piano
41.500000;0.236458;57;112;piano
41.875000;0.117708;42;112;piano
41.875000;0.117708;48;112;piano
41.875000;0.117708;51;112;piano
42.000000;0.236458;42;112;piano
42.000000;0.236458;48;112;piano
42.000000;0.236458;51;112;piano
42.375000;0.117708;36;112;piano
42.375000;0.117708;42;112;piano
42.375000;0.117708;45;112;piano
42.500000;0.948958;36;112;piano
42.500000;0.948958;42;112;piano
42.500000;0.948958;45;112;piano
43.500000;0.973958;35;127;piano
43.500000;0.973958;42;127;piano
43.500000;0.973958;45;127;piano
44.500000;0.498958;34;127;piano
44.500000;0.498958;42;127;piano
44.500000;0.498958;45;127;piano
45.000000;0.498958;42;102;piano
45.000000;1.473958;34;102;piano
45.000000;1.473958;38;102;piano
45.500000;0.973958;43;91;piano
49.666667;0.165625;33;73;piano
49.833333;0.157292;34;49;piano
50.000000;0.157292;37;49;piano
50.166667;0.157292;40;51;piano
50.333333;0.157292;41;54;piano
50.500000;0.157292;43;56;piano
50.666667;0.157292;45;59;piano
50.833333;0.157292;46;62;piano
51.000000;0.117708;37;64;piano
53.666667;0.157292;53;49;piano
53.833333;0.157292;52;49;piano
54.000000;0.157292;50;49;piano
54.166667;0.157292;47;53;piano
54.333333;0.157292;44;57;piano
54.500000;0.157292;41;61;piano
54.666667;0.157292;40;63;piano
54.833333;0.157292;38;58;piano
55.000000;0.236458;32;53;piano
57.875000;0.117708;33;49;piano
57.875000;0.117708;45;49;piano
58.000000;0.117708;33;49;piano
58.000000;0.117708;45;49;piano
58.375000;0.117708;34;49;piano
58.375000;0.117708;46;49;piano
58.500000;0.117708;34;49;piano
58.500000;0.117708;46;49;piano
58.875000;0.117708;33;49;piano
58.875000;0.117708;45;49;piano
59.000000;0.117708;33;49;piano
59.000000;0.117708;45;49;piano
59.375000;0.117708;32;49;piano
59.375000;0.117708;44;49;piano
59.500000;0.117708;32;49;piano
59.500000;0.117708;44;49;piano
59.875000;0.117708;31;49;piano
59.875000;0.117708;43;49;piano
60.000000;0.117708;31;49;piano
60.000000;0.117708;43;49;piano
60.375000;0.117708;30;46;piano
60.375000;0.117708;42;46;piano
60.500000;0.117708;30;45;piano
60.500000;0.117708;42;45;piano
60.875000;0.117708;29;42;piano
60.875000;0.117708;41;42;piano
61.000000;0.117708;29;41;piano
61.000000;0.117708;41;41;piano
61.375000;0.117708;28;38;piano
61.375000;0.117708;40;38;piano
61.500000;0.117708;28;37;piano
61.500000;0.117708;40;37;piano
61.875000;0.117708;27;34;piano
61.875000;0.117708;39;34;piano
62.000000;0.123958;27;39;piano
62.000000;0.123958;39;39;piano
62.375000;0.123958;27;39;piano
62.375000;0.123958;39;39;piano
62.500000;0.123958;27;39;piano
62.500000;0.123958;39;39;piano
63.875000;0.123958;34;39;piano
64.000000;0.123958;34;39;piano
64.375000;0.123958;34;39;piano
64.500000;0.123958;34;39;piano
65.875000;0.123958;25;39;piano
65.875000;0.123958;37;39;piano
66.000000;0.123958;25;39;piano
66.000000;0.123958;37;39;piano
66.875000;0.123958;21;39;piano
66.875000;0.123958;33;39;piano
67.000000;0.123958;21;39;piano
67.000000;0.123958;33;39;piano
68.250000;0.123958;45;49;piano
68.250000;0.123958;50;49;piano
68.250000;0.123958;53;49;piano
68.375000;0.123958;45;49;piano
68.375000;0.123958;50;49;piano
68.375000;0.123958;53;49;piano
68.125000;0.498958;26;58;piano
68.125000;0.498958;38;58;piano
68.750000;0.123958;46;50;piano
68.750000;0.123958;50;50;piano
68.750000;0.123958;53;50;piano
68.875000;0.123958;46;51;piano
68.875000;0.123958;50;51;piano
68.875000;0.123958;53;51;piano
69.250000;0.123958;45;52;piano
69.250000;0.123958;50;52;piano
69.250000;0.123958;53;52;piano
69.375000;0.123958;45;52;piano
69.375000;0.123958;50;52;piano
69.375000;0.123958;53;52;piano
69.750000;0.123958;44;53;piano
69.750000;0.123958;50;53;piano
69.750000;0.123958;53;53;piano
69.875000;0.123958;44;53;piano
69.875000;0.123958;50;53;piano
69.875000;0.123958;53;53;piano
70.250000;0.123958;43;54;piano
70.250000;0.123958;45;54;piano
70.250000;0.123958;50;54;piano
70.375000;0.123958;43;54;piano
70.375000;0.123958;45;54;piano
70.375000;0.123958;50;54;piano
70.750000;0.123958;42;55;piano
70.750000;0.123958;45;55;piano
70.750000;0.123958;50;55;piano
70.875000;0.123958;42;56;piano
70.875000;0.123958;45;56;piano
70.875000;0.123958;50;56;piano
71.250000;0.123958;41;56;piano
71.250000;0.123958;45;56;piano
71.375000;0.123958;41;57;piano
71.375000;0.123958;45;57;piano
71.750000;0.123958;40;58;piano
71.750000;0.123958;41;58;piano
71.750000;0.123958;45;58;piano
71.875000;0.123958;40;58;piano
71.875000;0.123958;41;58;piano
71.875000;0.123958;45;58;piano
72.250000;0.123958;39;59;piano
72.250000;0.123958;41;59;piano
72.250000;0.123958;45;59;piano
72.375000;0.123958;39;59;piano
72.375000;0.123958;41;59;piano
72.375000;0.123958;45;59;piano
72.750000;0.123958;38;60;piano
72.750000;0.123958;41;60;piano
72.750000;0.123958;45;60;piano
72.875000;0.123958;38;60;piano
72.875000;0.123958;41;60;piano
72.875000;0.123958;45;60;piano
73.250000;0.123958;37;61;piano
73.250000;0.123958;41;61;piano
73.250000;0.123958;45;61;piano
73.375000;0.123958;37;62;piano
73.375000;0.123958;41;62;piano
73.375000;0.123958;45;62;piano
73.750000;0.123958;38;63;piano
73.750000;0.123958;41;63;piano
73.750000;0.123958;45;63;piano
73.875000;0.123958;38;63;piano
73.875000;0.123958;41;63;piano
73.875000;0.123958;45;63;piano
74.250000;0.123958;39;64;piano
74.250000;0.123958;41;64;piano
74.250000;0.123958;45;64;piano
74.375000;0.123958;39;64;piano
74.375000;0.123958;41;64;piano
74.375000;0.123958;45;64;piano
74.750000;0.123958;40;66;piano
74.750000;0.123958;41;66;piano
74.750000;0.123958;45;66;piano
74.875000;0.123958;40;68;piano
74.875000;0.123958;41;68;piano
74.875000;0.123958;45;68;piano
75.250000;0.123958;41;72;piano
75.250000;0.123958;45;72;piano
75.250000;0.123958;50;72;piano
75.375000;0.123958;41;74;piano
75.375000;0.123958;45;74;piano
75.375000;0.123958;50;74;piano
75.750000;0.123958;42;78;piano
75.750000;0.123958;45;78;piano
75.750000;0.123958;50;78;piano
75.875000;0.123958;42;80;piano
75.875000;0.123958;45;80;piano
75.875000;0.123958;50;80;piano
76.250000;0.123958;43;84;piano
76.250000;0.123958;45;84;piano
76.250000;0.123958;50;84;piano
76.375000;0.123958;43;85;piano
76.375000;0.123958;45;85;piano
76.375000;0.123958;50;85;piano
76.750000;0.123958;44;90;piano
76.750000;0.123958;50;90;piano
76.750000;0.123958;53;90;piano
76.875000;0.123958;44;91;piano
76.875000;0.123958;50;91;piano
76.875000;0.123958;53;91;piano
77.250000;0.123958;45;96;piano
77.250000;0.123958;50;96;piano
77.250000;0.123958;53;96;piano
77.375000;0.117708;45;92;piano
77.375000;0.117708;50;92;piano
77.375000;0.117708;53;92;piano
78.250000;0.117708;48;80;piano
78.250000;0.117708;52;80;piano
78.250000;0.117708;55;80;piano
78.375000;0.117708;48;80;piano
78.375000;0.117708;52;80;piano
78.375000;0.117708;55;80;piano
78.750000;0.117708;47;80;piano
78.750000;0.117708;52;80;piano
78.750000;0.117708;55;80;piano
78.875000;0.117708;47;80;piano
78.875000;0.117708;52;80;piano
78.875000;0.117708;55;80;piano
78.125000;0.998958;26;96;piano
78.125000;0.998958;38;96;piano
79.250000;0.117708;46;80;piano
79.250000;0.117708;52;80;piano
79.250000;0.117708;55;80;piano
79.375000;0.117708;46;80;piano
79.375000;0.117708;52;80;piano
79.375000;0.117708;55;80;piano
79.750000;0.117708;45;80;piano
79.750000;0.117708;46;80;piano
79.750000;0.117708;52;80;piano
79.875000;0.117708;45;80;piano
79.875000;0.117708;46;80;piano
79.875000;0.117708;52;80;piano
80.250000;0.117708;44;80;piano
80.250000;0.117708;46;80;piano
80.250000;0.117708;52;80;piano
80.375000;0.117708;44;80;piano
80.375000;0.117708;46;80;piano
80.375000;0.117708;52;80;piano
80.750000;0.117708;43;80;piano
80.750000;0.117708;46;80;piano
80.750000;0.117708;52;80;piano
80.875000;0.117708;43;80;piano
80.875000;0.117708;46;80;piano
80.875000;0.117708;52;80;piano
81.250000;0.117708;42;80;piano
81.250000;0.117708;46;80;piano
81.375000;0.117708;42;80;piano
81.375000;0.117708;46;80;piano
81.750000;0.117708;41;80;piano
81.750000;0.117708;46;80;piano
81.875000;0.117708;41;80;piano
81.875000;0.117708;46;80;piano
82.250000;0.117708;40;80;piano
82.250000;0.117708;43;80;piano
82.250000;0.117708;46;80;piano
82.375000;0.117708;40;80;piano
82.375000;0.117708;43;80;piano
82.375000;0.117708;46;80;piano
82.750000;0.117708;39;80;piano
82.750000;0.117708;43;80;piano
82.750000;0.117708;46;80;piano
82.875000;0.117708;39;80;piano
82.875000;0.117708;43;80;piano
82.875000;0.117708;46;80;piano
83.250000;0.117708;40;80;piano
83.250000;0.117708;43;80;piano
83.250000;0.117708;46;80;piano
83.375000;0.117708;40;80;piano
83.375000;0.117708;43;80;piano
83.375000;0.117708;46;80;piano
83.750000;0.117708;41;80;piano
83.750000;0.117708;46;80;piano
83.875000;0.117708;41;80;piano
83.875000;0.117708;46;80;piano
84.250000;0.117708;42;80;piano
84.250000;0.117708;46;80;piano
84.375000;0.117708;42;80;piano
84.375000;0.117708;46;80;piano
84.750000;0.117708;43;80;piano
84.750000;0.117708;46;80;piano
84.750000;0.117708;52;80;piano
84.875000;0.117708;43;80;piano
84.875000;0.117708;46;80;piano
84.875000;0.117708;52;80;piano
85.250000;0.117708;44;80;piano
85.250000;0.117708;46;80;piano
85.250000;0.117708;52;80;piano
85.375000;0.117708;44;80;piano
85.375000;0.117708;46;80;piano
85.375000;0.117708;52;80;piano
85.750000;0.117708;45;80;piano
85.750000;0.117708;52;80;piano
85.750000;0.117708;55;80;piano
85.875000;0.117708;46;80;piano
85.875000;0.117708;52;80;piano
85.875000;0.117708;55;80;piano
86.250000;0.117708;46;80;piano
86.250000;0.117708;52;80;piano
86.250000;0.117708;55;80;piano
86.375000;0.117708;46;80;piano
86.375000;0.117708;52;80;piano
86.375000;0.117708;55;80;piano
86.750000;0.117708;45;80;piano
86.750000;0.117708;52;80;piano
86.750000;0.117708;55;80;piano
86.875000;0.117708;45;80;piano
86.875000;0.117708;52;80;piano
86.875000;0.117708;55;80;piano
86.125000;0.998958;25;96;piano
86.125000;0.998958;37;96;piano
87.250000;0.123958;58;120;piano
87.250000;0.123958;64;120;piano
87.250000;0.123958;67;120;piano
87.375000;0.123958;57;96;piano
87.375000;0.123958;64;96;piano
87.375000;0.123958;67;96;piano
88.250000;0.117708;44;80;piano
88.250000;0.117708;47;80;piano
88.250000;0.117708;52;80;piano
88.375000;0.117708;44;80;piano
88.375000;0.117708;47;80;piano
88.375000;0.117708;52;80;piano
88.750000;0.117708;44;80;piano
88.750000;0.117708;47;80;piano
88.750000;0.117708;53;80;piano
88.875000;0.117708;44;80;piano
88.875000;0.117708;47;80;piano
88.875000;0.117708;53;80;piano
88.125000;0.948958;26;80;piano
88.125000;0.948958;38;80;piano
89.250000;0.123958;56;120;piano
89.250000;0.123958;59;120;piano
89.250000;0.123958;65;120;piano
89.375000;0.123958;56;96;piano
89.375000;0.123958;59;96;piano
89.375000;0.123958;65;96;piano
90.250000;0.117708;44;83;piano
90.250000;0.117708;52;83;piano
90.375000;0.117708;44;86;piano
90.375000;0.117708;52;86;piano
90.750000;0.117708;45;96;piano
90.750000;0.117708;52;96;piano
90.875000;0.117708;45;96;piano
90.875000;0.117708;52;96;piano
90.125000;0.948958;25;80;piano
90.125000;0.948958;37;80;piano
91.250000;0.123958;58;127;piano
91.250000;0.123958;64;127;piano
91.250000;0.123958;67;127;piano
91.375000;0.123958;57;115;piano
91.375000;0.123958;64;115;piano
91.375000;0.123958;67;115;piano
92.250000;0.117708;44;96;piano
92.250000;0.117708;47;96;piano
92.250000;0.117708;52;96;piano
92.375000;0.117708;44;96;piano
92.375000;0.117708;47;96;piano
92.375000;0.117708;52;96;piano
92.750000;0.117708;44;96;piano
92.750000;0.117708;47;96;piano
92.750000;0.117708;53;96;piano
92.875000;0.117708;44;96;piano
92.875000;0.117708;47;96;piano
92.875000;0.117708;53;96;piano
92.125000;0.948958;26;96;piano
92.125000;0.948958;38;96;piano
93.250000;0.123958;56;127;piano
93.250000;0.123958;59;127;piano
93.250000;0.123958;65;127;piano
93.375000;0.123958;56;115;piano
93.375000;0.123958;59;115;piano
93.375000;0.123958;65;115;piano
94.250000;0.117708;49;96;piano
94.250000;0.117708;52;96;piano
94.375000;0.117708;49;96;piano
94.375000;0.117708;52;96;piano
94.750000;0.117708;49;96;piano
94.750000;0.117708;52;96;piano
94.875000;0.117708;49;96;piano
94.875000;0.117708;52;96;piano
95.250000;0.117708;48;96;piano
95.250000;0.117708;51;96;piano
95.250000;0.117708;54;96;piano
95.375000;0.117708;48;96;piano
95.375000;0.117708;51;96;piano
95.375000;0.117708;54;96;piano
95.750000;0.117708;48;96;piano
95.750000;0.117708;51;96;piano
95.750000;0.117708;54;96;piano
95.875000;0.117708;48;96;piano
95.875000;0.117708;51;96;piano
95.875000;0.117708;54;96;piano
96.250000;0.117708;47;96;piano
96.250000;0.117708;50;96;piano
96.250000;0.117708;54;96;piano
96.250000;0.117708;57;96;piano
96.375000;0.117708;47;96;piano
96.375000;0.117708;50;96;piano
96.375000;0.117708;54;96;piano
96.375000;0.117708;57;96;piano
96.750000;0.117708;47;96;piano
96.750000;0.117708;50;96;piano
96.750000;0.117708;54;96;piano
96.750000;0.117708;57;96;piano
96.875000;0.117708;47;96;piano
96.875000;0.117708;50;96;piano
96.875000;0.117708;54;96;piano
96.875000;0.117708;57;96;piano
97.250000;0.117708;46;88;piano
97.250000;0.117708;50;88;piano
97.250000;0.117708;57;88;piano
97.375000;0.117708;46;84;piano
97.375000;0.117708;50;84;piano
97.375000;0.117708;57;84;piano
97.750000;0.117708;46;80;piano
97.750000;0.117708;50;80;piano
97.750000;0.117708;55;80;piano
97.875000;0.117708;46;80;piano
97.875000;0.117708;50;80;piano
97.875000;0.117708;55;80;piano
98.250000;0.123958;45;97;piano
98.250000;0.123958;50;97;piano
98.250000;0.123958;55;97;piano
98.375000;0.123958;45;98;piano
98.375000;0.123958;50;98;piano
98.375000;0.123958;55;98;piano
98.750000;0.117708;45;85;piano
98.750000;0.117708;50;85;piano
98.750000;0.117708;53;85;piano
98.875000;0.117708;45;86;piano
98.875000;0.117708;50;86;piano
98.875000;0.117708;53;86;piano
99.250000;0.123958;44;106;piano
99.250000;0.123958;47;106;piano
99.250000;0.123958;50;106;piano
99.250000;0.123958;53;106;piano
99.375000;0.123958;44;108;piano
99.375000;0.123958;47;108;piano
99.375000;0.123958;50;108;piano
99.375000;0.123958;53;108;piano
99.750000;0.123958;44;111;piano
99.750000;0.123958;47;111;piano
99.750000;0.123958;50;111;piano
99.750000;0.123958;53;111;piano
99.875000;0.123958;44;112;piano
99.875000;0.123958;47;112;piano
99.875000;0.123958;50;112;piano
99.875000;0.123958;53;112;piano
100.250000;0.123958;43;116;piano
100.250000;0.123958;46;116;piano
100.250000;0.123958;50;116;piano
100.250000;0.123958;53;116;piano
100.375000;0.123958;43;117;piano
100.375000;0.123958;46;117;piano
100.375000;0.123958;50;117;piano
100.375000;0.123958;53;117;piano
100.750000;0.123958;43;121;piano
100.750000;0.123958;46;121;piano
100.750000;0.123958;50;121;piano
100.750000;0.123958;53;121;piano
100.875000;0.123958;43;122;piano
100.875000;0.123958;46;122;piano
100.875000;0.123958;50;122;piano
100.875000;0.123958;53;122;piano
101.250000;0.123958;44;126;piano
101.250000;0.123958;47;126;piano
101.250000;0.123958;50;126;piano
101.250000;0.123958;53;126;piano
101.375000;0.123958;44;127;piano
101.375000;0.123958;47;127;piano
101.375000;0.123958;50;127;piano
101.375000;0.123958;53;127;piano
101.750000;0.123958;44;127;piano
101.750000;0.123958;47;127;piano
101.750000;0.123958;52;127;piano
101.875000;0.123958;44;127;piano
101.875000;0.123958;47;127;piano
101.875000;0.123958;52;127;piano
102.125000;0.498958;45;127;piano
102.125000;0.498958;49;127;piano
102.125000;0.498958;52;127;piano
102.125000;0.498958;57;127;piano
102.791667;0.082292;45;127;piano
102.791667;0.082292;57;127;piano
102.958333;0.082292;46;127;piano
102.958333;0.082292;58;127;piano
103.125000;0.082292;49;127;piano
103.125000;0.082292;61;127;piano
103.291667;0.082292;52;127;piano
103.291667;0.082292;64;127;piano
103.458333;0.082292;53;127;piano
103.458333;0.082292;65;127;piano
103.625000;0.082292;55;127;piano
103.625000;0.082292;67;127;piano
103.791667;0.082292;57;127;piano
103.791667;0.082292;69;127;piano
103.958333;0.082292;58;127;piano
103.958333;0.082292;70;127;piano
104.125000;0.082292;57;127;piano
104.125000;0.082292;69;127;piano
104.291667;0.082292;65;127;piano
104.291667;0.082292;77;127;piano
104.458333;0.082292;64;127;piano
104.458333;0.082292;76;127;piano
104.625000;0.082292;62;124;piano
104.625000;0.082292;74;124;piano
104.791667;0.082292;57;122;piano
104.791667;0.082292;69;122;piano
104.958333;0.082292;53;118;piano
104.958333;0.082292;65;118;piano
105.125000;0.082292;52;127;piano
105.125000;0.082292;64;127;piano
105.291667;0.082292;51;112;piano
105.291667;0.082292;61;112;piano
105.458333;0.082292;46;109;piano
105.458333;0.082292;58;109;piano
105.625000;0.082292;45;105;piano
105.625000;0.082292;57;105;piano
105.791667;0.082292;43;103;piano
105.791667;0.082292;55;103;piano
105.958333;0.082292;40;99;piano
105.958333;0.082292;52;99;piano
106.250000;0.117708;38;80;piano
106.250000;0.117708;41;80;piano
106.250000;0.117708;45;80;piano
106.250000;0.117708;50;80;piano
106.375000;0.117708;38;80;piano
106.375000;0.117708;41;80;piano
106.375000;0.117708;45;80;piano
106.375000;0.117708;50;80;piano
106.750000;0.117708;57;80;piano
106.750000;0.117708;62;80;piano
106.750000;0.117708;65;80;piano
106.875000;0.117708;57;81;piano
106.875000;0.117708;62;81;piano
106.875000;0.117708;65;81;piano
107.250000;0.117708;38;82;piano
107.250000;0.117708;41;82;piano
107.250000;0.117708;45;82;piano
107.250000;0.117708;50;82;piano
107.375000;0.117708;38;82;piano
107.375000;0.117708;41;82;piano
107.375000;0.117708;45;82;piano
107.375000;0.117708;50;82;piano
107.750000;0.117708;57;83;piano
107.750000;0.117708;62;83;piano
107.750000;0.117708;65;83;piano
107.875000;0.117708;57;84;piano
107.875000;0.117708;62;84;piano
107.875000;0.117708;65;84;piano
108.250000;0.117708;38;85;piano
108.250000;0.117708;41;85;piano
108.250000;0.117708;45;85;piano
108.250000;0.117708;50;85;piano
108.375000;0.117708;38;85;piano
108.375000;0.117708;41;85;piano
108.375000;0.117708;45;85;piano
108.375000;0.117708;50;85;piano
108.750000;0.117708;53;87;piano
108.750000;0.117708;57;87;piano
108.750000;0.117708;62;87;piano
108.875000;0.117708;53;87;piano
108.875000;0.117708;57;87;piano
108.875000;0.117708;62;87;piano
109.250000;0.117708;38;88;piano
109.250000;0.117708;41;88;piano
109.250000;0.117708;45;88;piano
109.250000;0.117708;50;88;piano
109.375000;0.117708;38;88;piano
109.375000;0.117708;41;88;piano
109.375000;0.117708;45;88;piano
109.375000;0.117708;50;88;piano
109.750000;0.117708;53;90;piano
109.750000;0.117708;57;90;piano
109.875000;0.117708;53;90;piano
109.875000;0.117708;57;90;piano
110.250000;0.117708;38;91;piano
110.250000;0.117708;41;91;piano
110.250000;0.117708;45;91;piano
110.250000;0.117708;50;91;piano
110.375000;0.117708;38;92;piano
110.375000;0.117708;41;92;piano
110.375000;0.117708;45;92;piano
110.375000;0.117708;50;92;piano
110.750000;0.117708;53;93;piano
110.750000;0.117708;57;93;piano
110.875000;0.117708;53;93;piano
110.875000;0.117708;57;93;piano
111.250000;0.117708;38;94;piano
111.250000;0.117708;41;94;piano
111.250000;0.117708;45;94;piano
111.250000;0.117708;50;94;piano
111.375000;0.117708;38;95;piano
111.375000;0.117708;41;95;piano
111.375000;0.117708;45;95;piano
111.375000;0.117708;50;95;piano
111.750000;0.117708;53;96;piano
111.750000;0.117708;57;96;piano
111.875000;0.117708;53;96;piano
111.875000;0.117708;57;96;piano
112.250000;0.117708;38;97;piano
112.250000;0.117708;41;97;piano
112.250000;0.117708;45;97;piano
112.250000;0.117708;50;97;piano
112.375000;0.117708;38;97;piano
112.375000;0.117708;41;97;piano
112.375000;0.117708;45;97;piano
112.375000;0.117708;50;97;piano
112.750000;0.117708;53;99;piano
112.750000;0.117708;57;99;piano
112.750000;0.117708;62;99;piano
112.875000;0.117708;53;100;piano
112.875000;0.117708;57;100;piano
112.875000;0.117708;62;100;piano
113.250000;0.117708;38;101;piano
113.250000;0.117708;41;101;piano
113.250000;0.117708;45;101;piano
113.250000;0.117708;50;101;piano
113.375000;0.117708;38;102;piano
113.375000;0.117708;41;102;piano
113.375000;0.117708;45;102;piano
113.375000;0.117708;50;102;piano
113.750000;0.117708;53;104;piano
113.750000;0.117708;57;104;piano
113.750000;0.117708;62;104;piano
113.875000;0.117708;53;104;piano
113.875000;0.117708;57;104;piano
113.875000;0.117708;62;104;piano
114.250000;0.117708;38;106;piano
114.250000;0.117708;41;106;piano
114.250000;0.117708;45;106;piano
114.250000;0.117708;50;106;piano
114.375000;0.117708;38;106;piano
114.375000;0.117708;41;106;piano
114.375000;0.117708;45;106;piano
114.375000;0.117708;50;106;piano
114.750000;0.117708;53;108;piano
114.750000;0.117708;57;108;piano
114.750000;0.117708;62;108;piano
114.875000;0.117708;53;109;piano
114.875000;0.117708;57;109;piano
114.875000;0.117708;62;109;piano
115.250000;0.117708;38;110;piano
115.250000;0.117708;41;110;piano
115.250000;0.117708;45;110;piano
115.250000;0.117708;50;110;piano
115.375000;0.117708;38;111;piano
115.375000;0.117708;41;111;piano
115.375000;0.117708;45;111;piano
115.375000;0.117708;50;111;piano
115.750000;0.117708;57;112;piano
115.750000;0.117708;62;112;piano
115.750000;0.117708;65;112;piano
115.875000;0.117708;57;112;piano
115.875000;0.117708;62;112;piano
115.875000;0.117708;65;112;piano
116.250000;0.123958;38;127;piano
116.250000;0.123958;43;127;piano
116.250000;0.123958;46;127;piano
116.250000;0.123958;52;127;piano
116.375000;0.123958;38;127;piano
116.375000;0.123958;43;127;piano
116.375000;0.123958;46;127;piano
116.375000;0.123958;52;127;piano
116.750000;0.117708;58;112;piano
116.750000;0.117708;64;112;piano
116.750000;0.117708;67;112;piano
116.875000;0.117708;58;112;piano
116.875000;0.117708;64;112;piano
116.875000;0.117708;67;112;piano
117.250000;0.117708;38;112;piano
117.250000;0.117708;43;112;piano
117.250000;0.117708;46;112;piano
117.250000;0.117708;52;112;piano
117.375000;0.117708;38;112;piano
117.375000;0.117708;43;112;piano
117.375000;0.117708;46;112;piano
117.375000;0.117708;52;112;piano
117.750000;0.117708;58;112;piano
117.750000;0.117708;64;112;piano
117.750000;0.117708;67;112;piano
117.875000;0.117708;58;112;piano
117.875000;0.117708;64;112;piano
117.875000;0.117708;67;112;piano
118.250000;0.117708;38;112;piano
118.250000;0.117708;43;112;piano
118.250000;0.117708;46;112;piano
118.250000;0.117708;52;112;piano
118.375000;0.117708;38;112;piano
118.375000;0.117708;43;112;piano
118.375000;0.117708;46;112;piano
118.375000;0.117708;52;112;piano
118.750000;0.117708;55;112;piano
118.750000;0.117708;58;112;piano
118.750000;0.117708;64;112;piano
118.875000;0.117708;55;112;piano
118.875000;0.117708;58;112;piano
118.875000;0.117708;64;112;piano
119.250000;0.117708;38;112;piano
119.250000;0.117708;43;112;piano
119.250000;0.117708;46;112;piano
119.250000;0.117708;52;112;piano
119.375000;0.117708;38;112;piano
119.375000;0.117708;43;112;piano
119.375000;0.117708;46;112;piano
119.375000;0.117708;52;112;piano
119.750000;0.117708;55;112;piano
119.750000;0.117708;58;112;piano
119.875000;0.117708;55;112;piano
119.875000;0.117708;58;112;piano
120.250000;0.117708;38;112;piano
120.250000;0.117708;43;112;piano
120.250000;0.117708;46;112;piano
120.250000;0.117708;52;112;piano
120.375000;0.117708;38;112;piano
120.375000;0.117708;43;112;piano
120.375000;0.117708;46;112;piano
120.375000;0.117708;52;112;piano
120.750000;0.117708;55;112;piano
120.750000;0.117708;58;112;piano
120.875000;0.117708;55;112;piano
120.875000;0.117708;58;112;piano
121.250000;0.117708;38;112;piano
121.250000;0.117708;43;112;piano
121.250000;0.117708;46;112;piano
121.250000;0.117708;52;112;piano
121.375000;0.117708;38;112;piano
121.375000;0.117708;43;112;piano
121.375000;0.117708;46;112;piano
121.375000;0.117708;52;112;piano
121.750000;0.117708;55;112;piano
121.750000;0.117708;58;112;piano
121.875000;0.117708;55;112;piano
121.875000;0.117708;58;112;piano
122.250000;0.117708;38;112;piano
122.250000;0.117708;43;112;piano
122.250000;0.117708;46;112;piano
122.250000;0.117708;52;112;piano
122.375000;0.117708;38;112;piano
122.375000;0.117708;43;112;piano
122.375000;0.117708;46;112;piano
122.375000;0.117708;52;112;piano
122.750000;0.117708;55;112;piano
122.750000;0.117708;58;112;piano
122.750000;0.117708;64;112;piano
122.875000;0.117708;55;112;piano
122.875000;0.117708;58;112;piano
122.875000;0.117708;64;112;piano
123.250000;0.117708;38;112;piano
123.250000;0.117708;43;112;piano
123.250000;0.117708;46;112;piano
123.250000;0.117708;52;112;piano
123.375000;0.117708;38;112;piano
123.375000;0.117708;43;112;piano
123.375000;0.117708;46;112;piano
123.375000;0.117708;52;112;piano
123.750000;0.117708;58;112;piano
123.750000;0.117708;64;112;piano
123.750000;0.117708;67;112;piano
123.875000;0.117708;58;112;piano
123.875000;0.117708;64;112;piano
123.875000;0.117708;67;112;piano
124.250000;0.123958;37;127;piano
124.250000;0.123958;45;127;piano
124.250000;0.123958;49;127;piano
124.375000;0.123958;37;127;piano
124.375000;0.123958;45;127;piano
124.375000;0.123958;49;127;piano
124.750000;0.117708;57;112;piano
124.750000;0.117708;64;112;piano
124.750000;0.117708;67;112;piano
124.875000;0.117708;57;112;piano
124.875000;0.117708;64;112;piano
124.875000;0.117708;67;112;piano
125.250000;0.123958;37;127;piano
125.250000;0.123958;45;127;piano
125.250000;0.123958;49;127;piano
125.375000;0.123958;37;127;piano
125.375000;0.123958;45;127;piano
125.375000;0.123958;49;127;piano
125.750000;0.117708;57;112;piano
125.750000;0.117708;64;112;piano
125.750000;0.117708;67;112;piano
125.875000;0.117708;57;112;piano
125.875000;0.117708;64;112;piano
125.875000;0.117708;67;112;piano
126.250000;0.117708;38;112;piano
126.250000;0.117708;47;112;piano
126.250000;0.117708;50;112;piano
126.375000;0.117708;38;112;piano
126.375000;0.117708;47;112;piano
126.375000;0.117708;50;112;piano
126.750000;0.117708;56;112;piano
126.750000;0.117708;59;112;piano
126.750000;0.117708;65;112;piano
126.875000;0.117708;56;112;piano
126.875000;0.117708;59;112;piano
126.875000;0.117708;65;112;piano
127.250000;0.117708;38;112;piano
127.250000;0.117708;47;112;piano
127.250000;0.117708;50;112;piano
127.375000;0.117708;38;112;piano
127.375000;0.117708;47;112;piano
127.375000;0.117708;50;112;piano
127.750000;0.117708;56;112;piano
127.750000;0.117708;59;112;piano
127.750000;0.117708;65;112;piano
127.875000;0.117708;56;112;piano
127.875000;0.117708;59;112;piano
127.875000;0.117708;65;112;piano
128.250000;0.117708;36;112;piano
128.250000;0.117708;46;112;piano
128.250000;0.117708;49;112;piano
128.375000;0.117708;36;112;piano
128.375000;0.117708;45;112;piano
128.375000;0.117708;49;112;piano
128.750000;0.117708;57;112;piano
128.750000;0.117708;64;112;piano
128.750000;0.117708;67;112;piano
128.875000;0.117708;57;112;piano
128.875000;0.117708;64;112;piano
128.875000;0.117708;67;112;piano
129.250000;0.123958;37;127;piano
129.250000;0.123958;46;127;piano
129.250000;0.123958;49;127;piano
129.375000;0.123958;37;127;piano
129.375000;0.123958;46;127;piano
129.375000;0.123958;49;127;piano
129.750000;0.117708;57;112;piano
129.750000;0.117708;64;112;piano
129.750000;0.117708;67;112;piano
129.875000;0.117708;57;112;piano
129.875000;0.117708;64;112;piano
129.875000;0.117708;67;112;piano
130.250000;0.117708;38;112;piano
130.250000;0.117708;47;112;piano
130.250000;0.117708;50;112;piano
130.375000;0.117708;38;112;piano
130.375000;0.117708;47;112;piano
130.375000;0.117708;50;112;piano
130.750000;0.117708;56;112;piano
130.750000;0.117708;59;112;piano
130.750000;0.117708;65;112;piano
130.875000;0.117708;56;112;piano
130.875000;0.117708;59;112;piano
130.875000;0.117708;65;112;piano
131.250000;0.117708;37;112;piano
131.250000;0.117708;44;112;piano
131.250000;0.117708;49;112;piano
131.375000;0.117708;37;112;piano
131.375000;0.117708;44;112;piano
131.375000;0.117708;49;112;piano
131.750000;0.117708;35;112;piano
131.750000;0.117708;44;112;piano
131.750000;0.117708;47;112;piano
131.875000;0.117708;35;112;piano
131.875000;0.117708;44;112;piano
131.875000;0.117708;47;112;piano
132.250000;0.117708;33;96;piano
132.250000;0.117708;42;96;piano
132.250000;0.117708;45;96;piano
132.375000;0.117708;33;96;piano
132.375000;0.117708;42;96;piano
132.375000;0.117708;45;96;piano
132.750000;0.117708;54;96;piano
132.750000;0.117708;61;96;piano
132.750000;0.117708;66;96;piano
132.875000;0.117708;54;96;piano
132.875000;0.117708;61;96;piano
132.875000;0.117708;66;96;piano
133.250000;0.117708;29;96;piano
133.250000;0.117708;37;96;piano
133.250000;0.117708;41;96;piano
133.375000;0.117708;29;96;piano
133.375000;0.117708;37;96;piano
133.375000;0.117708;41;96;piano
133.750000;0.117708;56;96;piano
133.750000;0.117708;61;96;piano
133.750000;0.117708;68;96;piano
133.875000;0.117708;56;96;piano
133.875000;0.117708;61;96;piano
133.875000;0.117708;68;96;piano
134.250000;0.117708;30;96;piano
134.250000;0.117708;37;96;piano
134.250000;0.117708;42;96;piano
134.375000;0.117708;30;96;piano
134.375000;0.117708;37;96;piano
134.375000;0.117708;42;96;piano
134.750000;0.117708;57;96;piano
134.750000;0.117708;61;96;piano
134.750000;0.117708;69;96;piano
134.875000;0.117708;57;96;piano
134.875000;0.117708;61;96;piano
134.875000;0.117708;69;96;piano
135.250000;0.117708;40;112;piano
135.250000;0.117708;42;112;piano
135.250000;0.117708;52;112;piano
135.375000;0.117708;40;112;piano
135.375000;0.117708;42;112;piano
135.375000;0.117708;52;112;piano
135.750000;0.117708;58;112;piano
135.750000;0.117708;61;112;piano
135.750000;0.117708;66;112;piano
135.750000;0.117708;70;112;piano
135.875000;0.117708;58;112;piano
135.875000;0.117708;61;112;piano
135.875000;0.117708;66;112;piano
135.875000;0.117708;70;112;piano
136.250000;0.117708;39;112;piano
136.250000;0.117708;42;112;piano
136.250000;0.117708;51;112;piano
136.375000;0.117708;39;112;piano
136.375000;0.117708;42;112;piano
136.375000;0.117708;51;112;piano
136.750000;0.117708;59;112;piano
136.750000;0.117708;66;112;piano
136.750000;0.117708;71;112;piano
136.875000;0.117708;59;112;piano
136.875000;0.117708;66;112;piano
136.875000;0.117708;71;112;piano
137.250000;0.117708;38;112;piano
137.250000;0.117708;42;112;piano
137.250000;0.117708;50;112;piano
137.375000;0.117708;38;112;piano
137.375000;0.117708;42;112;piano
137.375000;0.117708;50;112;piano
137.750000;0.117708;37;112;piano
137.750000;0.117708;42;112;piano
137.750000;0.117708;49;112;piano
137.875000;0.117708;37;112;piano
137.875000;0.117708;42;112;piano
137.875000;0.117708;49;112;piano
138.250000;0.117708;35;112;piano
138.250000;0.117708;38;112;piano
138.250000;0.117708;47;112;piano
138.375000;0.117708;35;112;piano
138.375000;0.117708;38;112;piano
138.375000;0.117708;47;112;piano
138.750000;0.117708;54;112;piano
138.750000;0.117708;56;112;piano
138.750000;0.117708;62;112;piano
138.875000;0.117708;54;112;piano
138.875000;0.117708;56;112;piano
138.875000;0.117708;62;112;piano
139.250000;0.117708;35;112;piano
139.250000;0.117708;38;112;piano
139.250000;0.117708;47;112;piano
139.375000;0.117708;35;112;piano
139.375000;0.117708;38;112;piano
139.375000;0.117708;47;112;piano
139.750000;0.117708;54;112;piano
139.750000;0.117708;56;112;piano
139.750000;0.117708;62;112;piano
139.875000;0.117708;54;112;piano
139.875000;0.117708;56;112;piano
139.875000;0.117708;62;112;piano
140.250000;0.123958;35;127;piano
140.250000;0.123958;38;127;piano
140.250000;0.123958;47;127;piano
140.375000;0.123958;35;127;piano
140.375000;0.123958;38;127;piano
140.375000;0.123958;47;127;piano
140.750000;0.117708;54;112;piano
140.750000;0.117708;56;112;piano
140.750000;0.117708;62;112;piano
140.750000;0.117708;66;112;piano
140.875000;0.117708;54;112;piano
140.875000;0.117708;56;112;piano
140.875000;0.117708;62;112;piano
140.875000;0.117708;66;112;piano
141.250000;0.123958;35;127;piano
141.250000;0.123958;38;127;piano
141.250000;0.123958;47;127;piano
141.375000;0.123958;35;127;piano
141.375000;0.123958;38;127;piano
141.375000;0.123958;47;127;piano
141.750000;0.117708;54;112;piano
141.750000;0.117708;56;112;piano
141.750000;0.117708;66;112;piano
141.875000;0.117708;54;112;piano
141.875000;0.117708;56;112;piano
141.875000;0.117708;66;112;piano
142.250000;0.123958;36;127;piano
142.250000;0.123958;39;127;piano
142.250000;0.123958;48;127;piano
142.375000;0.123958;36;127;piano
142.375000;0.123958;39;127;piano
142.375000;0.123958;48;127;piano
142.750000;0.117708;54;112;piano
142.750000;0.117708;56;112;piano
142.750000;0.117708;63;112;piano
142.750000;0.117708;66;112;piano
142.875000;0.117708;54;112;piano
142.875000;0.117708;56;112;piano
142.875000;0.117708;63;112;piano
142.875000;0.117708;66;112;piano
143.250000;0.123958;36;127;piano
143.250000;0.123958;39;127;piano
143.250000;0.123958;48;127;piano
143.375000;0.123958;36;127;piano
143.375000;0.123958;39;127;piano
143.375000;0.123958;48;127;piano
143.750000;0.117708;56;112;piano
143.750000;0.117708;63;112;piano
143.750000;0.117708;66;112;piano
143.750000;0.117708;68;112;piano
143.875000;0.117708;56;112;piano
143.875000;0.117708;63;112;piano
143.875000;0.117708;66;112;piano
143.875000;0.117708;68;112;piano
144.250000;0.123958;57;127;piano
144.250000;0.123958;69;127;piano
144.375000;0.123958;57;127;piano
144.375000;0.123958;69;127;piano
144.750000;0.117708;51;104;piano
144.750000;0.117708;63;104;piano
144.875000;0.117708;51;102;piano
144.875000;0.117708;63;102;piano
145.250000;0.123958;45;116;piano
145.250000;0.123958;57;116;piano
145.375000;0.123958;45;127;piano
145.375000;0.123958;57;127;piano
145.750000;0.117708;39;91;piano
145.750000;0.117708;51;91;piano
145.875000;0.117708;39;89;piano
145.875000;0.117708;51;89;piano
146.250000;0.123958;33;100;piano
146.250000;0.123958;45;100;piano
146.375000;0.123958;33;123;piano
146.375000;0.123958;45;123;piano
146.750000;0.117708;27;80;piano
146.750000;0.117708;39;80;piano
146.875000;0.117708;27;80;piano
146.875000;0.117708;39;80;piano
147.250000;0.117708;24;80;piano
147.250000;0.117708;36;80;piano
147.375000;0.117708;24;80;piano
147.375000;0.117708;36;80;piano
147.750000;0.117708;24;80;piano
147.750000;0.117708;36;80;piano
147.875000;0.117708;24;80;piano
147.875000;0.117708;36;80;piano
148.250000;0.117708;24;84;piano
148.250000;0.117708;36;84;piano
148.375000;0.117708;24;86;piano
148.375000;0.117708;36;86;piano
148.750000;0.117708;24;92;piano
148.750000;0.117708;36;92;piano
148.875000;0.117708;24;94;piano
148.875000;0.117708;36;94;piano
149.250000;0.117708;24;100;piano
149.250000;0.117708;36;100;piano
149.375000;0.117708;24;102;piano
149.375000;0.117708;36;102;piano
149.750000;0.117708;24;108;piano
149.750000;0.117708;36;108;piano
149.875000;0.117708;24;110;piano
149.875000;0.117708;36;110;piano
150.250000;0.117708;33;102;piano
150.250000;0.117708;45;102;piano
150.375000;0.117708;33;96;piano
150.375000;0.117708;45;96;piano
150.750000;0.117708;32;112;piano
150.750000;0.117708;44;112;piano
150.875000;0.117708;30;119;piano
150.875000;0.117708;42;119;piano
151.125000;0.165625;37;127;piano
151.125000;0.165625;49;127;piano
151.791667;0.165625;36;127;piano
151.791667;0.165625;48;127;piano
151.958333;0.165625;37;127;piano
151.958333;0.165625;49;127;piano
152.125000;0.165625;38;127;piano
152.125000;0.165625;50;127;piano
152.291667;0.165625;42;127;piano
152.291667;0.165625;54;127;piano
152.458333;0.165625;47;127;piano
152.458333;0.165625;59;127;piano
152.625000;0.165625;48;127;piano
152.791667;0.165625;49;127;piano
152.958333;0.165625;50;127;piano
153.125000;0.165625;39;127;piano
153.125000;0.165625;51;127;piano
153.791667;0.165625;38;127;piano
153.791667;0.165625;50;127;piano
153.958333;0.165625;39;127;piano
153.958333;0.165625;51;127;piano
154.125000;0.165625;40;127;piano
154.125000;0.165625;52;127;piano
154.291667;0.165625;44;127;piano
154.291667;0.165625;56;127;piano
154.458333;0.165625;47;127;piano
154.458333;0.165625;59;127;piano
154.625000;0.165625;48;127;piano
154.791667;0.165625;49;127;piano
154.958333;0.165625;52;127;piano
155.125000;0.082292;41;127;piano
155.125000;0.082292;53;127;piano
155.625000;0.082292;42;127;piano
155.625000;0.082292;54;127;piano
156.125000;0.332292;43;127;piano
156.125000;0.332292;55;127;piano
156.458333;0.082292;44;112;piano
156.458333;0.082292;56;112;piano
156.625000;0.082292;45;112;piano
156.625000;0.082292;57;112;piano
156.791667;0.082292;44;112;piano
156.791667;0.082292;56;112;piano
156.958333;0.082292;42;112;piano
156.958333;0.082292;54;112;piano
157.125000;0.165625;37;127;piano
157.125000;0.165625;49;127;piano
157.291667;0.078125;49;112;piano
157.375000;0.078125;61;112;piano
157.458333;0.078125;48;112;piano
157.541667;0.078125;60;112;piano
157.625000;0.078125;49;112;piano
157.708333;0.078125;61;112;piano
157.791667;0.078125;48;112;piano
157.875000;0.078125;60;112;piano
157.958333;0.078125;49;112;piano
158.041667;0.078125;61;112;piano
158.125000;0.165625;38;127;piano
158.125000;0.165625;50;127;piano
158.291667;0.078125;49;112;piano
158.375000;0.078125;61;113;piano
158.458333;0.078125;48;115;piano
158.541667;0.078125;60;117;piano
158.625000;0.078125;49;119;piano
158.708333;0.078125;61;120;piano
158.791667;0.078125;48;122;piano
158.875000;0.078125;60;124;piano
158.958333;0.078125;49;126;piano
159.041667;0.078125;61;126;piano
159.125000;0.082292;39;127;piano
159.125000;0.082292;51;127;piano
159.291667;0.078125;49;112;piano
159.375000;0.078125;61;112;piano
159.458333;0.078125;48;112;piano
159.541667;0.078125;60;112;piano
159.625000;0.078125;49;112;piano
159.708333;0.078125;61;112;piano
159.791667;0.078125;48;112;piano
159.875000;0.078125;60;112;piano
159.958333;0.078125;49;112;piano
160.041667;0.078125;61;112;piano
160.125000;0.082292;40;127;piano
160.125000;0.082292;52;127;piano
160.291667;0.078125;49;112;piano
160.375000;0.078125;61;113;piano
160.458333;0.078125;48;115;piano
160.541667;0.078125;60;117;piano
160.625000;0.078125;49;119;piano
160.708333;0.078125;61;120;piano
160.791667;0.078125;48;122;piano
160.875000;0.078125;60;124;piano
160.958333;0.078125;49;126;piano
161.041667;0.078125;61;126;piano
161.125000;0.053125;40;112;piano
161.125000;0.053125;53;112;piano
161.291667;0.053125;50;112;piano
161.291667;0.053125;62;112;piano
161.458333;0.053125;49;112;piano
161.458333;0.053125;61;112;piano
161.625000;0.053125;42;112;piano
161.625000;0.053125;54;112;piano
161.791667;0.053125;48;112;piano
161.791667;0.053125;60;112;piano
161.958333;0.053125;49;112;piano
161.958333;0.053125;61;112;piano
162.125000;0.053125;43;112;piano
162.125000;0.053125;55;112;piano
162.291667;0.053125;51;112;piano
162.291667;0.053125;63;112;piano
162.458333;0.053125;52;112;piano
162.458333;0.053125;64;112;piano
162.625000;0.053125;44;112;piano
162.625000;0.053125;56;112;piano
162.791667;0.053125;52;112;piano
162.791667;0.053125;64;112;piano
162.958333;0.053125;53;112;piano
162.958333;0.053125;65;112;piano
163.125000;0.157292;45;112;piano
163.125000;0.157292;57;112;piano
163.291667;0.157292;54;114;piano
163.291667;0.157292;66;114;piano
163.458333;0.157292;46;116;piano
163.458333;0.157292;58;116;piano
163.625000;0.157292;55;119;piano
163.625000;0.157292;67;119;piano
163.791667;0.157292;47;121;piano
163.791667;0.157292;59;121;piano
163.958333;0.157292;56;123;piano
163.958333;0.157292;68;123;piano
164.291667;0.157292;48;126;piano
164.291667;0.157292;60;126;piano
164.458333;0.157292;49;126;piano
164.458333;0.157292;61;126;piano
164.625000;0.110417;50;127;piano
164.625000;0.110417;62;127;piano
165.125000;0.054167;26;127;piano
165.125000;0.054167;38;127;piano
165.208333;0.078125;41;112;piano
165.291667;0.078125;44;113;piano
165.375000;0.078125;47;114;piano
165.458333;0.078125;50;115;piano
165.541667;0.078125;53;117;piano
165.625000;0.078125;56;118;piano
165.708333;0.078125;59;119;piano
165.791667;0.078125;62;120;piano
165.875000;0.078125;65;122;piano
165.958333;0.078125;68;123;piano
166.041667;0.078125;71;124;piano
167.625000;0.053125;53;112;piano
167.625000;0.053125;65;112;piano
168.125000;0.054167;29;127;piano
168.125000;0.054167;41;127;piano
168.208333;0.078125;44;113;piano
168.291667;0.078125;47;114;piano
168.375000;0.078125;50;115;piano
168.458333;0.078125;53;116;piano
168.541667;0.078125;56;117;piano
168.625000;0.078125;59;119;piano
168.708333;0.078125;62;120;piano
168.791667;0.078125;65;121;piano
168.875000;0.078125;68;122;piano
168.958333;0.078125;71;123;piano
169.041667;0.078125;74;124;piano
170.625000;0.053125;56;112;piano
170.625000;0.053125;68;112;piano
171.125000;0.054167;32;127;piano
171.125000;0.054167;44;127;piano
171.208333;0.078125;47;113;piano
171.291667;0.078125;50;114;piano
171.375000;0.078125;53;115;piano
171.458333;0.078125;56;116;piano
171.541667;0.078125;59;117;piano
171.625000;0.078125;62;119;piano
171.708333;0.078125;65;120;piano
171.791667;0.078125;68;121;piano
171.875000;0.078125;71;122;piano
171.958333;0.078125;74;123;piano
172.041667;0.078125;77;124;piano
176.125000;0.166667;56;73;piano
177.625000;0.123958;50;73;piano
177.625000;0.123958;59;73;piano
178.125000;0.123958;44;73;piano
178.125000;0.123958;51;73;piano
178.125000;0.123958;59;73;piano
178.625000;0.123958;53;73;piano
178.625000;0.123958;62;73;piano
179.125000;0.123958;47;73;piano
179.125000;0.123958;54;73;piano
179.125000;0.123958;62;73;piano
180.625000;0.123958;53;73;piano
180.625000;0.123958;62;73;piano
181.125000;0.123958;47;73;piano
181.125000;0.123958;54;73;piano
181.125000;0.123958;62;73;piano
181.625000;0.123958;56;73;piano
181.625000;0.123958;65;73;piano
182.125000;0.123958;50;73;piano
182.125000;0.123958;57;73;piano
182.125000;0.123958;65;73;piano
183.625000;0.123958;59;73;piano
183.625000;0.123958;68;73;piano
184.125000;0.123958;53;73;piano
184.125000;0.123958;60;73;piano
184.125000;0.123958;68;73;piano
184.625000;0.165625;62;73;piano
184.625000;0.165625;68;73;piano
184.791667;0.157292;68;52;piano
184.958333;0.157292;56;55;piano
184.958333;0.157292;63;55;piano
184.958333;0.157292;68;55;piano
185.125000;0.165625;65;87;piano
185.125000;0.165625;71;87;piano
185.291667;0.157292;71;61;piano
185.458333;0.165625;59;76;piano
185.458333;0.165625;66;76;piano
185.458333;0.165625;71;76;piano
185.625000;0.165625;68;100;piano
185.625000;0.165625;74;100;piano
185.791667;0.165625;68;84;piano
185.791667;0.165625;74;84;piano
185.958333;0.165625;62;88;piano
185.958333;0.165625;69;88;piano
185.958333;0.165625;74;88;piano
186.125000;0.165625;68;115;piano
186.125000;0.165625;74;115;piano
186.291667;0.165625;68;96;piano
186.291667;0.165625;74;96;piano
186.458333;0.165625;62;99;piano
186.458333;0.165625;69;99;piano
186.458333;0.165625;74;99;piano
186.625000;0.165625;68;127;piano
186.625000;0.165625;74;127;piano
186.791667;0.165625;68;106;piano
186.791667;0.165625;74;106;piano
186.958333;0.165625;62;110;piano
186.958333;0.165625;69;110;piano
186.958333;0.165625;74;110;piano
187.125000;0.248958;70;127;piano
187.125000;0.248958;74;127;piano
187.500000;0.123958;74;127;piano
187.625000;0.855208;74;127;piano
188.500000;0.123958;67;127;piano
188.625000;0.498958;67;127;piano
189.500000;0.123958;62;127;piano
189.625000;0.855208;62;127;piano
190.500000;0.123958;55;127;piano
190.625000;0.248958;55;127;piano
191.000000;0.123958;50;127;piano
191.000000;0.123958;62;127;piano
191.125000;0.248958;50;127;piano
191.125000;0.248958;62;127;piano
191.500000;0.123958;43;127;piano
191.500000;0.123958;55;127;piano
191.625000;0.248958;43;127;piano
191.625000;0.248958;55;127;piano
192.000000;0.123958;50;127;piano
192.000000;0.123958;62;127;piano
192.125000;0.248958;50;127;piano
192.125000;0.248958;62;127;piano
192.500000;0.123958;43;127;piano
192.500000;0.123958;55;127;piano
192.625000;0.248958;43;127;piano
192.625000;0.248958;55;127;piano
193.000000;0.123958;39;127;piano
193.000000;0.123958;51;127;piano
193.125000;0.248958;39;127;piano
193.125000;0.248958;51;127;piano
193.500000;0.123958;58;127;piano
193.500000;0.123958;70;127;piano
193.625000;0.855208;58;127;piano
193.625000;0.855208;70;127;piano
194.500000;0.123958;51;127;piano
194.500000;0.123958;63;127;piano
194.625000;0.855208;51;127;piano
194.625000;0.855208;63;127;piano
195.500000;0.123958;46;127;piano
195.500000;0.123958;58;127;piano
195.625000;0.248958;46;127;piano
195.625000;0.248958;58;127;piano
196.000000;0.123958;39;127;piano
196.000000;0.123958;51;127;piano
196.125000;0.248958;39;127;piano
196.125000;0.248958;51;127;piano
196.500000;0.123958;38;127;piano
196.500000;0.123958;50;127;piano
196.625000;0.248958;38;127;piano
196.625000;0.248958;50;127;piano
197.000000;0.123958;37;127;piano
197.000000;0.123958;49;127;piano
197.125000;0.248958;37;127;piano
197.125000;0.248958;49;127;piano
197.500000;0.123958;61;127;piano
197.500000;0.123958;73;127;piano
197.625000;0.873958;61;127;piano
197.625000;0.873958;73;127;piano
198.500000;0.123958;56;127;piano
198.500000;0.123958;68;127;piano
198.625000;0.855208;56;127;piano
198.625000;0.855208;68;127;piano
199.500000;0.123958;49;127;piano
199.500000;0.123958;61;127;piano
199.625000;0.248958;49;127;piano
199.625000;0.248958;61;127;piano
200.000000;0.123958;44;127;piano
200.000000;0.123958;56;127;piano
200.125000;0.248958;44;127;piano
200.125000;0.248958;56;127;piano
200.500000;0.123958;37;127;piano
200.500000;0.123958;49;127;piano
200.625000;0.248958;37;127;piano
200.625000;0.248958;49;127;piano
201.000000;0.123958;38;127;piano
201.000000;0.123958;50;127;piano
201.125000;0.248958;38;127;piano
201.125000;0.248958;50;127;piano
201.500000;0.123958;37;127;piano
201.500000;0.123958;49;127;piano
201.625000;0.248958;37;127;piano
201.625000;0.248958;49;127;piano
202.000000;0.123958;39;127;piano
202.000000;0.123958;51;127;piano
202.125000;0.248958;39;127;piano
202.125000;0.248958;51;127;piano
202.500000;0.123958;37;127;piano
202.500000;0.123958;49;127;piano
202.625000;0.248958;37;127;piano
202.625000;0.248958;49;127;piano
203.000000;0.123958;30;127;piano
203.000000;0.123958;42;127;piano
203.291667;0.157292;58;126;piano
203.291667;0.157292;70;126;piano
203.458333;0.157292;54;126;piano
203.458333;0.157292;66;126;piano
203.625000;0.157292;51;126;piano
203.625000;0.157292;63;126;piano
203.791667;0.157292;49;126;piano
203.791667;0.157292;61;126;piano
203.958333;0.157292;46;126;piano
203.958333;0.157292;58;126;piano
204.125000;0.157292;44;126;piano
204.125000;0.157292;56;126;piano
203.125000;1.166667;42;127;piano
204.291667;0.157292;54;126;piano
204.458333;0.157292;39;126;piano
204.458333;0.157292;51;126;piano
204.625000;0.157292;37;126;piano
204.625000;0.157292;49;126;piano
204.791667;0.157292;46;126;piano
204.291667;0.666667;42;126;piano
203.125000;1.998958;30;127;piano
204.958333;0.165625;42;126;piano
205.291667;0.157292;59;126;piano
205.291667;0.157292;71;126;piano
205.458333;0.157292;56;126;piano
205.458333;0.157292;68;126;piano
205.625000;0.157292;54;126;piano
205.625000;0.157292;66;126;piano
205.791667;0.157292;52;126;piano
205.791667;0.157292;64;126;piano
205.958333;0.157292;49;126;piano
205.958333;0.157292;61;126;piano
206.125000;0.157292;47;126;piano
206.125000;0.157292;59;126;piano
206.291667;0.157292;44;126;piano
206.291667;0.157292;56;126;piano
206.458333;0.157292;42;126;piano
206.458333;0.157292;54;126;piano
205.125000;1.500000;40;127;piano
206.625000;0.157292;52;126;piano
206.791667;0.157292;37;126;piano
206.791667;0.157292;49;126;piano
206.958333;0.157292;35;126;piano
206.958333;0.157292;47;126;piano
205.125000;1.998958;28;127;piano
206.625000;0.498958;40;126;piano
207.125000;0.157292;44;126;piano
207.125000;0.157292;56;126;piano
207.291667;0.157292;42;126;piano
207.291667;0.157292;54;126;piano
207.458333;0.157292;40;126;piano
207.458333;0.157292;52;126;piano
207.625000;0.157292;49;126;piano
207.791667;0.157292;47;126;piano
208.291667;0.157292;58;126;piano
208.291667;0.157292;70;126;piano
208.458333;0.157292;54;126;piano
208.458333;0.157292;66;126;piano
208.625000;0.157292;51;126;piano
208.625000;0.157292;63;126;piano
208.791667;0.157292;49;126;piano
208.791667;0.157292;61;126;piano
208.958333;0.157292;46;126;piano
208.958333;0.157292;58;126;piano
208.125000;0.998958;30;127;piano
208.125000;0.998958;42;127;piano
209.291667;0.157292;56;126;piano
209.291667;0.157292;68;126;piano
209.458333;0.157292;54;126;piano
209.458333;0.157292;66;126;piano
209.625000;0.157292;51;126;piano
209.625000;0.157292;63;126;piano
209.125000;0.666667;49;127;piano
209.791667;0.157292;61;126;piano
209.958333;0.157292;46;126;piano
209.958333;0.157292;58;126;piano
209.125000;1.000000;44;127;piano
210.125000;0.157292;56;126;piano
210.291667;0.157292;42;126;piano
210.291667;0.157292;54;126;piano
209.125000;1.338542;37;127;piano
210.125000;0.338542;44;126;piano
209.791667;0.671875;49;126;piano
210.458333;0.157292;39;126;piano
210.458333;0.157292;51;126;piano
210.625000;0.157292;37;126;piano
210.625000;0.157292;49;126;piano
210.791667;0.157292;46;126;piano
210.958333;0.157292;44;126;piano
211.291667;0.157292;56;126;piano
211.291667;0.157292;68;126;piano
211.458333;0.157292;53;126;piano
211.458333;0.157292;65;126;piano
211.625000;0.157292;51;126;piano
211.625000;0.157292;63;126;piano
211.125000;0.666667;49;127;piano
211.791667;0.157292;61;126;piano
211.958333;0.157292;46;126;piano
211.958333;0.157292;58;126;piano
211.125000;1.000000;44;127;piano
212.125000;0.157292;56;126;piano
212.291667;0.157292;42;126;piano
212.291667;0.157292;54;126;piano
211.125000;1.338542;37;127;piano
211.125000;1.338542;41;127;piano
212.125000;0.338542;44;126;piano
211.791667;0.671875;49;126;piano
212.458333;0.157292;39;126;piano
212.458333;0.157292;51;126;piano
212.625000;0.157292;37;126;piano
212.625000;0.157292;49;126;piano
212.791667;0.157292;46;126;piano
212.958333;0.157292;44;126;piano
213.125000;0.165625;39;127;piano
213.125000;0.165625;51;127;piano
213.291667;0.157292;42;126;piano
213.291667;0.157292;54;126;piano
213.458333;0.157292;46;126;piano
213.458333;0.157292;58;126;piano
213.625000;0.157292;51;126;piano
213.625000;0.157292;63;126;piano
213.791667;0.157292;54;126;piano
213.791667;0.157292;66;126;piano
214.125000;0.165625;41;127;piano
214.125000;0.165625;53;127;piano
214.291667;0.157292;45;126;piano
214.291667;0.157292;57;126;piano
214.458333;0.157292;48;126;piano
214.458333;0.157292;60;126;piano
214.625000;0.157292;53;126;piano
214.625000;0.157292;65;126;piano
214.791667;0.157292;57;126;piano
214.791667;0.157292;69;126;piano
215.125000;0.157292;34;112;piano
215.125000;0.157292;46;112;piano
215.291667;0.157292;53;112;piano
215.291667;0.157292;58;112;piano
215.291667;0.157292;62;112;piano
215.291667;0.157292;65;112;piano
215.458333;0.157292;53;112;piano
215.458333;0.157292;58;112;piano
215.458333;0.157292;62;112;piano
215.458333;0.157292;65;112;piano
215.625000;0.157292;53;112;piano
215.625000;0.157292;58;112;piano
215.625000;0.157292;62;112;piano
215.625000;0.157292;65;112;piano
215.791667;0.157292;53;113;piano
215.791667;0.157292;58;113;piano
215.791667;0.157292;62;113;piano
215.791667;0.157292;65;113;piano
215.958333;0.157292;53;115;piano
215.958333;0.157292;58;115;piano
215.958333;0.157292;62;115;piano
215.958333;0.157292;65;115;piano
216.125000;0.157292;53;116;piano
216.125000;0.157292;58;116;piano
216.125000;0.157292;62;116;piano
216.125000;0.157292;65;116;piano
216.291667;0.157292;53;118;piano
216.291667;0.157292;58;118;piano
216.291667;0.157292;62;118;piano
216.291667;0.157292;65;118;piano
216.458333;0.157292;53;119;piano
216.458333;0.157292;58;119;piano
216.458333;0.157292;62;119;piano
216.458333;0.157292;65;119;piano
216.625000;0.157292;53;121;piano
216.625000;0.157292;58;121;piano
216.625000;0.157292;62;121;piano
216.625000;0.157292;65;121;piano
216.791667;0.157292;53;122;piano
216.791667;0.157292;58;122;piano
216.791667;0.157292;62;122;piano
216.791667;0.157292;65;122;piano
216.958333;0.157292;53;124;piano
216.958333;0.157292;58;124;piano
216.958333;0.157292;62;124;piano
216.958333;0.157292;65;124;piano
217.125000;0.248958;29;127;piano
217.125000;0.248958;41;127;piano
217.375000;0.110417;53;127;piano
217.375000;0.110417;58;127;piano
217.375000;0.110417;63;127;piano
217.375000;0.110417;67;127;piano
217.541667;0.110417;53;127;piano
217.541667;0.110417;58;127;piano
217.541667;0.110417;63;127;piano
217.541667;0.110417;67;127;piano
217.708333;0.110417;53;127;piano
217.708333;0.110417;58;127;piano
217.708333;0.110417;63;127;piano
217.708333;0.110417;67;127;piano
218.655208;0.217708;51;127;piano
218.685417;0.187500;57;127;piano
218.625000;0.248958;41;127;piano
219.125000;0.498958;34;127;piano
219.125000;0.498958;46;127;piano
219.625000;0.333333;38;127;piano
219.625000;0.333333;50;127;piano
220.125000;0.333333;41;127;piano
220.125000;0.333333;53;127;piano
220.625000;0.333333;46;127;piano
220.625000;0.333333;58;127;piano
221.125000;0.157292;30;112;piano
221.125000;0.157292;42;112;piano
221.291667;0.157292;42;112;piano
221.291667;0.157292;54;112;piano
221.458333;0.157292;46;112;piano
221.458333;0.157292;58;112;piano
221.625000;0.157292;49;112;piano
221.625000;0.157292;61;112;piano
221.791667;0.157292;52;112;piano
221.791667;0.157292;64;112;piano
222.125000;0.157292;31;112;piano
222.125000;0.157292;43;112;piano
222.291667;0.157292;43;112;piano
222.291667;0.157292;55;112;piano
222.458333;0.157292;46;112;piano
222.458333;0.157292;58;112;piano
222.625000;0.157292;49;112;piano
222.625000;0.157292;61;112;piano
222.791667;0.157292;52;112;piano
222.791667;0.157292;64;112;piano
223.125000;0.157292;32;112;piano
223.125000;0.157292;44;112;piano
223.291667;0.157292;53;112;piano
223.291667;0.157292;56;112;piano
223.291667;0.157292;61;112;piano
223.291667;0.157292;65;112;piano
223.458333;0.157292;53;112;piano
223.458333;0.157292;56;112;piano
223.458333;0.157292;61;112;piano
223.458333;0.157292;65;112;piano
223.625000;0.157292;53;112;piano
223.625000;0.157292;56;112;piano
223.625000;0.157292;61;112;piano
223.625000;0.157292;65;112;piano
223.791667;0.157292;53;112;piano
223.791667;0.157292;56;112;piano
223.791667;0.157292;61;112;piano
223.791667;0.157292;65;112;piano
223.958333;0.157292;53;112;piano
223.958333;0.157292;56;112;piano
223.958333;0.157292;61;112;piano
223.958333;0.157292;65;112;piano
224.125000;0.157292;53;112;piano
224.125000;0.157292;56;112;piano
224.125000;0.157292;61;112;piano
224.125000;0.157292;65;112;piano
224.291667;0.157292;53;112;piano
224.291667;0.157292;56;112;piano
224.291667;0.157292;61;112;piano
224.291667;0.157292;65;112;piano
224.458333;0.157292;53;112;piano
224.458333;0.157292;56;112;piano
224.458333;0.157292;61;112;piano
224.458333;0.157292;65;112;piano
224.625000;0.157292;53;112;piano
224.625000;0.157292;56;112;piano
224.625000;0.157292;61;112;piano
224.625000;0.157292;65;112;piano
224.791667;0.157292;53;112;piano
224.791667;0.157292;56;112;piano
224.791667;0.157292;61;112;piano
224.791667;0.157292;65;112;piano
224.958333;0.157292;53;112;piano
224.958333;0.157292;56;112;piano
224.958333;0.157292;61;112;piano
224.958333;0.157292;65;112;piano
225.125000;0.165625;32;127;piano
225.125000;0.165625;44;127;piano
225.375000;0.110417;57;127;piano
225.375000;0.110417;61;127;piano
225.375000;0.110417;66;127;piano
225.375000;0.110417;69;127;piano
225.541667;0.110417;57;127;piano
225.541667;0.110417;61;127;piano
225.541667;0.110417;66;127;piano
225.541667;0.110417;69;127;piano
225.708333;0.110417;57;127;piano
225.708333;0.110417;61;127;piano
225.708333;0.110417;66;127;piano
225.708333;0.110417;69;127;piano
226.625000;0.333333;32;127;piano
226.625000;0.333333;48;127;piano
227.125000;0.236458;37;112;piano
227.125000;0.236458;44;112;piano
227.125000;0.236458;49;112;piano
227.625000;0.030208;50;115;piano
227.625000;0.030208;62;115;piano
227.656250;0.646875;50;115;piano
227.656250;0.646875;62;115;piano
228.625000;0.031250;44;115;piano
228.625000;0.031250;56;115;piano
228.657292;0.786458;44;115;piano
228.657292;0.786458;56;115;piano
229.625000;0.036458;38;127;piano
229.625000;0.036458;50;127;piano
229.662500;0.461458;38;127;piano
229.662500;0.461458;50;127;piano
230.125000;0.025000;32;127;piano
230.125000;0.025000;44;127;piano
230.151042;0.471875;32;127;piano
230.151042;0.471875;44;127;piano
230.625000;0.248958;26;127;piano
230.625000;0.248958;38;127;piano
230.875000;3.336458;26;127;piano
230.875000;3.336458;38;127;piano
234.375000;0.498958;27;83;piano
234.375000;0.498958;39;83;piano
234.875000;0.248958;26;81;piano
234.875000;0.248958;38;81;piano
235.125000;0.123958;31;80;piano
235.125000;0.123958;43;80;piano
235.625000;0.030208;59;115;piano
235.625000;0.030208;71;115;piano
235.656250;0.646875;59;115;piano
235.656250;0.646875;71;115;piano
236.625000;0.031250;53;115;piano
236.625000;0.031250;65;115;piano
236.657292;0.786458;53;115;piano
236.657292;0.786458;65;115;piano
237.625000;0.036458;47;127;piano
237.625000;0.036458;59;127;piano
237.662500;0.461458;47;127;piano
237.662500;0.461458;59;127;piano
238.125000;0.031250;41;127;piano
238.125000;0.031250;53;127;piano
238.157292;0.465625;41;127;piano
238.157292;0.465625;53;127;piano
238.625000;0.025000;35;127;piano
238.625000;0.025000;47;127;piano
238.651042;0.471875;35;127;piano
238.651042;0.471875;47;127;piano
239.125000;0.248958;29;127;piano
239.125000;0.248958;41;127;piano
239.375000;1.436458;29;127;piano
239.375000;1.436458;41;127;piano
242.375000;0.498958;30;49;piano
242.375000;0.498958;42;49;piano
242.875000;0.248958;29;49;piano
242.875000;0.248958;41;49;piano
243.125000;0.948958;34;33;piano
243.125000;0.948958;46;33;piano
245.291667;0.315625;56;33;piano
245.291667;0.315625;59;33;piano
245.291667;0.315625;65;33;piano
245.125000;0.498958;37;39;piano
245.791667;0.315625;56;33;piano
245.791667;0.315625;59;33;piano
245.791667;0.315625;65;33;piano
246.291667;0.315625;56;33;piano
246.291667;0.315625;59;33;piano
246.291667;0.315625;65;33;piano
246.791667;0.315625;56;33;piano
246.791667;0.315625;59;33;piano
246.791667;0.315625;65;33;piano
247.291667;0.315625;56;33;piano
247.291667;0.315625;59;33;piano
247.291667;0.315625;65;33;piano
247.791667;0.315625;56;33;piano
247.791667;0.315625;59;33;piano
247.791667;0.315625;65;33;piano
248.291667;0.315625;56;33;piano
248.291667;0.315625;59;33;piano
248.291667;0.315625;65;33;piano
249.125000;0.248958;37;39;piano
249.291667;0.315625;56;33;piano
249.291667;0.315625;59;33;piano
249.291667;0.315625;65;33;piano
249.791667;0.315625;56;33;piano
249.791667;0.315625;59;33;piano
249.791667;0.315625;65;33;piano
250.291667;0.315625;56;33;piano
250.291667;0.315625;59;33;piano
250.291667;0.315625;65;33;piano
250.791667;0.315625;56;33;piano
250.791667;0.315625;59;33;piano
250.791667;0.315625;65;33;piano
251.291667;0.315625;56;33;piano
251.291667;0.315625;59;33;piano
251.291667;0.315625;65;33;piano
251.791667;0.315625;56;33;piano
251.791667;0.315625;59;33;piano
251.791667;0.315625;65;33;piano
253.125000;0.473958;40;33;piano
253.291667;0.315625;59;33;piano
253.291667;0.315625;62;33;piano
253.291667;0.315625;68;33;piano
253.791667;0.315625;59;36;piano
253.791667;0.315625;62;36;piano
253.791667;0.315625;68;36;piano
254.291667;0.315625;59;41;piano
254.291667;0.315625;62;41;piano
254.291667;0.315625;68;41;piano
254.791667;0.315625;59;45;piano
254.791667;0.315625;62;45;piano
254.791667;0.315625;68;45;piano
255.125000;0.473958;40;49;piano
255.291667;0.315625;61;49;piano
255.291667;0.315625;64;49;piano
255.291667;0.315625;69;49;piano
255.791667;0.315625;61;49;piano
255.791667;0.315625;64;49;piano
255.791667;0.315625;69;49;piano
256.291667;0.315625;61;49;piano
256.291667;0.315625;64;49;piano
256.291667;0.315625;69;49;piano
256.791667;0.315625;61;49;piano
256.791667;0.315625;64;49;piano
257.125000;0.473958;40;49;piano
257.291667;0.315625;59;49;piano
257.291667;0.315625;62;49;piano
257.625000;0.473958;41;49;piano
257.791667;0.315625;59;49;piano
257.791667;0.315625;62;49;piano
258.125000;0.473958;42;49;piano
258.291667;0.315625;59;49;piano
258.291667;0.315625;62;49;piano
258.625000;0.473958;43;49;piano
258.791667;0.315625;59;49;piano
258.791667;0.315625;62;49;piano
259.291667;0.315625;53;49;piano
259.291667;0.315625;59;49;piano
259.291667;0.315625;61;49;piano
259.125000;0.948958;44;49;piano
259.791667;0.315625;53;49;piano
259.791667;0.315625;59;49;piano
259.791667;0.315625;61;49;piano
260.291667;0.315625;55;54;piano
260.291667;0.315625;61;54;piano
260.291667;0.315625;64;54;piano
260.125000;0.948958;44;52;piano
260.791667;0.315625;55;60;piano
260.791667;0.315625;61;60;piano
260.791667;0.315625;64;60;piano
261.125000;0.473958;47;64;piano
261.500000;0.117708;56;64;piano
261.500000;0.117708;61;64;piano
261.500000;0.117708;65;64;piano
261.625000;0.236458;56;64;piano
261.625000;0.236458;61;64;piano
261.625000;0.236458;65;64;piano
263.291667;0.315625;56;64;piano
263.291667;0.315625;61;64;piano
263.291667;0.315625;65;64;piano
263.791667;0.315625;56;64;piano
263.791667;0.315625;61;64;piano
263.791667;0.315625;65;64;piano
263.125000;0.998958;47;76;piano
264.291667;0.315625;58;68;piano
264.291667;0.315625;61;68;piano
264.291667;0.315625;67;68;piano
264.125000;0.948958;40;66;piano
264.791667;0.315625;58;75;piano
264.791667;0.315625;61;75;piano
264.791667;0.315625;67;75;piano
265.125000;0.473958;41;80;piano
265.500000;0.117708;59;80;piano
265.500000;0.117708;61;80;piano
265.500000;0.117708;68;80;piano
265.625000;0.473958;59;80;piano
265.625000;0.473958;61;80;piano
265.625000;0.473958;68;80;piano
267.125000;0.473958;37;64;piano
267.500000;0.117708;68;49;piano
267.500000;0.117708;53;49;piano
267.500000;0.117708;59;49;piano
267.500000;0.117708;61;49;piano
267.625000;0.473958;68;49;piano
267.625000;0.473958;53;49;piano
267.625000;0.473958;59;49;piano
267.625000;0.473958;61;49;piano
269.148958;0.223958;49;64;piano
269.173958;0.198958;54;64;piano
269.125000;0.248958;42;64;piano
270.137500;0.235417;47;80;piano
270.151042;0.221875;52;80;piano
270.163542;0.209375;56;80;piano
270.125000;0.248958;40;80;piano
272.146875;0.226042;49;64;piano
272.168750;0.204167;54;64;piano
272.125000;0.248958;42;64;piano
273.142708;0.230208;44;64;piano
273.160417;0.212500;49;64;piano
273.179167;0.193750;54;64;piano
273.125000;0.248958;37;64;piano
274.625000;0.498958;53;52;piano
275.125000;0.123958;39;64;piano
275.125000;0.123958;46;64;piano
275.125000;0.123958;51;64;piano
276.125000;0.123958;41;64;piano
276.125000;0.123958;45;64;piano
276.875000;0.165625;51;76;piano
277.125000;0.248958;34;64;piano
277.125000;0.498958;50;64;piano
277.625000;0.473958;53;68;piano
278.125000;0.473958;58;72;piano
278.625000;0.473958;62;76;piano
279.155208;0.134375;58;96;piano
279.185417;0.104167;63;96;piano
279.125000;0.165625;53;96;piano
279.125000;0.748958;67;80;piano
279.958333;0.165625;55;76;piano
280.163542;0.209375;51;64;piano
280.125000;0.248958;41;64;piano
281.652083;0.220833;50;64;piano
281.625000;0.248958;34;64;piano
282.165625;0.207292;52;64;piano
282.125000;0.248958;37;64;piano
283.125000;0.248958;38;64;piano
283.125000;0.498958;54;76;piano
283.625000;0.473958;57;64;piano
284.125000;0.473958;62;68;piano
284.625000;0.473958;66;74;piano
285.145833;0.143750;62;96;piano
285.167708;0.121875;67;96;piano
285.125000;0.165625;57;96;piano
285.125000;0.498958;71;80;piano
285.958333;0.165625;59;96;piano
286.125000;0.473958;45;80;piano
286.125000;0.473958;55;80;piano
287.625000;0.236458;38;49;piano
287.625000;0.236458;54;49;piano
288.125000;0.236458;38;56;piano
288.625000;0.373958;63;76;piano
288.657292;0.465625;57;64;piano
288.625000;0.498958;54;64;piano
289.000000;0.123958;62;63;piano
289.625000;0.236458;38;49;piano
289.625000;0.236458;54;49;piano
290.125000;0.236458;38;56;piano
290.625000;0.373958;63;76;piano
291.000000;0.117708;62;64;piano
290.657292;0.465625;57;64;piano
290.625000;0.498958;54;64;piano
291.146875;0.226042;55;64;piano
291.168750;0.204167;62;64;piano
291.125000;0.248958;46;64;piano
291.500000;0.117708;70;64;piano
291.625000;0.236458;70;64;piano
292.000000;0.117708;69;64;piano
292.125000;0.236458;69;64;piano
292.500000;0.117708;68;64;piano
292.625000;0.236458;68;64;piano
293.000000;0.117708;67;64;piano
293.145833;0.227083;55;64;piano
293.189583;0.183333;63;64;piano
293.125000;0.248958;48;64;piano
293.168750;0.205208;57;64;piano
293.500000;0.117708;66;64;piano
293.625000;0.236458;66;64;piano
294.000000;0.117708;65;64;piano
294.125000;0.236458;65;64;piano
294.500000;0.117708;64;64;piano
294.625000;0.236458;64;64;piano
295.000000;0.117708;63;64;piano
295.125000;0.236458;64;64;piano
295.125000;0.236458;50;64;piano
295.125000;0.236458;55;64;piano
295.125000;0.236458;58;64;piano
295.500000;0.117708;62;62;piano
295.625000;0.236458;62;61;piano
296.000000;0.117708;58;58;piano
296.125000;0.236458;58;57;piano
296.125000;0.236458;48;57;piano
296.125000;0.236458;54;57;piano
296.500000;0.117708;57;54;piano
296.625000;0.236458;58;53;piano
297.000000;0.123958;60;60;piano
297.125000;0.236458;47;49;piano
297.125000;0.236458;53;49;piano
297.125000;0.236458;56;49;piano
297.625000;0.236458;35;49;piano
298.125000;0.236458;36;55;piano
298.625000;0.373958;63;76;piano
298.657292;0.465625;57;64;piano
298.625000;0.498958;54;64;piano
299.000000;0.123958;62;66;piano
299.125000;0.236458;47;49;piano
299.125000;0.236458;53;49;piano
299.125000;0.236458;56;49;piano
299.625000;0.236458;35;49;piano
300.125000;0.236458;36;55;piano
300.625000;0.373958;63;76;piano
300.657292;0.465625;57;64;piano
300.625000;0.498958;54;64;piano
301.000000;0.123958;62;76;piano
301.152083;0.220833;55;64;piano
301.125000;0.248958;46;64;piano
301.125000;0.248958;62;76;piano
301.500000;0.117708;74;64;piano
301.625000;0.236458;74;64;piano
302.000000;0.117708;73;64;piano
302.125000;0.236458;73;64;piano
302.500000;0.117708;72;64;piano
302.625000;0.236458;72;64;piano
303.000000;0.117708;71;64;piano
303.162500;0.460417;55;64;piano
303.202083;0.420833;57;64;piano
303.240625;0.382292;63;64;piano
303.125000;0.498958;48;64;piano
303.625000;0.117708;70;64;piano
303.750000;0.236458;70;64;piano
304.125000;0.117708;69;64;piano
304.250000;0.236458;69;64;piano
310.458333;0.665625;51;42;piano
311.250000;0.123958;66;19;piano
311.375000;0.123958;61;19;piano
311.125000;0.498958;49;39;piano
311.500000;0.248958;58;19;piano
311.750000;0.123958;66;19;piano
311.875000;0.123958;61;19;piano
312.000000;0.123958;58;19;piano
312.250000;0.123958;66;19;piano
312.375000;0.123958;61;19;piano
312.500000;0.248958;58;19;piano
312.750000;0.123958;66;19;piano
312.875000;0.123958;61;19;piano
313.000000;0.123958;58;19;piano
313.250000;0.123958;65;19;piano
313.375000;0.123958;61;19;piano
313.125000;0.498958;49;49;piano
313.500000;0.248958;58;19;piano
313.750000;0.123958;65;19;piano
313.875000;0.123958;61;19;piano
314.000000;0.123958;58;19;piano
314.250000;0.123958;65;19;piano
314.375000;0.123958;61;19;piano
314.500000;0.248958;58;19;piano
314.750000;0.123958;65;19;piano
314.875000;0.123958;61;19;piano
315.000000;0.123958;58;19;piano
315.250000;0.123958;66;19;piano
315.375000;0.123958;61;19;piano
315.125000;0.498958;49;39;piano
315.500000;0.248958;58;19;piano
315.750000;0.123958;66;19;piano
315.875000;0.123958;61;19;piano
316.000000;0.123958;58;19;piano
316.250000;0.123958;66;19;piano
316.375000;0.123958;61;19;piano
316.500000;0.248958;58;19;piano
316.750000;0.123958;66;19;piano
316.875000;0.123958;61;19;piano
317.000000;0.123958;58;19;piano
317.250000;0.117708;65;16;piano
317.375000;0.117708;61;16;piano
317.125000;0.498958;49;49;piano
317.500000;0.236458;58;16;piano
317.750000;0.117708;65;16;piano
317.875000;0.117708;61;16;piano
318.000000;0.117708;58;16;piano
318.250000;0.117708;65;16;piano
318.375000;0.117708;62;16;piano
318.125000;0.498958;50;49;piano
318.500000;0.236458;58;16;piano
318.750000;0.117708;65;16;piano
318.875000;0.117708;62;16;piano
319.000000;0.117708;58;16;piano
319.250000;0.123958;68;39;piano
319.375000;0.123958;63;39;piano
319.125000;0.498958;51;73;piano
319.500000;0.248958;60;39;piano
319.750000;0.123958;68;39;piano
319.875000;0.123958;63;39;piano
320.000000;0.123958;60;39;piano
320.250000;0.123958;67;39;piano
320.375000;0.123958;61;39;piano
320.125000;0.498958;51;73;piano
320.500000;0.123958;58;39;piano
320.750000;0.123958;70;58;piano
320.875000;0.123958;67;58;piano
320.625000;0.498958;52;73;piano
321.000000;0.123958;61;58;piano
321.250000;0.123958;70;39;piano
321.375000;0.123958;65;39;piano
321.125000;0.498958;53;73;piano
321.500000;0.248958;62;39;piano
321.750000;0.123958;70;39;piano
321.875000;0.123958;65;39;piano
322.000000;0.123958;62;39;piano
322.250000;0.123958;69;39;piano
322.375000;0.123958;63;39;piano
322.125000;0.498958;53;73;piano
322.500000;0.123958;60;39;piano
322.750000;0.123958;72;39;piano
322.875000;0.123958;69;44;piano
322.625000;0.498958;54;73;piano
323.000000;0.123958;63;51;piano
323.250000;0.123958;72;39;piano
323.375000;0.123958;67;39;piano
323.125000;0.498958;55;73;piano
323.500000;0.248958;64;39;piano
323.750000;0.123958;72;39;piano
323.875000;0.123958;67;39;piano
324.000000;0.123958;64;39;piano
324.250000;0.123958;72;39;piano
324.375000;0.123958;67;39;piano
324.125000;0.498958;60;73;piano
324.500000;0.242708;64;39;piano
324.750000;0.123958;72;39;piano
324.875000;0.123958;67;39;piano
325.000000;0.123958;64;39;piano
325.250000;0.123958;72;39;piano
325.375000;0.123958;65;39;piano
325.125000;0.498958;56;73;piano
325.500000;0.248958;62;39;piano
325.750000;0.123958;72;39;piano
325.875000;0.123958;65;39;piano
326.000000;0.123958;62;39;piano
326.250000;0.123958;71;39;piano
326.375000;0.123958;65;39;piano
326.125000;0.498958;56;73;piano
326.500000;0.123958;62;39;piano
326.750000;0.123958;71;39;piano
326.875000;0.123958;65;39;piano
326.625000;0.498958;55;73;piano
327.000000;0.123958;62;39;piano
327.250000;0.123958;72;39;piano
327.375000;0.123958;67;39;piano
327.125000;0.498958;55;73;piano
327.500000;0.248958;64;39;piano
327.750000;0.123958;72;39;piano
327.875000;0.123958;67;39;piano
328.000000;0.123958;64;39;piano
328.250000;0.123958;72;58;piano
328.375000;0.123958;67;58;piano
328.125000;0.498958;60;73;piano
328.500000;0.242708;64;58;piano
328.750000;0.123958;72;58;piano
328.875000;0.123958;67;58;piano
329.000000;0.123958;64;58;piano
329.250000;0.123958;72;39;piano
329.375000;0.123958;65;39;piano
329.125000;0.498958;56;73;piano
329.500000;0.248958;62;39;piano
329.750000;0.123958;72;39;piano
329.875000;0.123958;65;39;piano
330.000000;0.123958;62;39;piano
330.250000;0.123958;73;39;piano
330.375000;0.123958;65;39;piano
330.125000;0.498958;56;73;piano
330.500000;0.123958;61;39;piano
330.625000;0.000000;75;49;piano
330.750000;0.123958;65;49;piano
330.625000;0.373958;75;73;piano
331.000000;0.117708;73;49;piano
330.875000;0.248958;61;49;piano
331.125000;0.165625;54;39;piano
331.291667;0.000000;71;39;piano
331.291667;0.332292;71;59;piano
331.458333;0.165625;66;39;piano
331.625000;0.165625;61;39;piano
331.791667;0.000000;70;39;piano
331.791667;0.332292;70;59;piano
331.958333;0.165625;66;39;piano
332.125000;0.165625;46;39;piano
332.291667;0.000000;68;39;piano
332.291667;0.332292;68;59;piano
332.458333;0.165625;62;39;piano
332.625000;0.165625;58;39;piano
332.791667;0.000000;66;39;piano
332.791667;0.332292;66;59;piano
332.958333;0.165625;62;39;piano
333.125000;0.165625;47;39;piano
333.291667;0.000000;65;39;piano
333.291667;0.332292;65;59;piano
333.458333;0.165625;59;39;piano
333.625000;0.165625;56;39;piano
333.791667;0.000000;63;39;piano
333.791667;0.332292;63;59;piano
333.958333;0.165625;59;39;piano
334.125000;0.165625;44;39;piano
334.291667;0.000000;61;39;piano
334.291667;0.332292;61;59;piano
334.458333;0.165625;56;39;piano
334.625000;0.165625;51;39;piano
334.791667;0.000000;59;39;piano
334.791667;0.332292;59;59;piano
334.958333;0.165625;56;39;piano
335.125000;0.165625;37;39;piano
335.291667;0.000000;59;39;piano
335.291667;0.332292;59;59;piano
335.458333;0.165625;54;39;piano
335.625000;0.165625;49;39;piano
335.791667;0.000000;58;39;piano
335.791667;0.332292;58;59;piano
335.958333;0.165625;54;39;piano
336.125000;0.165625;46;39;piano
336.291667;0.000000;63;39;piano
336.291667;0.332292;63;59;piano
336.458333;0.165625;58;39;piano
336.625000;0.165625;54;39;piano
336.791667;0.000000;61;39;piano
336.791667;0.332292;61;59;piano
336.958333;0.165625;58;39;piano
337.125000;0.165625;37;39;piano
337.291667;0.000000;58;39;piano
337.291667;0.332292;58;59;piano
337.458333;0.165625;53;39;piano
337.625000;0.000000;47;39;piano
337.791667;0.000000;56;39;piano
337.791667;0.332292;56;59;piano
337.958333;0.165625;53;39;piano
337.625000;0.665625;47;39;piano
338.291667;0.000000;62;39;piano
338.291667;0.332292;62;59;piano
338.458333;0.165625;56;39;piano
338.625000;0.165625;53;39;piano
338.791667;0.000000;61;39;piano
338.791667;0.332292;61;59;piano
338.958333;0.165625;56;39;piano
339.125000;0.165625;42;58;piano
339.291667;0.000000;71;58;piano
339.291667;0.332292;71;88;piano
339.458333;0.165625;66;58;piano
339.625000;0.165625;61;58;piano
339.791667;0.000000;70;58;piano
339.791667;0.332292;70;88;piano
339.958333;0.165625;66;58;piano
340.125000;0.165625;46;58;piano
340.291667;0.000000;68;58;piano
340.291667;0.332292;68;88;piano
340.458333;0.165625;62;58;piano
340.625000;0.165625;58;58;piano
340.791667;0.000000;66;58;piano
340.791667;0.332292;66;88;piano
340.958333;0.165625;62;58;piano
341.125000;0.165625;47;58;piano
341.291667;0.000000;65;58;piano
341.291667;0.332292;65;88;piano
341.458333;0.165625;59;58;piano
341.625000;0.165625;56;58;piano
341.791667;0.000000;63;58;piano
341.791667;0.332292;63;88;piano
341.958333;0.165625;59;58;piano
342.125000;0.165625;44;58;piano
342.291667;0.000000;61;58;piano
342.291667;0.332292;61;88;piano
342.458333;0.165625;56;58;piano
342.625000;0.165625;51;58;piano
342.791667;0.000000;59;58;piano
342.791667;0.332292;59;88;piano
342.958333;0.165625;56;58;piano
343.125000;0.165625;37;58;piano
343.291667;0.000000;59;58;piano
343.291667;0.332292;59;88;piano
343.458333;0.165625;54;58;piano
343.625000;0.165625;49;58;piano
343.791667;0.000000;58;58;piano
343.791667;0.332292;58;88;piano
343.958333;0.165625;54;58;piano
344.125000;0.165625;46;58;piano
344.291667;0.000000;63;58;piano
344.291667;0.332292;63;88;piano
344.458333;0.165625;58;58;piano
344.625000;0.165625;54;58;piano
344.791667;0.000000;61;58;piano
344.791667;0.332292;61;88;piano
344.958333;0.165625;58;58;piano
345.125000;0.165625;37;58;piano
345.291667;0.000000;58;58;piano
345.291667;0.332292;58;88;piano
345.458333;0.165625;53;58;piano
345.625000;0.000000;47;58;piano
345.791667;0.000000;56;58;piano
345.791667;0.332292;56;88;piano
345.958333;0.165625;53;58;piano
345.625000;0.665625;47;58;piano
346.291667;0.000000;62;58;piano
346.291667;0.332292;62;88;piano
346.458333;0.165625;56;58;piano
346.625000;0.165625;53;58;piano
346.791667;0.000000;61;58;piano
346.791667;0.332292;61;88;piano
346.958333;0.165625;56;58;piano
347.125000;0.165625;42;76;piano
347.291667;0.000000;71;76;piano
347.291667;0.332292;71;115;piano
347.458333;0.165625;66;76;piano
347.625000;0.165625;61;76;piano
347.791667;0.000000;70;76;piano
347.791667;0.332292;70;115;piano
347.958333;0.165625;66;76;piano
348.125000;0.165625;46;76;piano
348.291667;0.000000;68;76;piano
348.291667;0.332292;68;115;piano
348.458333;0.165625;62;76;piano
348.625000;0.165625;58;76;piano
348.791667;0.000000;66;76;piano
348.791667;0.332292;66;115;piano
348.958333;0.165625;62;76;piano
349.125000;0.165625;47;76;piano
349.291667;0.000000;65;76;piano
349.291667;0.332292;65;115;piano
349.458333;0.165625;59;76;piano
349.625000;0.165625;56;76;piano
349.791667;0.000000;63;76;piano
349.791667;0.332292;63;115;piano
349.958333;0.165625;59;76;piano
350.125000;0.165625;44;76;piano
350.291667;0.000000;61;76;piano
350.291667;0.332292;61;115;piano
350.458333;0.165625;56;76;piano
350.625000;0.165625;51;76;piano
350.791667;0.000000;59;76;piano
350.791667;0.332292;59;115;piano
350.958333;0.165625;56;76;piano
351.125000;0.165625;37;76;piano
351.291667;0.000000;59;76;piano
351.291667;0.332292;59;115;piano
351.458333;0.165625;54;76;piano
351.625000;0.165625;49;76;piano
351.791667;0.000000;58;76;piano
351.791667;0.332292;58;115;piano
351.958333;0.165625;54;76;piano
352.125000;0.165625;46;76;piano
352.291667;0.000000;59;76;piano
352.291667;0.332292;59;115;piano
352.458333;0.165625;54;76;piano
352.625000;0.165625;42;76;piano
352.791667;0.000000;60;86;piano
352.791667;0.332292;60;127;piano
352.958333;0.165625;54;96;piano
353.125000;0.165625;37;105;piano
353.291667;0.000000;61;115;piano
353.291667;0.332292;61;127;piano
353.458333;0.165625;54;124;piano
353.650000;0.222917;62;127;piano
353.675000;0.197917;69;127;piano
353.701042;0.171875;74;127;piano
353.625000;0.248958;54;127;piano
354.625000;0.082292;37;127;piano
354.708333;0.078125;42;112;piano
354.791667;0.078125;45;112;piano
354.875000;0.078125;50;112;piano
354.958333;0.078125;54;112;piano
355.041667;0.078125;57;112;piano
355.125000;0.066667;62;112;piano
355.196875;0.066667;66;112;piano
355.267708;0.066667;69;112;piano
355.339583;0.066667;74;112;piano
355.410417;0.066667;78;112;piano
355.482292;0.066667;81;112;piano
355.553125;0.066667;86;112;piano
355.625000;0.236458;90;112;piano
356.250000;0.117708;62;126;piano
356.375000;0.117708;71;126;piano
356.500000;0.117708;69;126;piano
356.625000;0.117708;67;126;piano
356.750000;0.117708;66;126;piano
356.875000;0.117708;64;126;piano
357.000000;0.117708;62;126;piano
357.125000;0.117708;66;126;piano
357.250000;0.123958;57;126;piano
357.375000;0.177083;62;126;piano
357.562500;0.058333;61;126;piano
357.625000;0.248958;61;127;piano
357.875000;0.248958;37;127;piano
358.125000;0.236458;59;126;piano
358.125000;0.248958;50;127;piano
358.125000;0.248958;54;127;piano
358.500000;0.117708;59;126;piano
358.625000;0.117708;67;126;piano
358.750000;0.117708;66;126;piano
358.875000;0.117708;64;126;piano
359.000000;0.117708;62;126;piano
359.125000;0.117708;61;126;piano
359.250000;0.117708;59;126;piano
359.375000;0.117708;62;126;piano
359.500000;0.123958;54;126;piano
359.625000;0.177083;59;126;piano
359.812500;0.058333;57;126;piano
359.875000;0.248958;57;127;piano
360.125000;0.248958;37;127;piano
360.375000;0.236458;55;126;piano
360.375000;0.248958;47;127;piano
360.375000;0.248958;50;127;piano
360.750000;0.117708;55;126;piano
360.875000;0.117708;64;126;piano
361.000000;0.117708;62;126;piano
361.125000;0.117708;61;126;piano
361.250000;0.117708;59;126;piano
361.375000;0.117708;57;126;piano
361.500000;0.117708;55;126;piano
361.625000;0.117708;59;126;piano
361.750000;0.123958;50;126;piano
361.875000;0.177083;55;126;piano
362.062500;0.061458;37;127;piano
362.062500;0.061458;50;127;piano
362.125000;0.498958;37;127;piano
362.125000;0.498958;50;127;piano
362.625000;0.998958;37;127;piano
362.625000;0.998958;44;127;piano
362.625000;0.998958;50;127;piano
363.625000;0.973958;37;127;piano
363.625000;0.973958;44;127;piano
363.625000;0.973958;50;127;piano
364.625000;0.473958;37;104;piano
364.625000;0.473958;44;104;piano
364.625000;0.473958;50;104;piano
365.125000;0.473958;37;80;piano
365.125000;0.473958;44;80;piano
365.125000;0.473958;50;80;piano
365.625000;0.711458;37;57;piano
365.625000;0.711458;44;57;piano
365.625000;0.711458;50;57;piano
366.375000;0.248958;37;39;piano
366.375000;0.248958;44;39;piano
366.375000;0.248958;50;39;piano
366.625000;0.248958;37;39;piano
366.625000;0.248958;44;39;piano
366.625000;0.248958;50;39;piano
366.875000;0.248958;37;39;piano
366.875000;0.248958;44;39;piano
366.875000;0.248958;50;39;piano
367.125000;0.248958;37;39;piano
367.125000;0.248958;44;39;piano
367.125000;0.248958;50;39;piano
367.375000;0.248958;37;39;piano
367.375000;0.248958;44;39;piano
367.375000;0.248958;50;39;piano
367.625000;0.248958;37;39;piano
367.625000;0.248958;44;39;piano
367.625000;0.248958;50;39;piano
367.875000;0.248958;37;39;piano
367.875000;0.248958;44;39;piano
367.875000;0.248958;50;39;piano
368.125000;0.236458;37;33;piano
368.125000;0.236458;44;33;piano
368.125000;0.236458;50;33;piano
368.375000;0.236458;37;33;piano
368.375000;0.236458;44;33;piano
368.375000;0.236458;50;33;piano
368.625000;0.236458;37;33;piano
368.625000;0.236458;44;33;piano
368.625000;0.236458;50;33;piano
368.875000;0.236458;37;33;piano
368.875000;0.236458;44;33;piano
368.875000;0.236458;50;33;piano
369.125000;0.236458;37;33;piano
369.125000;0.236458;44;33;piano
369.125000;0.236458;50;33;piano
369.375000;0.236458;37;33;piano
369.375000;0.236458;44;33;piano
369.375000;0.236458;50;33;piano
369.625000;0.236458;37;33;piano
369.625000;0.236458;44;33;piano
369.625000;0.236458;50;33;piano
369.875000;0.236458;37;33;piano
369.875000;0.236458;44;33;piano
369.875000;0.236458;50;33;piano
370.125000;0.236458;37;33;piano
370.125000;0.236458;44;33;piano
370.125000;0.236458;50;33;piano
370.375000;0.236458;37;33;piano
370.375000;0.236458;44;33;piano
370.375000;0.236458;50;33;piano
370.625000;0.236458;37;33;piano
370.625000;0.236458;44;33;piano
370.625000;0.236458;50;33;piano
370.875000;0.236458;37;33;piano
370.875000;0.236458;44;33;piano
370.875000;0.236458;50;33;piano
371.125000;0.236458;37;33;piano
371.125000;0.236458;44;33;piano
371.125000;0.236458;50;33;piano
371.375000;0.236458;37;33;piano
371.375000;0.236458;44;33;piano
371.375000;0.236458;50;33;piano
371.625000;0.236458;37;33;piano
371.625000;0.236458;44;33;piano
371.625000;0.236458;50;33;piano
371.875000;0.236458;37;33;piano
371.875000;0.236458;44;33;piano
371.875000;0.236458;50;33;piano
372.125000;0.236458;37;33;piano
372.125000;0.236458;44;33;piano
372.125000;0.236458;50;33;piano
372.375000;0.236458;37;33;piano
372.375000;0.236458;44;33;piano
372.375000;0.236458;50;33;piano
372.625000;0.236458;37;33;piano
372.625000;0.236458;44;33;piano
372.625000;0.236458;50;33;piano
372.875000;0.236458;37;33;piano
372.875000;0.236458;44;33;piano
372.875000;0.236458;50;33;piano
373.125000;0.236458;37;33;piano
373.125000;0.236458;44;33;piano
373.125000;0.236458;50;33;piano
373.375000;0.236458;37;33;piano
373.375000;0.236458;44;33;piano
373.375000;0.236458;50;33;piano
373.625000;0.236458;37;33;piano
373.625000;0.236458;44;33;piano
373.625000;0.236458;50;33;piano
373.875000;0.236458;37;33;piano
373.875000;0.236458;44;33;piano
373.875000;0.236458;50;33;piano
374.125000;0.236458;36;33;piano
374.125000;0.236458;44;33;piano
374.125000;0.236458;50;33;piano
374.375000;0.236458;36;33;piano
374.375000;0.236458;44;33;piano
374.375000;0.236458;50;33;piano
374.625000;0.236458;36;33;piano
374.625000;0.236458;44;33;piano
374.625000;0.236458;50;33;piano
374.875000;0.236458;36;33;piano
374.875000;0.236458;44;33;piano
374.875000;0.236458;50;33;piano
375.125000;0.236458;36;33;piano
375.125000;0.236458;44;33;piano
375.125000;0.236458;50;33;piano
375.375000;0.236458;36;33;piano
375.375000;0.236458;44;33;piano
375.375000;0.236458;50;33;piano
375.625000;0.236458;36;33;piano
375.625000;0.236458;44;33;piano
375.625000;0.236458;50;33;piano
375.875000;0.236458;36;33;piano
375.875000;0.236458;44;33;piano
375.875000;0.236458;50;33;piano
376.125000;0.236458;36;33;piano
376.125000;0.236458;44;33;piano
376.125000;0.236458;50;33;piano
376.375000;0.236458;36;33;piano
376.375000;0.236458;44;33;piano
376.375000;0.236458;50;33;piano
376.625000;0.236458;36;33;piano
376.625000;0.236458;44;33;piano
376.625000;0.236458;50;33;piano
376.875000;0.236458;36;33;piano
376.875000;0.236458;44;33;piano
376.875000;0.236458;50;33;piano
377.125000;0.236458;36;33;piano
377.125000;0.236458;44;33;piano
377.125000;0.236458;50;33;piano
377.375000;0.236458;36;33;piano
377.375000;0.236458;44;33;piano
377.375000;0.236458;50;33;piano
377.625000;0.236458;36;33;piano
377.625000;0.236458;44;33;piano
377.625000;0.236458;50;33;piano
377.875000;0.236458;36;33;piano
377.875000;0.236458;44;33;piano
377.875000;0.236458;50;33;piano
378.125000;0.236458;36;33;piano
378.125000;0.236458;44;33;piano
378.125000;0.236458;50;33;piano
378.375000;0.236458;36;33;piano
378.375000;0.236458;44;33;piano
378.375000;0.236458;50;33;piano
378.625000;0.236458;36;33;piano
378.625000;0.236458;44;33;piano
378.625000;0.236458;50;33;piano
378.875000;0.236458;36;33;piano
378.875000;0.236458;44;33;piano
378.875000;0.236458;50;33;piano
379.125000;0.236458;36;33;piano
379.125000;0.236458;44;33;piano
379.125000;0.236458;50;33;piano
379.375000;0.236458;36;33;piano
379.375000;0.236458;44;33;piano
379.375000;0.236458;50;33;piano
379.625000;0.236458;36;33;piano
379.625000;0.236458;44;33;piano
379.625000;0.236458;50;33;piano
379.875000;0.236458;36;33;piano
379.875000;0.236458;44;33;piano
379.875000;0.236458;50;33;piano
380.125000;0.236458;36;33;piano
380.125000;0.236458;44;33;piano
380.125000;0.236458;50;33;piano
380.375000;0.236458;36;33;piano
380.375000;0.236458;44;33;piano
380.375000;0.236458;50;33;piano
380.625000;0.236458;36;33;piano
380.625000;0.236458;44;33;piano
380.625000;0.236458;50;33;piano
380.875000;0.236458;36;33;piano
380.875000;0.236458;44;33;piano
380.875000;0.236458;50;33;piano
381.125000;0.236458;36;33;piano
381.125000;0.236458;44;33;piano
381.125000;0.236458;50;33;piano
381.375000;0.236458;36;33;piano
381.375000;0.236458;44;33;piano
381.375000;0.236458;50;33;piano
381.625000;0.236458;36;33;piano
381.625000;0.236458;44;33;piano
381.625000;0.236458;50;33;piano
381.875000;0.236458;36;33;piano
381.875000;0.236458;44;33;piano
381.875000;0.236458;50;33;piano
382.168750;0.454167;44;49;piano
382.212500;0.410417;50;49;piano
382.125000;0.498958;35;49;piano
385.791667;0.165625;34;73;piano
385.958333;0.082292;35;58;piano
386.125000;0.082292;38;58;piano
386.291667;0.082292;41;58;piano
386.458333;0.082292;44;58;piano
386.625000;0.082292;45;58;piano
386.791667;0.082292;46;58;piano
386.958333;0.082292;47;58;piano
387.125000;0.123958;38;58;piano
388.000000;0.123958;74;58;piano
388.125000;0.873958;74;73;piano
389.000000;0.123958;68;58;piano
389.125000;0.498958;68;73;piano
389.791667;0.082292;54;58;piano
389.958333;0.082292;53;58;piano
390.125000;0.082292;51;58;piano
390.291667;0.082292;48;58;piano
390.458333;0.082292;45;58;piano
390.625000;0.082292;42;58;piano
390.791667;0.082292;41;58;piano
390.958333;0.082292;39;73;piano
391.125000;0.123958;48;58;piano
392.000000;0.123958;66;58;piano
392.000000;0.123958;72;58;piano
392.125000;0.373958;66;58;piano
392.125000;0.373958;72;58;piano
392.500000;0.123958;72;58;piano
392.500000;0.123958;78;58;piano
392.625000;0.373958;72;58;piano
392.625000;0.373958;78;58;piano
393.000000;0.123958;78;73;piano
393.000000;0.123958;84;73;piano
393.125000;0.248958;78;73;piano
393.125000;0.248958;84;73;piano
393.791667;0.082292;35;73;piano
393.958333;0.082292;36;73;piano
394.125000;0.082292;39;73;piano
394.291667;0.082292;42;73;piano
394.458333;0.082292;45;82;piano
394.625000;0.082292;46;91;piano
394.791667;0.082292;47;100;piano
394.958333;0.082292;48;109;piano
395.125000;0.123958;39;120;piano
396.000000;0.117708;78;80;piano
396.125000;0.873958;78;96;piano
397.000000;0.117708;72;80;piano
397.125000;0.473958;72;80;piano
397.791667;0.082292;55;96;piano
397.958333;0.082292;54;96;piano
398.125000;0.082292;52;96;piano
398.291667;0.082292;49;96;piano
398.458333;0.082292;46;96;piano
398.625000;0.082292;43;96;piano
398.791667;0.082292;42;96;piano
398.958333;0.082292;40;120;piano
399.125000;0.123958;49;96;piano
400.000000;0.117708;67;80;piano
400.000000;0.117708;73;80;piano
400.125000;0.355208;67;80;piano
400.125000;0.355208;73;80;piano
400.500000;0.123958;73;96;piano
400.500000;0.123958;79;96;piano
400.625000;0.373958;73;96;piano
400.625000;0.373958;79;96;piano
401.000000;0.123958;79;120;piano
401.000000;0.123958;85;120;piano
401.125000;0.248958;79;120;piano
401.125000;0.248958;85;120;piano
402.000000;0.123958;36;73;piano
402.000000;0.123958;48;73;piano
402.125000;0.123958;36;73;piano
402.125000;0.123958;48;73;piano
402.500000;0.123958;37;58;piano
402.500000;0.123958;49;58;piano
402.625000;0.123958;37;58;piano
402.625000;0.123958;49;58;piano
403.000000;0.123958;36;58;piano
403.000000;0.123958;48;58;piano
403.125000;0.123958;36;58;piano
403.125000;0.123958;48;58;piano
403.500000;0.123958;35;58;piano
403.500000;0.123958;47;58;piano
403.625000;0.123958;35;58;piano
403.625000;0.123958;47;58;piano
404.000000;0.123958;34;58;piano
404.000000;0.123958;46;58;piano
404.125000;0.123958;34;58;piano
404.125000;0.123958;46;58;piano
404.500000;0.123958;33;58;piano
404.500000;0.123958;45;58;piano
404.625000;0.123958;33;58;piano
404.625000;0.123958;45;58;piano
405.000000;0.123958;32;58;piano
405.000000;0.123958;44;58;piano
405.125000;0.123958;32;60;piano
405.125000;0.123958;44;60;piano
405.500000;0.123958;37;61;piano
405.500000;0.123958;49;61;piano
405.625000;0.123958;37;61;piano
405.625000;0.123958;49;61;piano
406.000000;0.123958;38;63;piano
406.000000;0.123958;50;63;piano
406.125000;0.123958;38;79;piano
406.125000;0.123958;50;79;piano
406.500000;0.123958;39;64;piano
406.500000;0.123958;51;64;piano
406.625000;0.123958;39;66;piano
406.625000;0.123958;51;66;piano
407.000000;0.123958;38;67;piano
407.000000;0.123958;50;67;piano
407.125000;0.123958;38;67;piano
407.125000;0.123958;50;67;piano
407.500000;0.123958;37;69;piano
407.500000;0.123958;49;69;piano
407.625000;0.123958;37;69;piano
407.625000;0.123958;49;69;piano
408.000000;0.123958;36;70;piano
408.000000;0.123958;48;70;piano
408.125000;0.123958;36;72;piano
408.125000;0.123958;48;72;piano
408.500000;0.123958;35;73;piano
408.500000;0.123958;47;73;piano
408.625000;0.123958;35;73;piano
408.625000;0.123958;47;73;piano
409.000000;0.123958;34;75;piano
409.000000;0.123958;46;75;piano
409.125000;0.123958;34;75;piano
409.125000;0.123958;46;75;piano
409.500000;0.123958;39;76;piano
409.500000;0.123958;51;76;piano
409.625000;0.123958;39;78;piano
409.625000;0.123958;51;78;piano
410.000000;0.123958;40;79;piano
410.000000;0.123958;52;79;piano
410.125000;0.123958;40;100;piano
410.125000;0.123958;52;100;piano
410.500000;0.123958;41;81;piano
410.500000;0.123958;53;81;piano
410.625000;0.123958;41;81;piano
410.625000;0.123958;53;81;piano
411.000000;0.123958;40;82;piano
411.000000;0.123958;52;82;piano
411.125000;0.123958;40;84;piano
411.125000;0.123958;52;84;piano
411.500000;0.123958;39;85;piano
411.500000;0.123958;51;85;piano
411.625000;0.123958;39;86;piano
411.625000;0.123958;51;86;piano
412.000000;0.123958;38;87;piano
412.000000;0.123958;50;87;piano
412.125000;0.123958;38;87;piano
412.125000;0.123958;50;87;piano
412.500000;0.123958;37;88;piano
412.500000;0.123958;49;88;piano
412.625000;0.123958;37;90;piano
412.625000;0.123958;49;90;piano
413.000000;0.123958;36;91;piano
413.000000;0.123958;48;91;piano
413.125000;0.123958;36;92;piano
413.125000;0.123958;48;92;piano
413.500000;0.123958;35;93;piano
413.500000;0.123958;47;93;piano
413.625000;0.123958;35;93;piano
413.625000;0.123958;47;93;piano
414.000000;0.123958;40;96;piano
414.000000;0.123958;52;96;piano
414.125000;0.123958;40;96;piano
414.125000;0.123958;52;96;piano
414.500000;0.123958;41;97;piano
414.500000;0.123958;53;97;piano
414.625000;0.123958;41;97;piano
414.625000;0.123958;53;97;piano
415.000000;0.123958;40;99;piano
415.000000;0.123958;52;99;piano
415.125000;0.123958;40;99;piano
415.125000;0.123958;52;99;piano
415.500000;0.123958;39;102;piano
415.500000;0.123958;51;102;piano
415.625000;0.123958;39;102;piano
415.625000;0.123958;51;102;piano
416.000000;0.123958;38;104;piano
416.000000;0.123958;50;104;piano
416.125000;0.123958;38;104;piano
416.125000;0.123958;50;104;piano
416.500000;0.123958;37;106;piano
416.500000;0.123958;49;106;piano
416.625000;0.123958;37;108;piano
416.625000;0.123958;49;108;piano
417.000000;0.123958;36;109;piano
417.000000;0.123958;48;109;piano
417.125000;0.123958;36;110;piano
417.125000;0.123958;48;110;piano
417.500000;0.123958;35;127;piano
417.500000;0.123958;47;127;piano
417.625000;0.123958;47;112;piano
417.625000;0.123958;59;112;piano
418.000000;0.123958;34;127;piano
418.000000;0.123958;46;127;piano
418.125000;0.123958;46;127;piano
418.125000;0.123958;58;127;piano
418.500000;0.123958;29;127;piano
418.500000;0.123958;41;127;piano
418.625000;0.123958;41;127;piano
418.625000;0.123958;53;127;piano
419.000000;0.123958;28;127;piano
419.000000;0.123958;40;127;piano
419.125000;0.123958;44;127;piano
419.125000;0.123958;56;127;piano
419.500000;0.123958;31;127;piano
419.500000;0.123958;43;127;piano
419.625000;0.123958;43;127;piano
419.625000;0.123958;55;127;piano
420.000000;0.123958;30;127;piano
420.000000;0.123958;42;127;piano
420.125000;0.123958;42;127;piano
420.125000;0.123958;54;127;piano
420.500000;0.123958;29;127;piano
420.500000;0.123958;41;127;piano
420.625000;0.123958;41;127;piano
420.625000;0.123958;53;127;piano
421.000000;0.123958;28;127;piano
421.000000;0.123958;40;127;piano
421.125000;0.123958;40;127;piano
421.125000;0.123958;52;127;piano
421.791667;0.165625;27;127;piano
421.791667;0.165625;39;127;piano
421.958333;0.165625;28;127;piano
421.958333;0.165625;40;127;piano
422.125000;0.165625;31;127;piano
422.125000;0.165625;43;127;piano
422.291667;0.165625;34;127;piano
422.291667;0.165625;46;127;piano
422.458333;0.165625;37;127;piano
422.458333;0.165625;49;127;piano
422.625000;0.165625;38;127;piano
422.625000;0.165625;50;127;piano
422.791667;0.165625;39;127;piano
422.791667;0.165625;51;127;piano
422.958333;0.165625;40;127;piano
422.958333;0.165625;52;127;piano
423.125000;0.165625;43;127;piano
423.125000;0.165625;55;127;piano
423.291667;0.165625;46;127;piano
423.291667;0.165625;58;127;piano
423.458333;0.165625;49;127;piano
423.458333;0.165625;61;127;piano
423.625000;0.165625;50;127;piano
423.625000;0.165625;62;127;piano
423.791667;0.165625;51;127;piano
423.791667;0.165625;63;127;piano
423.958333;0.165625;52;127;piano
423.958333;0.165625;64;127;piano
424.125000;0.165625;49;127;piano
424.125000;0.165625;61;127;piano
424.291667;0.165625;46;127;piano
424.291667;0.165625;58;127;piano
424.458333;0.165625;43;127;piano
424.458333;0.165625;55;127;piano
424.625000;0.165625;42;127;piano
424.625000;0.165625;54;127;piano
424.791667;0.165625;41;127;piano
424.791667;0.165625;53;127;piano
424.958333;0.165625;40;127;piano
424.958333;0.165625;52;127;piano
425.375000;0.073958;39;127;piano
425.375000;0.073958;51;127;piano
425.525000;0.073958;38;127;piano
425.525000;0.073958;49;127;piano
425.675000;0.073958;37;127;piano
425.675000;0.073958;49;127;piano
425.825000;0.073958;36;127;piano
425.825000;0.073958;48;127;piano
425.975000;0.073958;34;127;piano
425.975000;0.073958;46;127;piano
426.125000;0.123958;32;127;piano
426.125000;0.123958;39;127;piano
426.125000;0.123958;44;127;piano
428.125000;0.123958;51;127;piano
428.625000;0.948958;43;112;piano
428.625000;0.948958;44;112;piano
429.625000;0.711458;42;112;piano
429.625000;0.711458;44;112;piano
430.500000;0.123958;41;127;piano
430.500000;0.123958;53;127;piano
430.625000;0.373958;41;127;piano
430.625000;0.373958;53;127;piano
431.000000;0.123958;41;127;piano
431.000000;0.123958;53;127;piano
431.125000;0.123958;41;127;piano
431.125000;0.123958;53;127;piano
431.500000;0.123958;31;127;piano
431.500000;0.123958;43;127;piano
431.625000;0.373958;31;127;piano
431.625000;0.373958;43;127;piano
432.000000;0.123958;30;127;piano
432.000000;0.123958;42;127;piano
432.125000;0.082292;30;127;piano
432.125000;0.082292;42;127;piano
432.458333;0.165625;42;127;piano
432.458333;0.165625;54;127;piano
432.625000;0.657292;43;127;piano
432.625000;0.657292;55;127;piano
433.291667;0.157292;46;114;piano
433.291667;0.157292;58;114;piano
433.458333;0.157292;43;116;piano
433.458333;0.157292;55;116;piano
433.625000;0.157292;40;119;piano
433.625000;0.157292;52;119;piano
433.791667;0.157292;37;121;piano
433.791667;0.157292;49;121;piano
433.958333;0.157292;36;123;piano
433.958333;0.157292;48;123;piano
434.125000;0.123958;35;127;piano
434.125000;0.123958;47;127;piano
436.125000;0.123958;54;127;piano
436.625000;0.948958;46;126;piano
436.625000;0.948958;47;126;piano
437.625000;0.711458;45;126;piano
437.625000;0.711458;47;126;piano
438.500000;0.123958;44;127;piano
438.500000;0.123958;56;127;piano
438.625000;0.373958;44;127;piano
438.625000;0.373958;56;127;piano
439.000000;0.123958;44;127;piano
439.000000;0.123958;56;127;piano
439.125000;0.123958;44;127;piano
439.125000;0.123958;56;127;piano
439.500000;0.123958;34;127;piano
439.500000;0.123958;46;127;piano
439.625000;0.373958;34;127;piano
439.625000;0.373958;46;127;piano
440.000000;0.123958;33;127;piano
440.000000;0.123958;45;127;piano
440.125000;0.082292;33;127;piano
440.125000;0.082292;45;127;piano
440.458333;0.165625;45;127;piano
440.458333;0.165625;57;127;piano
440.625000;0.657292;46;127;piano
440.625000;0.657292;58;127;piano
441.291667;0.157292;49;114;piano
441.291667;0.157292;61;114;piano
441.458333;0.157292;46;116;piano
441.458333;0.157292;58;116;piano
441.625000;0.157292;43;119;piano
441.625000;0.157292;55;119;piano
441.791667;0.157292;40;121;piano
441.791667;0.157292;52;121;piano
441.958333;0.157292;39;123;piano
441.958333;0.157292;51;123;piano
442.125000;0.123958;38;127;piano
442.125000;0.123958;50;127;piano
444.125000;0.123958;50;127;piano
444.125000;0.123958;57;127;piano
444.625000;0.873958;38;127;piano
444.625000;0.873958;48;127;piano
445.500000;0.123958;50;127;piano
445.500000;0.123958;60;127;piano
445.625000;0.248958;50;127;piano
445.625000;0.248958;60;127;piano
446.000000;0.123958;50;127;piano
446.000000;0.123958;60;127;piano
446.125000;0.082292;50;127;piano
446.125000;0.082292;59;127;piano
446.458333;0.165625;37;127;piano
446.458333;0.165625;49;127;piano
446.625000;0.157292;38;96;piano
446.625000;0.157292;50;96;piano
446.791667;0.157292;42;99;piano
446.791667;0.157292;54;99;piano
446.958333;0.157292;43;102;piano
446.958333;0.157292;55;102;piano
447.125000;0.157292;44;106;piano
447.125000;0.157292;56;106;piano
447.291667;0.157292;45;109;piano
447.291667;0.157292;57;109;piano
447.458333;0.157292;46;112;piano
447.458333;0.157292;58;112;piano
447.625000;0.157292;47;116;piano
447.625000;0.157292;59;116;piano
447.791667;0.157292;49;119;piano
447.791667;0.157292;60;119;piano
447.958333;0.157292;49;122;piano
447.958333;0.157292;61;122;piano
448.125000;0.248958;38;127;piano
448.125000;0.248958;50;127;piano
450.125000;0.123958;50;127;piano
450.125000;0.123958;57;127;piano
450.625000;0.873958;38;127;piano
450.625000;0.873958;48;127;piano
451.500000;0.123958;50;127;piano
451.500000;0.123958;60;127;piano
451.625000;0.248958;50;127;piano
451.625000;0.248958;60;127;piano
451.875000;0.248958;50;127;piano
451.875000;0.248958;60;127;piano
452.125000;0.157292;50;126;piano
452.125000;0.157292;59;126;piano
452.458333;0.157292;54;126;piano
452.458333;0.157292;66;126;piano
452.625000;0.157292;55;126;piano
452.625000;0.157292;67;126;piano
452.791667;0.157292;50;126;piano
452.791667;0.157292;62;126;piano
452.958333;0.157292;47;126;piano
452.958333;0.157292;59;126;piano
453.125000;0.157292;46;126;piano
453.125000;0.157292;58;126;piano
453.291667;0.157292;45;126;piano
453.291667;0.157292;57;126;piano
453.458333;0.157292;43;126;piano
453.458333;0.157292;55;126;piano
453.625000;0.157292;42;126;piano
453.625000;0.157292;54;126;piano
453.791667;0.157292;40;126;piano
453.791667;0.157292;52;126;piano
453.958333;0.157292;38;126;piano
453.958333;0.157292;50;126;piano
454.291667;0.157292;37;126;piano
454.291667;0.157292;49;126;piano
454.458333;0.157292;38;96;piano
454.458333;0.157292;50;96;piano
454.625000;0.157292;42;96;piano
454.625000;0.157292;54;96;piano
454.791667;0.157292;43;97;piano
454.791667;0.157292;55;97;piano
454.958333;0.157292;44;99;piano
454.958333;0.157292;56;99;piano
455.125000;0.157292;45;101;piano
455.125000;0.157292;57;101;piano
455.291667;0.157292;46;103;piano
455.291667;0.157292;58;103;piano
455.458333;0.157292;47;104;piano
455.458333;0.157292;59;104;piano
455.625000;0.157292;48;106;piano
455.625000;0.157292;60;106;piano
455.791667;0.157292;49;108;piano
455.791667;0.157292;61;108;piano
455.958333;0.165625;50;127;piano
455.958333;0.165625;62;127;piano
456.291667;0.157292;35;112;piano
456.291667;0.157292;47;112;piano
456.458333;0.157292;36;96;piano
456.458333;0.157292;48;96;piano
456.625000;0.157292;40;96;piano
456.625000;0.157292;52;96;piano
456.791667;0.157292;41;97;piano
456.791667;0.157292;53;97;piano
456.958333;0.157292;42;99;piano
456.958333;0.157292;54;99;piano
457.125000;0.157292;43;101;piano
457.125000;0.157292;55;101;piano
457.291667;0.157292;44;103;piano
457.291667;0.157292;56;103;piano
457.458333;0.157292;45;104;piano
457.458333;0.157292;57;104;piano
457.625000;0.157292;46;106;piano
457.625000;0.157292;58;106;piano
457.791667;0.157292;47;108;piano
457.791667;0.157292;59;108;piano
457.958333;0.165625;48;127;piano
457.958333;0.165625;60;127;piano
458.291667;0.157292;33;112;piano
458.291667;0.157292;45;112;piano
458.458333;0.157292;34;96;piano
458.458333;0.157292;46;96;piano
458.625000;0.157292;38;96;piano
458.625000;0.157292;50;96;piano
458.791667;0.157292;39;98;piano
458.791667;0.157292;51;98;piano
458.958333;0.157292;40;100;piano
458.958333;0.157292;52;100;piano
459.125000;0.157292;41;102;piano
459.125000;0.157292;53;102;piano
459.291667;0.157292;42;104;piano
459.291667;0.157292;54;104;piano
459.458333;0.157292;43;106;piano
459.458333;0.157292;55;106;piano
459.625000;0.157292;44;108;piano
459.625000;0.157292;56;108;piano
459.791667;0.157292;45;110;piano
459.791667;0.157292;57;110;piano
459.958333;0.157292;46;112;piano
459.958333;0.157292;58;112;piano
460.291667;0.157292;31;64;piano
460.291667;0.157292;43;64;piano
460.458333;0.157292;32;66;piano
460.458333;0.157292;44;66;piano
460.791667;0.157292;43;72;piano
460.791667;0.157292;55;72;piano
460.958333;0.157292;44;75;piano
460.958333;0.157292;56;75;piano
461.291667;0.157292;41;81;piano
461.291667;0.157292;53;81;piano
461.458333;0.157292;42;84;piano
461.458333;0.157292;54;84;piano
461.791667;0.157292;29;90;piano
461.791667;0.157292;41;90;piano
461.958333;0.157292;30;93;piano
461.958333;0.157292;42;93;piano
462.291667;0.157292;39;80;piano
462.291667;0.157292;51;80;piano
462.458333;0.157292;40;82;piano
462.458333;0.157292;52;82;piano
462.791667;0.157292;51;88;piano
462.791667;0.157292;63;88;piano
462.958333;0.157292;52;91;piano
462.958333;0.157292;64;91;piano
463.291667;0.157292;49;97;piano
463.291667;0.157292;61;97;piano
463.458333;0.157292;50;100;piano
463.458333;0.157292;62;100;piano
463.791667;0.157292;37;106;piano
463.791667;0.157292;49;106;piano
463.958333;0.157292;38;109;piano
463.958333;0.157292;50;109;piano
464.291667;0.157292;35;80;piano
464.291667;0.157292;47;80;piano
464.458333;0.157292;36;82;piano
464.458333;0.157292;48;82;piano
464.791667;0.157292;47;88;piano
464.791667;0.157292;59;88;piano
464.958333;0.157292;48;91;piano
464.958333;0.157292;60;91;piano
465.291667;0.157292;45;97;piano
465.291667;0.157292;57;97;piano
465.458333;0.157292;46;100;piano
465.458333;0.157292;58;100;piano
465.791667;0.157292;33;106;piano
465.791667;0.157292;45;106;piano
465.958333;0.157292;34;109;piano
465.958333;0.157292;46;109;piano
466.291667;0.157292;31;112;piano
466.291667;0.157292;43;112;piano
466.458333;0.157292;32;113;piano
466.458333;0.157292;44;113;piano
466.791667;0.157292;38;114;piano
466.791667;0.157292;50;114;piano
466.958333;0.157292;39;115;piano
466.958333;0.157292;51;115;piano
467.291667;0.157292;43;116;piano
467.291667;0.157292;55;116;piano
467.458333;0.157292;44;117;piano
467.458333;0.157292;56;117;piano
467.791667;0.157292;50;118;piano
467.791667;0.157292;62;118;piano
467.958333;0.157292;51;118;piano
467.958333;0.157292;63;118;piano
468.291667;0.157292;55;120;piano
468.291667;0.157292;67;120;piano
468.458333;0.157292;56;120;piano
468.458333;0.157292;68;120;piano
468.791667;0.157292;50;122;piano
468.791667;0.157292;62;122;piano
468.958333;0.157292;51;122;piano
468.958333;0.157292;63;122;piano
469.291667;0.157292;43;123;piano
469.291667;0.157292;55;123;piano
469.458333;0.157292;44;124;piano
469.458333;0.157292;56;124;piano
469.791667;0.157292;38;125;piano
469.791667;0.157292;50;125;piano
469.958333;0.157292;39;126;piano
469.958333;0.157292;51;126;piano
470.125000;0.123958;32;127;piano
470.125000;0.123958;44;127;piano
470.500000;0.123958;56;127;piano
470.500000;0.123958;63;127;piano
470.625000;0.873958;56;127;piano
470.625000;0.873958;63;127;piano
471.500000;0.123958;51;127;piano
471.500000;0.123958;56;127;piano
471.625000;0.736458;51;127;piano
471.625000;0.736458;56;127;piano
472.500000;0.123958;44;127;piano
472.500000;0.123958;51;127;piano
472.625000;0.248958;44;127;piano
472.625000;0.248958;51;127;piano
473.000000;0.123958;39;127;piano
473.000000;0.123958;44;127;piano
473.125000;0.248958;39;127;piano
473.125000;0.248958;44;127;piano
473.500000;0.123958;32;127;piano
473.500000;0.123958;39;127;piano
473.625000;0.248958;32;127;piano
473.625000;0.248958;39;127;piano
474.000000;0.117708;33;124;piano
474.000000;0.117708;39;124;piano
474.125000;0.248958;33;127;piano
474.125000;0.248958;39;127;piano
474.625000;0.998958;33;127;piano
474.625000;0.998958;36;127;piano
474.625000;0.998958;39;127;piano
474.625000;0.998958;42;127;piano
474.625000;0.998958;45;127;piano
475.625000;0.973958;33;127;piano
475.625000;0.973958;36;127;piano
475.625000;0.973958;39;127;piano
475.625000;0.973958;42;127;piano
475.625000;0.973958;45;127;piano
476.458333;0.165625;60;127;piano
476.458333;0.165625;63;127;piano
476.458333;0.165625;69;127;piano
476.625000;0.332292;60;127;piano
476.625000;0.332292;63;127;piano
476.625000;0.332292;69;127;piano
476.958333;0.165625;54;127;piano
476.958333;0.165625;57;127;piano
476.958333;0.165625;63;127;piano
477.125000;0.332292;54;127;piano
477.125000;0.332292;57;127;piano
477.125000;0.332292;63;127;piano
477.458333;0.165625;48;127;piano
477.458333;0.165625;51;127;piano
477.458333;0.165625;57;127;piano
477.625000;0.498958;48;127;piano
477.625000;0.498958;51;127;piano
477.625000;0.498958;57;127;piano
478.125000;0.498958;33;127;piano
478.125000;0.498958;36;127;piano
478.125000;0.498958;39;127;piano
478.125000;0.498958;41;127;piano
478.125000;0.498958;45;127;piano
478.625000;0.998958;33;127;piano
478.625000;0.998958;36;127;piano
478.625000;0.998958;39;127;piano
478.625000;0.998958;41;127;piano
478.625000;0.998958;45;127;piano
479.625000;0.973958;33;127;piano
479.625000;0.973958;36;127;piano
479.625000;0.973958;39;127;piano
479.625000;0.973958;41;127;piano
479.625000;0.973958;45;127;piano
480.458333;0.165625;60;127;piano
480.458333;0.165625;63;127;piano
480.458333;0.165625;69;127;piano
480.625000;0.332292;60;127;piano
480.625000;0.332292;63;127;piano
480.625000;0.332292;69;127;piano
480.958333;0.165625;53;127;piano
480.958333;0.165625;57;127;piano
480.958333;0.165625;63;127;piano
481.125000;0.332292;53;127;piano
481.125000;0.332292;57;127;piano
481.125000;0.332292;63;127;piano
481.458333;0.165625;48;127;piano
481.458333;0.165625;51;127;piano
481.458333;0.165625;57;127;piano
481.625000;0.498958;48;127;piano
481.625000;0.498958;51;127;piano
481.625000;0.498958;57;127;piano
482.125000;0.498958;33;127;piano
482.125000;0.498958;36;127;piano
482.125000;0.498958;38;127;piano
482.125000;0.498958;42;127;piano
482.125000;0.498958;45;127;piano
482.625000;0.998958;33;127;piano
482.625000;0.998958;36;127;piano
482.625000;0.998958;38;127;piano
482.625000;0.998958;42;127;piano
482.625000;0.998958;45;127;piano
483.625000;0.973958;33;127;piano
483.625000;0.973958;36;127;piano
483.625000;0.973958;38;127;piano
483.625000;0.973958;42;127;piano
483.625000;0.973958;45;127;piano
484.458333;0.165625;54;127;piano
484.458333;0.165625;60;127;piano
484.458333;0.165625;62;127;piano
484.625000;0.332292;54;127;piano
484.625000;0.332292;60;127;piano
484.625000;0.332292;62;127;piano
484.958333;0.165625;48;127;piano
484.958333;0.165625;50;127;piano
484.958333;0.165625;57;127;piano
485.125000;0.332292;48;127;piano
485.125000;0.332292;50;127;piano
485.125000;0.332292;57;127;piano
485.458333;0.165625;42;127;piano
485.458333;0.165625;45;127;piano
485.458333;0.165625;50;127;piano
485.625000;0.498958;42;127;piano
485.625000;0.498958;45;127;piano
485.625000;0.498958;50;127;piano
486.125000;0.498958;33;127;piano
486.125000;0.498958;36;127;piano
486.125000;0.498958;39;127;piano
486.125000;0.498958;42;127;piano
486.125000;0.498958;45;127;piano
486.625000;0.998958;33;127;piano
486.625000;0.998958;36;127;piano
486.625000;0.998958;39;127;piano
486.625000;0.998958;42;127;piano
486.625000;0.998958;45;127;piano
487.625000;0.973958;33;127;piano
487.625000;0.973958;36;127;piano
487.625000;0.973958;39;127;piano
487.625000;0.973958;42;127;piano
487.625000;0.973958;45;127;piano
488.625000;0.248958;33;127;piano
488.625000;0.248958;36;127;piano
488.625000;0.248958;41;127;piano
488.625000;0.248958;45;127;piano
489.125000;0.498958;33;127;piano
489.125000;0.498958;38;127;piano
489.125000;0.498958;42;127;piano
489.125000;0.498958;45;127;piano
489.625000;0.973958;33;127;piano
489.625000;0.973958;39;127;piano
489.625000;0.973958;42;127;piano
489.625000;0.973958;45;127;piano
490.625000;0.248958;33;127;piano
490.625000;0.248958;36;127;piano
490.625000;0.248958;41;127;piano
490.625000;0.248958;45;127;piano
491.125000;0.498958;33;127;piano
491.125000;0.498958;38;127;piano
491.125000;0.498958;42;127;piano
491.125000;0.498958;45;127;piano
491.625000;0.973958;33;127;piano
491.625000;0.973958;39;127;piano
491.625000;0.973958;42;127;piano
491.625000;0.973958;45;127;piano
492.625000;0.498958;33;115;piano
492.625000;0.498958;36;115;piano
492.625000;0.498958;41;115;piano
492.625000;0.498958;45;115;piano
493.125000;0.498958;33;105;piano
493.125000;0.498958;38;105;piano
493.125000;0.498958;42;105;piano
493.125000;0.498958;45;105;piano
493.625000;0.498958;33;96;piano
493.625000;0.498958;39;96;piano
493.625000;0.498958;42;96;piano
493.625000;0.498958;45;96;piano
494.125000;0.498958;33;96;piano
494.125000;0.498958;36;96;piano
494.125000;0.498958;41;96;piano
494.125000;0.498958;45;96;piano
494.625000;0.498958;33;96;piano
494.625000;0.498958;38;96;piano
494.625000;0.498958;42;96;piano
494.625000;0.498958;45;96;piano
495.125000;0.498958;33;96;piano
495.125000;0.498958;39;96;piano
495.125000;0.498958;42;96;piano
495.125000;0.498958;45;96;piano
495.625000;0.498958;33;96;piano
495.625000;0.498958;36;96;piano
495.625000;0.498958;41;96;piano
495.625000;0.498958;45;96;piano
496.125000;0.498958;33;96;piano
496.125000;0.498958;38;96;piano
496.125000;0.498958;42;96;piano
496.125000;0.498958;45;96;piano
496.625000;0.248958;33;120;piano
496.625000;0.248958;39;120;piano
496.625000;0.248958;42;120;piano
496.625000;0.248958;45;120;piano
497.000000;0.123958;63;96;piano
497.125000;0.998958;63;96;piano
498.669792;0.203125;39;96;piano
498.715625;0.157292;42;96;piano
498.761458;0.111458;45;96;piano
498.625000;0.248958;33;96;piano
499.000000;0.123958;63;96;piano
499.000000;0.123958;66;96;piano
499.125000;0.998958;63;120;piano
499.125000;0.998958;66;120;piano
500.671875;0.201042;39;120;piano
500.718750;0.154167;42;120;piano
500.766667;0.106250;45;120;piano
500.625000;0.248958;33;120;piano
501.000000;0.123958;63;96;piano
501.000000;0.123958;66;96;piano
501.000000;0.123958;71;96;piano
501.125000;0.873958;63;118;piano
501.125000;0.873958;66;118;piano
501.125000;0.873958;71;118;piano
502.000000;0.123958;63;105;piano
502.000000;0.123958;66;105;piano
502.000000;0.123958;71;105;piano
502.000000;0.123958;75;105;piano
502.125000;0.748958;63;103;piano
502.125000;0.748958;66;103;piano
502.125000;0.748958;71;103;piano
502.125000;0.748958;75;103;piano
503.000000;0.123958;63;91;piano
503.000000;0.123958;66;91;piano
503.000000;0.123958;71;91;piano
503.000000;0.123958;75;91;piano
503.125000;0.748958;63;88;piano
503.125000;0.748958;66;88;piano
503.125000;0.748958;71;88;piano
503.125000;0.748958;75;88;piano
504.000000;0.123958;63;76;piano
504.000000;0.123958;66;76;piano
504.000000;0.123958;71;76;piano
504.000000;0.123958;75;76;piano
504.125000;1.998958;63;73;piano
504.125000;1.998958;66;73;piano
504.125000;1.998958;71;73;piano
504.125000;1.998958;75;73;piano
506.125000;3.898958;64;76;piano
506.125000;3.898958;69;76;piano
506.125000;3.898958;73;76;piano
506.125000;3.898958;76;76;piano
510.125000;1.998958;63;73;piano
510.125000;1.998958;66;73;piano
510.125000;1.998958;71;73;piano
510.125000;1.998958;75;73;piano
513.125000;0.248958;30;73;piano
513.125000;0.248958;37;73;piano
513.125000;0.248958;42;73;piano
512.208333;1.914583;66;73;piano
512.294792;1.828125;71;73;piano
512.384375;1.738542;73;73;piano
512.125000;1.998958;61;73;piano
515.125000;0.248958;30;58;piano
515.125000;0.248958;37;58;piano
515.125000;0.248958;42;58;piano
514.200000;1.922917;64;58;piano
514.278125;1.844792;70;58;piano
514.356250;1.766667;73;58;piano
514.125000;1.998958;61;58;piano
516.125000;1.898958;59;49;piano
516.125000;1.898958;62;49;piano
516.125000;1.898958;67;49;piano
516.125000;1.898958;71;49;piano
518.186458;3.836458;65;49;piano
518.254167;3.768750;69;49;piano
518.322917;3.700000;72;49;piano
518.125000;3.898958;60;49;piano
522.125000;1.998958;59;58;piano
522.125000;1.998958;62;58;piano
522.125000;1.998958;67;58;piano
522.125000;1.998958;71;58;piano
525.125000;0.248958;26;54;piano
525.125000;0.248958;33;54;piano
525.125000;0.248958;38;54;piano
524.125000;1.998958;57;58;piano
524.125000;1.998958;62;58;piano
524.125000;1.998958;67;58;piano
524.125000;1.998958;69;58;piano
527.125000;0.248958;26;44;piano
527.125000;0.248958;33;44;piano
527.125000;0.248958;38;44;piano
526.125000;1.998958;57;49;piano
526.125000;1.998958;62;49;piano
526.125000;1.998958;66;49;piano
526.125000;1.998958;69;49;piano
528.125000;0.500000;55;39;piano
528.178125;1.944792;59;39;piano
528.234375;1.888542;63;39;piano
528.290625;1.832292;67;39;piano
530.000000;0.123958;27;39;piano
530.000000;0.123958;35;39;piano
530.000000;0.123958;39;39;piano
530.125000;0.498958;27;49;piano
530.125000;0.498958;35;49;piano
530.125000;0.498958;39;49;piano
532.125000;0.500000;55;39;piano
532.125000;1.998958;60;39;piano
532.125000;1.998958;64;39;piano
532.125000;1.998958;67;39;piano
534.000000;0.123958;24;39;piano
534.000000;0.123958;31;39;piano
534.000000;0.123958;36;39;piano
534.125000;0.498958;24;49;piano
534.125000;0.498958;31;49;piano
534.125000;0.498958;36;49;piano
536.125000;0.500000;58;39;piano
536.125000;1.998958;62;39;piano
536.125000;1.998958;65;39;piano
536.125000;1.998958;70;39;piano
538.000000;0.123958;34;39;piano
538.000000;0.123958;38;39;piano
538.125000;0.498958;34;49;piano
538.125000;0.498958;38;49;piano
540.000000;0.123958;34;49;piano
540.000000;0.123958;38;49;piano
540.125000;0.165625;30;49;piano
540.291667;0.165625;31;39;piano
540.291667;0.165625;34;39;piano
540.125000;0.498958;38;49;piano
540.458333;0.165625;30;39;piano
540.625000;0.165625;31;39;piano
540.625000;0.165625;34;39;piano
540.791667;0.165625;30;39;piano
540.958333;0.165625;31;39;piano
540.958333;0.165625;34;39;piano
541.125000;0.165625;30;39;piano
541.291667;0.165625;31;39;piano
541.291667;0.165625;34;39;piano
541.125000;0.498958;38;39;piano
541.458333;0.165625;30;39;piano
541.625000;0.165625;31;39;piano
541.625000;0.165625;34;39;piano
541.791667;0.165625;30;39;piano
541.958333;0.165625;31;39;piano
541.958333;0.165625;34;39;piano
542.125000;0.165625;30;49;piano
542.291667;0.165625;31;39;piano
542.291667;0.165625;34;39;piano
542.125000;0.498958;38;39;piano
542.458333;0.165625;30;39;piano
542.625000;0.165625;31;39;piano
542.625000;0.165625;34;39;piano
542.791667;0.165625;30;39;piano
542.958333;0.165625;31;39;piano
542.958333;0.165625;34;39;piano
543.125000;0.165625;30;49;piano
543.291667;0.165625;31;39;piano
543.291667;0.165625;34;39;piano
543.125000;0.498958;38;39;piano
543.458333;0.165625;30;39;piano
543.625000;0.165625;31;39;piano
543.625000;0.165625;34;39;piano
543.791667;0.165625;30;39;piano
543.958333;0.165625;31;39;piano
543.958333;0.165625;34;39;piano
545.791667;0.165625;30;49;piano
545.958333;0.165625;31;49;piano
546.125000;0.082292;34;49;piano
546.291667;0.082292;37;49;piano
546.458333;0.082292;38;49;piano
546.625000;0.082292;39;49;piano
546.791667;0.082292;40;49;piano
546.958333;0.082292;41;49;piano
549.640625;0.482292;35;51;piano
549.625000;0.498958;32;51;piano
550.125000;0.248958;33;58;piano
550.291667;0.315625;45;33;piano
550.291667;0.315625;49;33;piano
550.291667;0.315625;52;33;piano
550.291667;0.315625;57;33;piano
550.791667;0.315625;45;33;piano
550.791667;0.315625;49;33;piano
550.791667;0.315625;52;33;piano
550.791667;0.315625;57;33;piano
551.291667;0.315625;45;33;piano
551.291667;0.315625;49;33;piano
551.291667;0.315625;52;33;piano
551.291667;0.315625;57;33;piano
551.791667;0.315625;45;33;piano
551.791667;0.315625;49;33;piano
551.791667;0.315625;52;33;piano
551.791667;0.315625;57;33;piano
552.291667;0.315625;45;33;piano
552.291667;0.315625;49;33;piano
552.291667;0.315625;52;33;piano
552.291667;0.315625;58;33;piano
552.791667;0.315625;45;33;piano
552.791667;0.315625;49;33;piano
552.791667;0.315625;52;33;piano
552.791667;0.315625;58;33;piano
553.291667;0.315625;45;33;piano
553.291667;0.315625;49;33;piano
553.291667;0.315625;58;33;piano
553.791667;0.315625;45;33;piano
553.791667;0.315625;49;33;piano
553.791667;0.315625;55;33;piano
554.291667;0.315625;45;33;piano
554.291667;0.315625;50;33;piano
554.291667;0.315625;53;33;piano
554.291667;0.315625;58;33;piano
554.791667;0.315625;45;33;piano
554.791667;0.315625;50;33;piano
554.791667;0.315625;53;33;piano
554.791667;0.315625;58;33;piano
555.291667;0.315625;45;33;piano
555.291667;0.315625;50;33;piano
555.291667;0.315625;53;33;piano
555.291667;0.315625;58;33;piano
555.791667;0.315625;45;33;piano
555.791667;0.315625;50;33;piano
555.791667;0.315625;53;33;piano
555.791667;0.315625;58;33;piano
556.291667;0.315625;59;33;piano
556.291667;0.315625;45;33;piano
556.291667;0.315625;53;33;piano
556.291667;0.315625;56;33;piano
556.791667;0.315625;59;33;piano
556.791667;0.315625;45;33;piano
556.791667;0.315625;53;33;piano
556.791667;0.315625;56;33;piano
557.291667;0.315625;45;33;piano
557.291667;0.315625;50;33;piano
557.291667;0.315625;53;33;piano
557.291667;0.315625;59;33;piano
557.791667;0.315625;45;33;piano
557.791667;0.315625;50;33;piano
557.791667;0.315625;53;33;piano
557.791667;0.315625;59;33;piano
558.291667;0.315625;45;33;piano
558.291667;0.315625;49;33;piano
558.291667;0.315625;52;33;piano
558.791667;0.315625;45;38;piano
558.791667;0.315625;49;38;piano
558.791667;0.315625;52;38;piano
559.291667;0.315625;45;46;piano
559.291667;0.315625;49;46;piano
559.291667;0.315625;52;46;piano
559.291667;0.315625;57;46;piano
559.791667;0.315625;45;49;piano
559.791667;0.315625;49;49;piano
559.791667;0.315625;52;49;piano
559.791667;0.315625;57;49;piano
560.291667;0.315625;45;49;piano
560.291667;0.315625;49;49;piano
560.291667;0.315625;52;49;piano
560.291667;0.315625;58;49;piano
560.791667;0.315625;45;48;piano
560.791667;0.315625;49;48;piano
560.791667;0.315625;52;48;piano
560.791667;0.315625;58;48;piano
561.291667;0.315625;45;42;piano
561.291667;0.315625;49;42;piano
561.291667;0.315625;58;42;piano
561.791667;0.315625;45;37;piano
561.791667;0.315625;49;37;piano
561.791667;0.315625;55;37;piano
562.291667;0.315625;45;33;piano
562.291667;0.315625;49;33;piano
562.291667;0.315625;55;33;piano
562.791667;0.315625;45;33;piano
562.791667;0.315625;50;33;piano
562.791667;0.315625;53;33;piano
562.791667;0.315625;58;33;piano
563.291667;0.315625;45;33;piano
563.291667;0.315625;50;33;piano
563.291667;0.315625;53;33;piano
563.291667;0.315625;58;33;piano
563.791667;0.315625;45;33;piano
563.791667;0.315625;50;33;piano
563.791667;0.315625;53;33;piano
563.791667;0.315625;58;33;piano
564.291667;0.315625;45;36;piano
564.291667;0.315625;53;36;piano
564.291667;0.315625;56;36;piano
564.291667;0.315625;59;36;piano
564.791667;0.315625;45;41;piano
564.791667;0.315625;53;41;piano
564.791667;0.315625;56;41;piano
564.791667;0.315625;59;41;piano
565.291667;0.315625;45;47;piano
565.291667;0.315625;50;47;piano
565.291667;0.315625;53;47;piano
565.291667;0.315625;59;47;piano
565.791667;0.315625;45;49;piano
565.791667;0.315625;50;49;piano
565.791667;0.315625;53;49;piano
565.791667;0.315625;59;49;piano
566.291667;0.315625;45;49;piano
566.291667;0.315625;49;49;piano
566.291667;0.315625;52;49;piano
566.291667;0.315625;57;49;piano
566.791667;0.315625;57;48;piano
566.791667;0.315625;61;48;piano
567.291667;0.315625;57;45;piano
567.291667;0.315625;59;45;piano
567.291667;0.315625;62;45;piano
567.791667;0.315625;45;43;piano
567.791667;0.315625;50;43;piano
567.791667;0.315625;53;43;piano
568.291667;0.315625;45;40;piano
568.291667;0.315625;49;40;piano
568.291667;0.315625;52;40;piano
568.791667;0.315625;45;38;piano
568.791667;0.315625;49;38;piano
569.291667;0.315625;45;35;piano
569.291667;0.315625;47;35;piano
569.291667;0.315625;50;35;piano
571.875000;0.248958;44;39;piano
571.875000;0.248958;56;39;piano
572.125000;0.248958;44;39;piano
572.125000;0.248958;56;39;piano
572.875000;0.248958;45;39;piano
572.875000;0.248958;57;39;piano
573.125000;0.248958;45;39;piano
573.125000;0.248958;57;39;piano
574.000000;0.123958;46;58;piano
574.125000;1.873958;46;58;piano
576.000000;0.123958;39;58;piano
576.125000;1.873958;39;58;piano
578.000000;0.123958;22;58;piano
578.000000;0.123958;34;58;piano
578.125000;2.998958;22;58;piano
578.125000;2.998958;34;58;piano
581.125000;0.123958;21;39;piano
581.125000;0.123958;33;39;piano
584.129167;0.993750;78;58;piano
584.125000;0.998958;74;58;piano
585.136458;1.936458;79;58;piano
585.125000;1.948958;72;58;piano
587.146875;0.976042;78;58;piano
587.125000;0.998958;74;58;piano
588.154167;1.968750;76;58;piano
588.125000;1.998958;69;58;piano
590.143750;0.979167;74;58;piano
590.125000;0.998958;71;58;piano
591.125000;0.748958;61;58;piano
591.125000;0.748958;68;58;piano
591.125000;0.748958;73;58;piano
591.875000;0.248958;71;58;piano
592.152083;0.470833;70;58;piano
592.125000;0.498958;66;58;piano
592.654167;0.468750;70;58;piano
592.685417;0.437500;73;58;piano
592.625000;0.498958;66;58;piano
593.152083;0.470833;73;58;piano
593.179167;0.443750;78;58;piano
593.125000;0.498958;70;58;piano
593.650000;0.472917;78;58;piano
593.676042;0.446875;82;58;piano
593.625000;0.498958;73;58;piano
594.125000;0.027083;74;39;piano
594.125000;0.027083;77;39;piano
594.125000;0.027083;80;39;piano
594.155208;0.027083;83;39;piano
594.186458;0.027083;74;39;piano
594.186458;0.027083;77;39;piano
594.186458;0.027083;80;39;piano
594.216667;0.027083;83;39;piano
594.247917;0.027083;74;39;piano
594.247917;0.027083;77;39;piano
594.247917;0.027083;80;39;piano
594.278125;0.027083;83;39;piano
594.309375;0.027083;74;39;piano
594.309375;0.027083;77;39;piano
594.309375;0.027083;80;39;piano
594.339583;0.027083;83;39;piano
594.370833;0.027083;74;39;piano
594.370833;0.027083;77;39;piano
594.370833;0.027083;80;39;piano
594.401042;0.027083;83;39;piano
594.432292;0.027083;74;39;piano
594.432292;0.027083;77;39;piano
594.432292;0.027083;80;39;piano
594.462500;0.027083;83;39;piano
594.493750;0.027083;74;39;piano
594.493750;0.027083;77;39;piano
594.493750;0.027083;80;39;piano
594.523958;0.027083;83;39;piano
594.555208;0.027083;74;39;piano
594.555208;0.027083;77;39;piano
594.555208;0.027083;80;39;piano
594.585417;0.027083;83;39;piano
594.616667;0.027083;74;39;piano
594.616667;0.027083;77;39;piano
594.616667;0.027083;80;39;piano
594.646875;0.027083;83;39;piano
594.678125;0.027083;74;39;piano
594.678125;0.027083;77;39;piano
594.678125;0.027083;80;39;piano
594.708333;0.027083;83;39;piano
594.739583;0.027083;74;39;piano
594.739583;0.027083;77;39;piano
594.739583;0.027083;80;39;piano
594.769792;0.027083;83;39;piano
594.801042;0.027083;74;39;piano
594.801042;0.027083;77;39;piano
594.801042;0.027083;80;39;piano
594.831250;0.027083;83;39;piano
594.862500;0.027083;74;39;piano
594.862500;0.027083;77;39;piano
594.862500;0.027083;80;39;piano
594.893750;0.027083;83;39;piano
594.923958;0.027083;74;39;piano
594.923958;0.027083;77;39;piano
594.923958;0.027083;80;39;piano
594.955208;0.027083;83;39;piano
594.985417;0.027083;74;39;piano
594.985417;0.027083;77;39;piano
594.985417;0.027083;80;39;piano
595.016667;0.027083;83;39;piano
595.046875;0.027083;74;39;piano
595.046875;0.027083;77;39;piano
595.046875;0.027083;80;39;piano
595.078125;0.027083;83;39;piano
595.108333;0.027083;74;39;piano
595.108333;0.027083;77;39;piano
595.108333;0.027083;80;39;piano
595.139583;0.027083;83;39;piano
595.169792;0.027083;74;39;piano
595.169792;0.027083;77;39;piano
595.169792;0.027083;80;39;piano
595.201042;0.027083;83;39;piano
595.231250;0.027083;74;39;piano
595.231250;0.027083;77;39;piano
595.231250;0.027083;80;39;piano
595.262500;0.027083;83;39;piano
595.292708;0.027083;74;39;piano
595.292708;0.027083;77;39;piano
595.292708;0.027083;80;39;piano
595.323958;0.027083;83;39;piano
595.354167;0.027083;74;39;piano
595.354167;0.027083;77;39;piano
595.354167;0.027083;80;39;piano
595.385417;0.027083;83;39;piano
595.415625;0.027083;74;39;piano
595.415625;0.027083;77;39;piano
595.415625;0.027083;80;39;piano
595.446875;0.027083;83;39;piano
595.477083;0.027083;74;39;piano
595.477083;0.027083;77;39;piano
595.477083;0.027083;80;39;piano
595.508333;0.027083;83;39;piano
595.538542;0.027083;74;39;piano
595.538542;0.027083;77;39;piano
595.538542;0.027083;80;39;piano
595.569792;0.027083;83;39;piano
595.625000;0.061458;73;39;piano
595.625000;0.061458;77;39;piano
595.687500;0.061458;83;39;piano
595.750000;0.061458;73;39;piano
595.750000;0.061458;77;39;piano
595.812500;0.061458;83;39;piano
595.875000;0.061458;73;39;piano
595.875000;0.061458;77;39;piano
595.937500;0.061458;83;39;piano
596.125000;0.028125;73;39;piano
596.125000;0.028125;78;39;piano
596.156250;0.028125;82;39;piano
596.187500;0.028125;73;39;piano
596.187500;0.028125;78;39;piano
596.218750;0.028125;82;40;piano
596.250000;0.028125;73;40;piano
596.250000;0.028125;78;40;piano
596.281250;0.028125;82;40;piano
596.312500;0.028125;73;42;piano
596.312500;0.028125;78;42;piano
596.343750;0.028125;82;42;piano
596.375000;0.028125;73;42;piano
596.375000;0.028125;78;42;piano
596.406250;0.028125;82;43;piano
596.437500;0.028125;73;43;piano
596.437500;0.028125;78;43;piano
596.468750;0.028125;82;43;piano
596.500000;0.028125;73;44;piano
596.500000;0.028125;78;44;piano
596.531250;0.028125;82;44;piano
596.562500;0.028125;73;44;piano
596.562500;0.028125;78;44;piano
596.593750;0.028125;82;45;piano
596.625000;0.028125;70;45;piano
596.625000;0.028125;73;45;piano
596.656250;0.028125;78;45;piano
596.687500;0.028125;70;46;piano
596.687500;0.028125;73;46;piano
596.718750;0.028125;78;46;piano
596.750000;0.028125;70;46;piano
596.750000;0.028125;73;46;piano
596.781250;0.028125;78;48;piano
596.812500;0.028125;70;48;piano
596.812500;0.028125;73;48;piano
596.843750;0.028125;78;48;piano
596.875000;0.028125;70;49;piano
596.875000;0.028125;73;49;piano
596.906250;0.028125;78;49;piano
596.937500;0.028125;70;49;piano
596.937500;0.028125;73;49;piano
596.968750;0.028125;78;50;piano
597.000000;0.028125;70;50;piano
597.000000;0.028125;73;50;piano
597.031250;0.028125;78;50;piano
597.062500;0.028125;70;51;piano
597.062500;0.028125;73;51;piano
597.093750;0.028125;78;51;piano
597.125000;0.028125;70;51;piano
597.156250;0.028125;73;52;piano
597.125000;0.062500;66;51;piano
597.187500;0.028125;70;52;piano
597.218750;0.028125;73;52;piano
597.187500;0.062500;66;52;piano
597.250000;0.028125;70;54;piano
597.281250;0.028125;73;54;piano
597.250000;0.062500;66;54;piano
597.312500;0.028125;70;54;piano
597.343750;0.028125;73;55;piano
597.312500;0.062500;66;54;piano
597.375000;0.028125;70;55;piano
597.406250;0.028125;73;55;piano
597.375000;0.062500;66;55;piano
597.437500;0.028125;70;56;piano
597.468750;0.028125;73;56;piano
597.437500;0.062500;66;56;piano
597.500000;0.028125;70;56;piano
597.531250;0.028125;73;57;piano
597.500000;0.062500;66;56;piano
597.562500;0.028125;70;57;piano
597.593750;0.028125;73;57;piano
597.562500;0.061458;66;57;piano
597.654167;0.468750;70;58;piano
597.685417;0.437500;73;58;piano
597.625000;0.498958;64;58;piano
598.140625;0.982292;69;58;piano
598.157292;0.965625;72;58;piano
598.125000;0.998958;63;58;piano
598.175000;0.948958;78;58;piano
599.156250;0.466667;69;58;piano
599.187500;0.435417;71;58;piano
599.125000;0.498958;63;58;piano
599.657292;0.465625;69;58;piano
599.690625;0.432292;72;58;piano
599.625000;0.498958;63;58;piano
600.152083;0.470833;69;58;piano
600.179167;0.443750;73;58;piano
600.125000;0.498958;64;58;piano
600.653125;0.469792;73;62;piano
600.683333;0.439583;76;63;piano
600.625000;0.498958;69;62;piano
601.154167;0.468750;76;67;piano
601.185417;0.437500;81;67;piano
601.125000;0.498958;73;67;piano
601.652083;0.470833;81;72;piano
601.679167;0.443750;85;72;piano
601.625000;0.498958;76;72;piano
602.125000;0.027083;74;64;piano
602.125000;0.027083;76;64;piano
602.125000;0.027083;80;64;piano
602.155208;0.027083;83;64;piano
602.186458;0.027083;74;64;piano
602.186458;0.027083;76;64;piano
602.186458;0.027083;80;64;piano
602.216667;0.027083;83;64;piano
602.247917;0.027083;74;64;piano
602.247917;0.027083;76;64;piano
602.247917;0.027083;80;64;piano
602.278125;0.027083;83;64;piano
602.309375;0.027083;74;64;piano
602.309375;0.027083;76;64;piano
602.309375;0.027083;80;64;piano
602.339583;0.027083;83;64;piano
602.370833;0.027083;74;64;piano
602.370833;0.027083;76;64;piano
602.370833;0.027083;80;64;piano
602.401042;0.027083;83;64;piano
602.432292;0.027083;74;64;piano
602.432292;0.027083;76;64;piano
602.432292;0.027083;80;64;piano
602.462500;0.027083;83;64;piano
602.493750;0.027083;74;64;piano
602.493750;0.027083;76;64;piano
602.493750;0.027083;80;64;piano
602.523958;0.027083;83;64;piano
602.555208;0.027083;74;64;piano
602.555208;0.027083;76;64;piano
602.555208;0.027083;80;64;piano
602.585417;0.027083;83;64;piano
602.616667;0.027083;74;64;piano
602.616667;0.027083;76;64;piano
602.616667;0.027083;80;64;piano
602.646875;0.027083;83;64;piano
602.678125;0.027083;74;64;piano
602.678125;0.027083;76;64;piano
602.678125;0.027083;80;64;piano
602.708333;0.027083;83;64;piano
602.739583;0.027083;74;64;piano
602.739583;0.027083;76;64;piano
602.739583;0.027083;80;64;piano
602.769792;0.027083;83;64;piano
602.801042;0.027083;74;64;piano
602.801042;0.027083;76;64;piano
602.801042;0.027083;80;64;piano
602.831250;0.027083;83;64;piano
602.862500;0.027083;74;64;piano
602.862500;0.027083;76;64;piano
602.862500;0.027083;80;64;piano
602.893750;0.027083;83;64;piano
602.923958;0.027083;74;64;piano
602.923958;0.027083;76;64;piano
602.923958;0.027083;80;64;piano
602.955208;0.027083;83;64;piano
602.985417;0.027083;74;64;piano
602.985417;0.027083;76;64;piano
602.985417;0.027083;80;64;piano
603.016667;0.027083;83;64;piano
603.046875;0.027083;74;64;piano
603.046875;0.027083;76;64;piano
603.046875;0.027083;80;64;piano
603.078125;0.027083;83;64;piano
603.108333;0.027083;74;64;piano
603.108333;0.027083;76;64;piano
603.108333;0.027083;80;64;piano
603.139583;0.027083;83;64;piano
603.169792;0.027083;74;64;piano
603.169792;0.027083;76;64;piano
603.169792;0.027083;80;64;piano
603.201042;0.027083;83;64;piano
603.231250;0.027083;74;64;piano
603.231250;0.027083;76;64;piano
603.231250;0.027083;80;64;piano
603.262500;0.027083;83;64;piano
603.292708;0.027083;74;64;piano
603.292708;0.027083;76;64;piano
603.292708;0.027083;80;64;piano
603.323958;0.027083;83;64;piano
603.354167;0.027083;74;64;piano
603.354167;0.027083;76;64;piano
603.354167;0.027083;80;64;piano
603.385417;0.027083;83;64;piano
603.415625;0.027083;74;64;piano
603.415625;0.027083;76;64;piano
603.415625;0.027083;80;64;piano
603.446875;0.027083;83;64;piano
603.477083;0.027083;74;64;piano
603.477083;0.027083;76;64;piano
603.477083;0.027083;80;64;piano
603.508333;0.027083;83;64;piano
603.538542;0.027083;74;64;piano
603.538542;0.027083;76;64;piano
603.538542;0.027083;80;64;piano
603.569792;0.027083;83;64;piano
603.625000;0.058333;74;80;piano
603.625000;0.058333;78;80;piano
603.625000;0.058333;80;80;piano
603.687500;0.058333;83;80;piano
603.750000;0.058333;74;80;piano
603.750000;0.058333;78;80;piano
603.750000;0.058333;80;80;piano
603.812500;0.058333;83;80;piano
603.875000;0.058333;74;80;piano
603.875000;0.058333;78;80;piano
603.875000;0.058333;80;80;piano
603.937500;0.058333;83;80;piano
604.125000;0.248958;45;127;piano
604.125000;0.248958;52;127;piano
604.125000;0.248958;57;127;piano
604.625000;0.165625;32;96;piano
604.625000;0.165625;44;96;piano
604.791667;0.165625;33;103;piano
604.791667;0.165625;45;103;piano
604.958333;0.165625;37;111;piano
604.958333;0.165625;49;111;piano
605.125000;0.165625;40;120;piano
605.125000;0.165625;52;120;piano
605.291667;0.165625;44;127;piano
605.291667;0.165625;56;127;piano
605.458333;0.165625;45;127;piano
605.458333;0.165625;57;127;piano
605.625000;0.165625;49;127;piano
605.625000;0.165625;61;127;piano
605.791667;0.165625;52;127;piano
605.791667;0.165625;64;127;piano
606.125000;0.248958;46;127;piano
606.125000;0.248958;50;127;piano
606.125000;0.248958;58;127;piano
606.625000;0.165625;33;120;piano
606.625000;0.165625;45;120;piano
606.791667;0.165625;34;124;piano
606.791667;0.165625;46;124;piano
606.958333;0.165625;38;127;piano
606.958333;0.165625;50;127;piano
607.125000;0.165625;41;127;piano
607.125000;0.165625;53;127;piano
607.291667;0.165625;45;127;piano
607.291667;0.165625;57;127;piano
607.458333;0.165625;46;127;piano
607.458333;0.165625;58;127;piano
607.625000;0.165625;50;127;piano
607.625000;0.165625;62;127;piano
607.791667;0.165625;53;127;piano
607.791667;0.165625;65;127;piano
608.125000;0.248958;47;127;piano
608.125000;0.248958;51;127;piano
608.125000;0.248958;59;127;piano
608.625000;0.165625;34;127;piano
608.625000;0.165625;46;127;piano
608.791667;0.165625;35;127;piano
608.791667;0.165625;47;127;piano
608.958333;0.165625;39;127;piano
608.958333;0.165625;51;127;piano
609.125000;0.165625;42;127;piano
609.125000;0.165625;54;127;piano
609.291667;0.165625;46;127;piano
609.291667;0.165625;58;127;piano
609.458333;0.165625;47;127;piano
609.458333;0.165625;59;127;piano
609.625000;0.165625;51;127;piano
609.625000;0.165625;63;127;piano
609.791667;0.165625;54;127;piano
609.791667;0.165625;66;127;piano
610.125000;0.248958;48;127;piano
610.125000;0.248958;52;127;piano
610.125000;0.248958;57;127;piano
610.125000;0.248958;60;127;piano
610.625000;0.165625;35;127;piano
610.625000;0.165625;47;127;piano
610.791667;0.165625;36;127;piano
610.791667;0.165625;48;127;piano
610.958333;0.165625;39;127;piano
610.958333;0.165625;51;127;piano
611.125000;0.165625;40;127;piano
611.125000;0.165625;52;127;piano
611.291667;0.165625;44;127;piano
611.291667;0.165625;56;127;piano
611.458333;0.165625;45;127;piano
611.458333;0.165625;57;127;piano
611.625000;0.165625;48;127;piano
611.625000;0.165625;60;127;piano
611.791667;0.165625;52;127;piano
611.791667;0.165625;64;127;piano
612.125000;0.498958;49;127;piano
612.125000;0.498958;57;127;piano
612.125000;0.498958;61;127;piano
612.625000;0.165625;55;127;piano
612.625000;0.165625;67;127;piano
612.791667;0.165625;54;127;piano
612.791667;0.165625;66;127;piano
612.958333;0.165625;52;127;piano
612.958333;0.165625;64;127;piano
613.125000;0.165625;50;127;piano
613.125000;0.165625;62;127;piano
613.291667;0.165625;49;127;piano
613.291667;0.165625;61;127;piano
613.458333;0.165625;47;127;piano
613.458333;0.165625;59;127;piano
613.625000;0.165625;45;127;piano
613.625000;0.165625;57;127;piano
613.791667;0.165625;44;127;piano
613.791667;0.165625;56;127;piano
613.958333;0.165625;47;127;piano
613.958333;0.165625;59;127;piano
614.125000;0.165625;45;127;piano
614.125000;0.165625;57;127;piano
614.291667;0.165625;43;127;piano
614.291667;0.165625;55;127;piano
614.458333;0.165625;42;127;piano
614.458333;0.165625;54;127;piano
614.625000;0.165625;40;127;piano
614.625000;0.165625;52;127;piano
614.791667;0.165625;38;127;piano
614.791667;0.165625;50;127;piano
614.958333;0.165625;37;127;piano
614.958333;0.165625;49;127;piano
615.125000;0.165625;35;127;piano
615.125000;0.165625;47;127;piano
615.291667;0.165625;33;127;piano
615.291667;0.165625;45;127;piano
615.458333;0.165625;32;127;piano
615.458333;0.165625;44;127;piano
615.625000;0.082292;33;127;piano
615.625000;0.082292;45;127;piano
615.791667;0.082292;32;127;piano
615.791667;0.082292;44;127;piano
615.875000;0.082292;31;127;piano
615.875000;0.082292;43;127;piano
615.958333;0.082292;30;127;piano
615.958333;0.082292;42;127;piano
616.041667;0.082292;28;127;piano
616.041667;0.082292;40;127;piano
616.625000;0.063542;57;127;piano
616.625000;0.063542;62;127;piano
616.625000;0.063542;66;127;piano
616.689583;0.433333;57;127;piano
616.689583;0.433333;62;127;piano
616.689583;0.433333;66;127;piano
617.125000;0.055208;50;127;piano
617.125000;0.055208;54;127;piano
617.125000;0.055208;57;127;piano
617.181250;0.441667;50;127;piano
617.181250;0.441667;54;127;piano
617.181250;0.441667;57;127;piano
617.625000;0.029167;42;127;piano
617.625000;0.029167;45;127;piano
617.625000;0.029167;50;127;piano
617.655208;0.467708;42;127;piano
617.655208;0.467708;45;127;piano
617.655208;0.467708;50;127;piano
616.125000;1.998958;26;127;piano
616.125000;1.998958;38;127;piano
618.625000;0.063542;60;127;piano
618.625000;0.063542;64;127;piano
618.625000;0.063542;67;127;piano
618.689583;0.433333;60;127;piano
618.689583;0.433333;64;127;piano
618.689583;0.433333;67;127;piano
619.125000;0.058333;52;127;piano
619.125000;0.058333;55;127;piano
619.125000;0.058333;60;127;piano
619.184375;0.438542;52;127;piano
619.184375;0.438542;55;127;piano
619.184375;0.438542;60;127;piano
619.625000;0.052083;48;127;piano
619.625000;0.052083;52;127;piano
619.625000;0.052083;55;127;piano
619.678125;0.444792;48;127;piano
619.678125;0.444792;52;127;piano
619.678125;0.444792;55;127;piano
618.125000;1.998958;24;127;piano
618.125000;1.998958;36;127;piano
620.125000;0.073958;40;127;piano
620.125000;0.073958;43;127;piano
620.125000;0.073958;48;127;piano
620.200000;0.422917;40;127;piano
620.200000;0.422917;43;127;piano
620.200000;0.422917;48;127;piano
621.625000;0.044792;57;127;piano
621.625000;0.044792;62;127;piano
621.625000;0.044792;66;127;piano
621.670833;0.452083;57;127;piano
621.670833;0.452083;62;127;piano
621.670833;0.452083;66;127;piano
621.125000;0.998958;26;127;piano
621.125000;0.998958;38;127;piano
622.625000;0.063542;57;127;piano
622.625000;0.063542;62;127;piano
622.625000;0.063542;64;127;piano
622.689583;0.433333;57;127;piano
622.689583;0.433333;62;127;piano
622.689583;0.433333;64;127;piano
623.125000;0.065625;50;127;piano
623.125000;0.065625;52;127;piano
623.125000;0.065625;57;127;piano
623.191667;0.431250;50;127;piano
623.191667;0.431250;52;127;piano
623.191667;0.431250;57;127;piano
622.125000;1.500000;45;127;piano
623.625000;0.052083;50;127;piano
623.625000;0.052083;52;127;piano
623.625000;0.053125;45;127;piano
623.678125;0.444792;50;127;piano
623.678125;0.444792;52;127;piano
622.125000;1.998958;33;127;piano
622.125000;1.998958;38;127;piano
622.125000;1.998958;40;127;piano
623.678125;0.445833;45;127;piano
624.625000;0.065625;57;127;piano
624.625000;0.065625;61;127;piano
624.625000;0.065625;64;127;piano
624.691667;0.431250;57;127;piano
624.691667;0.431250;61;127;piano
624.691667;0.431250;64;127;piano
625.125000;0.068750;49;127;piano
625.125000;0.068750;52;127;piano
625.125000;0.068750;57;127;piano
625.194792;0.428125;49;127;piano
625.194792;0.428125;52;127;piano
625.194792;0.428125;57;127;piano
624.125000;1.500000;45;127;piano
625.625000;0.048958;49;127;piano
625.625000;0.048958;52;127;piano
625.625000;0.050000;45;127;piano
625.675000;0.447917;49;127;piano
625.675000;0.447917;52;127;piano
624.125000;1.998958;33;127;piano
624.125000;1.998958;37;127;piano
624.125000;1.998958;40;127;piano
625.675000;0.448958;45;127;piano
626.625000;0.044792;50;127;piano
626.625000;0.044792;54;127;piano
626.625000;0.044792;59;127;piano
626.670833;0.452083;50;127;piano
626.670833;0.452083;54;127;piano
626.670833;0.452083;59;127;piano
626.125000;0.998958;35;127;piano
626.125000;0.998958;38;127;piano
626.125000;0.998958;42;127;piano
626.125000;0.998958;47;127;piano
627.625000;0.048958;53;127;piano
627.625000;0.048958;56;127;piano
627.625000;0.048958;61;127;piano
627.675000;0.447917;53;127;piano
627.675000;0.447917;56;127;piano
627.675000;0.447917;61;127;piano
627.125000;0.998958;37;127;piano
627.125000;0.998958;41;127;piano
627.125000;0.998958;44;127;piano
627.125000;0.998958;49;127;piano
628.375000;0.236458;49;126;piano
628.375000;0.236458;54;126;piano
628.375000;0.236458;58;126;piano
628.125000;0.498958;30;127;piano
628.125000;0.498958;42;127;piano
628.875000;0.236458;54;126;piano
628.875000;0.236458;58;126;piano
628.875000;0.236458;61;126;piano
628.625000;0.498958;34;127;piano
628.625000;0.498958;46;127;piano
629.375000;0.236458;58;126;piano
629.375000;0.236458;61;126;piano
629.375000;0.236458;66;126;piano
629.125000;0.498958;37;127;piano
629.125000;0.498958;49;127;piano
629.875000;0.236458;61;126;piano
629.875000;0.236458;66;126;piano
629.875000;0.236458;70;126;piano
629.625000;0.498958;42;127;piano
629.625000;0.498958;54;127;piano
630.125000;0.082292;38;127;piano
630.125000;0.082292;50;127;piano
630.208333;0.082292;44;127;piano
630.291667;0.082292;47;127;piano
630.375000;0.082292;53;127;piano
630.458333;0.082292;56;127;piano
630.541667;0.082292;59;127;piano
630.625000;0.082292;65;127;piano
630.708333;0.082292;59;127;piano
630.791667;0.082292;56;127;piano
630.875000;0.082292;53;127;piano
630.958333;0.082292;47;127;piano
631.041667;0.082292;44;127;piano
631.125000;0.082292;37;127;piano
631.208333;0.082292;44;127;piano
631.291667;0.082292;47;127;piano
631.375000;0.082292;53;127;piano
631.458333;0.082292;56;127;piano
631.541667;0.082292;59;127;piano
631.625000;0.082292;65;127;piano
631.708333;0.082292;59;127;piano
631.791667;0.082292;56;127;piano
631.875000;0.082292;53;127;piano
631.958333;0.082292;47;127;piano
632.041667;0.082292;44;127;piano
632.125000;0.332292;42;127;piano
632.458333;0.165625;51;127;piano
632.458333;0.165625;63;127;piano
632.625000;0.165625;49;127;piano
632.625000;0.165625;61;127;piano
632.791667;0.165625;46;127;piano
632.791667;0.165625;58;127;piano
632.958333;0.165625;44;127;piano
632.958333;0.165625;56;127;piano
633.125000;0.165625;42;127;piano
633.125000;0.165625;54;127;piano
633.291667;0.165625;39;127;piano
633.291667;0.165625;51;127;piano
633.458333;0.165625;37;127;piano
633.458333;0.165625;49;127;piano
633.625000;0.165625;34;127;piano
633.625000;0.165625;46;127;piano
633.791667;0.165625;32;127;piano
633.791667;0.165625;44;127;piano
633.958333;0.165625;30;127;piano
633.958333;0.165625;42;127;piano
634.125000;0.165625;28;127;piano
634.125000;0.165625;40;127;piano
634.291667;0.165625;31;127;piano
634.291667;0.165625;43;127;piano
634.458333;0.165625;35;127;piano
634.458333;0.165625;47;127;piano
634.625000;0.165625;40;127;piano
634.625000;0.165625;52;127;piano
634.791667;0.165625;43;127;piano
634.791667;0.165625;55;127;piano
635.125000;0.165625;33;127;piano
635.125000;0.165625;45;127;piano
635.291667;0.165625;37;127;piano
635.291667;0.165625;49;127;piano
635.458333;0.165625;40;127;piano
635.458333;0.165625;52;127;piano
635.625000;0.165625;45;127;piano
635.625000;0.165625;57;127;piano
635.791667;0.165625;49;127;piano
635.791667;0.165625;61;127;piano
636.125000;0.248958;50;127;piano
636.125000;0.248958;62;127;piano
636.375000;0.248958;38;127;piano
636.375000;0.248958;50;127;piano
636.625000;0.248958;37;127;piano
636.625000;0.248958;49;127;piano
636.875000;0.248958;49;127;piano
636.875000;0.248958;61;127;piano
637.125000;0.248958;47;127;piano
637.125000;0.248958;59;127;piano
637.375000;0.248958;35;127;piano
637.375000;0.248958;47;127;piano
637.625000;0.248958;33;127;piano
637.625000;0.248958;45;127;piano
637.875000;0.248958;45;127;piano
637.875000;0.248958;57;127;piano
638.125000;0.248958;44;127;piano
638.125000;0.248958;56;127;piano
638.625000;0.248958;32;127;piano
638.625000;0.248958;44;127;piano
639.125000;0.248958;31;127;piano
639.125000;0.248958;43;127;piano
639.625000;0.248958;43;127;piano
639.625000;0.248958;55;127;piano
640.125000;0.000000;30;127;piano
640.125000;0.000000;42;127;piano
640.125000;0.000000;30;127;piano
640.125000;0.000000;42;127;piano
640.125000;0.248958;30;127;piano
640.125000;0.248958;42;127;piano
640.500000;0.123958;57;127;piano
640.500000;0.123958;69;127;piano
640.625000;0.873958;57;127;piano
640.625000;0.873958;69;127;piano
641.500000;0.123958;51;127;piano
641.500000;0.123958;63;127;piano
641.625000;0.373958;51;127;piano
641.625000;0.373958;63;127;piano
642.000000;0.123958;45;127;piano
642.000000;0.123958;57;127;piano
642.125000;0.373958;45;127;piano
642.125000;0.373958;57;127;piano
642.500000;0.123958;39;127;piano
642.500000;0.123958;51;127;piano
642.625000;0.373958;39;127;piano
642.625000;0.373958;51;127;piano
643.000000;0.123958;33;127;piano
643.000000;0.123958;45;127;piano
643.125000;0.248958;33;127;piano
643.125000;0.248958;45;127;piano
643.625000;0.248958;30;127;piano
643.625000;0.248958;33;127;piano
643.625000;0.248958;39;127;piano
643.625000;0.248958;42;127;piano
644.125000;0.248958;28;127;piano
644.125000;0.248958;31;127;piano
644.125000;0.248958;36;127;piano
644.125000;0.248958;40;127;piano
644.500000;0.123958;58;127;piano
644.500000;0.123958;70;127;piano
644.625000;0.873958;58;127;piano
644.625000;0.873958;70;127;piano
645.500000;0.123958;52;127;piano
645.500000;0.123958;64;127;piano
645.625000;0.373958;52;127;piano
645.625000;0.373958;64;127;piano
646.000000;0.123958;46;127;piano
646.000000;0.123958;58;127;piano
646.125000;0.373958;46;127;piano
646.125000;0.373958;58;127;piano
646.500000;0.123958;40;127;piano
646.500000;0.123958;52;127;piano
646.625000;0.373958;40;127;piano
646.625000;0.373958;52;127;piano
647.000000;0.123958;34;127;piano
647.000000;0.123958;46;127;piano
647.125000;0.248958;34;127;piano
647.125000;0.248958;46;127;piano
647.625000;0.248958;28;127;piano
647.625000;0.248958;31;127;piano
647.625000;0.248958;36;127;piano
647.625000;0.248958;40;127;piano
648.125000;0.236458;26;126;piano
648.125000;0.236458;29;126;piano
648.125000;0.236458;32;126;piano
648.125000;0.236458;35;126;piano
648.125000;0.236458;38;126;piano
648.500000;0.123958;62;127;piano
648.625000;0.373958;62;127;piano
649.000000;0.123958;56;127;piano
649.125000;0.373958;56;127;piano
649.500000;0.123958;50;127;piano
649.625000;0.373958;50;127;piano
650.000000;0.123958;44;127;piano
650.125000;0.373958;44;127;piano
650.500000;0.123958;38;127;piano
650.500000;0.123958;50;127;piano
650.625000;0.373958;38;127;piano
650.625000;0.373958;50;127;piano
651.000000;0.123958;32;127;piano
651.000000;0.123958;44;127;piano
651.125000;0.248958;32;127;piano
651.125000;0.248958;44;127;piano
651.625000;0.736458;56;127;piano
651.625000;0.736458;62;127;piano
651.625000;0.736458;65;127;piano
651.625000;0.736458;71;127;piano
652.375000;0.248958;55;127;piano
652.375000;0.248958;62;127;piano
652.375000;0.248958;65;127;piano
652.625000;0.248958;57;127;piano
652.625000;0.248958;63;127;piano
652.625000;0.248958;66;127;piano
652.875000;0.248958;58;127;piano
652.875000;0.248958;64;127;piano
652.875000;0.248958;67;127;piano
653.125000;0.248958;59;127;piano
653.125000;0.248958;65;127;piano
653.125000;0.248958;68;127;piano
653.375000;0.248958;60;127;piano
653.375000;0.248958;66;127;piano
653.375000;0.248958;69;127;piano
653.625000;0.248958;59;127;piano
653.625000;0.248958;65;127;piano
653.625000;0.248958;68;127;piano
653.875000;0.248958;58;127;piano
653.875000;0.248958;64;127;piano
653.875000;0.248958;67;127;piano
654.125000;0.248958;56;127;piano
654.125000;0.248958;63;127;piano
654.125000;0.248958;66;127;piano
654.375000;0.248958;55;127;piano
654.375000;0.248958;62;127;piano
654.375000;0.248958;65;127;piano
654.625000;0.248958;57;127;piano
654.625000;0.248958;63;127;piano
654.625000;0.248958;66;127;piano
654.875000;0.248958;58;127;piano
654.875000;0.248958;64;127;piano
654.875000;0.248958;67;127;piano
655.125000;0.248958;59;127;piano
655.125000;0.248958;65;127;piano
655.125000;0.248958;68;127;piano
655.375000;0.248958;60;127;piano
655.375000;0.248958;66;127;piano
655.375000;0.248958;69;127;piano
655.625000;0.248958;59;127;piano
655.625000;0.248958;65;127;piano
655.625000;0.248958;68;127;piano
655.875000;0.248958;58;127;piano
655.875000;0.248958;64;127;piano
655.875000;0.248958;67;127;piano
656.125000;0.248958;57;127;piano
656.125000;0.248958;63;127;piano
656.125000;0.248958;66;127;piano
656.625000;0.248958;56;127;piano
656.625000;0.248958;62;127;piano
656.625000;0.248958;65;127;piano
656.625000;0.248958;71;127;piano
657.875000;0.248958;32;127;piano
657.875000;0.248958;44;127;piano
658.125000;0.248958;33;127;piano
658.125000;0.248958;45;127;piano
658.375000;0.498958;62;127;piano
658.375000;0.498958;66;127;piano
658.375000;0.498958;70;127;piano
658.875000;0.498958;57;127;piano
658.875000;0.498958;62;127;piano
658.875000;0.498958;66;127;piano
658.875000;0.498958;69;127;piano
659.375000;0.498958;57;127;piano
659.375000;0.498958;62;127;piano
659.375000;0.498958;68;127;piano
659.875000;0.248958;57;115;piano
659.875000;0.248958;62;115;piano
659.875000;0.248958;67;115;piano
660.125000;0.248958;55;115;piano
660.125000;0.248958;57;115;piano
660.125000;0.248958;61;115;piano
660.125000;0.248958;67;115;piano
660.375000;0.498958;55;127;piano
660.375000;0.498958;57;127;piano
660.375000;0.498958;61;127;piano
660.375000;0.498958;66;127;piano
660.875000;0.498958;55;127;piano
660.875000;0.498958;57;127;piano
660.875000;0.498958;61;127;piano
660.875000;0.498958;65;127;piano
661.375000;0.498958;55;127;piano
661.375000;0.498958;57;127;piano
661.375000;0.498958;61;127;piano
661.375000;0.498958;63;127;piano
661.875000;0.248958;55;115;piano
661.875000;0.248958;57;115;piano
661.875000;0.248958;61;115;piano
661.875000;0.248958;64;115;piano
662.125000;0.248958;33;127;piano
662.125000;0.248958;45;127;piano
662.375000;0.498958;63;127;piano
662.375000;0.498958;66;127;piano
662.375000;0.498958;70;127;piano
662.875000;0.498958;57;127;piano
662.875000;0.498958;63;127;piano
662.875000;0.498958;66;127;piano
662.875000;0.498958;69;127;piano
663.375000;0.498958;57;127;piano
663.375000;0.498958;63;127;piano
663.375000;0.498958;68;127;piano
663.875000;0.248958;57;112;piano
663.875000;0.248958;63;112;piano
663.875000;0.248958;67;112;piano
664.125000;0.248958;55;112;piano
664.125000;0.248958;57;112;piano
664.125000;0.248958;61;112;piano
664.125000;0.248958;67;112;piano
664.375000;0.498958;55;127;piano
664.375000;0.498958;57;127;piano
664.375000;0.498958;61;127;piano
664.375000;0.498958;66;127;piano
664.875000;0.248958;55;127;piano
664.875000;0.248958;57;127;piano
664.875000;0.248958;61;127;piano
664.875000;0.248958;65;127;piano
665.125000;0.248958;34;112;piano
665.125000;0.248958;46;112;piano
665.375000;0.498958;55;127;piano
665.375000;0.498958;61;127;piano
665.375000;0.498958;63;127;piano
665.875000;0.248958;55;112;piano
665.875000;0.248958;61;112;piano
665.875000;0.248958;64;112;piano
666.125000;0.248958;35;127;piano
666.125000;0.248958;47;127;piano
666.375000;0.498958;64;127;piano
666.375000;0.498958;68;127;piano
666.375000;0.498958;72;127;piano
666.875000;0.498958;59;127;piano
666.875000;0.498958;64;127;piano
666.875000;0.498958;68;127;piano
666.875000;0.498958;71;127;piano
667.375000;0.498958;59;127;piano
667.375000;0.498958;64;127;piano
667.375000;0.498958;70;127;piano
667.875000;0.248958;59;112;piano
667.875000;0.248958;64;112;piano
667.875000;0.248958;69;112;piano
668.125000;0.248958;57;112;piano
668.125000;0.248958;59;112;piano
668.125000;0.248958;63;112;piano
668.125000;0.248958;69;112;piano
668.375000;0.498958;57;127;piano
668.375000;0.498958;59;127;piano
668.375000;0.498958;63;127;piano
668.375000;0.498958;68;127;piano
668.875000;0.248958;57;112;piano
668.875000;0.248958;59;112;piano
668.875000;0.248958;63;112;piano
668.875000;0.248958;67;112;piano
669.125000;0.248958;36;112;piano
669.125000;0.248958;48;112;piano
669.375000;0.498958;57;127;piano
669.375000;0.498958;63;127;piano
669.375000;0.498958;65;127;piano
669.875000;0.248958;57;112;piano
669.875000;0.248958;63;112;piano
669.875000;0.248958;66;112;piano
670.125000;0.248958;37;127;piano
670.125000;0.248958;49;127;piano
670.375000;0.498958;66;127;piano
670.375000;0.498958;70;127;piano
670.375000;0.498958;74;127;piano
670.875000;0.498958;61;127;piano
670.875000;0.498958;66;127;piano
670.875000;0.498958;70;127;piano
670.875000;0.498958;73;127;piano
671.375000;0.498958;61;127;piano
671.375000;0.498958;66;127;piano
671.375000;0.498958;72;127;piano
671.875000;0.248958;61;112;piano
671.875000;0.248958;66;112;piano
671.875000;0.248958;71;112;piano
672.125000;0.248958;59;112;piano
672.125000;0.248958;61;112;piano
672.125000;0.248958;65;112;piano
672.125000;0.248958;71;112;piano
672.375000;0.498958;59;127;piano
672.375000;0.498958;61;127;piano
672.375000;0.498958;65;127;piano
672.375000;0.498958;70;127;piano
672.875000;0.248958;59;127;piano
672.875000;0.248958;61;127;piano
672.875000;0.248958;65;127;piano
672.875000;0.248958;69;127;piano
673.125000;0.248958;38;112;piano
673.125000;0.248958;50;112;piano
673.375000;0.498958;59;127;piano
673.375000;0.498958;65;127;piano
673.375000;0.498958;67;127;piano
673.875000;0.248958;59;112;piano
673.875000;0.248958;65;112;piano
673.875000;0.248958;68;112;piano
674.125000;0.248958;39;127;piano
674.125000;0.248958;51;127;piano
674.375000;0.498958;68;127;piano
674.375000;0.498958;72;127;piano
674.375000;0.498958;76;127;piano
674.875000;0.498958;63;127;piano
674.875000;0.498958;68;127;piano
674.875000;0.498958;72;127;piano
674.875000;0.498958;75;127;piano
675.375000;0.498958;63;127;piano
675.375000;0.498958;68;127;piano
675.375000;0.498958;72;127;piano
675.875000;0.248958;40;127;piano
675.875000;0.248958;51;127;piano
676.125000;0.248958;39;120;piano
676.125000;0.248958;51;120;piano
676.375000;0.248958;40;127;piano
676.375000;0.248958;52;127;piano
676.625000;0.248958;41;127;piano
676.625000;0.248958;53;127;piano
676.875000;0.248958;42;127;piano
676.875000;0.248958;54;127;piano
677.125000;0.248958;43;127;piano
677.125000;0.248958;55;127;piano
677.375000;0.248958;51;127;piano
677.375000;0.248958;63;127;piano
677.625000;0.248958;52;127;piano
677.625000;0.248958;64;127;piano
677.875000;0.248958;51;127;piano
677.875000;0.248958;63;127;piano
678.125000;0.248958;39;127;piano
678.125000;0.248958;51;127;piano
678.375000;0.498958;68;127;piano
678.375000;0.498958;72;127;piano
678.375000;0.498958;76;127;piano
678.875000;0.498958;63;127;piano
678.875000;0.498958;68;127;piano
678.875000;0.498958;72;127;piano
678.875000;0.498958;75;127;piano
679.375000;0.498958;63;127;piano
679.375000;0.498958;68;127;piano
679.375000;0.498958;72;127;piano
679.875000;0.248958;40;127;piano
679.875000;0.248958;51;127;piano
680.125000;0.248958;39;120;piano
680.125000;0.248958;51;120;piano
680.375000;0.248958;40;127;piano
680.375000;0.248958;52;127;piano
680.625000;0.248958;41;127;piano
680.625000;0.248958;53;127;piano
680.875000;0.248958;42;127;piano
680.875000;0.248958;54;127;piano
681.125000;0.248958;43;127;piano
681.125000;0.248958;55;127;piano
681.375000;0.248958;40;127;piano
681.375000;0.248958;52;127;piano
681.625000;0.248958;37;127;piano
681.625000;0.248958;49;127;piano
681.875000;0.248958;45;108;piano
681.875000;0.248958;57;108;piano
682.125000;0.498958;38;127;piano
682.125000;0.498958;50;127;piano
682.458333;0.165625;62;76;piano
682.458333;0.165625;67;76;piano
682.791667;0.165625;57;76;piano
682.791667;0.165625;66;76;piano
683.125000;0.498958;42;96;piano
683.458333;0.165625;58;76;piano
683.458333;0.165625;64;76;piano
683.791667;0.165625;54;76;piano
683.791667;0.165625;62;76;piano
684.125000;0.498958;43;96;piano
684.458333;0.165625;55;96;piano
684.458333;0.165625;61;96;piano
684.791667;0.165625;51;76;piano
684.791667;0.165625;59;76;piano
685.125000;0.498958;40;96;piano
685.458333;0.165625;52;96;piano
685.458333;0.165625;57;96;piano
685.791667;0.165625;47;76;piano
685.791667;0.165625;55;76;piano
686.125000;0.498958;33;120;piano
686.125000;0.498958;45;120;piano
686.458333;0.165625;50;96;piano
686.458333;0.165625;55;96;piano
686.791667;0.165625;45;76;piano
686.791667;0.165625;54;76;piano
687.125000;0.165625;59;96;piano
687.458333;0.165625;50;96;piano
687.458333;0.165625;54;96;piano
687.791667;0.165625;45;76;piano
687.791667;0.165625;57;76;piano
688.125000;0.498958;33;120;piano
688.125000;0.498958;45;120;piano
688.458333;0.165625;50;96;piano
688.458333;0.165625;55;96;piano
688.791667;0.165625;45;76;piano
688.791667;0.165625;54;76;piano
689.125000;0.165625;59;96;piano
689.458333;0.165625;50;96;piano
689.458333;0.165625;54;96;piano
689.791667;0.165625;45;76;piano
689.791667;0.165625;57;76;piano
690.125000;0.498958;38;96;piano
690.125000;0.498958;50;96;piano
690.458333;0.165625;62;96;piano
690.458333;0.165625;67;96;piano
690.791667;0.165625;57;78;piano
690.791667;0.165625;66;78;piano
691.125000;0.498958;42;99;piano
691.458333;0.165625;58;99;piano
691.458333;0.165625;64;99;piano
691.791667;0.165625;54;80;piano
691.791667;0.165625;62;80;piano
692.125000;0.498958;43;102;piano
692.458333;0.165625;55;103;piano
692.458333;0.165625;61;103;piano
692.791667;0.165625;51;84;piano
692.791667;0.165625;59;84;piano
693.125000;0.498958;40;105;piano
693.458333;0.165625;52;106;piano
693.458333;0.165625;57;106;piano
693.791667;0.165625;47;86;piano
693.791667;0.165625;55;86;piano
694.125000;0.498958;33;109;piano
694.125000;0.498958;45;109;piano
694.458333;0.165625;50;111;piano
694.458333;0.165625;55;111;piano
694.791667;0.165625;45;88;piano
694.791667;0.165625;54;88;piano
695.125000;0.165625;59;112;piano
695.458333;0.165625;50;114;piano
695.458333;0.165625;54;114;piano
695.791667;0.165625;45;92;piano
695.791667;0.165625;57;92;piano
696.125000;0.498958;33;117;piano
696.125000;0.498958;45;117;piano
696.458333;0.165625;50;118;piano
696.458333;0.165625;55;118;piano
696.791667;0.165625;45;94;piano
696.791667;0.165625;54;94;piano
697.125000;0.165625;59;120;piano
697.458333;0.165625;50;121;piano
697.458333;0.165625;54;121;piano
697.791667;0.165625;45;98;piano
697.791667;0.165625;57;98;piano
698.125000;0.498958;38;124;piano
698.125000;0.498958;50;124;piano
698.458333;0.165625;62;124;piano
698.458333;0.165625;67;124;piano
698.791667;0.165625;57;126;piano
698.791667;0.165625;66;126;piano
699.125000;0.498958;42;127;piano
699.458333;0.165625;58;127;piano
699.458333;0.165625;64;127;piano
699.791667;0.165625;54;127;piano
699.791667;0.165625;62;127;piano
700.125000;0.498958;43;127;piano
700.458333;0.165625;55;127;piano
700.458333;0.165625;61;127;piano
700.791667;0.165625;51;127;piano
700.791667;0.165625;59;127;piano
701.125000;0.498958;40;127;piano
701.458333;0.165625;52;127;piano
701.458333;0.165625;57;127;piano
701.791667;0.165625;47;127;piano
701.791667;0.165625;55;127;piano
702.125000;0.498958;33;127;piano
702.125000;0.498958;45;127;piano
702.458333;0.165625;50;127;piano
702.458333;0.165625;54;127;piano
702.791667;0.165625;52;127;piano
702.791667;0.165625;55;127;piano
703.125000;0.165625;53;127;piano
703.125000;0.165625;56;127;piano
703.458333;0.165625;45;127;piano
703.791667;0.165625;54;127;piano
703.791667;0.165625;57;127;piano
704.125000;0.498958;45;127;piano
704.458333;0.165625;50;127;piano
704.458333;0.165625;53;127;piano
704.458333;0.165625;58;127;piano
704.791667;0.165625;51;127;piano
704.791667;0.165625;54;127;piano
704.791667;0.165625;59;127;piano
705.125000;0.498958;45;127;piano
705.458333;0.165625;52;127;piano
705.458333;0.165625;55;127;piano
705.458333;0.165625;60;127;piano
705.791667;0.165625;53;127;piano
705.791667;0.165625;56;127;piano
705.791667;0.165625;61;127;piano
706.125000;0.165625;54;127;piano
706.125000;0.165625;57;127;piano
706.125000;0.165625;62;127;piano
706.458333;0.165625;55;127;piano
706.458333;0.165625;58;127;piano
706.458333;0.165625;63;127;piano
706.791667;0.165625;56;127;piano
706.791667;0.165625;59;127;piano
706.791667;0.165625;64;127;piano
707.125000;0.165625;57;127;piano
707.125000;0.165625;60;127;piano
707.125000;0.165625;65;127;piano
707.458333;0.165625;58;127;piano
707.458333;0.165625;61;127;piano
707.458333;0.165625;66;127;piano
707.791667;0.165625;59;127;piano
707.791667;0.165625;62;127;piano
707.791667;0.165625;67;127;piano
708.125000;0.165625;60;127;piano
708.125000;0.165625;63;127;piano
708.125000;0.165625;68;127;piano
708.458333;0.165625;61;127;piano
708.458333;0.165625;64;127;piano
708.458333;0.165625;69;127;piano
708.791667;0.165625;62;127;piano
708.791667;0.165625;65;127;piano
708.791667;0.165625;70;127;piano
709.125000;0.165625;57;127;piano
709.125000;0.165625;63;127;piano
709.125000;0.165625;66;127;piano
709.125000;0.165625;71;127;piano
709.458333;0.165625;57;127;piano
709.458333;0.165625;64;127;piano
709.458333;0.165625;67;127;piano
709.458333;0.165625;72;127;piano
709.791667;0.165625;57;127;piano
709.791667;0.165625;64;127;piano
709.791667;0.165625;67;127;piano
709.791667;0.165625;73;127;piano
710.125000;0.123958;38;73;piano
710.125000;0.123958;50;73;piano
710.500000;0.123958;39;79;piano
710.500000;0.123958;51;79;piano
710.625000;0.123958;39;81;piano
710.625000;0.123958;51;81;piano
711.000000;0.123958;38;87;piano
711.000000;0.123958;50;87;piano
711.125000;0.123958;38;88;piano
711.125000;0.123958;50;88;piano
711.500000;0.123958;37;96;piano
711.500000;0.123958;49;96;piano
711.625000;0.123958;37;96;piano
711.625000;0.123958;49;96;piano
712.000000;0.123958;36;97;piano
712.000000;0.123958;48;97;piano
712.125000;0.123958;36;99;piano
712.125000;0.123958;48;99;piano
712.500000;0.123958;35;103;piano
712.500000;0.123958;47;103;piano
712.625000;0.123958;35;105;piano
712.625000;0.123958;47;105;piano
713.000000;0.123958;34;109;piano
713.000000;0.123958;46;109;piano
713.125000;0.123958;34;111;piano
713.125000;0.123958;46;111;piano
713.500000;0.123958;33;115;piano
713.500000;0.123958;45;115;piano
713.625000;0.123958;33;117;piano
713.625000;0.123958;45;117;piano
714.000000;0.123958;31;120;piano
714.000000;0.123958;43;120;piano
714.125000;0.123958;38;121;piano
714.125000;0.123958;50;121;piano
714.500000;0.123958;39;126;piano
714.500000;0.123958;51;126;piano
714.625000;0.123958;39;127;piano
714.625000;0.123958;51;127;piano
715.000000;0.123958;38;127;piano
715.000000;0.123958;50;127;piano
715.125000;0.123958;38;127;piano
715.125000;0.123958;50;127;piano
715.500000;0.123958;37;127;piano
715.500000;0.123958;49;127;piano
715.625000;0.123958;37;127;piano
715.625000;0.123958;49;127;piano
716.000000;0.123958;36;127;piano
716.000000;0.123958;48;127;piano
716.125000;0.123958;36;127;piano
716.125000;0.123958;48;127;piano
716.500000;0.123958;35;127;piano
716.500000;0.123958;47;127;piano
716.625000;0.123958;35;127;piano
716.625000;0.123958;47;127;piano
717.000000;0.123958;34;127;piano
717.000000;0.123958;46;127;piano
717.125000;0.123958;34;127;piano
717.125000;0.123958;46;127;piano
717.500000;0.123958;33;127;piano
717.500000;0.123958;45;127;piano
717.625000;0.123958;33;127;piano
717.625000;0.123958;45;127;piano
718.000000;0.123958;31;127;piano
718.000000;0.123958;43;127;piano
718.125000;0.123958;38;127;piano
718.125000;0.123958;50;127;piano
718.500000;0.123958;39;127;piano
718.500000;0.123958;51;127;piano
718.625000;0.123958;39;127;piano
718.625000;0.123958;51;127;piano
719.000000;0.123958;38;127;piano
719.000000;0.123958;50;127;piano
719.125000;0.123958;38;127;piano
719.125000;0.123958;50;127;piano
719.500000;0.123958;37;127;piano
719.500000;0.123958;49;127;piano
719.625000;0.123958;37;127;piano
719.625000;0.123958;49;127;piano
720.000000;0.123958;36;127;piano
720.000000;0.123958;48;127;piano
720.125000;0.123958;36;127;piano
720.125000;0.123958;48;127;piano
720.500000;0.123958;35;127;piano
720.500000;0.123958;47;127;piano
720.625000;0.123958;35;127;piano
720.625000;0.123958;47;127;piano
721.000000;0.123958;34;127;piano
721.000000;0.123958;46;127;piano
721.125000;0.123958;34;127;piano
721.125000;0.123958;46;127;piano
721.500000;0.123958;33;127;piano
721.500000;0.123958;45;127;piano
721.625000;0.123958;33;127;piano
721.625000;0.123958;45;127;piano
722.000000;0.123958;32;127;piano
722.000000;0.123958;44;127;piano
722.125000;0.123958;32;127;piano
722.125000;0.123958;44;127;piano
722.500000;0.123958;31;127;piano
722.500000;0.123958;43;127;piano
722.625000;0.123958;31;127;piano
722.625000;0.123958;43;127;piano
723.000000;0.123958;30;127;piano
723.000000;0.123958;42;127;piano
723.125000;0.123958;30;127;piano
723.125000;0.123958;42;127;piano
723.500000;0.123958;29;127;piano
723.500000;0.123958;41;127;piano
723.625000;0.123958;29;127;piano
723.625000;0.123958;41;127;piano
724.000000;0.123958;28;127;piano
724.000000;0.123958;40;127;piano
724.125000;0.123958;28;127;piano
724.125000;0.123958;40;127;piano
724.500000;0.123958;27;127;piano
724.500000;0.123958;39;127;piano
724.625000;0.123958;27;127;piano
724.625000;0.123958;39;127;piano
725.000000;0.123958;27;127;piano
725.000000;0.123958;39;127;piano
725.125000;0.123958;27;127;piano
725.125000;0.123958;39;127;piano
725.500000;0.123958;27;127;piano
725.500000;0.123958;39;127;piano
725.625000;0.123958;27;127;piano
725.625000;0.123958;39;127;piano
726.000000;0.123958;27;127;piano
726.000000;0.123958;39;127;piano
726.125000;0.998958;26;127;piano
726.125000;0.998958;38;127;piano
727.125000;0.063542;50;127;piano
727.125000;0.063542;54;127;piano
727.125000;0.063542;57;127;piano
727.125000;0.063542;62;127;piano
727.189583;0.433333;50;127;piano
727.189583;0.433333;54;127;piano
727.189583;0.433333;57;127;piano
727.189583;0.433333;62;127;piano
727.625000;0.498958;62;127;piano
727.625000;0.498958;66;127;piano
727.625000;0.498958;69;127;piano
727.625000;0.498958;74;127;piano
728.125000;0.998958;36;127;piano
728.125000;0.998958;40;127;piano
728.125000;0.998958;43;127;piano
728.125000;0.998958;48;127;piano
729.125000;0.063542;52;127;piano
729.125000;0.063542;55;127;piano
729.125000;0.063542;60;127;piano
729.125000;0.063542;64;127;piano
729.189583;0.433333;52;127;piano
729.189583;0.433333;55;127;piano
729.189583;0.433333;60;127;piano
729.189583;0.433333;64;127;piano
729.625000;0.498958;64;127;piano
729.625000;0.498958;67;127;piano
729.625000;0.498958;72;127;piano
729.625000;0.498958;76;127;piano
730.125000;0.998958;34;127;piano
730.125000;0.998958;38;127;piano
730.125000;0.998958;41;127;piano
730.125000;0.998958;46;127;piano
731.125000;0.061458;53;127;piano
731.125000;0.061458;58;127;piano
731.125000;0.061458;62;127;piano
731.125000;0.061458;65;127;piano
731.187500;0.435417;53;127;piano
731.187500;0.435417;58;127;piano
731.187500;0.435417;62;127;piano
731.187500;0.435417;65;127;piano
731.625000;0.498958;65;127;piano
731.625000;0.498958;70;127;piano
731.625000;0.498958;74;127;piano
731.625000;0.498958;77;127;piano
732.125000;0.998958;32;127;piano
732.125000;0.998958;36;127;piano
732.125000;0.998958;39;127;piano
732.125000;0.998958;44;127;piano
733.125000;0.060417;56;127;piano
733.125000;0.060417;60;127;piano
733.125000;0.060417;63;127;piano
733.125000;0.060417;68;127;piano
733.186458;0.436458;56;127;piano
733.186458;0.436458;60;127;piano
733.186458;0.436458;63;127;piano
733.186458;0.436458;68;127;piano
733.625000;0.498958;68;127;piano
733.625000;0.498958;72;127;piano
733.625000;0.498958;75;127;piano
733.625000;0.498958;80;127;piano
734.125000;0.998958;30;127;piano
734.125000;0.998958;34;127;piano
734.125000;0.998958;37;127;piano
734.125000;0.998958;42;127;piano
735.125000;0.046875;58;127;piano
735.125000;0.046875;61;127;piano
735.125000;0.046875;66;127;piano
735.125000;0.046875;70;127;piano
735.172917;0.450000;58;127;piano
735.172917;0.450000;61;127;piano
735.172917;0.450000;66;127;piano
735.172917;0.450000;70;127;piano
735.625000;0.498958;70;127;piano
735.625000;0.498958;73;127;piano
735.625000;0.498958;78;127;piano
735.625000;0.498958;82;127;piano
737.000000;0.123958;49;127;piano
737.125000;0.873958;49;127;piano
738.000000;0.123958;42;127;piano
738.125000;0.998958;42;127;piano
739.125000;0.948958;35;126;piano
739.125000;0.948958;38;126;piano
739.125000;0.948958;42;126;piano
739.125000;0.948958;47;126;piano
740.125000;0.998958;31;127;piano
740.125000;0.998958;35;127;piano
740.125000;0.998958;38;127;piano
740.125000;0.998958;43;127;piano
741.125000;0.998958;28;127;piano
741.125000;0.998958;31;127;piano
741.125000;0.998958;35;127;piano
741.125000;0.998958;40;127;piano
742.125000;0.000000;26;96;piano
742.125000;0.000000;30;96;piano
742.125000;0.000000;33;96;piano
742.187500;0.057292;38;96;piano
742.125000;0.125000;26;120;piano
742.125000;0.125000;30;120;piano
742.125000;0.125000;33;120;piano
742.312500;0.057292;38;96;piano
742.250000;0.125000;26;96;piano
742.250000;0.125000;30;96;piano
742.250000;0.125000;33;96;piano
742.437500;0.057292;38;96;piano
742.375000;0.125000;26;96;piano
742.375000;0.125000;30;96;piano
742.375000;0.125000;33;96;piano
742.562500;0.057292;38;96;piano
742.500000;0.125000;26;96;piano
742.500000;0.125000;30;96;piano
742.500000;0.125000;33;96;piano
742.687500;0.057292;38;96;piano
742.625000;0.125000;26;96;piano
742.625000;0.125000;30;96;piano
742.625000;0.125000;33;96;piano
742.812500;0.057292;38;96;piano
742.750000;0.125000;26;96;piano
742.750000;0.125000;30;96;piano
742.750000;0.125000;33;96;piano
742.937500;0.057292;38;96;piano
742.875000;0.125000;26;96;piano
742.875000;0.125000;30;96;piano
742.875000;0.125000;33;96;piano
743.062500;0.057292;38;96;piano
743.000000;0.125000;26;96;piano
743.000000;0.125000;30;96;piano
743.000000;0.125000;33;96;piano
743.187500;0.057292;38;96;piano
743.125000;0.125000;26;96;piano
743.125000;0.125000;30;96;piano
743.125000;0.125000;33;96;piano
743.312500;0.057292;38;96;piano
743.250000;0.125000;26;96;piano
743.250000;0.125000;30;96;piano
743.250000;0.125000;33;96;piano
743.437500;0.057292;38;96;piano
743.375000;0.125000;26;96;piano
743.375000;0.125000;30;96;piano
743.375000;0.125000;33;96;piano
743.562500;0.057292;38;96;piano
743.500000;0.125000;26;96;piano
743.500000;0.125000;30;96;piano
743.500000;0.125000;33;96;piano
743.687500;0.057292;38;96;piano
743.625000;0.125000;26;96;piano
743.625000;0.125000;30;96;piano
743.625000;0.125000;33;96;piano
743.812500;0.057292;38;96;piano
743.750000;0.125000;26;96;piano
743.750000;0.125000;30;96;piano
743.750000;0.125000;33;96;piano
743.937500;0.057292;38;96;piano
743.875000;0.125000;26;96;piano
743.875000;0.125000;30;96;piano
743.875000;0.125000;33;96;piano
744.062500;0.057292;38;96;piano
744.000000;0.123958;26;96;piano
744.000000;0.123958;30;96;piano
744.000000;0.123958;33;96;piano
744.125000;0.057292;26;96;piano
744.125000;0.057292;30;96;piano
744.125000;0.057292;33;96;piano
744.187500;0.057292;38;96;piano
744.250000;0.057292;26;96;piano
744.250000;0.057292;30;96;piano
744.250000;0.057292;33;96;piano
744.312500;0.057292;38;96;piano
744.375000;0.057292;26;96;piano
744.375000;0.057292;30;96;piano
744.375000;0.057292;33;96;piano
744.437500;0.057292;38;96;piano
744.500000;0.057292;26;96;piano
744.500000;0.057292;30;96;piano
744.500000;0.057292;33;96;piano
744.562500;0.057292;38;96;piano
744.625000;0.057292;26;96;piano
744.625000;0.057292;30;96;piano
744.625000;0.057292;33;96;piano
744.687500;0.057292;38;96;piano
744.750000;0.057292;26;96;piano
744.750000;0.057292;30;96;piano
744.750000;0.057292;33;96;piano
744.812500;0.057292;38;96;piano
744.875000;0.057292;26;96;piano
744.875000;0.057292;30;96;piano
744.875000;0.057292;33;96;piano
744.937500;0.057292;38;96;piano
745.000000;0.057292;26;96;piano
745.000000;0.057292;30;96;piano
745.000000;0.057292;33;96;piano
745.062500;0.057292;38;96;piano
745.125000;0.057292;26;96;piano
745.125000;0.057292;30;96;piano
745.125000;0.057292;33;96;piano
745.187500;0.057292;38;96;piano
745.250000;0.057292;26;96;piano
745.250000;0.057292;30;96;piano
745.250000;0.057292;33;96;piano
745.312500;0.057292;38;96;piano
745.375000;0.057292;26;96;piano
745.375000;0.057292;30;96;piano
745.375000;0.057292;33;96;piano
745.437500;0.057292;38;96;piano
745.500000;0.057292;26;96;piano
745.500000;0.057292;30;96;piano
745.500000;0.057292;33;96;piano
745.562500;0.057292;38;96;piano
745.625000;0.057292;26;96;piano
745.625000;0.057292;30;96;piano
745.625000;0.057292;33;96;piano
745.687500;0.057292;38;96;piano
745.750000;0.057292;26;96;piano
745.750000;0.057292;30;96;piano
745.750000;0.057292;33;96;piano
745.812500;0.057292;38;96;piano
745.875000;0.057292;26;96;piano
745.875000;0.057292;30;96;piano
745.875000;0.057292;33;96;piano
745.937500;0.057292;38;96;piano
746.000000;0.057292;26;96;piano
746.000000;0.057292;30;96;piano
746.000000;0.057292;33;96;piano
746.062500;0.057292;38;96;piano
746.125000;0.057292;26;96;piano
746.125000;0.057292;30;96;piano
746.125000;0.057292;33;96;piano
746.187500;0.057292;38;96;piano
746.250000;0.057292;26;96;piano
746.250000;0.057292;30;96;piano
746.250000;0.057292;33;96;piano
746.312500;0.057292;38;96;piano
746.375000;0.057292;26;96;piano
746.375000;0.057292;30;96;piano
746.375000;0.057292;33;96;piano
746.437500;0.057292;38;96;piano
746.500000;0.057292;26;96;piano
746.500000;0.057292;30;96;piano
746.500000;0.057292;33;96;piano
746.562500;0.057292;38;96;piano
746.625000;0.057292;26;96;piano
746.625000;0.057292;30;96;piano
746.625000;0.057292;33;96;piano
746.687500;0.057292;38;96;piano
746.750000;0.057292;26;96;piano
746.750000;0.057292;30;96;piano
746.750000;0.057292;33;96;piano
746.812500;0.057292;38;96;piano
746.875000;0.057292;26;96;piano
746.875000;0.057292;30;96;piano
746.875000;0.057292;33;96;piano
746.937500;0.057292;38;96;piano
747.000000;0.057292;26;96;piano
747.000000;0.057292;30;96;piano
747.000000;0.057292;33;96;piano
747.062500;0.057292;38;96;piano
747.125000;0.057292;26;96;piano
747.125000;0.057292;30;96;piano
747.125000;0.057292;33;96;piano
747.187500;0.057292;38;96;piano
747.250000;0.057292;26;96;piano
747.250000;0.057292;30;96;piano
747.250000;0.057292;33;96;piano
747.312500;0.057292;38;96;piano
747.375000;0.057292;26;96;piano
747.375000;0.057292;30;96;piano
747.375000;0.057292;33;96;piano
747.437500;0.057292;38;96;piano
747.500000;0.057292;26;96;piano
747.500000;0.057292;30;96;piano
747.500000;0.057292;33;96;piano
747.562500;0.057292;38;96;piano
747.625000;0.057292;26;96;piano
747.625000;0.057292;30;96;piano
747.625000;0.057292;33;96;piano
747.687500;0.057292;38;96;piano
747.750000;0.057292;26;96;piano
747.750000;0.057292;30;96;piano
747.750000;0.057292;33;96;piano
747.812500;0.057292;38;96;piano
747.875000;0.057292;26;96;piano
747.875000;0.057292;30;96;piano
747.875000;0.057292;33;96;piano
747.937500;0.057292;38;96;piano
748.000000;0.057292;26;96;piano
748.000000;0.057292;30;96;piano
748.000000;0.057292;33;96;piano
748.062500;0.057292;38;96;piano
748.125000;0.057292;26;96;piano
748.125000;0.057292;30;96;piano
748.125000;0.057292;33;96;piano
748.187500;0.057292;38;96;piano
748.250000;0.057292;26;96;piano
748.250000;0.057292;30;96;piano
748.250000;0.057292;33;96;piano
748.312500;0.057292;38;96;piano
748.375000;0.057292;26;96;piano
748.375000;0.057292;30;96;piano
748.375000;0.057292;33;96;piano
748.437500;0.057292;38;96;piano
748.500000;0.057292;26;96;piano
748.500000;0.057292;30;96;piano
748.500000;0.057292;33;96;piano
748.562500;0.057292;38;96;piano
748.625000;0.057292;26;96;piano
748.625000;0.057292;30;96;piano
748.625000;0.057292;33;96;piano
748.687500;0.057292;38;96;piano
748.750000;0.057292;26;96;piano
748.750000;0.057292;30;96;piano
748.750000;0.057292;33;96;piano
748.812500;0.057292;38;96;piano
748.875000;0.057292;26;96;piano
748.875000;0.057292;30;96;piano
748.875000;0.057292;33;96;piano
748.937500;0.057292;38;96;piano
749.000000;0.057292;26;96;piano
749.000000;0.057292;30;96;piano
749.000000;0.057292;33;96;piano
749.062500;0.057292;38;96;piano
749.125000;0.000000;26;96;piano
749.125000;0.000000;30;96;piano
749.125000;0.000000;33;96;piano
749.187500;0.057292;38;96;piano
749.125000;0.125000;26;120;piano
749.125000;0.125000;30;120;piano
749.125000;0.125000;33;120;piano
749.312500;0.057292;38;96;piano
749.250000;0.125000;26;96;piano
749.250000;0.125000;30;96;piano
749.250000;0.125000;33;96;piano
749.437500;0.057292;38;96;piano
749.375000;0.125000;26;96;piano
749.375000;0.125000;30;96;piano
749.375000;0.125000;33;96;piano
749.562500;0.057292;38;96;piano
749.500000;0.125000;26;96;piano
749.500000;0.125000;30;96;piano
749.500000;0.125000;33;96;piano
749.687500;0.057292;38;96;piano
749.625000;0.125000;26;96;piano
749.625000;0.125000;30;96;piano
749.625000;0.125000;33;96;piano
749.812500;0.057292;38;96;piano
749.750000;0.125000;26;96;piano
749.750000;0.125000;30;96;piano
749.750000;0.125000;33;96;piano
749.937500;0.057292;38;96;piano
749.875000;0.125000;26;96;piano
749.875000;0.125000;30;96;piano
749.875000;0.125000;33;96;piano
750.062500;0.057292;38;96;piano
750.000000;0.123958;26;96;piano
750.000000;0.123958;30;96;piano
750.000000;0.123958;33;96;piano
750.125000;1.998958;26;120;piano
750.125000;1.998958;33;120;piano
750.125000;1.998958;38;120;piano
